<?xml version="1.0" encoding="utf-8"?>
<!-- Generator: Adobe Illustrator 27.5.0, SVG Export Plug-In . SVG Version: 6.00 Build 0)  -->
<svg version="1.1" xmlns="http://www.w3.org/2000/svg" xmlns:xlink="http://www.w3.org/1999/xlink" x="0px" y="0px"
	 viewBox="0 0 500 500" style="enable-background:new 0 0 500 500;" xml:space="preserve">
<g id="Floor">
	<g>
		<path style="fill:#F0F0F0;" d="M405.317,264.642c86.338,48.845,86.793,128.039,1.016,176.885
			c-85.777,48.846-225.306,48.846-311.644,0.001C8.344,392.68,7.889,313.485,93.666,264.64S318.972,215.794,405.317,264.642z"/>
	</g>
</g>
<g id="Clouds">
	<g>
		<path style="fill:#E6E6E6;" d="M122.944,50.398c-4.676,2.7-8.714,8.135-10.652,13.769c-1.071,0.097-2.245,0.488-3.479,1.2
			c-0.247,0.143-0.497,0.299-0.749,0.467c-3.941,2.64-7.243,7.939-8.013,12.848c-0.238,1.519-0.219,2.852-0.007,3.991
			c0.039,0.214-0.112,0.525-0.324,0.648l-4.817,2.781c-2.105,1.215-3.805,4.16-3.798,6.579c0.007,2.419,1.718,3.394,3.823,2.179
			l47.125-27.208c2.105-1.215,3.805-4.159,3.798-6.579c-0.007-2.419-1.718-3.394-3.823-2.179l-7.717,4.455
			c-0.236,0.136-0.398-0.045-0.309-0.344c0.705-2.37,1.027-4.749,0.854-6.948c-0.506-6.376-5.23-9.004-11.034-6.131
			C123.526,50.074,123.234,50.231,122.944,50.398z"/>
	</g>
	<g>
		<path style="fill:#E6E6E6;" d="M86.109,44.403c-3.228,1.864-6.014,5.615-7.353,9.503c-0.739,0.067-1.55,0.337-2.401,0.828
			c-0.171,0.099-0.343,0.206-0.517,0.323c-2.72,1.822-4.999,5.48-5.531,8.868c-0.164,1.049-0.151,1.969-0.005,2.755
			c0.027,0.148-0.077,0.363-0.224,0.447l-3.325,1.92c-1.453,0.839-2.626,2.871-2.622,4.541c0.005,1.67,1.186,2.343,2.639,1.504
			l32.527-18.779c1.453-0.839,2.626-2.871,2.622-4.541c-0.005-1.67-1.186-2.343-2.639-1.504l-5.326,3.075
			c-0.163,0.094-0.275-0.031-0.213-0.237c0.487-1.636,0.709-3.278,0.589-4.796c-0.349-4.401-3.61-6.214-7.616-4.231
			C86.511,44.179,86.31,44.287,86.109,44.403z"/>
	</g>
</g>
<g id="Shadows">
	<g>
		<path style="fill:#E0E0E0;" d="M107.268,377.077l13.87,8.301c2.152,1.288,4.809,1.287,6.96-0.001l112.768-67.521
			c1.531-0.917,1.531-3.194-0.001-4.11l-13.87-8.3c-2.152-1.288-4.809-1.287-6.96,0.001l-112.768,67.521
			C105.737,373.883,105.737,376.16,107.268,377.077z"/>
	</g>
	<g>
		<path style="fill:#E0E0E0;" d="M369.762,356.764c23.301,13.453,23.424,35.265,0.274,48.718c-23.15,13.453-60.806,13.453-84.108,0
			c-23.303-13.454-23.426-35.266-0.276-48.719C308.802,343.31,346.458,343.31,369.762,356.764z"/>
	</g>
</g>
<g id="Plants">
	<g>
		<path style="fill:#BA68C8;" d="M93.182,303.477c-2.573-2.461-5.519-5.15-5.701-8.707c-0.162-3.169,2.162-6.143,5.121-7.288
			c2.959-1.145,6.368-0.672,9.229,0.702c2.86,1.374,5.243,3.57,7.387,5.91c12.534,13.68,17.903,33.59,13.945,51.717
			c-0.262,1.199-0.664,2.526-1.748,3.101c-1.72,0.912-3.679-0.69-4.853-2.242c-2.561-3.385-4.498-7.238-5.711-11.305
			c-1.027-3.441-0.565-7.247-1.862-10.497C105.81,316.904,99.301,309.33,93.182,303.477z"/>
		<path style="fill:#BA68C8;" d="M93.182,303.477c-2.573-2.461-5.519-5.15-5.701-8.707c-0.162-3.169,2.162-6.143,5.121-7.288
			c2.959-1.145,6.368-0.672,9.229,0.702c2.86,1.374,5.243,3.57,7.387,5.91c12.534,13.68,17.903,33.59,13.945,51.717
			c-0.262,1.199-0.664,2.526-1.748,3.101c-1.72,0.912-3.679-0.69-4.853-2.242c-2.561-3.385-4.498-7.238-5.711-11.305
			c-1.027-3.441-0.565-7.247-1.862-10.497C105.81,316.904,99.301,309.33,93.182,303.477z"/>
		<g>
			<path style="fill:#FFFFFF;" d="M119.925,344.256h-0.002c-0.379-0.001-0.684-0.308-0.684-0.687
				c0.035-19.793-9.614-39.685-25.179-51.912c-0.299-0.234-0.35-0.665-0.116-0.963c0.234-0.298,0.665-0.347,0.963-0.115
				c15.89,12.482,25.738,32.787,25.704,52.993C120.61,343.95,120.302,344.256,119.925,344.256z"/>
		</g>
		<path style="fill:#BA68C8;" d="M111.494,371.538c-4.336,1.395-9.768,0.485-12.277-3.316c-2.948-4.466-1.103-11.343-5.056-14.95
			c-2.21-2.017-5.457-2.217-8.387-2.823s-6.188-2.225-6.623-5.185c-0.577-3.929,4.243-7.182,3.564-11.095
			c-0.667-3.849-5.99-5.063-7.562-8.638c-1.435-3.263,1.101-7.214,4.452-8.43c3.351-1.215,7.091-0.381,10.434,0.857
			c3.343,1.238,6.596,2.883,10.133,3.319c3.678,0.452,7.935-0.27,10.641,2.262c3.614,3.382,1.546,9.83,4.342,13.914
			c1.871,2.734,5.402,3.685,8.102,5.604c3.371,2.396,5.446,6.516,5.363,10.651c-0.09,4.493-2.454,7.738-5.846,10.326
			C119.17,366.784,115.95,370.105,111.494,371.538z"/>
		<path style="opacity:0.3;" d="M111.494,371.538c-4.336,1.395-9.768,0.485-12.277-3.316c-2.948-4.466-1.103-11.343-5.056-14.95
			c-2.21-2.017-5.457-2.217-8.387-2.823s-6.188-2.225-6.623-5.185c-0.577-3.929,4.243-7.182,3.564-11.095
			c-0.667-3.849-5.99-5.063-7.562-8.638c-1.435-3.263,1.101-7.214,4.452-8.43c3.351-1.215,7.091-0.381,10.434,0.857
			c3.343,1.238,6.596,2.883,10.133,3.319c3.678,0.452,7.935-0.27,10.641,2.262c3.614,3.382,1.546,9.83,4.342,13.914
			c1.871,2.734,5.402,3.685,8.102,5.604c3.371,2.396,5.446,6.516,5.363,10.651c-0.09,4.493-2.454,7.738-5.846,10.326
			C119.17,366.784,115.95,370.105,111.494,371.538z"/>
		<path style="fill:#FFFFFF;" d="M109.541,340.827c-0.017-0.024-0.031-0.048-0.051-0.069c-0.649-0.939-1.32-1.863-2.034-2.753
			c-6.328-7.894-15.171-13.776-24.896-16.561c-0.372-0.108-0.744,0.106-0.848,0.47c-0.104,0.364,0.106,0.744,0.47,0.848
			c9.455,2.708,18.051,8.426,24.205,16.101c0.194,0.243,0.365,0.504,0.554,0.75c-7.759-2.855-15.677-1.234-19.897,2.168
			c-0.295,0.238-0.341,0.669-0.104,0.964c0.135,0.168,0.335,0.255,0.534,0.255c0.151,0,0.304-0.05,0.43-0.152
			c4.179-3.365,12.804-4.868,20.63-1.08c4.865,7.132,7.789,15.605,8.303,24.223c0.021,0.364,0.324,0.645,0.684,0.645
			c0.013,0,0.027-0.001,0.042-0.001c0.378-0.023,0.665-0.347,0.643-0.725C117.671,356.976,114.615,348.198,109.541,340.827z"/>
	</g>
	<g>
		<path style="fill:#BA68C8;" d="M374.709,325.403c2.088-1.997,4.478-4.179,4.625-7.064c0.131-2.571-1.754-4.984-4.155-5.913
			c-2.401-0.929-5.167-0.545-7.487,0.57c-2.321,1.114-4.254,2.897-5.993,4.795c-10.169,11.099-14.525,27.252-11.314,41.959
			c0.212,0.972,0.538,2.05,1.418,2.516c1.396,0.74,2.985-0.56,3.938-1.819c2.078-2.746,3.649-5.872,4.634-9.172
			c0.833-2.792,0.458-5.88,1.511-8.517C364.464,336.297,369.745,330.152,374.709,325.403z"/>
		<g>
			<path style="fill:#FFFFFF;" d="M353.013,358.488h0.001c0.307-0.001,0.555-0.25,0.555-0.557
				c-0.028-16.058,7.8-32.197,20.428-42.117c0.242-0.19,0.283-0.539,0.094-0.781c-0.19-0.242-0.54-0.282-0.781-0.093
				c-12.892,10.126-20.882,26.6-20.854,42.993C352.456,358.239,352.706,358.488,353.013,358.488z"/>
		</g>
		<path style="fill:#BA68C8;" d="M359.852,380.622c3.518,1.131,7.925,0.393,9.96-2.69c2.392-3.623,0.895-9.203,4.102-12.129
			c1.793-1.636,4.428-1.799,6.805-2.29c2.377-0.491,5.02-1.805,5.373-4.206c0.469-3.188-3.443-5.827-2.892-9.001
			c0.542-3.123,4.86-4.107,6.136-7.008c1.164-2.647-0.893-5.853-3.612-6.839c-2.719-0.986-5.753-0.309-8.465,0.695
			c-2.712,1.004-5.351,2.339-8.221,2.692c-2.984,0.367-6.438-0.219-8.633,1.835c-2.932,2.744-1.254,7.975-3.523,11.288
			c-1.518,2.218-4.383,2.99-6.573,4.547c-2.735,1.944-4.418,5.286-4.351,8.641c0.073,3.646,1.991,6.278,4.743,8.378
			C353.625,376.765,356.237,379.459,359.852,380.622z"/>
		<path style="opacity:0.3;" d="M359.852,380.622c3.518,1.131,7.925,0.393,9.96-2.69c2.392-3.623,0.895-9.203,4.102-12.129
			c1.793-1.636,4.428-1.799,6.805-2.29c2.377-0.491,5.02-1.805,5.373-4.206c0.469-3.188-3.443-5.827-2.892-9.001
			c0.542-3.123,4.86-4.107,6.136-7.008c1.164-2.647-0.893-5.853-3.612-6.839c-2.719-0.986-5.753-0.309-8.465,0.695
			c-2.712,1.004-5.351,2.339-8.221,2.692c-2.984,0.367-6.438-0.219-8.633,1.835c-2.932,2.744-1.254,7.975-3.523,11.288
			c-1.518,2.218-4.383,2.99-6.573,4.547c-2.735,1.944-4.418,5.286-4.351,8.641c0.073,3.646,1.991,6.278,4.743,8.378
			C353.625,376.765,356.237,379.459,359.852,380.622z"/>
		<path style="fill:#FFFFFF;" d="M361.437,355.705c0.014-0.019,0.025-0.039,0.041-0.056c0.527-0.762,1.071-1.511,1.65-2.234
			c5.134-6.405,12.308-11.176,20.199-13.436c0.302-0.087,0.604,0.086,0.688,0.381c0.085,0.295-0.086,0.603-0.381,0.688
			c-7.671,2.197-14.645,6.836-19.638,13.063c-0.158,0.197-0.296,0.409-0.45,0.609c6.295-2.316,12.719-1.001,16.143,1.759
			c0.239,0.193,0.277,0.543,0.085,0.782c-0.11,0.136-0.272,0.207-0.433,0.207c-0.123,0-0.247-0.04-0.349-0.123
			c-3.39-2.73-10.388-3.949-16.737-0.876c-3.947,5.786-6.319,12.66-6.737,19.652c-0.017,0.296-0.263,0.523-0.555,0.523
			c-0.011,0-0.022-0.001-0.034-0.001c-0.306-0.018-0.54-0.282-0.521-0.588C354.841,368.807,357.32,361.686,361.437,355.705z"/>
	</g>
</g>
<g id="Character">
	<g>
		<g>
			<g>
				<g>
					<path style="fill:#BA68C8;" d="M281.03,109.159c0.459-0.265,0.832-0.052,0.834,0.479l0.016,5.608
						c0.001,0.527-0.369,1.173-0.828,1.438c-0.462,0.267-0.835,0.051-0.837-0.477l-0.016-5.609
						C280.198,110.067,280.568,109.425,281.03,109.159z"/>
				</g>
				<g>
					<path style="fill:#BA68C8;" d="M270.331,119.823c0.237-0.137,0.473-0.157,0.639-0.026l3.15,2.484
						c0.298,0.235,0.252,0.866-0.098,1.41c-0.155,0.238-0.347,0.425-0.536,0.534c-0.237,0.137-0.474,0.157-0.64,0.024l-3.15-2.483
						c-0.295-0.237-0.252-0.866,0.101-1.409C269.952,120.116,270.142,119.932,270.331,119.823z"/>
				</g>
				<g>
					<path style="fill:#BA68C8;" d="M266.626,127.062c0.141-0.082,0.285-0.123,0.416-0.111l4.235,0.366
						c0.4,0.035,0.539,0.541,0.31,1.133c-0.152,0.395-0.434,0.727-0.722,0.893c-0.141,0.081-0.285,0.123-0.414,0.111l-4.238-0.36
						c-0.397-0.037-0.536-0.543-0.307-1.135C266.058,127.563,266.338,127.228,266.626,127.062z"/>
				</g>
				<g>
					<path style="fill:#BA68C8;" d="M270.898,140.965c0.288-0.166,0.569-0.156,0.725,0.063c0.232,0.325,0.096,0.991-0.302,1.483
						l-4.219,5.246c-0.132,0.162-0.273,0.285-0.414,0.367c-0.288,0.166-0.57,0.157-0.724-0.062
						c-0.232-0.325-0.096-0.987,0.299-1.481l4.222-5.248C270.614,141.171,270.757,141.047,270.898,140.965z"/>
				</g>
				<g>
					<path style="fill:#BA68C8;" d="M269.491,137.355c0.396-0.229,0.748-0.104,0.821,0.318c0.079,0.475-0.222,1.147-0.675,1.501
						l-4.803,3.747c-0.051,0.04-0.099,0.074-0.147,0.102c-0.396,0.229-0.748,0.104-0.821-0.32c-0.082-0.474,0.219-1.145,0.672-1.5
						l4.806-3.749C269.393,137.416,269.442,137.383,269.491,137.355z"/>
				</g>
				<g>
					<path style="fill:#BA68C8;" d="M291.752,107.456c0.189-0.109,0.379-0.145,0.535-0.083c0.355,0.133,0.402,0.711,0.109,1.287
						l-3.126,6.107c-0.164,0.323-0.401,0.577-0.638,0.714c-0.189,0.109-0.381,0.144-0.538,0.086
						c-0.352-0.139-0.402-0.714-0.106-1.292l3.126-6.107C291.279,107.845,291.515,107.592,291.752,107.456z"/>
				</g>
				<g>
					<path style="fill:#BA68C8;" d="M286.73,107.024c0.095-0.055,0.191-0.091,0.285-0.106c0.432-0.07,0.659,0.352,0.501,0.94
						l-1.653,6.234c-0.122,0.461-0.442,0.887-0.781,1.083c-0.096,0.055-0.192,0.09-0.285,0.106c-0.432,0.067-0.659-0.352-0.501-0.94
						l1.653-6.234C286.073,107.647,286.391,107.22,286.73,107.024z"/>
				</g>
			</g>
			<g style="opacity:0.2;">
				<g>
					<path d="M281.03,109.159c0.459-0.265,0.832-0.052,0.834,0.479l0.016,5.608c0.001,0.527-0.369,1.173-0.828,1.438
						c-0.462,0.267-0.835,0.051-0.837-0.477l-0.016-5.609C280.198,110.067,280.568,109.425,281.03,109.159z"/>
				</g>
				<g>
					<path d="M270.331,119.823c0.237-0.137,0.473-0.157,0.639-0.026l3.15,2.484c0.298,0.235,0.252,0.866-0.098,1.41
						c-0.155,0.238-0.347,0.425-0.536,0.534c-0.237,0.137-0.474,0.157-0.64,0.024l-3.15-2.483c-0.295-0.237-0.252-0.866,0.101-1.409
						C269.952,120.116,270.142,119.932,270.331,119.823z"/>
				</g>
				<g>
					<path d="M266.626,127.062c0.141-0.082,0.285-0.123,0.416-0.111l4.235,0.366c0.4,0.035,0.539,0.541,0.31,1.133
						c-0.152,0.395-0.434,0.727-0.722,0.893c-0.141,0.081-0.285,0.123-0.414,0.111l-4.238-0.36
						c-0.397-0.037-0.536-0.543-0.307-1.135C266.058,127.563,266.338,127.228,266.626,127.062z"/>
				</g>
				<g>
					<path d="M270.898,140.965c0.288-0.166,0.569-0.156,0.725,0.063c0.232,0.325,0.096,0.991-0.302,1.483l-4.219,5.246
						c-0.132,0.162-0.273,0.285-0.414,0.367c-0.288,0.166-0.57,0.157-0.724-0.062c-0.232-0.325-0.096-0.987,0.299-1.481l4.222-5.248
						C270.614,141.171,270.757,141.047,270.898,140.965z"/>
				</g>
				<g>
					<path d="M269.491,137.355c0.396-0.229,0.748-0.104,0.821,0.318c0.079,0.475-0.222,1.147-0.675,1.501l-4.803,3.747
						c-0.051,0.04-0.099,0.074-0.147,0.102c-0.396,0.229-0.748,0.104-0.821-0.32c-0.082-0.474,0.219-1.145,0.672-1.5l4.806-3.749
						C269.393,137.416,269.442,137.383,269.491,137.355z"/>
				</g>
				<g>
					<path d="M291.752,107.456c0.189-0.109,0.379-0.145,0.535-0.083c0.355,0.133,0.402,0.711,0.109,1.287l-3.126,6.107
						c-0.164,0.323-0.401,0.577-0.638,0.714c-0.189,0.109-0.381,0.144-0.538,0.086c-0.352-0.139-0.402-0.714-0.106-1.292
						l3.126-6.107C291.279,107.845,291.515,107.592,291.752,107.456z"/>
				</g>
				<g>
					<path d="M286.73,107.024c0.095-0.055,0.191-0.091,0.285-0.106c0.432-0.07,0.659,0.352,0.501,0.94l-1.653,6.234
						c-0.122,0.461-0.442,0.887-0.781,1.083c-0.096,0.055-0.192,0.09-0.285,0.106c-0.432,0.067-0.659-0.352-0.501-0.94l1.653-6.234
						C286.073,107.647,286.391,107.22,286.73,107.024z"/>
				</g>
			</g>
		</g>
		<g>
			<g>
				<path style="fill:#455A64;" d="M283.641,388.616c2.404,2.585,6.044,3.681,9.527,3.589c3.483-0.091,6.855-1.247,10.078-2.605
					c3.223-1.357,7.268-5.159,10.752-5.087c3.218,0.066,7.019-0.359,10.192-0.715c0.309-7.207-1.449-14.145-1.449-14.145
					l-16.267-0.441c-4.391,6.164-12.932,11.293-19.393,13.216c-2.075,0.618-3.609,2.345-4.014,4.384
					c0.007,0.035,0.004,0.07,0.012,0.105C283.307,387.986,283.641,388.616,283.641,388.616z"/>
				<path style="fill:#37474F;" d="M313.997,384.514c-3.484-0.071-7.529,3.73-10.752,5.087c-3.223,1.357-6.595,2.514-10.078,2.605
					c-3.483,0.091-7.123-1.004-9.527-3.589c0,0-0.333-0.631-0.562-1.698c-0.008-0.035-0.005-0.07-0.012-0.105
					c-0.142,0.714-0.151,1.464,0.012,2.221c0.229,1.067,0.562,1.698,0.562,1.698c2.404,2.585,6.044,3.681,9.527,3.59
					c3.483-0.091,6.855-1.247,10.078-2.605c3.223-1.357,7.268-5.159,10.752-5.087c3.583,0.073,6.677-0.224,10.033-0.594
					c0.081-0.744,0.127-1.491,0.159-2.236C321.016,384.154,317.215,384.58,313.997,384.514z"/>
			</g>
			<g>
				<path style="fill:#37474F;" d="M356.749,389.651c-0.013,1.702-0.13,3.397-0.488,5.056c-0.627,2.904-2.086,5.738-4.51,7.373
					c-2.09,1.409-4.67,1.8-7.167,1.955c-2.21,0.137-4.485,0.107-6.557-0.693c-1.574-0.608-3.016-1.736-3.837-3.212
					c0.006,0.029,0.008,0.058,0.014,0.087c0.494,2.212,2.346,3.911,4.417,4.711c2.072,0.8,4.347,0.831,6.557,0.693
					c2.497-0.155,5.077-0.546,7.167-1.954c2.425-1.635,3.884-4.469,4.511-7.373c0.358-1.66,0.475-3.354,0.488-5.056
					c0.018-2.352,0.972-4.572,2.645-6.181c0.407-0.391,0.797-0.797,1.154-1.217c0.515-0.607,0.764-1.403,0.705-2.205
					c-0.023-0.315-0.056-0.622-0.095-0.925c-0.596,0.716-2.004,2.42-2.358,2.761C357.721,385.079,356.767,387.299,356.749,389.651z"
					/>
				<path style="fill:#455A64;" d="M344.305,372.036c0.628,3.431,0.018,7.016-1.266,10.25c-1.285,3.234-3.217,6.154-5.294,8.922
					c-0.997,1.329-2.039,2.642-2.771,4.142c-0.719,1.473-1.118,3.171-0.786,4.78c0.821,1.476,2.264,2.604,3.837,3.212
					c2.072,0.8,4.347,0.831,6.557,0.693c2.497-0.155,5.077-0.546,7.167-1.955c2.425-1.635,3.884-4.469,4.51-7.373
					c0.358-1.66,0.475-3.354,0.488-5.056c0.018-2.352,0.971-4.572,2.645-6.181c0.354-0.341,1.762-2.045,2.358-2.761
					c-0.535-4.187-2.434-7.153-2.434-7.153L344.305,372.036z"/>
			</g>
			<g>
				<path style="fill:#37474F;" d="M300.664,223.012l1.227,86.063l3.962,60.239c10.032,6.5,17.297,1.182,17.297,1.182
					c3.805-28.539,4.324-46.089,2.249-57.965l1.903-46.443l5.708,48.216l9.602,59.104c10.29,6.839,17.555,0,17.555,0
					c0-21.878,1.903-46.34-3.978-62.117c4.151-48.748-2.768-87.391-2.768-87.391L300.664,223.012z"/>
				<path style="fill:#263238;" d="M325.202,248.353l2.1,17.734l-0.891,21.753l-3.866-35.756c-8.951-3.59-10.119-8.642-10.119-8.642
					C318.264,247.829,325.202,248.353,325.202,248.353z"/>
			</g>
			<g>
				<g>
					<path style="fill:#455A64;" d="M308.271,123.53l-2.289-1.197c-0.018-0.011-0.037-0.019-0.056-0.029l-0.091-0.048l-0.001,0.009
						c-0.364-0.161-0.797-0.172-1.191,0.055l-20.492,11.831c-0.818,0.472-1.322,1.345-1.322,2.29v9.923
						c0,0.452,0.224,0.821,0.543,1.056l-0.006,0.005l0.041,0.022c0.079,0.054,0.163,0.098,0.252,0.134l2.22,1.18l-0.105-1.808
						l19.53-11.276c0.818-0.472,1.322-1.345,1.322-2.29v-8.636L308.271,123.53z"/>
					<path style="fill:#455A64;" d="M307.618,136.89l-20.492,11.831c-0.881,0.509-1.983-0.127-1.983-1.145v-9.923
						c0-0.945,0.504-1.818,1.322-2.29l20.492-11.831c0.881-0.509,1.983,0.127,1.983,1.145v9.923
						C308.94,135.545,308.436,136.418,307.618,136.89z"/>
					<path style="fill:#BA68C8;" d="M286.465,137.654c0-0.471,0.253-0.91,0.66-1.145l20.494-11.832v9.923
						c0,0.471-0.253,0.91-0.661,1.145l-20.487,11.828L286.465,137.654z"/>
				</g>
				<g>
					<path style="fill:#FFA8A7;" d="M298.709,152.322c0.285-0.647,0.728-1.214,1.327-1.588c1.726-1.078,3.083-2.742,3.776-4.656
						c0.725-2.004,0.728-4.184,0.94-6.305c0.211-2.121,0.699-4.341,2.158-5.895c-3.64-1.467-5.119,1.846-6.442,7.14l-12.189,7.038
						l0.174,0.402c0.345,0.796,0.329,1.702-0.045,2.485l-3.548,7.205c6.287,4.207,11.982,1.347,11.982,1.347
						C297.453,156.719,298.265,153.331,298.709,152.322z"/>
					<g>
						<path style="fill:#E0E0E0;" d="M296.247,166.921c0.639-2.589,1.409-5.962,1.91-9.036c-4.483,1.608-9.705,0.992-13.69-1.617
							c-1.44,2.428-2.73,4.964-3.873,7.578C284.924,167.265,290.945,168.461,296.247,166.921z"/>
						<path style="fill:#F0F0F0;" d="M295.119,171.242c0,0,0.502-1.784,1.128-4.321c-5.302,1.54-11.323,0.344-15.653-3.075
							c-3.477,7.951-5.583,16.624-6.319,25.18c-0.219,2.54-0.304,5.141,0.379,7.597c0.683,2.456,2.243,4.777,4.562,5.837
							c3.235,1.479,7.102,0.203,10.035-1.809c5.509-3.778,8.97-9.808,12.245-15.63l8.878-31.676
							C305.089,153.904,300.79,156.845,295.119,171.242z"/>
					</g>
					<path style="opacity:0.1;" d="M295.119,171.242c-2.079,7.353-5.329,19.103-5.329,19.103
						C297.193,182.831,295.119,171.242,295.119,171.242z"/>
					<path style="opacity:0.1;" d="M309.058,158.043c-2.69,1.835-4.98,4.257-6.626,7.067c-2.906,4.961-3.754,10.822-4.546,16.516
						c-0.555,3.988-1.109,7.976-1.664,11.965c1.959-2.704,3.641-5.662,5.276-8.569L309.058,158.043z"/>
				</g>
			</g>
			<g>
				<path style="fill:#F0F0F0;" d="M319.833,152.345l-9.459,1c-7.751,6.833-11.751,21.167-10.084,37s0.374,32.667,0.374,32.667
					c21,15.333,49.423,4.198,52.757,0.865l-2.69-19.445c-0.175-2.185,0.196-4.378,1.063-6.391c1.982-4.606,5.52-13.671,5.996-20.695
					c0.667-9.833-3.833-18.083-3.833-18.083l-13.75-6L319.833,152.345z"/>
				<path style="opacity:0.1;" d="M351.794,198.04c1.745-4.055,4.694-11.566,5.699-18.097c-1.952,1.173-4.018,2.333-4.828,4.277
					c-2.59,6.216-3.265,13.218-1.941,19.809C350.622,201.978,350.981,199.93,351.794,198.04z"/>
			</g>
			<g>
				<g>
					<path style="fill:#BA68C8;" d="M317.205,166.137c-7.915,18.208-7.79,36.958-7.79,36.958l3.895,8.375l6.105-8
						c-0.875-18.125,0.733-36.792,0.733-36.792L317.205,166.137z"/>
					<path style="fill:#BA68C8;" d="M316.874,159.262c-0.292,3.667,0.331,6.875,0.331,6.875c1.044,0.708,2.943,0.542,2.943,0.542
						c2.517-1.958,4.726-5.708,4.726-5.708l-4.726-1.708H316.874z"/>
				</g>
				<g>
					<g>
						<path style="fill:#E0E0E0;" d="M320.148,159.262c4.074,1.5,7.696,8.75,7.696,8.75c10.696-9.083,12.363-14.75,12.363-14.75
							c-2.75-3.917-5.75-4.54-5.75-4.54L320.148,159.262z"/>
						<path style="fill:#E0E0E0;" d="M320.148,159.262c-3.108,0.083-5.858,4.417-5.858,4.417c-0.5-7.583,5.858-13.417,5.858-13.417
							V159.262z"/>
					</g>
					<g>
						<path style="fill:#F28F8F;" d="M334.706,140.227l-14.558,5.202v5.394c3.266-0.632,6.517-1.471,9.23-3.352
							C331.887,145.731,333.77,143.129,334.706,140.227z"/>
						<path style="fill:#FFA8A7;" d="M334.706,140.227c-0.936,2.903-2.819,5.504-5.328,7.244c-2.713,1.881-5.964,2.72-9.23,3.352
							v8.439c0,0,15.392-6.917,15.392-10.167s0-9.167,0-9.167L334.706,140.227z"/>
					</g>
				</g>
				<g>
					<path style="fill:#263238;" d="M306.659,118.881c-2.044,0.069-4.106-0.601-5.719-1.859c-0.922-0.719-1.693-1.627-2.265-2.646
						c-0.493-0.878,0.32-1.92,1.31-1.737c1.119,0.207,2.281,0.221,3.376,0.036c-2.59-3.371-3.745-7.734-3.14-11.908
						c0.144-0.996,1.242-1.573,2.145-1.13c4.614,2.267,9.842,3.385,14.957,3.022c2.748-0.195,5.457-0.777,8.205-0.987
						c2.747-0.21,5.613-0.022,8.068,1.229c2.455,1.251,4.412,3.743,4.408,6.499c0.65-0.935,1.598-1.43,2.727-1.577
						c1.129-0.147,2.313,0.203,3.181,0.941c-1.589,0.871-3.142,1.753-4.731,2.624c1.628-0.581,3.678,0.691,4.489,2.218
						c0.811,1.527,0.852,3.331,0.874,5.06c0.03,2.298,0.059,4.609-0.31,6.877c-0.368,2.268-1.158,4.514-2.608,6.296
						c-1.219,1.499-2.887,2.63-4.732,3.206c-2.484,0.776-5.202,0.541-7.683-0.245c-2.481-0.786-4.761-2.096-6.967-3.478
						C316.727,127.866,311.439,123.302,306.659,118.881z"/>
					<path style="fill:#FFA8A7;" d="M306.312,114.3c-1.591,9.456-0.53,19.345,3.033,28.248c0.828,2.07,1.901,4.213,3.837,5.318
						c2.03,1.159,4.541,0.917,6.852,0.569c3.722-0.561,7.471-1.327,10.82-3.044c3.349-1.717,6.293-4.502,7.49-8.07
						c2.462,0.59,5.036-0.548,6.559-2.571c1.523-2.023,2.07-4.632,2.126-7.164c0.035-1.621-0.298-3.535-1.754-4.248
						c-1.354-0.664-2.98,0.081-4.152,1.03c-1.917,1.553-3.347,3.699-4.042,6.067c-1.071-3.948-2.739-7.758-3.81-11.707
						c-0.421-1.552-0.942-3.245-2.296-4.112c-1.658-1.061-3.818-0.452-5.728,0.021C319.419,116.078,312.043,116.085,306.312,114.3z"
						/>
					<polygon style="fill:#F28F8F;" points="317.823,126.285 313.205,134.058 318.71,135.091 					"/>
					<path style="fill:#F28F8F;" d="M324.017,137.77c-1.394,0.678-2.789,1.356-4.183,2.034c0.609,0.95,2.142,1.364,3.172,0.902
						C324.035,140.243,324.322,138.857,324.017,137.77z"/>
					<path style="opacity:0.3;" d="M324.017,137.77c-1.394,0.678-2.789,1.356-4.183,2.034c0.609,0.95,2.142,1.364,3.172,0.902
						C324.035,140.243,324.322,138.857,324.017,137.77z"/>
					<path style="fill:#F28F8F;" d="M321.553,140.843c0.503,0.089,1.021,0.057,1.452-0.137c0.808-0.363,1.153-1.295,1.119-2.205
						c-0.594,0.003-1.189,0.196-1.649,0.573C321.945,139.508,321.621,140.163,321.553,140.843z"/>
					<path style="fill:#263238;" d="M325.795,126.594c0.088,0.869-0.546,1.644-1.415,1.732c-0.869,0.087-1.644-0.546-1.732-1.415
						c-0.087-0.869,0.546-1.644,1.415-1.732C324.932,125.092,325.708,125.726,325.795,126.594z"/>
					<path style="fill:#263238;" d="M312.536,127.416c0.088,0.869-0.546,1.644-1.415,1.732c-0.869,0.088-1.644-0.546-1.732-1.415
						c-0.087-0.869,0.546-1.644,1.415-1.732C311.673,125.914,312.448,126.547,312.536,127.416z"/>
					<path style="fill:#263238;" d="M310.374,121.309c-1.081,0.921-2.163,1.842-3.244,2.763c-0.428-0.793-0.204-1.9,0.432-2.537
						C308.199,120.898,309.581,120.882,310.374,121.309z"/>
					<path style="fill:#263238;" d="M323.826,119.763c1.243,0.687,2.487,1.373,3.73,2.06c0.261-0.862-0.179-1.903-0.93-2.4
						C325.875,118.925,324.518,119.186,323.826,119.763z"/>
				</g>
			</g>
			<g>
				<path style="fill:#FFA8A7;" d="M386.124,193.428l5.021-2.482c1.563-0.773,2.864-1.987,3.743-3.493l1.572-2.695
					c1.078-1.849,2.691-3.32,4.604-4.278c4.882-2.444,7.977-5.301,7.977-5.301l0,0c1.039,1.674,0.788,3.865-0.645,5.217
					c-1.531,1.445-3.272,2.616-3.272,2.616l2.409,0.612c1.739,0.442,3.573,0.33,5.246-0.321l6.878-2.675
					c0.866-0.337,1.766,0.401,1.611,1.317c-0.522,3.098-2.03,6.251-3.411,8.634c-1.495,2.58-4.061,4.358-6.992,4.911
					c-3.514,0.662-6.91,1.176-8.845,1.453c-1.109,0.159-2.179,0.492-3.182,0.99l-7.38,3.662L386.124,193.428z"/>
				<path style="fill:#F0F0F0;" d="M381.341,201.164c-0.881-2.049-1.171-4.337-0.884-6.547l-9.417,4.478c0,0-2.875-11.375-4-20.871
					c-1.125-9.497-0.875-15.879-13.083-18.962l-1.292,24.958c0,0,1.5,30.5,10.25,33.875c7.246,2.795,12.355-4.096,23.406-11.233
					C384.134,205.527,382.354,203.52,381.341,201.164z"/>
				<path style="opacity:0.1;" d="M364.707,205.345c0.333-1.417,2.667-4.667,6.333-6.25c0,0-0.278-1.1-0.695-2.901
					C368.447,197.129,363.772,200.004,364.707,205.345z"/>
				<path style="fill:#E0E0E0;" d="M388.915,190.595l-8.458,4.022c-0.288,2.211,0.002,4.498,0.884,6.547
					c1.014,2.356,2.793,4.362,4.981,5.698c2.294-1.482,4.839-2.974,7.719-4.392C394.04,202.47,389.54,198.845,388.915,190.595z"/>
			</g>
		</g>
	</g>
</g>
<g id="Speech_bubble">
	<g>
		<path style="fill:#BA68C8;" d="M423.563,68.443c-0.001-0.496-0.271-0.897-0.648-1.113l0,0l-5.773-3.207
			c-0.009-0.005-0.019-0.01-0.028-0.016l-0.021-0.012v0.003c-0.37-0.198-0.833-0.222-1.247,0.017l-39.525,22.82
			c-0.717,0.414-1.265,1.042-1.591,1.774c-0.218,0.49-0.341,1.025-0.339,1.58l0.042,14.694l-13.678,14.144
			c-1.228,1.271-1.359,3.184-0.405,3.485l5.455,3.006c0.173,0.187,0.421,0.285,0.748,0.246l7.937-0.967l0.031,10.788
			c0.001,0.487,0.263,0.882,0.629,1.1l-0.001,0.001l0.008,0.004c0.007,0.004,0.015,0.008,0.022,0.012l5.741,3.186
			c0.027,0.017,0.055,0.031,0.083,0.046c0.02,0.01,0.042,0.017,0.063,0.026c0.357,0.163,0.785,0.176,1.173-0.048l39.525-22.82
			c1.198-0.692,1.934-1.971,1.93-3.354L423.563,68.443z M381.199,90.89c-0.044,0.048-0.088,0.098-0.129,0.148
			C381.111,90.988,381.154,90.938,381.199,90.89z M380.826,91.368c-0.031,0.047-0.065,0.093-0.094,0.141
			C380.761,91.461,380.795,91.416,380.826,91.368z M380.276,92.663c-0.012,0.054-0.023,0.109-0.033,0.164
			C380.253,92.772,380.264,92.717,380.276,92.663z M381.491,90.606c0.045-0.04,0.087-0.081,0.134-0.118
			C381.578,90.525,381.535,90.566,381.491,90.606z"/>
		<g>
			<path style="fill:#FFFFFF;" d="M409.968,82.656c-0.154,0.089-0.306,0.198-0.455,0.362c-0.107,0.12-0.179,0.259-0.231,0.41
				c-0.456,0.882-0.788,1.781-1.102,2.684c-0.33,0.809-0.639,1.621-0.916,2.435c-0.074,0.151-0.144,0.307-0.173,0.463
				c-0.096,0.203-0.173,0.407-0.223,0.613c-0.177,0.454-0.354,0.908-0.533,1.363c-0.063,0.13-0.125,0.258-0.185,0.388
				c-0.177,0.39-0.328,0.78-0.436,1.178c-0.132,0.477-0.102,0.831,0.114,1.064c0.415,0.455,0.976,0.652,1.539,0.845
				c0.05,0.018,0.102,0.035,0.156,0.049c0.156,0.049,0.318,0.085,0.477,0.13c0.277,0.136,0.552,0.27,0.827,0.406
				c0.052,0.036,0.106,0.073,0.16,0.108c0.056,0.064,0.113,0.124,0.164,0.191c0.069,0.097,0.103,0.158,0.125,0.231
				c0.034,0.106,0.042,0.238,0.009,0.411c-0.046,0.203-0.094,0.41-0.139,0.614c-0.122,0.339-0.245,0.681-0.368,1.021
				c-0.059,0.147-0.118,0.294-0.177,0.441c-0.188,0.478-0.378,0.958-0.568,1.437c-0.21,0.467-0.365,0.861-0.516,1.256
				c-0.14,0.279-0.277,0.563-0.382,0.854c-0.068,0.144-0.137,0.288-0.205,0.432c-0.173,0.362-0.347,0.725-0.518,1.086
				c-0.053,0.108-0.105,0.214-0.157,0.321c-0.185,0.352-0.367,0.701-0.552,1.052c-0.07,0.134-0.142,0.268-0.212,0.402
				c-0.218,0.38-0.434,0.76-0.652,1.14c-0.055,0.096-0.113,0.193-0.17,0.288c-0.238,0.389-0.479,0.78-0.717,1.169
				c-0.067,0.1-0.133,0.201-0.2,0.299c-0.503,0.729-1.004,1.458-1.506,2.188c-0.198,0.27-0.396,0.54-0.594,0.81
				c-0.059,0.077-0.113,0.148-0.168,0.221c-0.653,0.825-1.245,1.572-1.836,2.321c-0.205,0.225-0.411,0.446-0.616,0.676
				c-0.164,0.182-0.32,0.315-0.47,0.401c-0.27,0.156-0.519,0.163-0.75,0.041c-0.151-0.079-0.301-0.159-0.454-0.237
				c-0.01-0.067-0.058-0.078-0.106-0.086c-0.651-0.528-1.304-1.058-2.036-1.456c-0.251-0.138-0.53-0.22-0.885-0.015
				c-0.074,0.042-0.151,0.097-0.232,0.167c-0.281,0.248-0.546,0.524-0.773,0.871c-0.074,0.047-0.124,0.123-0.161,0.217
				c-0.551,0.768-1.16,1.459-1.735,2.194c-0.533,0.604-1.055,1.227-1.561,1.874c-0.29,0.328-0.57,0.666-0.834,1.032
				c-0.316,0.364-0.618,0.745-0.901,1.151c-0.115,0.137-0.228,0.272-0.312,0.438c-0.379,0.441-0.391,0.836-0.356,1.23
				c-0.02,0.293,0.031,0.536,0.063,0.795c0.044,0.337,0.087,0.675,0.211,0.947c0.034,0.232,0.098,0.436,0.184,0.617
				c0.03,0.06,0.062,0.118,0.093,0.174c0.004,0.053,0.015,0.1,0.032,0.139c0.028,0.067,0.071,0.117,0.116,0.164
				c0.056,0.166,0.159,0.269,0.289,0.332c0.095,0.135,0.218,0.222,0.355,0.287c0.082,0.038,0.167,0.072,0.255,0.103
				c0.093,0.025,0.134,0.034,0.173,0.045c0.067,0.032,0.136,0.058,0.206,0.079c0.035,0.009,0.069,0.02,0.104,0.027
				c0.108,0.023,0.223,0.031,0.345,0.02c0.045,0.032,0.097,0.047,0.165,0.022c0.139,0.026,0.279,0.052,0.444,0.006
				c0.147,0.035,0.312,0.016,0.481-0.013c0.156,0.008,0.314,0.002,0.484-0.041c0.145-0.022,0.215-0.026,0.289-0.035
				c0.217-0.023,0.442-0.074,0.672-0.147c0.033-0.007,0.067-0.011,0.102-0.018c0.121-0.025,0.182-0.035,0.247-0.055
				c0.052-0.014,0.107-0.037,0.163-0.069c0.186-0.061,0.223-0.076,0.258-0.09c0.239-0.078,0.48-0.169,0.721-0.282
				c0.07-0.032,0.139-0.068,0.208-0.103c0.051-0.027,0.101-0.055,0.152-0.084c0.137-0.079,0.275-0.168,0.413-0.268
				c0.293-0.182,0.384-0.24,0.474-0.304c0.172-0.119,0.343-0.251,0.513-0.399c0.154-0.099,0.306-0.204,0.456-0.325
				c0.059-0.049,0.118-0.1,0.178-0.156c0.03-0.026,0.057-0.054,0.087-0.084c0.085-0.071,0.169-0.14,0.252-0.214
				c0.252-0.218,0.5-0.446,0.738-0.706c0.191-0.146,0.37-0.329,0.544-0.523c0.064-0.037,0.107-0.099,0.148-0.167
				c0.381-0.337,0.677-0.643,0.964-0.966c0.261-0.23,0.513-0.486,0.759-0.756c0.193-0.179,0.387-0.356,0.561-0.578
				c0.102-0.108,0.202-0.215,0.303-0.322c0.091-0.061,0.165-0.153,0.233-0.256c0.051-0.029,0.084-0.067,0.107-0.122
				c0.059-0.053,0.117-0.108,0.172-0.166c0.092-0.096,0.181-0.201,0.264-0.315c0.178-0.179,0.346-0.37,0.509-0.571
				c0.054-0.067,0.107-0.134,0.161-0.204c0.054-0.065,0.107-0.128,0.161-0.191c0.305-0.357,0.611-0.709,0.886-1.106
				c0.146-0.138,0.268-0.306,0.379-0.488c0.193-0.199,0.35-0.438,0.512-0.673c0.257-0.304,0.486-0.637,0.71-0.975
				c0.137-0.184,0.202-0.27,0.264-0.355c0.063-0.083,0.126-0.171,0.187-0.259c0.124-0.176,0.24-0.356,0.353-0.543
				c0.078-0.102,0.157-0.206,0.231-0.313c0.074-0.107,0.144-0.218,0.205-0.336c0.148-0.184,0.281-0.378,0.388-0.595
				c0.194-0.251,0.36-0.526,0.518-0.804c0.063-0.073,0.116-0.15,0.166-0.235c0.024-0.039,0.048-0.081,0.07-0.124
				c0.024-0.044,0.046-0.086,0.068-0.129c0.055-0.079,0.111-0.16,0.164-0.242c0.163-0.247,0.312-0.502,0.453-0.765
				c0.092-0.151,0.148-0.241,0.201-0.33c0.21-0.365,0.421-0.727,0.633-1.093c0.083-0.106,0.152-0.224,0.203-0.352
				c0.164-0.259,0.318-0.523,0.46-0.794c0.048-0.09,0.094-0.18,0.138-0.272c0.124-0.187,0.17-0.288,0.216-0.389
				c0.177-0.33,0.356-0.662,0.535-0.994c0.096-0.188,0.19-0.372,0.286-0.558c0.144-0.258,0.292-0.514,0.391-0.787
				c0.43-0.792,0.803-1.598,1.151-2.414c0.054-0.123,0.107-0.245,0.16-0.368c0.153-0.295,0.284-0.595,0.387-0.897
				c0.413-0.932,0.782-1.867,1.089-2.808c0.031-0.08,0.061-0.157,0.09-0.235c0.21-0.554,0.387-1.106,0.524-1.655
				c0.228-0.68,0.404-1.351,0.575-2.023c0.057-0.225,0.114-0.447,0.171-0.672c0.042-0.078,0.066-0.154,0.061-0.225
				c0.017-0.052,0.033-0.102,0.048-0.153c0.026-0.1,0.051-0.2,0.077-0.3c0.254-0.842,0.452-1.673,0.579-2.486
				c0.003-0.043,0.007-0.085,0.011-0.128c0.041-0.081,0.044-0.151,0.038-0.216c0.005-0.044,0.011-0.09,0.016-0.133
				c0.011-0.077,0.022-0.156,0.033-0.232c0.007-0.081,0.014-0.162,0.02-0.242c0.066-0.373,0.102-0.733,0.092-1.07
				c-0.002-0.148-0.003-0.295-0.003-0.444c0.002-0.11,0.012-0.227-0.027-0.309c-0.006-0.056-0.012-0.113-0.017-0.171
				c-0.008-0.343-0.065-0.649-0.162-0.924c-0.083-0.479-0.227-0.901-0.419-1.276c-0.28-0.678-0.599-1.311-1.074-1.762
				c-0.143-0.179-0.298-0.342-0.512-0.415c-0.032-0.035-0.052-0.085-0.112-0.07c-0.16-0.129-0.359-0.179-0.581-0.18
				c-0.566-0.074-1.199,0.108-1.839,0.319c-0.07,0.028-0.141,0.056-0.211,0.084c-0.211,0.068-0.363,0.114-0.519,0.204
				c-0.033,0.019-0.066,0.04-0.099,0.063C410.284,82.496,410.125,82.565,409.968,82.656z"/>
		</g>
		<path style="opacity:0.1;" d="M380.307,138.901c0.001,0.479,0.255,0.866,0.612,1.086l-5.741-3.186
			c-0.007-0.004-0.015-0.008-0.022-0.012l-0.008-0.004l0.001-0.001c-0.366-0.218-0.628-0.613-0.629-1.1l-0.031-10.788l5.776-0.704
			L380.307,138.901z"/>
		<path style="opacity:0.2;fill:#FFFFFF;" d="M376.321,86.935l39.525-22.82c0.415-0.239,0.878-0.214,1.247-0.017v-0.003l0.021,0.012
			c0.009,0.005,0.019,0.01,0.028,0.016l5.773,3.207l0,0c-0.375-0.214-0.855-0.244-1.282,0.002l-39.525,22.82
			c-0.75,0.433-1.319,1.096-1.638,1.871l-5.74-3.314C375.056,87.977,375.603,87.349,376.321,86.935z"/>
		<path style="opacity:0.1;fill:#FFFFFF;" d="M374.432,104.983l-0.042-14.694c-0.002-0.555,0.121-1.09,0.339-1.58l5.74,3.314
			c-0.191,0.463-0.293,0.965-0.292,1.483l0.042,14.694L374.432,104.983L374.432,104.983z"/>
		<path style="opacity:0.05;fill:#FFFFFF;" d="M360.754,119.127l13.678-14.144l5.787,3.217l0,0l-13.678,14.144
			c-1.058,1.095-1.301,2.668-0.738,3.274l-5.455-3.006C359.395,122.311,359.526,120.397,360.754,119.127z"/>
	</g>
</g>
<g id="Device">
	<g>
		<g>
			<path style="fill:#37474F;" d="M234.888,59.808l0.008-0.008c-0.756-2.886-6.146-8.371-11.509-8.256
				c-0.194-0.002-1.158,0.105-1.506,0.321l-104.18,64.425c-1.771,1.095-3.138,2.741-4.004,4.664
				c-0.657,1.458-1.033,3.072-1.033,4.751v244.944c0,6.24,6.619,12.194,12.834,9.33c0.016-0.007,0.026-0.024,0.042-0.032
				c0.134-0.053,0.269-0.094,0.399-0.175l104.184-64.532c3.111-1.927,5.031-5.519,5.031-9.411V60.989
				C235.154,60.553,235.047,60.162,234.888,59.808z"/>
			<path style="fill:#BA68C8;" d="M127.197,151.596c0-1.947,0.962-3.745,2.519-4.708l96.732-59.819
				c1.661-1.027,3.723,0.277,3.723,2.354v197.513c0,1.941-0.965,3.745-2.517,4.707l-96.732,59.916
				c-1.661,1.029-3.725-0.275-3.725-2.353V151.596z"/>
			<path style="fill:#263238;" d="M112.664,125.705v244.944c0,6.24,6.619,12.194,12.834,9.33c0.016-0.007,0.026-0.024,0.042-0.032
				c-1.575,0.62-3.325-0.613-3.325-2.528V132.475c0-2.17,0.615-4.235,1.683-5.982l-10.2-5.539
				C113.04,122.412,112.664,124.026,112.664,125.705z"/>
			<path style="fill:#455A64;" d="M223.387,51.544c-0.194-0.002-1.158,0.105-1.506,0.321l-104.18,64.425
				c-1.771,1.095-3.138,2.741-4.004,4.664l10.2,5.539c0.848-1.388,1.976-2.58,3.355-3.433L231.43,58.635
				c1.312-0.812,2.859-0.157,3.457,1.173l0.008-0.008C234.139,56.915,228.75,51.429,223.387,51.544z"/>
			<g>
				<g>
					<path style="fill:#263238;" d="M191.524,99.083c0.732-0.459,1.338-0.103,1.341,0.81c0.002,0.914-0.6,2.048-1.332,2.507
						l-20.439,12.827c-0.732,0.459-1.322,0.073-1.325-0.84c-0.002-0.914,0.584-2.018,1.316-2.477L191.524,99.083z"/>
				</g>
				<g>
					<path style="fill:#263238;" d="M165.835,115.204c0.732-0.459,1.322-0.094,1.325,0.82c0.002,0.914-0.584,2.038-1.316,2.497
						c-0.732,0.459-1.338,0.084-1.34-0.83C164.501,116.777,165.103,115.663,165.835,115.204z"/>
				</g>
			</g>
			<g>
				<path style="fill:#263238;" d="M178.918,97.217c1.462-0.917,2.641-0.187,2.646,1.639c0.005,1.826-1.167,4.072-2.629,4.989
					c-1.462,0.917-2.673,0.167-2.678-1.659C176.253,100.361,177.456,98.135,178.918,97.217z"/>
			</g>
			<g>
				<path style="fill:#263238;" d="M178.926,327.812c2.977-1.868,5.38-0.381,5.39,3.338c0.01,3.719-2.377,8.294-5.354,10.162
					c-2.977,1.868-5.445,0.34-5.454-3.379C173.497,334.214,175.948,329.68,178.926,327.812z"/>
			</g>
		</g>
		<g>
			<path style="fill:#FFFFFF;" d="M188.76,189.862c-0.233,0.14-0.465,0.312-0.691,0.571c-0.163,0.188-0.272,0.408-0.35,0.646
				c-0.693,1.389-1.196,2.806-1.674,4.227c-0.501,1.274-0.971,2.553-1.391,3.836c-0.112,0.238-0.219,0.483-0.263,0.728
				c-0.146,0.319-0.263,0.641-0.338,0.965c-0.269,0.715-0.537,1.43-0.809,2.147c-0.095,0.205-0.191,0.406-0.28,0.611
				c-0.269,0.615-0.498,1.229-0.663,1.855c-0.201,0.752-0.154,1.309,0.174,1.676c0.63,0.717,1.483,1.027,2.338,1.331
				c0.076,0.028,0.155,0.055,0.237,0.076c0.237,0.076,0.482,0.134,0.725,0.204c0.421,0.215,0.839,0.425,1.256,0.639
				c0.079,0.057,0.161,0.115,0.243,0.17c0.085,0.1,0.173,0.195,0.249,0.301c0.105,0.152,0.156,0.249,0.19,0.363
				c0.051,0.167,0.063,0.375,0.013,0.647c-0.069,0.32-0.142,0.646-0.212,0.967c-0.185,0.534-0.372,1.072-0.559,1.608
				c-0.09,0.232-0.179,0.463-0.269,0.695c-0.285,0.752-0.574,1.509-0.862,2.263c-0.319,0.735-0.554,1.356-0.784,1.978
				c-0.213,0.44-0.42,0.887-0.58,1.345c-0.104,0.227-0.207,0.454-0.311,0.68c-0.263,0.571-0.527,1.142-0.787,1.711
				c-0.081,0.17-0.16,0.338-0.238,0.505c-0.28,0.554-0.558,1.103-0.838,1.658c-0.106,0.212-0.216,0.421-0.322,0.633
				c-0.331,0.598-0.659,1.198-0.99,1.796c-0.084,0.151-0.171,0.304-0.258,0.454c-0.362,0.613-0.727,1.228-1.089,1.841
				c-0.101,0.158-0.202,0.316-0.303,0.471c-0.764,1.149-1.524,2.297-2.288,3.446c-0.301,0.425-0.601,0.85-0.902,1.275
				c-0.09,0.121-0.171,0.233-0.255,0.348c-0.991,1.299-1.89,2.475-2.789,3.655c-0.312,0.355-0.624,0.703-0.936,1.064
				c-0.249,0.287-0.486,0.495-0.714,0.632c-0.41,0.246-0.788,0.256-1.139,0.064c-0.229-0.125-0.457-0.25-0.689-0.374
				c-0.015-0.106-0.088-0.122-0.161-0.135c-0.989-0.832-1.98-1.666-3.093-2.293c-0.381-0.217-0.805-0.346-1.345-0.023
				c-0.112,0.067-0.229,0.154-0.352,0.263c-0.427,0.39-0.829,0.826-1.174,1.372c-0.112,0.074-0.188,0.194-0.244,0.341
				c-0.837,1.21-1.761,2.297-2.635,3.455c-0.809,0.951-1.602,1.933-2.371,2.951c-0.441,0.516-0.865,1.049-1.267,1.625
				c-0.48,0.573-0.938,1.173-1.368,1.813c-0.174,0.215-0.346,0.429-0.474,0.691c-0.576,0.694-0.594,1.316-0.542,1.937
				c-0.03,0.461,0.048,0.845,0.097,1.252c0.066,0.531,0.132,1.063,0.32,1.492c0.052,0.365,0.148,0.687,0.279,0.972
				c0.045,0.094,0.094,0.186,0.142,0.275c0.006,0.084,0.023,0.158,0.048,0.22c0.043,0.106,0.108,0.184,0.175,0.258
				c0.085,0.261,0.241,0.423,0.439,0.524c0.144,0.213,0.331,0.349,0.54,0.453c0.124,0.06,0.254,0.113,0.386,0.162
				c0.141,0.04,0.203,0.053,0.263,0.071c0.101,0.05,0.206,0.092,0.313,0.125c0.054,0.015,0.104,0.031,0.158,0.043
				c0.163,0.036,0.338,0.049,0.524,0.032c0.068,0.05,0.147,0.073,0.251,0.034c0.212,0.041,0.423,0.083,0.674,0.01
				c0.223,0.055,0.474,0.025,0.73-0.021c0.237,0.013,0.477,0.004,0.736-0.064c0.22-0.034,0.327-0.041,0.44-0.055
				c0.33-0.036,0.671-0.116,1.02-0.231c0.051-0.01,0.101-0.017,0.155-0.029c0.183-0.039,0.276-0.054,0.375-0.087
				c0.08-0.023,0.163-0.059,0.247-0.109c0.282-0.097,0.339-0.12,0.392-0.142c0.363-0.124,0.729-0.265,1.095-0.444
				c0.107-0.051,0.211-0.106,0.315-0.162c0.077-0.043,0.154-0.087,0.231-0.133c0.208-0.125,0.418-0.264,0.627-0.421
				c0.445-0.286,0.583-0.378,0.72-0.478c0.262-0.187,0.52-0.396,0.779-0.628c0.234-0.157,0.464-0.322,0.692-0.512
				c0.09-0.077,0.18-0.158,0.27-0.246c0.045-0.04,0.087-0.086,0.132-0.133c0.129-0.111,0.256-0.22,0.383-0.337
				c0.382-0.343,0.759-0.703,1.122-1.112c0.29-0.231,0.562-0.518,0.827-0.824c0.096-0.058,0.162-0.156,0.225-0.262
				c0.579-0.532,1.029-1.012,1.464-1.522c0.397-0.362,0.779-0.765,1.152-1.191c0.292-0.283,0.588-0.56,0.852-0.91
				c0.155-0.17,0.306-0.338,0.461-0.508c0.138-0.096,0.25-0.241,0.354-0.404c0.078-0.046,0.127-0.106,0.163-0.192
				c0.09-0.084,0.177-0.17,0.262-0.261c0.14-0.151,0.275-0.316,0.402-0.496c0.27-0.283,0.525-0.584,0.773-0.9
				c0.081-0.106,0.163-0.212,0.244-0.321c0.082-0.102,0.163-0.202,0.244-0.301c0.464-0.563,0.927-1.116,1.346-1.743
				c0.222-0.217,0.407-0.482,0.576-0.768c0.292-0.313,0.531-0.691,0.778-1.06c0.39-0.479,0.739-1.003,1.078-1.536
				c0.208-0.289,0.306-0.425,0.402-0.56c0.096-0.131,0.191-0.269,0.284-0.408c0.188-0.277,0.365-0.561,0.536-0.855
				c0.118-0.161,0.239-0.324,0.351-0.492c0.112-0.168,0.219-0.343,0.311-0.529c0.225-0.289,0.427-0.595,0.589-0.938
				c0.295-0.395,0.547-0.828,0.786-1.267c0.096-0.114,0.177-0.237,0.253-0.37c0.036-0.062,0.073-0.128,0.106-0.195
				c0.036-0.069,0.07-0.136,0.104-0.203c0.084-0.124,0.168-0.252,0.25-0.381c0.247-0.39,0.474-0.791,0.687-1.204
				c0.14-0.238,0.225-0.38,0.306-0.519c0.32-0.574,0.639-1.145,0.962-1.722c0.126-0.166,0.23-0.353,0.308-0.554
				c0.25-0.408,0.483-0.823,0.699-1.251c0.073-0.141,0.143-0.284,0.21-0.428c0.188-0.294,0.258-0.453,0.328-0.613
				c0.269-0.521,0.541-1.043,0.813-1.565c0.146-0.296,0.289-0.586,0.435-0.878c0.219-0.407,0.443-0.81,0.594-1.239
				c0.653-1.248,1.219-2.517,1.748-3.801c0.081-0.193,0.163-0.386,0.244-0.579c0.233-0.465,0.432-0.937,0.588-1.414
				c0.627-1.467,1.187-2.941,1.654-4.423c0.048-0.126,0.092-0.247,0.137-0.371c0.319-0.873,0.587-1.742,0.796-2.607
				c0.347-1.071,0.614-2.128,0.874-3.187c0.087-0.354,0.173-0.705,0.259-1.059c0.064-0.123,0.101-0.242,0.092-0.354
				c0.025-0.082,0.05-0.161,0.073-0.242c0.039-0.158,0.078-0.316,0.117-0.473c0.385-1.326,0.686-2.635,0.88-3.916
				c0.005-0.067,0.011-0.134,0.016-0.201c0.062-0.128,0.067-0.238,0.058-0.341c0.008-0.069,0.016-0.141,0.025-0.21
				c0.017-0.121,0.033-0.245,0.05-0.366c0.011-0.128,0.022-0.255,0.03-0.381c0.1-0.587,0.155-1.154,0.139-1.686
				c-0.003-0.233-0.004-0.465-0.005-0.699c0.002-0.173,0.019-0.357-0.041-0.486c-0.009-0.089-0.017-0.178-0.026-0.27
				c-0.013-0.54-0.099-1.023-0.246-1.455c-0.126-0.754-0.345-1.419-0.637-2.01c-0.426-1.069-0.911-2.065-1.631-2.776
				c-0.218-0.283-0.453-0.539-0.777-0.653c-0.048-0.055-0.079-0.134-0.169-0.11c-0.243-0.204-0.545-0.282-0.883-0.284
				c-0.86-0.117-1.821,0.17-2.792,0.503c-0.107,0.044-0.214,0.088-0.321,0.132c-0.321,0.107-0.551,0.179-0.788,0.321
				c-0.05,0.03-0.1,0.063-0.15,0.099C189.24,189.61,188.999,189.718,188.76,189.862z"/>
		</g>
	</g>
</g>
</svg>
