<?xml version="1.0" encoding="utf-8"?>
<!-- Generator: Adobe Illustrator 27.5.0, SVG Export Plug-In . SVG Version: 6.00 Build 0)  -->
<svg version="1.1" xmlns="http://www.w3.org/2000/svg" xmlns:xlink="http://www.w3.org/1999/xlink" x="0px" y="0px"
	 viewBox="0 0 700 500" style="enable-background:new 0 0 700 500;" xml:space="preserve">
<g id="BACKGROUND">
	<rect style="fill:#FFFFFF;" width="700" height="500"/>
	<g style="opacity:0.56;">
		<g>
			<path style="fill:#9595E7;" d="M565.239,416.239h-12.552c-3.775,0-6.848-3.072-6.848-6.848v-16.277
				c-8.665-1.717-16.767-5.072-24.106-9.982l-11.508,11.508c-2.671,2.671-7.016,2.669-9.685,0l-8.875-8.875
				c-1.294-1.293-2.006-3.013-2.006-4.842s0.712-3.549,2.006-4.843l11.508-11.508c-4.91-7.339-8.265-15.44-9.981-24.105h-16.278
				c-3.775,0-6.848-3.072-6.848-6.849v-12.551c0-3.776,3.072-6.849,6.848-6.849h16.278c1.717-8.665,5.071-16.767,9.981-24.105
				l-11.508-11.508c-2.67-2.67-2.67-7.015,0-9.685l8.875-8.875c2.669-2.669,7.014-2.671,9.685,0l11.508,11.508
				c7.34-4.91,15.441-8.266,24.106-9.982v-16.278c0-3.776,3.072-6.848,6.848-6.848h12.552c3.775,0,6.848,3.072,6.848,6.848v16.278
				c8.665,1.717,16.767,5.072,24.107,9.982l11.508-11.508c1.293-1.294,3.013-2.006,4.842-2.006c1.829,0,3.549,0.712,4.842,2.006
				l8.876,8.875c2.669,2.67,2.669,7.015,0,9.685l-11.508,11.508c4.91,7.339,8.265,15.44,9.981,24.105h16.278
				c3.775,0,6.848,3.072,6.848,6.849v12.551c0,3.776-3.072,6.849-6.848,6.849h-16.278c-1.717,8.665-5.071,16.767-9.981,24.105
				l11.508,11.508c2.67,2.671,2.67,7.015,0,9.684l-8.876,8.875c-1.293,1.294-3.013,2.006-4.842,2.006
				c-1.829,0-3.549-0.712-4.842-2.006l-11.508-11.508c-7.34,4.91-15.441,8.266-24.107,9.982v16.277
				C572.087,413.167,569.015,416.239,565.239,416.239z M521.61,380.841c0.197,0,0.394,0.058,0.566,0.176
				c7.517,5.162,15.876,8.624,24.846,10.288c0.474,0.088,0.817,0.502,0.817,0.983v17.104c0,2.673,2.175,4.848,4.848,4.848h12.552
				c2.673,0,4.848-2.175,4.848-4.848v-17.104c0-0.481,0.344-0.895,0.817-0.983c8.97-1.664,17.329-5.126,24.846-10.288
				c0.396-0.273,0.933-0.224,1.273,0.117l12.092,12.092c0.916,0.916,2.133,1.42,3.428,1.42c1.295,0,2.512-0.504,3.428-1.42
				l8.876-8.875c1.89-1.89,1.89-4.966,0-6.856l-12.092-12.092c-0.341-0.341-0.39-0.876-0.117-1.273
				c5.162-7.517,8.623-15.875,10.287-24.845c0.088-0.474,0.502-0.817,0.983-0.817h17.104c2.673,0,4.848-2.175,4.848-4.849v-12.551
				c0-2.674-2.175-4.849-4.848-4.849h-17.104c-0.481,0-0.896-0.344-0.983-0.817c-1.664-8.97-5.125-17.328-10.287-24.845
				c-0.273-0.397-0.224-0.933,0.117-1.273l12.092-12.092c1.89-1.891,1.89-4.966,0-6.856l-8.876-8.875
				c-0.916-0.916-2.133-1.42-3.428-1.42c-1.295,0-2.512,0.504-3.428,1.42l-12.092,12.092c-0.341,0.341-0.877,0.391-1.273,0.117
				c-7.517-5.162-15.876-8.624-24.846-10.288c-0.474-0.088-0.817-0.502-0.817-0.983v-17.104c0-2.673-2.175-4.848-4.848-4.848
				h-12.552c-2.673,0-4.848,2.175-4.848,4.848v17.104c0,0.481-0.344,0.896-0.817,0.983c-8.97,1.664-17.329,5.126-24.846,10.288
				c-0.397,0.273-0.932,0.224-1.273-0.117l-12.092-12.092c-1.89-1.89-4.965-1.892-6.856,0l-8.875,8.875
				c-1.891,1.891-1.891,4.966,0,6.856l12.092,12.092c0.341,0.341,0.39,0.876,0.117,1.273c-5.162,7.517-8.623,15.875-10.287,24.845
				c-0.088,0.474-0.502,0.817-0.983,0.817h-17.104c-2.673,0-4.848,2.175-4.848,4.849v12.551c0,2.674,2.175,4.849,4.848,4.849h17.104
				c0.481,0,0.896,0.344,0.983,0.817c1.664,8.97,5.125,17.328,10.287,24.845c0.272,0.397,0.224,0.933-0.117,1.273l-12.092,12.092
				c-0.916,0.916-1.42,2.134-1.42,3.429c0,1.295,0.504,2.512,1.42,3.428l8.875,8.875c1.892,1.892,4.967,1.89,6.856,0l12.092-12.092
				C521.097,380.94,521.352,380.841,521.61,380.841z M558.963,362.289c-19.269,0-34.946-15.677-34.946-34.946
				c0-19.27,15.677-34.946,34.946-34.946c19.27,0,34.947,15.677,34.947,34.946C593.91,346.612,578.232,362.289,558.963,362.289z
				 M558.963,294.397c-18.167,0-32.946,14.779-32.946,32.946s14.779,32.946,32.946,32.946s32.947-14.779,32.947-32.946
				S577.13,294.397,558.963,294.397z"/>
		</g>
		<g>
			<g>
				<path style="fill:#9595E7;" d="M140.137,398.421h-12.551c-3.776,0-6.849-3.072-6.849-6.848v-16.278
					c-8.664-1.717-16.766-5.072-24.105-9.981l-11.508,11.508c-2.671,2.671-7.016,2.669-9.685,0l-8.875-8.875
					c-2.67-2.67-2.67-7.015,0-9.685l11.508-11.508c-4.911-7.341-8.266-15.442-9.982-24.105H51.812c-3.775,0-6.848-3.072-6.848-6.849
					v-12.552c0-3.775,3.072-6.848,6.848-6.848h16.278c1.716-8.663,5.07-16.765,9.982-24.105l-11.508-11.509
					c-1.294-1.293-2.006-3.013-2.006-4.842s0.712-3.549,2.006-4.842l8.875-8.875c2.669-2.669,7.014-2.671,9.685,0l11.508,11.508
					c7.339-4.91,15.441-8.265,24.105-9.982v-16.278c0-3.776,3.072-6.848,6.849-6.848h12.551c3.776,0,6.849,3.072,6.849,6.848v16.278
					c8.665,1.717,16.767,5.072,24.105,9.982l11.509-11.508c1.293-1.294,3.013-2.006,4.842-2.006s3.549,0.712,4.842,2.006
					l8.875,8.875c1.294,1.293,2.006,3.013,2.006,4.842s-0.712,3.549-2.006,4.842l-11.508,11.509
					c4.91,7.338,8.266,15.441,9.982,24.105h16.277c3.776,0,6.849,3.072,6.849,6.848V315.8c0,3.776-3.072,6.849-6.849,6.849h-16.277
					c-1.718,8.666-5.072,16.768-9.982,24.105l11.508,11.508c2.67,2.67,2.67,7.015,0,9.685l-8.875,8.875
					c-1.293,1.294-3.013,2.006-4.842,2.006s-3.549-0.712-4.842-2.006l-11.509-11.508c-7.339,4.91-15.44,8.265-24.105,9.981v16.278
					C146.985,395.349,143.913,398.421,140.137,398.421z M96.509,363.022c0.197,0,0.395,0.058,0.566,0.176
					c7.518,5.162,15.876,8.623,24.845,10.287c0.474,0.088,0.817,0.502,0.817,0.983v17.104c0,2.673,2.175,4.848,4.849,4.848h12.551
					c2.674,0,4.849-2.175,4.849-4.848v-17.104c0-0.482,0.344-0.896,0.817-0.983c8.97-1.664,17.328-5.125,24.845-10.287
					c0.396-0.272,0.932-0.224,1.273,0.117l12.093,12.092c0.916,0.916,2.133,1.42,3.428,1.42s2.512-0.504,3.428-1.42l8.875-8.875
					c1.891-1.891,1.891-4.966,0-6.856l-12.092-12.092c-0.341-0.341-0.39-0.876-0.117-1.274c5.162-7.516,8.624-15.874,10.288-24.845
					c0.088-0.474,0.502-0.817,0.983-0.817h17.104c2.674,0,4.849-2.175,4.849-4.849v-12.552c0-2.673-2.175-4.848-4.849-4.848h-17.104
					c-0.481,0-0.896-0.344-0.983-0.817c-1.664-8.97-5.126-17.329-10.288-24.845c-0.272-0.398-0.224-0.933,0.117-1.273l12.092-12.093
					c0.916-0.916,1.42-2.133,1.42-3.428c0-1.295-0.504-2.512-1.42-3.428l-8.875-8.876c-0.915-0.915-2.133-1.42-3.428-1.42
					s-2.512,0.504-3.428,1.42l-12.093,12.092c-0.342,0.342-0.877,0.39-1.273,0.117c-7.516-5.162-15.875-8.624-24.845-10.288
					c-0.474-0.088-0.817-0.501-0.817-0.983v-17.104c0-2.673-2.175-4.848-4.849-4.848h-12.551c-2.674,0-4.849,2.175-4.849,4.848
					v17.104c0,0.482-0.344,0.895-0.817,0.983c-8.969,1.664-17.328,5.126-24.845,10.288c-0.396,0.272-0.932,0.225-1.273-0.117
					L83.71,243.641c-1.892-1.891-4.967-1.89-6.857,0l-8.875,8.876c-0.916,0.916-1.42,2.133-1.42,3.428
					c0,1.295,0.504,2.512,1.42,3.428l12.092,12.093c0.341,0.341,0.39,0.876,0.117,1.273c-5.163,7.518-8.624,15.877-10.287,24.845
					c-0.088,0.474-0.501,0.817-0.983,0.817H51.812c-2.673,0-4.848,2.175-4.848,4.848V315.8c0,2.674,2.175,4.849,4.848,4.849h17.105
					c0.482,0,0.895,0.344,0.983,0.817c1.663,8.968,5.124,17.327,10.287,24.845c0.273,0.398,0.224,0.933-0.117,1.274l-12.092,12.092
					c-1.891,1.891-1.891,4.966,0,6.856l8.875,8.875c1.891,1.891,4.966,1.89,6.857,0l12.092-12.092
					C95.995,363.122,96.251,363.022,96.509,363.022z M133.861,344.471c-19.27,0-34.946-15.677-34.946-34.946
					s15.677-34.946,34.946-34.946c19.27,0,34.946,15.677,34.946,34.946S153.131,344.471,133.861,344.471z M133.861,276.578
					c-18.167,0-32.946,14.779-32.946,32.946c0,18.167,14.779,32.946,32.946,32.946s32.946-14.779,32.946-32.946
					C166.808,291.357,152.028,276.578,133.861,276.578z"/>
			</g>
		</g>
		<g>
			<g>
				<path style="fill:#D6D0C4;" d="M196.476,239.796c-2.015,0.001-3.837-1.395-4.295-3.441l-1.99-8.903
					c-4.973,0.087-9.805-0.77-14.441-2.52l-4.887,7.7c-1.301,2.048-4.023,2.659-6.074,1.357l-6.162-3.911
					c-2.048-1.3-2.656-4.024-1.357-6.073l4.889-7.701c-3.558-3.449-6.388-7.478-8.427-11.996l-8.904,1.99
					c-1.146,0.258-2.324,0.05-3.317-0.58c-0.992-0.63-1.68-1.609-1.936-2.756l-1.592-7.122c-0.257-1.147-0.051-2.326,0.579-3.318
					c0.63-0.993,1.608-1.68,2.756-1.937l8.903-1.989c-0.077-4.956,0.769-9.806,2.519-14.442l-7.7-4.888
					c-0.992-0.63-1.68-1.608-1.936-2.755c-0.257-1.147-0.051-2.326,0.579-3.318l3.911-6.162c0.63-0.992,1.608-1.68,2.756-1.936
					c1.152-0.255,2.326-0.05,3.318,0.58l7.7,4.887c3.45-3.557,7.479-6.387,11.995-8.427l-1.989-8.903
					c-0.529-2.368,0.967-4.725,3.335-5.254l7.123-1.591c1.147-0.256,2.326-0.05,3.317,0.579c0.992,0.63,1.68,1.609,1.936,2.756
					l1.99,8.903c4.941-0.08,9.806,0.768,14.441,2.52l4.888-7.701c0.63-0.992,1.608-1.68,2.756-1.936
					c1.151-0.255,2.327-0.049,3.318,0.58l6.162,3.911c2.048,1.301,2.656,4.026,1.355,6.074l-4.887,7.7
					c3.558,3.45,6.388,7.479,8.427,11.996l8.904-1.989c1.144-0.255,2.325-0.051,3.317,0.579c0.992,0.63,1.68,1.609,1.936,2.756
					l1.592,7.122c0.529,2.368-0.967,4.725-3.335,5.254l-8.903,1.989c0.077,4.956-0.769,9.806-2.519,14.442l7.7,4.888
					c0.992,0.63,1.68,1.608,1.937,2.755c0.257,1.147,0.051,2.326-0.58,3.318l-3.91,6.162c-1.3,2.048-4.023,2.659-6.074,1.357
					l-7.7-4.888c-3.45,3.557-7.478,6.387-11.995,8.427l1.988,8.903c0.257,1.147,0.052,2.325-0.578,3.317
					c-0.63,0.992-1.608,1.68-2.756,1.936l-7.123,1.592C197.113,239.762,196.792,239.796,196.476,239.796z M190.987,225.431
					c0.467,0,0.873,0.324,0.976,0.782l2.169,9.706c0.289,1.292,1.573,2.104,2.867,1.819l7.123-1.592
					c0.625-0.14,1.159-0.515,1.502-1.056c0.344-0.541,0.456-1.184,0.316-1.809l-2.168-9.707c-0.105-0.47,0.14-0.948,0.583-1.138
					c4.824-2.059,9.081-5.049,12.652-8.889c0.329-0.353,0.862-0.422,1.269-0.163l8.395,5.329c1.114,0.707,2.603,0.377,3.314-0.741
					l3.91-6.162c0.345-0.542,0.456-1.184,0.316-1.81c-0.14-0.626-0.515-1.159-1.057-1.503l-8.395-5.329
					c-0.406-0.258-0.571-0.77-0.392-1.217c1.953-4.866,2.848-9.991,2.657-15.233c-0.018-0.481,0.311-0.907,0.781-1.012l9.706-2.169
					c1.291-0.289,2.107-1.574,1.819-2.866l-1.592-7.123c-0.14-0.626-0.515-1.16-1.057-1.503c-0.541-0.344-1.184-0.457-1.81-0.316
					l0,0l-9.707,2.168c-0.466,0.106-0.948-0.14-1.138-0.583c-2.058-4.824-5.048-9.081-8.888-12.652
					c-0.354-0.328-0.422-0.861-0.164-1.268l5.328-8.395c0.71-1.118,0.378-2.604-0.739-3.314l-6.162-3.911
					c-0.541-0.343-1.186-0.455-1.81-0.316c-0.626,0.14-1.16,0.515-1.503,1.056l-5.329,8.396c-0.26,0.407-0.771,0.569-1.218,0.392
					c-4.865-1.955-10-2.847-15.232-2.657c-0.472,0.033-0.906-0.311-1.012-0.781l-2.169-9.706c-0.14-0.626-0.515-1.16-1.057-1.503
					c-0.541-0.344-1.184-0.456-1.81-0.316l-7.123,1.591c-1.291,0.288-2.107,1.574-1.819,2.866l2.169,9.706
					c0.105,0.471-0.14,0.949-0.583,1.138c-4.823,2.058-9.08,5.049-12.652,8.888c-0.33,0.352-0.863,0.421-1.268,0.163l-8.395-5.328
					c-0.541-0.343-1.185-0.458-1.81-0.316c-0.626,0.14-1.16,0.515-1.503,1.056l-3.911,6.162c-0.344,0.542-0.456,1.184-0.316,1.81
					c0.14,0.626,0.515,1.16,1.057,1.503l8.395,5.329c0.406,0.258,0.571,0.77,0.392,1.217c-1.953,4.866-2.848,9.991-2.657,15.233
					c0.018,0.482-0.311,0.907-0.781,1.012l-9.706,2.169c-1.291,0.288-2.108,1.574-1.819,2.866l1.592,7.122
					c0.14,0.626,0.515,1.16,1.057,1.504c0.54,0.343,1.18,0.455,1.81,0.316l9.707-2.169c0.466-0.104,0.948,0.141,1.138,0.583
					c2.058,4.825,5.049,9.082,8.888,12.652c0.354,0.328,0.422,0.861,0.164,1.268l-5.329,8.395c-0.709,1.117-0.377,2.604,0.74,3.313
					l6.162,3.911c1.114,0.708,2.602,0.378,3.313-0.741l5.327-8.395c0.259-0.408,0.768-0.57,1.218-0.393
					c4.866,1.954,9.991,2.853,15.232,2.658C190.963,225.431,190.976,225.431,190.987,225.431z M234.656,170.754h0.01H234.656z
					 M189.629,208.78c-9.494,0-18.081-6.575-20.236-16.218c-1.208-5.407-0.238-10.959,2.73-15.637
					c2.968-4.677,7.581-7.918,12.987-9.126c11.154-2.494,22.267,4.557,24.762,15.717c2.494,11.161-4.558,22.269-15.718,24.763l0,0
					C192.639,208.617,191.122,208.78,189.629,208.78z M189.636,169.298c-1.35,0-2.719,0.146-4.09,0.453
					c-4.885,1.091-9.053,4.019-11.734,8.246c-2.683,4.226-3.559,9.244-2.468,14.128c2.255,10.084,12.288,16.454,22.375,14.201l0,0
					c10.084-2.253,16.455-12.29,14.202-22.374C205.973,175.239,198.214,169.298,189.636,169.298z"/>
			</g>
		</g>
		<g>
			<g>
				<path style="fill:#D6D0C4;" d="M527.882,239.881c-2.015,0.001-3.837-1.395-4.295-3.441l-1.99-8.903
					c-4.945,0.084-9.805-0.769-14.441-2.52l-4.887,7.7c-1.301,2.048-4.023,2.658-6.074,1.357l-6.162-3.911
					c-2.048-1.3-2.656-4.024-1.357-6.073l4.889-7.701c-3.558-3.449-6.388-7.478-8.428-11.996l-8.903,1.99
					c-2.367,0.531-4.726-0.967-5.253-3.335l-1.592-7.122c-0.257-1.147-0.052-2.326,0.579-3.318c0.63-0.992,1.608-1.68,2.756-1.936
					l8.903-1.989c-0.077-4.956,0.768-9.806,2.518-14.442l-7.7-4.888c-0.992-0.63-1.68-1.608-1.936-2.755
					c-0.257-1.147-0.051-2.326,0.58-3.318l3.91-6.162c0.63-0.993,1.608-1.68,2.756-1.937c1.152-0.255,2.327-0.05,3.318,0.58
					l7.7,4.887c3.45-3.557,7.479-6.387,11.995-8.427l-1.989-8.903c-0.529-2.368,0.967-4.725,3.335-5.254l7.123-1.592
					c2.368-0.529,4.726,0.968,5.253,3.335l1.99,8.903c4.935-0.09,9.805,0.769,14.441,2.52l4.888-7.701
					c0.63-0.992,1.608-1.68,2.756-1.936c1.152-0.255,2.327-0.049,3.318,0.58l6.161,3.911c0.992,0.63,1.68,1.609,1.937,2.756
					c0.257,1.147,0.051,2.326-0.58,3.318l-4.887,7.7c3.559,3.451,6.389,7.479,8.427,11.996l8.903-1.99l0,0
					c2.365-0.53,4.725,0.967,5.254,3.335l1.592,7.123c0.529,2.368-0.967,4.725-3.335,5.254l-8.903,1.989
					c0.078,4.956-0.769,9.807-2.52,14.442l7.701,4.888c2.048,1.3,2.657,4.024,1.357,6.073l-3.911,6.162
					c-1.301,2.048-4.024,2.659-6.074,1.357l-7.701-4.888c-3.448,3.557-7.478,6.387-11.995,8.427l1.989,8.903
					c0.257,1.147,0.052,2.325-0.579,3.318c-0.63,0.992-1.608,1.68-2.756,1.936l-7.122,1.592
					C528.519,239.847,528.198,239.881,527.882,239.881z M522.394,225.516c0.467,0,0.873,0.324,0.975,0.782l2.169,9.706
					c0.289,1.291,1.571,2.105,2.867,1.819l7.122-1.592c0.626-0.14,1.159-0.515,1.503-1.056c0.344-0.541,0.456-1.184,0.316-1.81
					l-2.169-9.706c-0.105-0.471,0.14-0.949,0.583-1.138c4.825-2.059,9.082-5.049,12.652-8.889c0.329-0.353,0.862-0.422,1.268-0.163
					l8.396,5.329c1.114,0.708,2.604,0.377,3.314-0.741l3.91-6.162c0.709-1.118,0.377-2.604-0.74-3.313l-8.396-5.329
					c-0.406-0.258-0.571-0.77-0.392-1.217c1.954-4.866,2.849-9.991,2.658-15.233c-0.017-0.482,0.311-0.907,0.781-1.012l9.706-2.169
					c1.291-0.288,2.108-1.574,1.819-2.866l-1.592-7.122c-0.289-1.291-1.566-2.109-2.867-1.819l-9.706,2.169
					c-0.466,0.105-0.948-0.14-1.138-0.584c-2.057-4.823-5.048-9.08-8.888-12.653c-0.354-0.328-0.422-0.861-0.164-1.268l5.328-8.395
					c0.345-0.542,0.456-1.184,0.316-1.81c-0.14-0.626-0.515-1.16-1.057-1.503l-6.161-3.911c-0.542-0.343-1.185-0.455-1.81-0.316
					c-0.626,0.14-1.16,0.515-1.503,1.056l-5.329,8.396c-0.26,0.406-0.771,0.57-1.218,0.392c-4.865-1.955-9.987-2.848-15.232-2.657
					c-0.466,0.028-0.906-0.311-1.012-0.781l-2.169-9.706c-0.289-1.292-1.571-2.109-2.866-1.819l-7.123,1.592
					c-1.291,0.289-2.107,1.574-1.819,2.866l2.169,9.706c0.105,0.471-0.14,0.949-0.583,1.138c-4.823,2.058-9.08,5.049-12.652,8.888
					c-0.33,0.352-0.863,0.421-1.269,0.163L484,157.45c-0.541-0.343-1.185-0.456-1.81-0.316c-0.626,0.14-1.16,0.515-1.503,1.056
					l-3.911,6.162c-0.344,0.542-0.456,1.185-0.316,1.81c0.14,0.626,0.515,1.16,1.057,1.503l8.395,5.329
					c0.406,0.258,0.571,0.77,0.392,1.217c-1.953,4.866-2.848,9.991-2.657,15.233c0.018,0.481-0.311,0.907-0.781,1.012l-9.706,2.169
					c-0.626,0.14-1.159,0.515-1.503,1.056c-0.344,0.541-0.456,1.184-0.316,1.81l1.592,7.123c0.289,1.292,1.572,2.107,2.866,1.819
					l9.706-2.169c0.467-0.104,0.948,0.141,1.138,0.583c2.059,4.825,5.05,9.082,8.889,12.652c0.354,0.329,0.422,0.861,0.164,1.269
					l-5.329,8.395c-0.709,1.117-0.377,2.604,0.74,3.313l6.162,3.911c1.113,0.707,2.603,0.378,3.314-0.741l5.327-8.395
					c0.258-0.408,0.769-0.573,1.218-0.392c4.865,1.953,9.989,2.852,15.232,2.657C522.369,225.516,522.382,225.516,522.394,225.516z
					 M521.035,208.865c-9.494,0-18.081-6.575-20.236-16.219c-2.494-11.16,4.557-22.269,15.717-24.763
					c11.154-2.489,22.269,4.557,24.763,15.717c2.494,11.161-4.558,22.268-15.718,24.763l0,0
					C524.045,208.703,522.528,208.865,521.035,208.865z M521.04,169.383c-1.35,0-2.718,0.147-4.089,0.453
					c-10.083,2.253-16.454,12.291-14.201,22.374c2.255,10.083,12.281,16.458,22.375,14.202l0,0
					c10.084-2.253,16.455-12.29,14.202-22.374C537.379,175.324,529.619,169.383,521.04,169.383z"/>
			</g>
		</g>
		<circle style="fill:#9595E7;" cx="586.429" cy="197.666" r="2.713"/>
		<path style="fill:#9595E7;" d="M669.437,166.593c0,0.749-0.607,1.356-1.356,1.356c-0.749,0-1.356-0.607-1.356-1.356
			c0-0.749,0.607-1.356,1.356-1.356C668.829,165.237,669.437,165.844,669.437,166.593z"/>
		<path style="fill:#9595E7;" d="M590.498,134.195c0,0.749-0.607,1.356-1.356,1.356c-0.749,0-1.356-0.607-1.356-1.356
			c0-0.749,0.607-1.356,1.356-1.356C589.89,132.839,590.498,133.446,590.498,134.195z"/>
		<path style="fill:#9595E7;" d="M571.555,425.082c0,0.749-0.607,1.356-1.356,1.356c-0.749,0-1.356-0.607-1.356-1.356
			c0-0.749,0.607-1.356,1.356-1.356C570.947,423.726,571.555,424.333,571.555,425.082z"/>
		<path style="fill:#9595E7;" d="M471.889,40.144c0,0.749-0.607,1.356-1.356,1.356c-0.749,0-1.356-0.607-1.356-1.356
			c0-0.749,0.607-1.356,1.356-1.356C471.282,38.788,471.889,39.395,471.889,40.144z"/>
		<path style="fill:#9595E7;" d="M356.3,240.446c0,0.749-0.607,1.356-1.356,1.356c-0.749,0-1.356-0.607-1.356-1.356
			c0-0.749,0.607-1.356,1.356-1.356C355.693,239.09,356.3,239.697,356.3,240.446z"/>
		<path style="fill:#9595E7;" d="M427.889,101.663c0,0.749-0.607,1.356-1.356,1.356s-1.356-0.607-1.356-1.356
			c0-0.749,0.607-1.356,1.356-1.356S427.889,100.914,427.889,101.663z"/>
		<path style="fill:#9595E7;" d="M182.654,108.046c0,0.749-0.607,1.356-1.356,1.356c-0.749,0-1.356-0.607-1.356-1.356
			c0-0.749,0.607-1.356,1.356-1.356C182.047,106.689,182.654,107.297,182.654,108.046z"/>
		<path style="fill:#FFD563;" d="M627.36,236.805c0,1.498-1.214,2.712-2.712,2.712s-2.712-1.214-2.712-2.712
			c0-1.498,1.214-2.713,2.712-2.713S627.36,235.307,627.36,236.805z"/>
		<circle style="fill:#FFD563;" cx="333.079" cy="44.213" r="2.713"/>
		<circle style="fill:#FFD563;" cx="389.195" cy="199.158" r="2.713"/>
		<path style="fill:#FFD563;" d="M602.62,376.565c0,1.498-1.214,2.712-2.712,2.712c-1.498,0-2.713-1.214-2.713-2.712
			s1.214-2.712,2.713-2.712C601.406,373.853,602.62,375.067,602.62,376.565z"/>
		<circle style="fill:#E8E8E8;" cx="369.856" cy="83.697" r="2.713"/>
		<circle style="fill:#E8E8E8;" cx="638.644" cy="133.725" r="2.105"/>
		<circle style="fill:#E8E8E8;" cx="611.983" cy="407.368" r="2.105"/>
		<path style="fill:#FFD563;" d="M471.72,89.504c0,1.163-0.943,2.105-2.105,2.105c-1.163,0-2.105-0.943-2.105-2.105
			s0.943-2.105,2.105-2.105C470.777,87.398,471.72,88.341,471.72,89.504z"/>
		<circle style="fill:#090909;" cx="632.932" cy="194.241" r="1.498"/>
		<circle style="fill:#9595E7;" cx="112.856" cy="187.852" r="2.713"/>
		<path style="fill:#9595E7;" d="M44.635,136.633c-0.148,0.734,0.327,1.45,1.062,1.597c0.734,0.148,1.45-0.327,1.597-1.062
			c0.148-0.734-0.328-1.449-1.062-1.597C45.498,135.423,44.783,135.899,44.635,136.633z"/>
		<path style="fill:#FFD563;" d="M64.147,218.27c-0.296,1.469,0.655,2.899,2.123,3.195c1.469,0.296,2.899-0.655,3.195-2.123
			c0.296-1.469-0.655-2.899-2.123-3.195C65.873,215.851,64.443,216.802,64.147,218.27z"/>
		<path style="fill:#E8E8E8;" d="M113.505,130.413c-0.23,1.14,0.508,2.25,1.648,2.48c1.14,0.23,2.25-0.508,2.479-1.648
			c0.23-1.14-0.508-2.25-1.648-2.479C114.845,128.536,113.735,129.273,113.505,130.413z"/>
		<path style="fill:#090909;" d="M69.44,164.018c-0.163,0.811,0.362,1.601,1.173,1.764c0.811,0.163,1.601-0.362,1.764-1.173
			c0.163-0.811-0.362-1.601-1.173-1.764C70.393,162.682,69.604,163.207,69.44,164.018z"/>
		<path style="fill:#090909;" d="M392.674,49.626c-0.163,0.811,0.362,1.601,1.173,1.764c0.811,0.163,1.601-0.362,1.764-1.173
			c0.163-0.811-0.362-1.601-1.173-1.764S392.838,48.815,392.674,49.626z"/>
		<path style="fill:#090909;" d="M387.727,248.242c-0.163,0.811,0.362,1.601,1.173,1.764c0.811,0.163,1.601-0.362,1.764-1.173
			c0.163-0.811-0.362-1.601-1.173-1.764C388.68,246.906,387.89,247.431,387.727,248.242z"/>
		<path style="fill:#090909;" d="M555.996,377.022c-0.163,0.811,0.362,1.601,1.173,1.764c0.811,0.163,1.601-0.362,1.764-1.173
			s-0.362-1.601-1.173-1.764S556.16,376.211,555.996,377.022z"/>
	</g>
</g>
<g id="OBJECTS">
	<g>
		<g>
			<path style="fill:#9595E7;" d="M363.812,195.193c-4.41-10.422-16.433-15.296-26.855-10.886c-3.11,1.316-5.727,3.31-7.749,5.738
				l-7.35-1.124l3.9,7.057c-1.781,4.743-1.817,10.151,0.313,15.185c4.41,10.422,16.433,15.296,26.855,10.886
				C363.348,217.638,368.222,205.614,363.812,195.193z"/>
			<path style="fill:#FFFFFF;" d="M354.829,211.175h-19.491c-0.276,0-0.5-0.224-0.5-0.5c0-0.276,0.224-0.5,0.5-0.5h19.491
				c0.276,0,0.5,0.224,0.5,0.5C355.329,210.952,355.105,211.175,354.829,211.175z"/>
			<path style="fill:#FFFFFF;" d="M354.829,204.626h-19.491c-0.276,0-0.5-0.224-0.5-0.5s0.224-0.5,0.5-0.5h19.491
				c0.276,0,0.5,0.224,0.5,0.5S355.105,204.626,354.829,204.626z"/>
			<path style="fill:#FFFFFF;" d="M354.829,197.529h-19.491c-0.276,0-0.5-0.224-0.5-0.5c0-0.276,0.224-0.5,0.5-0.5h19.491
				c0.276,0,0.5,0.224,0.5,0.5C355.329,197.305,355.105,197.529,354.829,197.529z"/>
		</g>
		<g>
			<g>
				<path style="fill:#766CCC;" d="M333.834,144.249c4.064,19.787,23.399,32.533,43.186,28.469
					c5.905-1.213,11.183-3.786,15.575-7.325l12.47,4.545l-4.352-13.719c4.781-7.677,6.74-17.13,4.777-26.688
					c-4.064-19.787-23.399-32.533-43.186-28.469C342.516,105.126,329.77,124.461,333.834,144.249z"/>
			</g>
			<g>
				<path style="fill:#FFFFFF;" d="M368.289,157.801h-1.265c-2.937,0-5.326-2.505-5.326-5.584c0-3.079,2.39-5.583,5.326-5.583h1.265
					c2.938,0,5.327,2.505,5.327,5.583C373.616,155.296,371.227,157.801,368.289,157.801z M367.024,147.633
					c-2.386,0-4.326,2.056-4.326,4.583c0,2.528,1.94,4.584,4.326,4.584h1.265c2.386,0,4.327-2.056,4.327-4.584
					c0-2.527-1.941-4.583-4.327-4.583H367.024z M369.075,144.238c-0.026,0-0.053-0.001-0.078-0.001
					c-1.165-0.009-2.076-0.175-2.867-0.522c-1.952-0.858-2.367-2.609-2.603-4.184l-0.865-5.782c-0.023-0.146,0.021-0.295,0.12-0.406
					l0.478-0.538c0.086-0.096,0.205-0.156,0.334-0.166c3.371-0.27,5.755-0.8,7.083-1.578c1.26-0.735,1.846-1.613,1.846-2.766
					c0-0.876-0.314-1.539-0.963-2.023c-2.109-1.58-4.397-0.743-6.818,0.143c-1.736,0.636-3.528,1.294-5.31,1.033
					c-1.399-0.204-2.675-0.979-3.501-2.126c-0.825-1.146-1.155-2.602-0.905-3.994c0.318-1.77,1.584-3.419,3.471-4.526
					c3.743-2.196,8.384-2.524,10.817-2.524c2.227,0,4.313,0.3,6.194,0.892c1.895,0.599,3.538,1.465,4.889,2.573
					c1.361,1.111,2.444,2.497,3.215,4.119c0.776,1.631,1.154,3.462,1.154,5.598c0,1.936-0.315,3.643-0.936,5.074
					c-0.622,1.429-1.486,2.671-2.569,3.693c-1.073,1.01-2.355,1.856-3.812,2.513c-1.122,0.505-2.599,0.829-4.027,1.141
					c-0.296,0.065-0.588,0.128-0.87,0.193c0.007,0.154,0.018,0.338,0.026,0.515c0.02,0.363,0.035,0.703,0.033,0.773
					c-0.037,0.839-0.202,1.772-1.145,2.339C370.68,144.173,369.74,144.238,369.075,144.238z M363.685,133.833l0.83,5.551
					c0.258,1.715,0.67,2.825,2.017,3.416c0.662,0.291,1.448,0.43,2.473,0.438c0.863-0.015,1.487-0.119,1.944-0.396
					c0.451-0.271,0.624-0.67,0.661-1.524c0.001-0.071-0.015-0.365-0.031-0.678c-0.065-1.225-0.072-1.353,0.352-1.45
					c0.402-0.096,0.835-0.191,1.276-0.288c1.378-0.301,2.803-0.613,3.83-1.076c1.354-0.612,2.545-1.396,3.537-2.33
					c0.983-0.928,1.77-2.06,2.338-3.364c0.566-1.304,0.853-2.876,0.853-4.675c0-1.984-0.346-3.674-1.057-5.168
					c-0.707-1.488-1.698-2.758-2.946-3.774c-1.252-1.028-2.784-1.833-4.555-2.394c-1.785-0.561-3.768-0.845-5.895-0.845
					c-2.332,0-6.773,0.31-10.311,2.387c-1.635,0.959-2.726,2.359-2.992,3.841c-0.2,1.111,0.074,2.319,0.732,3.233
					c0.659,0.916,1.718,1.559,2.834,1.722c1.532,0.221,3.127-0.363,4.821-0.983c2.564-0.939,5.218-1.909,7.762-0.005
					c0.904,0.678,1.363,1.627,1.363,2.824c0,1.502-0.787,2.723-2.341,3.629c-1.452,0.85-3.844,1.405-7.307,1.695L363.685,133.833z"
					/>
			</g>
		</g>
	</g>
	<g>
		<g>
			<path style="fill:#5353B8;" d="M196.109,208.388l15.53-1.531l51.028,19.134l22.848-6.629c3.046,0.989,5.767,1.958,8.221,2.912
				c0.044-0.255,15.17,5.217,16.018,5.585c11.382,4.931,22.21,11.584,31.028,20.371c10.646,10.608,17.636,24.234,19.165,39.259
				c1.039,10.208-0.711,20.64-0.904,30.911c-0.217,11.562-0.295,23.126-0.235,34.69c0.122,23.127,0.8,46.252,2.033,69.346
				c0.083,1.546,0.152,3.172-0.538,4.557c-2.257,4.53-23.628,5.582-28.129,5.746c-10.181,0.373-163.935-0.016-166.983,0
				l-4.032-119.301c0,0-39.629-25.026-39.599-25.871c0.029-0.823,0.067-1.638,0.113-2.445
				C123.977,244.77,155.886,212.353,196.109,208.388z"/>
			<rect x="233.624" y="240.638" style="fill:#F4F2ED;" width="53.431" height="192.251"/>
			<path style="fill:#29297F;" d="M312.067,318.147c-0.276,0-0.5-0.224-0.5-0.5V285.48c0-0.276,0.224-0.5,0.5-0.5
				c0.276,0,0.5,0.224,0.5,0.5v32.167C312.567,317.924,312.344,318.147,312.067,318.147z"/>
		</g>
		<g>
			<g>
				<g>
					<g>
						<g>
							<g>
								<g>
									<g>
										<g>
											<g>
												<g>
													<path style="fill:#D96448;" d="M312.849,110.621c-3.355-10.687-14.298-9.319-19.948-7.809
														c-2.08,0.556-3.449,1.131-3.449,1.131c-4.536-0.538-16.607-8.434-22.573-12.499c-0.2-0.136-0.39-0.266-0.575-0.393
														c-1.758-1.204-2.863-1.991-2.863-1.991l-1.634,30.508c0,0-4.485,13.084-7.396,11.407
														c-1.938-1.116-4.154-1.807-6.531-1.916l-12.157-0.559l-6.448-0.296c-1.286-0.059-2.539,0.063-3.741,0.328
														c-2.21,0.487-4.245,1.477-5.967,2.855c-3.155,2.525-5.266,6.328-5.464,10.658l-0.053,1.162
														c-0.399,8.707,6.398,16.158,15.104,16.557l2.815,0.129l-15.995,48.763c-4.232,14.747,7.854,27.311,22.837,31.611
														l0.622,0.178c14.983,4.3,30.705-4.248,34.937-18.995l5.735-19.984c17.807-1.513,31.911-16.804,32.134-35.623
														l0.61-51.445C312.85,114.256,312.852,110.763,312.849,110.621z"/>
												</g>
												<g>
													<path style="fill:#BB432A;" d="M279.794,202.045c0,0-30.431-6.138-32.784-18.107c-2.352-11.969,0,0,0,0
														s-7.145,21.096,26.982,38.713L279.794,202.045z"/>
												</g>
											</g>
											<g>
												<g>
													<polygon style="fill:#0B1126;" points="227.378,173.888 239.87,159.894 231.968,159.894 													"/>
												</g>
											</g>
										</g>
									</g>
								</g>
								
									<path style="fill:none;stroke:#121936;stroke-width:5;stroke-linecap:round;stroke-linejoin:round;stroke-miterlimit:10;" d="
									M226.117,142.987"/>
							</g>
						</g>
					</g>
					<path style="fill:#0B1126;" d="M327.696,85.323c-0.051-1.719-0.29-3.458-0.745-5.126c-0.726-2.657-2.003-5.132-3.953-7.058
						c-5.813-5.74-17.161-5.889-23.814-1.552c-2.226,1.451-3.601,3.695-5.402,5.591c0.295-0.183,0.158-1.939,0.14-2.273
						c-0.039-0.74-0.166-1.475-0.391-2.181c-0.426-1.339-1.187-2.52-2.203-3.486c-2.065-1.964-4.927-2.95-7.721-3.239
						c-7.213-0.745-13.428,2.817-18.24,7.897c-0.343,0.362-0.704,0.86-0.498,1.313c-0.973-2.146-4.685-2.555-6.722-2.617
						c-2.88-0.086-5.757,0.701-8.31,2.004c-3.667,1.871-7.092,4.778-9.811,7.86c-2.613,2.963-4.82,6.39-6.197,10.104
						c-0.05,0.135-0.086,0.273-0.133,0.409c-5.123,1.987-9.858,7.427-12.744,13.152c-1.742,3.456-2.608,7.769-1.544,11.696
						c0.989,3.647,3.383,7.647,6.123,10.716c1.203-0.265,2.455-0.387,3.741-0.328l6.448,0.296l8.075,0.371
						c0.768,3.943,2.219,7.708,4.263,11.126l-0.618,15.069c-0.057,1.322-0.551,2.588-1.405,3.6h0
						c-10.752,19.622,1.466,43.935,23.629,47.016l2.168,0.301c0.546,0.23,1.123,0.379,1.712,0.44l15.23,1.573
						c13.001,1.343,24.315-8.839,24.346-21.909l-0.809-26.563l-1.235,2.216c-0.816,1.464-2.857,1.632-3.901,0.32
						c-1.703-2.14-4.195-3.506-6.916-3.789l-15.357-1.597c-3.085-0.321-6.2,0.183-9.026,1.46l-1.895,1.199
						c-5.797,3.667-13.329-0.595-13.195-7.454c0.07-3.56,0.582-13.949,0.87-22.153c2.47-10.058,4.402-22.673,2.539-34.949
						c8.053,6.402,16.882,11.407,26.124,14.812c5.478,2.018,11.194,3.484,16.911,2.997c5.717-0.487,11.476-3.109,15.303-8.21
						C326.499,99.095,327.891,91.836,327.696,85.323z"/>
					<path style="fill:none;stroke:#FF6969;stroke-width:5;stroke-linecap:round;stroke-linejoin:round;stroke-miterlimit:10;" d="
						M222.841,143.83"/>
					<g>
						<g>
							<polyline style="fill:#D96448;" points="226.699,138.722 231.632,145.191 226.294,148.087 							"/>
							<path style="fill:#BB432A;" d="M226.295,149.087c-0.355,0-0.699-0.189-0.88-0.523c-0.264-0.485-0.083-1.093,0.402-1.356
								l4.312-2.34l-4.225-5.54c-0.335-0.439-0.251-1.067,0.189-1.402c0.439-0.335,1.068-0.249,1.401,0.189l4.933,6.468
								c0.178,0.232,0.244,0.53,0.183,0.816c-0.061,0.286-0.244,0.53-0.501,0.669l-5.338,2.896
								C226.619,149.048,226.456,149.087,226.295,149.087z"/>
						</g>
						<g>
							<g>
								<g>
									<g>
										<g>
											<g>
												<path style="fill:#0B1126;" d="M271.844,125.07c1.244,0.296,2.716-0.111,4.161-0.423
													c1.448-0.345,2.911-0.655,4.192-0.879c1.284-0.226,2.766-0.434,4.245-0.605c1.465-0.2,2.995-0.322,4.048-1.021
													c1.019-0.659,1.233-2.072-0.359-3.483c-1.505-1.382-5.013-2.555-9.262-1.818c-4.24,0.756-7.085,3.046-7.98,4.85
													C269.925,123.552,270.647,124.8,271.844,125.07z"/>
											</g>
										</g>
									</g>
									<g>
										<g>
											<g>
												<path style="fill:#0B1126;" d="M303.44,122.251c1.007-0.176,2.113,0.283,3.208,0.657
													c1.094,0.403,2.204,0.776,3.181,1.062c0.979,0.287,2.115,0.572,3.253,0.823c1.124,0.277,2.307,0.488,3.051,1.177
													c0.723,0.652,0.729,1.914-0.676,3.051c-1.335,1.118-4.212,1.915-7.453,0.975c-3.232-0.957-5.198-3.173-5.694-4.827
													C301.767,123.46,302.474,122.408,303.44,122.251z"/>
											</g>
										</g>
									</g>
								</g>
							</g>
						</g>
						<path style="fill:#BB432A;" d="M294.57,170.948c-0.022,0-0.044,0-0.066-0.002l-9.047-0.596
							c-3.365-0.222-6.135-3.133-6.585-6.922c-0.065-0.549,0.327-1.046,0.875-1.111c0.547-0.061,1.046,0.327,1.111,0.875
							c0.337,2.833,2.325,5.004,4.729,5.163l9.047,0.596c0.552,0.037,0.969,0.513,0.933,1.064
							C295.532,170.542,295.093,170.948,294.57,170.948z"/>
						<g>
							<path style="fill:#FFFFFF;" d="M289.91,138.601c-0.286-3.275-1.814-8.185-8.249-9.485c-1.06-0.214-2.052-0.249-2.993-0.168
								c-4.354,0.373-7.439,3.543-9.318,6.29c-1.39,2.033-0.322,4.871,2.072,5.45c0.75,0.182,1.501,0.337,2.248,0.475
								c-0.239-0.686-0.36-1.418-0.326-2.176c0.159-3.492,3.402-6.182,7.244-6.007c3.842,0.175,6.827,3.148,6.667,6.641
								c-0.037,0.819-0.25,1.592-0.595,2.296c0.421-0.022,0.814-0.046,1.161-0.072c1.223-0.09,2.176-1.12,2.142-2.346
								C289.957,139.219,289.937,138.915,289.91,138.601z"/>
							<path style="fill:#0B1126;" d="M280.589,132.979c-3.842-0.175-7.085,2.514-7.244,6.007c-0.035,0.759,0.087,1.49,0.326,2.176
								c5.072,0.933,9.94,0.915,12.991,0.754c0.345-0.704,0.557-1.477,0.595-2.296C287.416,136.127,284.431,133.154,280.589,132.979
								z"/>
						</g>
						<g>
							<path style="fill:#FFFFFF;" d="M316.311,140.954c-0.228-2.609-1.445-6.52-6.571-7.556c-0.844-0.171-1.635-0.198-2.384-0.134
								c-3.469,0.297-5.926,2.822-7.423,5.011c-1.107,1.62-0.256,3.881,1.65,4.342c0.625,0.151,1.25,0.281,1.871,0.393
								c-0.2-0.558-0.302-1.154-0.273-1.773c0.127-2.782,2.71-4.924,5.771-4.785c3.06,0.139,5.439,2.508,5.312,5.29
								c-0.03,0.661-0.203,1.284-0.483,1.85c0.313-0.017,0.608-0.035,0.869-0.054c0.975-0.071,1.733-0.892,1.707-1.869
								C316.349,141.447,316.333,141.204,316.311,140.954z"/>
							<path style="fill:#0B1126;" d="M308.952,136.452c-3.06-0.139-5.644,2.003-5.771,4.785c-0.028,0.619,0.074,1.215,0.273,1.773
								c4.043,0.735,7.915,0.712,10.326,0.582c0.281-0.567,0.453-1.189,0.483-1.85C314.391,138.96,312.012,136.591,308.952,136.452z
								"/>
						</g>
						<g>
							<path style="fill:#D96448;" d="M298.173,124.173l3.813,23.063c0.084,0.507-0.028,1.021-0.321,1.443
								c-1.063,1.529-4.264,4.676-11.682,2.336"/>
							<path style="fill:#BB432A;" d="M294.883,152.852c-1.479,0-3.201-0.254-5.201-0.885c-0.526-0.166-0.819-0.728-0.653-1.254
								c0.166-0.527,0.73-0.819,1.255-0.653c6.811,2.149,9.656-0.65,10.561-1.954c0.142-0.205,0.198-0.456,0.156-0.708
								l-3.814-23.063c-0.091-0.545,0.278-1.06,0.823-1.15c0.542-0.087,1.06,0.279,1.149,0.824l3.813,23.063
								c0.128,0.768-0.045,1.541-0.486,2.176C301.615,150.502,299.379,152.852,294.883,152.852z"/>
						</g>
					</g>
				</g>
			</g>
			<g>
				<path style="fill:#FFFFFF;" d="M280.753,212.928c-1.111-1.215-2.993-1.31-4.221-0.212l-15.741,14.082l-38.985-31.089
					c-1.673-1.334-4.068-1.249-5.643,0.199l-16.472,15.157c-1.525,1.403-1.615,3.781-0.201,5.296l36.457,39.048
					c1.113,1.192,3.03,1.099,4.023-0.195l20.893-27.246l21.819,24.583c0.952,1.073,2.722,0.587,2.993-0.822l5.309-27.608
					L280.753,212.928z"/>
				<path style="fill:#0B1126;" d="M279.64,249.123l-11.609,17.95c-1.542,2.384-4.889,2.738-6.895,0.729l-17.432-17.456
					l17.16-22.378L279.64,249.123z"/>
			</g>
		</g>
		<g>
			<g>
				<g>
					<path style="fill:#D96448;" d="M239.757,309.065l20.985-9.537c6.686-3.039,13.99-3.949,21.067-2.625l22.926,4.288
						c3.29,0.615,8.111,1.613,10.534,4.108l33.396,18.514c1.965,0.998,2.61,3.494,1.367,5.314c-0.027,0.04-0.055,0.081-0.083,0.121
						c-2.141,3.14-6.312,4.153-9.651,2.339l-17.055-9.263l0.698,0.675c1.912,1.849,2.666,4.759,1.936,7.475l-1.296,4.82l0.227,2.108
						c0.311,2.89-0.928,5.743-3.18,7.323l-21.809,15.298c-1.333,0.935-3.092,0.438-3.818-1.08l0,0
						c-1.793-3.748-0.75-8.418,2.435-10.902l6.924-5.402l-19.949,5.907c-3.282,0.972-6.714,1.076-10.016,0.304l-10.668-2.494
						l-17.46,13.125L239.757,309.065z"/>
					<path style="fill:#BB432A;" d="M322.853,323.168c-0.103,0-0.205-0.031-0.294-0.096l-11.444-8.307
						c-0.224-0.162-0.272-0.475-0.11-0.698c0.162-0.224,0.476-0.273,0.698-0.11l11.444,8.307c0.224,0.162,0.272,0.475,0.11,0.698
						C323.159,323.097,323.007,323.168,322.853,323.168z"/>
					<path style="fill:#BB432A;" d="M324.118,335.508c-0.092,0-0.185-0.025-0.268-0.078l-14.522-9.204
						c-0.233-0.147-0.303-0.456-0.154-0.689c0.147-0.233,0.459-0.302,0.69-0.154l14.522,9.204c0.233,0.147,0.303,0.456,0.154,0.689
						C324.445,335.426,324.283,335.508,324.118,335.508z"/>
					<path style="fill:#BB432A;" d="M305.36,343.139c-0.157,0-0.313-0.074-0.41-0.214c-0.158-0.227-0.103-0.538,0.124-0.696
						l4.201-2.935c0.224-0.156,0.536-0.104,0.696,0.124c0.158,0.227,0.102,0.538-0.124,0.696l-4.201,2.935
						C305.56,343.109,305.46,343.139,305.36,343.139z"/>
				</g>
				<g>
					<path style="fill:#5353B8;" d="M125.381,274.429l59.699,4.814l0.17,22.319l68.744-10.219c1.836-0.273,3.555,1.021,3.982,2.999
						l13.551,62.671c0.66,3.053-1.209,6.086-4.038,6.558c-13.025,2.171-38.583,6.786-65.181,11.072
						c-12.79,2.061-25.82,4.045-37.814,5.644c-7.054,0.941-13.849-0.04-19.995-2.538c-16.883-6.863-28.868-25.181-27.861-46.608
						c0.324-6.891,0.701-13.11,1.136-17.71c1.23-13.009,3.995-25.992,5.225-39"/>
				</g>
				<g>
					<path style="fill:#29297F;" d="M184.01,301.68c-0.006,0-0.013,0-0.02,0c-0.276-0.012-0.491-0.244-0.48-0.52l1.68-42.663
						c0.012-0.275,0.21-0.477,0.52-0.48c0.276,0.012,0.491,0.244,0.48,0.52l-1.68,42.663
						C184.499,301.469,184.277,301.68,184.01,301.68z"/>
					<path style="fill:#29297F;" d="M170.188,305.183c-0.24,0-0.452-0.174-0.492-0.418c-0.045-0.272,0.139-0.53,0.411-0.575
						l63.435-10.526c0.277-0.047,0.531,0.139,0.575,0.411c0.045,0.273-0.139,0.53-0.411,0.575l-63.435,10.526
						C170.243,305.181,170.216,305.183,170.188,305.183z"/>
					<path style="fill:#29297F;" d="M156.987,381.576c-5.416,0-10.802-1.506-15.517-4.385c-0.235-0.143-0.31-0.451-0.166-0.688
						c0.144-0.236,0.45-0.311,0.688-0.166c5.741,3.504,12.509,4.909,19.062,3.941l72.493-11.363
						c0.268-0.039,0.528,0.143,0.571,0.417c0.043,0.272-0.144,0.528-0.417,0.571l-72.498,11.364
						C159.804,381.474,158.394,381.576,156.987,381.576z"/>
				</g>
			</g>
		</g>
	</g>
	<g>
		<path style="fill:#0B1126;" d="M539.023,258.711c1.418-0.91,2.166-2.507,2.73-4.05c0.273-0.745,0.507-1.499,0.721-2.257
			c6.149-8.58,6.944-20.705,1.909-29.99c-2.914-5.375-7.698-9.639-13.237-12.178c-0.709-0.325-1.432-0.623-2.165-0.891
			c-2.197-0.804-4.49-1.346-6.816-1.588c-1.609-0.167-3.134-0.133-4.552-0.422c-0.847-0.612-1.634-1.291-2.31-2.09
			c-4.56-5.39-2.581-13.292-2.148-20.269c0.321-5.171-0.492-10.316-2.215-15.171c6.571-2.602,11.226-9,11.226-16.497
			c0-9.804-7.948-17.751-17.751-17.751c-6.538,0-12.236,3.545-15.316,8.808c-1.227-0.786-2.495-1.514-3.802-2.173
			c-20.932-10.554-52.854-4.656-65.678,16.15c-4.433,7.191-5.198,15.995-5.503,24.437c-0.114,3.15-0.211,6.426-1.661,9.225
			c-2.374,4.583-6.576,7.483-8.326,12.494c-1.865,5.339-1.586,11.358,0.598,16.558c1.152,2.742,2.958,4.841,4.666,7.219
			c0.864,1.204,2.743,3.683,2.237,5.446c-0.162,0.272-0.315,0.547-0.469,0.822c-0.005,0.005-0.008,0.011-0.013,0.016
			c-0.001,0.001,0.001,0.005,0,0.006c-3.472,6.189-5.094,13.167-4.242,20.346c1.401,11.811,9.119,21.566,20.043,27.228
			c13.363,6.927,26.464,14.298,38.002,23.243c9.652,7.483,23.345,11.124,37.765,8.709c20.79-3.482,36.671-19.256,37.543-37.118
			c0.139-2.851-0.075-5.768-0.749-8.546c-0.594-2.447-2.046-4.777-1.871-7.378c0.044-0.648,0.198-1.262,0.403-1.86
			C538.384,259.063,538.714,258.909,539.023,258.711z"/>
		<g>
			<g>
				<path style="fill:#FFD563;" d="M370.236,347.433c-2.851-71.742,62.883-80.211,62.883-80.211l0.004,0.296l18.08,0.062
					l24.054,11.249l23.26-14.915l21.041,4.465c0,0,47.126,11.345,45.458,69.473c-0.033,1.157-0.886,2.136-2.043,2.333
					l-19.469,19.534l-7.191,53.748c3.287,6.642,8.876,19.498,8.876,19.498H372.986L370.236,347.433z"/>
				<polyline style="fill:#F4F2ED;" points="498.517,263.913 496.364,432.965 431.978,432.965 430.142,267.76 				"/>
				<path style="fill:#FFD563;" d="M463.487,297.023l0.602-0.014c14.503-0.342,28.366-8.609,28.067-22.534l-0.437-7.28
					c-0.173-2.894-2.239-5.326-5.066-5.965l-22.324-5.05l-23.989,8.125c-2.327,0.788-3.874,2.995-3.821,5.451l0.055,2.57
					C436.873,286.252,448.984,297.365,463.487,297.023z"/>
				<path style="fill:#FFD563;" d="M463.027,340.204c-0.276,0-0.5-0.224-0.5-0.5v-40.639c0-0.276,0.224-0.5,0.5-0.5
					c0.276,0,0.5,0.224,0.5,0.5v40.639C463.527,339.98,463.304,340.204,463.027,340.204z"/>
				<path style="fill:#FFD563;" d="M452.344,305.54c-1.673,0-3.033-1.345-3.033-2.997c0-1.653,1.36-2.998,3.033-2.998
					c1.673,0,3.033,1.345,3.033,2.998C455.377,304.195,454.017,305.54,452.344,305.54z M452.344,300.545
					c-1.121,0-2.033,0.897-2.033,1.998c0,1.102,0.912,1.997,2.033,1.997c1.121,0,2.033-0.896,2.033-1.997
					C454.377,301.441,453.465,300.545,452.344,300.545z"/>
				<path style="fill:#FFD563;" d="M452.038,321.513c-1.673,0-3.033-1.345-3.033-2.998c0-1.653,1.36-2.998,3.033-2.998
					c1.673,0,3.033,1.345,3.033,2.998C455.071,320.168,453.711,321.513,452.038,321.513z M452.038,316.517
					c-1.121,0-2.033,0.896-2.033,1.998c0,1.102,0.912,1.998,2.033,1.998c1.121,0,2.033-0.896,2.033-1.998
					C454.071,317.413,453.159,316.517,452.038,316.517z"/>
			</g>
			<g>
				<g>
					<g>
						<path style="fill:#FF9278;" d="M462.647,356.663l-17.339-9.159c-5.525-2.918-11.681-4.06-17.758-3.294l-19.686,2.483
							c-2.826,0.357-6.969,0.96-9.153,2.956l-29.296,14.035c-1.719,0.748-2.393,2.836-1.429,4.444
							c0.021,0.035,0.043,0.071,0.064,0.107c1.659,2.775,5.15,3.846,8.078,2.474l14.951-7.005l-0.627,0.538
							c-1.717,1.473-2.505,3.907-2.021,6.25l0.857,4.159l-0.299,1.779c-0.41,2.439,0.498,4.924,2.331,6.379l17.747,14.093
							c1.085,0.861,2.604,0.528,3.297-0.725l0,0c1.712-3.092,1.062-7.111-1.517-9.382l-5.607-4.937l16.643,6.024
							c2.738,0.991,5.648,1.253,8.49,0.764l9.186-1.579l14.164,12.028L462.647,356.663z"/>
						<path style="fill:#FF6A48;" d="M391.394,364.518c-0.164,0-0.326-0.081-0.421-0.23c-0.149-0.233-0.081-0.542,0.151-0.69
							l10.139-6.477c0.231-0.149,0.542-0.083,0.69,0.151c0.149,0.233,0.081,0.542-0.151,0.69l-10.139,6.477
							C391.579,364.492,391.486,364.518,391.394,364.518z"/>
						<path style="fill:#FF6A48;" d="M389.695,374.933c-0.176,0-0.347-0.093-0.438-0.258c-0.134-0.242-0.046-0.546,0.195-0.68
							l12.798-7.082c0.242-0.132,0.546-0.047,0.68,0.195c0.134,0.242,0.046,0.546-0.195,0.68l-12.798,7.082
							C389.86,374.912,389.777,374.933,389.695,374.933z"/>
						<path style="fill:#FF6A48;" d="M405.239,382.36c-0.109,0-0.219-0.035-0.311-0.108l-3.42-2.704
							c-0.216-0.172-0.253-0.486-0.082-0.703c0.172-0.216,0.487-0.252,0.703-0.082l3.42,2.704c0.216,0.172,0.253,0.486,0.082,0.703
							C405.533,382.295,405.387,382.36,405.239,382.36z"/>
					</g>
					<g>
						<g>
							<path style="fill:#FFD563;" d="M561.527,333.028l-50.941,1.072l-1.272,18.945l-57.862-12.151
								c-1.546-0.325-3.07,0.687-3.533,2.345l-14.674,52.537c-0.715,2.559,0.72,5.23,3.098,5.773
								c10.952,2.502,32.422,7.712,54.793,12.695c10.757,2.396,21.723,4.739,31.827,6.703c5.943,1.155,11.763,0.666,17.108-1.145
								c14.684-4.975,25.787-19.926,26.014-38.173c0.073-5.868,0.067-11.169-0.07-15.097c-0.388-11.109-0.599-22.989-0.987-34.098"
								/>
						</g>
					</g>
					<g>
						<g>
							<path style="fill:#D3A739;" d="M510.387,353.283c-0.003,0-0.007,0-0.01,0c-0.276-0.006-0.496-0.234-0.49-0.51l0.73-36.315
								c0.006-0.275,0.223-0.474,0.51-0.49c0.276,0.006,0.496,0.234,0.49,0.51l-0.73,36.315
								C510.881,353.065,510.658,353.283,510.387,353.283z"/>
							<path style="fill:#D3A739;" d="M521.946,356.956c-0.036,0-0.073-0.004-0.111-0.013l-31.54-7.181
								c-0.268-0.061-0.438-0.329-0.376-0.599c0.062-0.268,0.32-0.44,0.599-0.376l31.54,7.181c0.269,0.061,0.438,0.329,0.376,0.599
								C522.381,356.799,522.175,356.956,521.946,356.956z"/>
							<path style="fill:#D3A739;" d="M530.751,422.541c-1.693,0-3.387-0.171-5.054-0.518l-32.569-6.78
								c-0.271-0.056-0.444-0.321-0.388-0.591c0.056-0.271,0.324-0.447,0.591-0.388l32.569,6.78c5.501,1.146,11.3,0.3,16.337-2.378
								c0.239-0.131,0.545-0.038,0.676,0.207c0.13,0.243,0.037,0.546-0.207,0.676C538.991,421.524,534.873,422.541,530.751,422.541z
								"/>
						</g>
					</g>
				</g>
			</g>
		</g>
		<g>
			<g>
				<g>
					<g>
						<path style="fill:#FF9278;" d="M491.275,196.932l-11.178,0.941c-4.63-0.69-9.284-7.165-11.996-15.918
							c-4.653-1.068-8.977-3.462-12.429-6.962c-6.841,6.713-15.599,12.277-24.308,9.394c-4.643-1.537-8.11-3.578-10.696-5.714
							c-0.049-0.041-0.087-0.092-0.135-0.134c-0.004,0.047-0.01,0.094-0.014,0.141l-3.17,44.398
							c-1.115,15.612,9.029,29.387,23.317,32.784l0.243,11.32c0.271,12.592,10.604,22.655,22.962,22.363l0.513-0.012
							c12.358-0.293,24.161-7.751,23.89-20.343l-2.55-44.122l5.396,0.028c7.397,0.039,13.483-6.195,13.525-13.852l0.002-0.318
							C504.689,203.268,498.671,196.971,491.275,196.932z"/>
					</g>
					<g>
						<path style="fill:#FF6A48;" d="M492.703,215.802c-0.183,0-0.367-0.05-0.533-0.155l-4.471-2.827
							c-0.242-0.153-0.407-0.402-0.453-0.686c-0.046-0.283,0.032-0.571,0.214-0.793l4.538-5.545c0.349-0.427,0.979-0.49,1.407-0.141
							c0.427,0.35,0.49,0.98,0.14,1.407l-3.822,4.671l3.516,2.223c0.467,0.295,0.606,0.913,0.311,1.379
							C493.359,215.637,493.035,215.802,492.703,215.802z"/>
						<path style="fill:#FFFFFF;" d="M493.457,231.585c-1.264,0-2.481-0.442-3.476-1.27c-1.179-0.982-1.902-2.379-2.039-3.935
							c-0.274-3.14,1.978-5.93,5.023-6.217c1.445-0.14,2.862,0.306,3.991,1.246c1.178,0.981,1.901,2.379,2.037,3.935
							c0.275,3.14-1.978,5.93-5.023,6.217C493.799,231.577,493.628,231.585,493.457,231.585z M493.478,221.138
							c-0.139,0-0.278,0.006-0.418,0.02c-2.499,0.237-4.348,2.54-4.121,5.135c0.113,1.289,0.711,2.444,1.683,3.254
							c0.921,0.768,2.077,1.128,3.256,1.018c2.5-0.237,4.349-2.54,4.121-5.135l0,0c-0.112-1.288-0.71-2.443-1.682-3.253
							C495.504,221.499,494.509,221.138,493.478,221.138z"/>
					</g>
				</g>
				<g>
					<g>
						<path style="fill:#FFFFFF;" d="M436.943,206.544c-1.331-2.33-3.604-5.077-7.079-5.66c-0.75-0.126-1.55-0.162-2.416-0.059
							c-0.069,0.008-0.131,0.023-0.199,0.033c1.458,0.969,2.383,2.554,2.321,4.313c-0.099,2.817-2.691,5.012-5.789,4.903
							c-1.432-0.051-2.717-0.588-3.68-1.426c-0.095,0.975,0.598,1.854,1.569,2.005c2.585,0.4,7.89,0.983,13.254,0.136
							C436.886,210.479,437.928,208.268,436.943,206.544z"/>
						<path style="fill:#0B1126;" d="M429.571,205.171c0.062-1.759-0.863-3.344-2.321-4.313c-5.09,0.702-6.609,4.475-7.046,7.053
							c-0.042,0.251-0.078,0.494-0.103,0.718c-0.001,0.007,0,0.013,0,0.019c0.963,0.838,2.248,1.375,3.68,1.426
							C426.88,210.183,429.472,207.988,429.571,205.171z"/>
					</g>
					<g>
						<g>
							<path style="fill:#FF6A48;" d="M436.648,240.07c0.115,0.038,0.242,0.037,0.364-0.012c0.122-0.05,3.053-1.202,5.064,1.24
								c0.194,0.235,0.536,0.264,0.765,0.063c0.228-0.201,0.256-0.555,0.062-0.792c-2.525-3.062-6.253-1.57-6.291-1.555
								c-0.277,0.115-0.412,0.44-0.302,0.728C436.371,239.904,436.499,240.02,436.648,240.07z"/>
						</g>
					</g>
					<g>
						<g>
							<g>
								<g>
									<g>
										<g>
											<path style="fill:#0B1126;" d="M465.77,193.163c-0.97,0.263-2.132-0.039-3.27-0.265
												c-1.142-0.253-2.295-0.477-3.303-0.635c-1.01-0.159-2.177-0.301-3.34-0.411c-1.152-0.135-2.354-0.205-3.192-0.753
												c-0.811-0.516-1.003-1.659,0.22-2.834c1.156-1.15,3.886-2.168,7.23-1.649c3.338,0.534,5.609,2.34,6.343,3.787
												C467.247,191.895,466.703,192.921,465.77,193.163z"/>
										</g>
									</g>
								</g>
								<g>
									<g>
										<g>
											<path style="fill:#0B1126;" d="M421.563,191.824c0.949,0.337,2.129,0.124,3.28-0.014c1.157-0.164,2.323-0.299,3.34-0.38
												c1.019-0.081,2.192-0.133,3.36-0.154c1.159-0.046,2.363-0.024,3.238-0.506c0.846-0.452,1.121-1.577-0.014-2.843
												c-1.069-1.235-3.717-2.46-7.09-2.199c-3.367,0.277-5.763,1.904-6.601,3.29
												C420.182,190.447,420.65,191.512,421.563,191.824z"/>
										</g>
									</g>
								</g>
							</g>
						</g>
					</g>
					<path style="fill:#FFFFFF;" d="M455.203,222.984c-0.935-0.744-2.249-0.67-3.172,0.091c-1.681,1.387-5.3,3.803-10.264,3.973
						c-1.219,0.042-1.941,1.455-1.497,2.631c0.976,2.585,3.778,6.663,10.353,4.022C458.634,230.484,457.64,224.924,455.203,222.984z
						"/>
					<g>
						<path style="fill:#FF9278;" d="M443.257,218.488c-2.313,0.115-4.159,0.566-6.254-0.896c-1.948-1.361-3.498-4.116-2.815-6.582
							c0.302-1.09,1.226-1.884,2.306-2.069l2.202-0.376l1.086-10.351"/>
						<path style="fill:#FF6A48;" d="M440.517,219.645c-1.329,0-2.653-0.233-4.085-1.233c-2.221-1.55-4.035-4.682-3.207-7.669
							c0.398-1.439,1.616-2.534,3.102-2.788l1.454-0.248l1.007-9.597c0.058-0.549,0.539-0.947,1.099-0.89
							c0.549,0.058,0.947,0.55,0.89,1.099l-1.086,10.351c-0.046,0.446-0.384,0.806-0.826,0.881l-2.201,0.376
							c-0.725,0.124-1.318,0.654-1.511,1.35c-0.553,1.995,0.798,4.36,2.424,5.496c1.466,1.023,2.745,0.925,4.518,0.791
							c0.36-0.027,0.73-0.055,1.112-0.074c0.579-0.038,1.021,0.398,1.049,0.949c0.027,0.551-0.397,1.021-0.949,1.048
							c-0.365,0.019-0.718,0.045-1.062,0.071C441.662,219.602,441.089,219.645,440.517,219.645z"/>
					</g>
					<g>
						<path style="fill:#FFFFFF;" d="M467.224,205.982c-1.626-2.847-4.404-6.204-8.649-6.915c-0.917-0.154-1.895-0.198-2.952-0.072
							c-0.349,0.042-0.679,0.1-1.001,0.164c2.72,0.908,4.626,3.322,4.529,6.091c-0.121,3.442-3.288,6.124-7.074,5.991
							c-2.266-0.08-4.233-1.154-5.427-2.738c-0.001,0.008-0.003,0.018-0.004,0.027c-0.13,1.201,0.723,2.289,1.917,2.474
							c3.158,0.489,9.641,1.201,16.195,0.166C467.154,210.791,468.428,208.089,467.224,205.982z"/>
						<path style="fill:#0B1126;" d="M452.076,211.241c3.786,0.133,6.953-2.549,7.074-5.991c0.097-2.769-1.809-5.183-4.529-6.091
							c-5.615,1.113-7.34,5.475-7.851,8.495c-0.05,0.297-0.092,0.583-0.122,0.85C447.843,210.087,449.811,211.161,452.076,211.241z"
							/>
					</g>
				</g>
				<path style="fill:#FF6A48;" d="M440.694,255.888c0,0,26.397,0.653,30.605-9.167c4.207-9.821,0,0,0,0s1.521,14.798-30.106,23.283
					L440.694,255.888z"/>
			</g>
		</g>
	</g>
	<g>
		<g>
			<path style="fill:#0B1126;" d="M450.68,429.929c0-2.963-2.402-5.365-5.365-5.365h-81.367l-40.028-99.084
				c-1.454-3.6-4.949-5.957-8.831-5.957H182.482c-4.353,0-7.355,4.363-5.799,8.429l40.635,106.149c0,0,0,0,0,0l147.852-0.647
				c0.036,0,0.068-0.012,0.103-0.014h85.405V429.929z"/>
			<path style="fill:#FFFFFF;" d="M382.656,430.555h-9.535c-0.074,0-0.135-0.06-0.135-0.135v-2.182c0-0.074,0.06-0.135,0.135-0.135
				h9.535c0.074,0,0.135,0.06,0.135,0.134v2.182C382.791,430.495,382.73,430.555,382.656,430.555z"/>
			<path style="fill:#FFFFFF;" d="M399.555,430.555h-9.535c-0.074,0-0.134-0.06-0.134-0.135v-2.182c0-0.074,0.06-0.135,0.135-0.135
				h9.535c0.074,0,0.135,0.06,0.135,0.135v2.182C399.69,430.495,399.629,430.555,399.555,430.555z"/>
			<g>
				<path style="fill:#FFFFFF;" d="M265.909,386c-4.294,4.294-12.302,3.249-17.885-2.335c-5.584-5.584-6.629-13.591-2.335-17.886
					c4.294-4.294,12.302-3.249,17.886,2.335C269.158,373.698,270.203,381.705,265.909,386z"/>
				<path style="fill:#121936;" d="M259.088,389.134c-3.832,0-8.061-1.758-11.418-5.115c-2.778-2.778-4.559-6.229-5.014-9.716
					c-0.462-3.535,0.489-6.688,2.679-8.877c2.189-2.189,5.344-3.139,8.877-2.679c3.487,0.455,6.938,2.235,9.716,5.014
					c5.77,5.77,6.816,14.11,2.335,18.593l0,0C264.389,388.227,261.841,389.134,259.088,389.134z M252.515,363.636
					c-2.494,0-4.789,0.813-6.473,2.497c-4.093,4.093-3.045,11.799,2.335,17.179c5.379,5.379,13.086,6.428,17.179,2.335
					c4.092-4.093,3.045-11.799-2.335-17.179C260.055,365.302,256.081,363.636,252.515,363.636z"/>
			</g>
			<path style="fill:#FFFFFF;" d="M260.446,392.867c-4.921,0-10.366-2.27-14.694-6.599c-7.413-7.412-8.788-18.099-3.064-23.823
				c5.725-5.722,16.412-4.348,23.824,3.064c7.412,7.413,8.786,18.101,3.064,23.823C267.194,391.714,263.953,392.867,260.446,392.867
				z M251.819,359.407c-3.378,0-6.491,1.105-8.778,3.392c-5.528,5.529-4.153,15.899,3.064,23.116
				c7.218,7.217,17.588,8.593,23.116,3.064c5.528-5.528,4.153-15.898-3.064-23.116C261.926,361.631,256.608,359.407,251.819,359.407
				z"/>
		</g>
		<path style="fill:#121936;" d="M611.684,435.601H88.316c-0.828,0-1.5-0.672-1.5-1.5c0-0.828,0.672-1.5,1.5-1.5h523.367
			c0.828,0,1.5,0.672,1.5,1.5C613.184,434.929,612.512,435.601,611.684,435.601z"/>
	</g>
</g>
</svg>
