<?xml version="1.0" encoding="utf-8"?>
<!-- Generator: Adobe Illustrator 27.5.0, SVG Export Plug-In . SVG Version: 6.00 Build 0)  -->
<svg version="1.1" xmlns="http://www.w3.org/2000/svg" xmlns:xlink="http://www.w3.org/1999/xlink" x="0px" y="0px"
	 viewBox="0 0 3710 3710" style="enable-background:new 0 0 3710 3710;" xml:space="preserve">
<g id="Background">
	<g>
		<g>
			<rect style="fill:#FFFFFF;" width="3710" height="3710"/>
		</g>
	</g>
</g>
<g id="Illustration">
	<g>
		<g>
			<g>
				<g>
					<defs>
						<path id="SVGID_1_" d="M2005.393,2284.941c-28.843-115.538-54.032-290.553,3.973-478.623
							c66.606-215.956,182.032-251.752,299.843-479.21c168.173-324.689,22.984-579.262,179.336-670.882
							c76.247-44.679,190.448-36.433,257.215,18.824c190.491,157.651,90.198,776.851-246.157,996.909
							c-152.123,99.526-276.957,77.351-395.451,211.826C1999.447,2002.613,1994.902,2169.069,2005.393,2284.941z"/>
					</defs>
					
						<linearGradient id="SVGID_00000160871605680330874860000008129451435615911810_" gradientUnits="userSpaceOnUse" x1="2717.4014" y1="842.2374" x2="2172.4138" y2="1719.8264">
						<stop  offset="0" style="stop-color:#FF9085"/>
						<stop  offset="1" style="stop-color:#FB6FBB"/>
					</linearGradient>
					
						<use xlink:href="#SVGID_1_"  style="overflow:visible;fill:url(#SVGID_00000160871605680330874860000008129451435615911810_);"/>
					<clipPath id="SVGID_00000163056263094160210140000010297829682039792515_">
						<use xlink:href="#SVGID_1_"  style="overflow:visible;"/>
					</clipPath>
					<g style="opacity:0.5;clip-path:url(#SVGID_00000163056263094160210140000010297829682039792515_);">
						<path style="fill:#FFFFFF;" d="M2003.41,1999.364l-3.547-1.182c15.586-46.782,35.295-92.437,58.573-135.694
							c53.537-99.498,108.398-152.283,177.849-219.11c45.111-43.407,96.243-92.605,156.356-164.054
							c112.438-133.643,147.736-180.864,181.845-258.438c67.553-153.641,69.196-295.639,64.16-366.61
							c-7.134-100.68-33.686-197.929-78.917-289.047l3.35-1.66c45.447,91.556,72.125,189.275,79.296,290.444
							c5.058,71.312,3.412,214-64.466,368.376c-34.302,78.005-69.699,125.374-182.407,259.339
							c-60.24,71.6-111.446,120.871-156.626,164.342c-69.217,66.601-123.889,119.205-177.149,218.187
							C2038.548,1907.326,2018.927,1952.784,2003.41,1999.364z"/>
						<path style="fill:#FFFFFF;" d="M2613.427,1112.536l0.168-3.073c6.368-116.226-62.39-196.754-121.189-243.843
							c-63.838-51.121-129.994-74.965-130.655-75.2l1.248-3.521c0.668,0.237,67.418,24.294,131.742,75.806
							c58.956,47.211,127.801,127.692,122.74,243.814c12.641-6.268,66.046-34.623,116.288-89.277
							c52.708-57.338,112.631-156.219,98.775-301.673l3.722-0.354c13.991,146.892-46.574,246.757-99.848,304.667
							c-57.697,62.718-119.572,91.107-120.189,91.386L2613.427,1112.536z"/>
						<path style="fill:#FFFFFF;" d="M2595.411,1484.976c-95.955,0-169.748-39.617-170.898-40.249l-1.372-0.755l0.503-1.485
							c38.163-111.792,18.333-197.633-5.021-249.96c-25.322-56.737-60.135-87.438-60.485-87.741l2.452-2.821
							c0.354,0.308,35.696,31.441,61.372,88.87c23.57,52.732,43.626,139.051,5.736,251.344
							c16.987,8.725,186.002,90.687,340.668-12.635l2.073,3.105C2711.118,1472.28,2649.71,1484.976,2595.411,1484.976z"/>
						<path style="fill:#FFFFFF;" d="M2446.824,1693.648c-48.176,0-85.963-8.493-113.314-18.116
							c-53.69-18.886-79.986-46.173-80.245-46.447l-0.923-0.971l0.624-1.186c58.941-112.102,2.149-306.727,1.569-308.679
							l3.583-1.066c0.58,1.961,57.386,196.639-1.204,310.254c10.823,10.354,114.73,102.337,325.746,42.153l1.022,3.594
							C2531.331,1688.115,2485.695,1693.648,2446.824,1693.648z"/>
					</g>
				</g>
			</g>
			<g>
				<g>
					<defs>
						<path id="SVGID_00000091011980072250401830000012672256935297971336_" d="M1905.965,2372.172
							c-25.508-91.431-50.152-235.873,11.505-374.141c107.565-241.22,356.727-192.15,560.99-460.255
							c164.747-216.238,89.564-362.222,281.561-514.894c32.137-25.555,201.424-165.362,344.862-107.815
							c80.829,32.427,117.595,113.031,124.496,128.162c104.314,228.693-96.969,626.358-393.46,830.448
							c-170.346,117.257-232.192,91.704-538.255,240.127C2117.818,2201.019,1986.686,2302.411,1905.965,2372.172z"/>
					</defs>
					
						<linearGradient id="SVGID_00000171705625222585182160000018234831846565302699_" gradientUnits="userSpaceOnUse" x1="2782.2231" y1="1048.8237" x2="2326.8838" y2="2407.3801">
						<stop  offset="0" style="stop-color:#AA80F9"/>
						<stop  offset="0.9964" style="stop-color:#6165D7"/>
					</linearGradient>
					
						<use xlink:href="#SVGID_00000091011980072250401830000012672256935297971336_"  style="overflow:visible;fill:url(#SVGID_00000171705625222585182160000018234831846565302699_);"/>
					<clipPath id="SVGID_00000065034741572079467870000001913937582078020791_">
						<use xlink:href="#SVGID_00000091011980072250401830000012672256935297971336_"  style="overflow:visible;"/>
					</clipPath>
					<g style="opacity:0.7;clip-path:url(#SVGID_00000065034741572079467870000001913937582078020791_);">
						<path style="fill:#FFFFFF;" d="M1891.082,2487.124l-3.722-0.361c22.158-227.619,93.809-386.717,212.969-472.875
							c58.335-42.182,107.234-53.165,159.005-64.789c55.639-12.497,113.175-25.418,185.005-80.263
							c69.805-53.298,91.868-99.717,119.802-158.489c25.139-52.885,56.423-118.705,132.757-210.144
							c66.907-80.148,117.66-119.769,162.439-154.725c48.49-37.851,86.788-67.747,127.56-135.209
							c66.597-110.198,93.01-245.094,78.493-400.943l3.722-0.347c14.589,156.661-11.995,292.326-79.019,403.224
							c-41.13,68.05-79.665,98.133-128.458,136.22c-44.629,34.842-95.218,74.332-161.87,154.174
							c-76.031,91.076-107.202,156.659-132.25,209.356c-28.15,59.226-50.384,106.006-120.908,159.854
							c-72.483,55.342-130.425,68.354-186.458,80.938c-51.384,11.539-99.918,22.439-157.633,64.172
							C1984.267,2102.42,1913.13,2260.62,1891.082,2487.124z"/>
						<path style="fill:#FFFFFF;" d="M2838.664,1364.292l0.522-2.445c0.686-3.217,67.006-322.873-60.587-438.13l2.503-2.773
							c67.612,61.072,80.771,178.012,79.906,265.355c-0.847,85.234-14.83,159.629-17.669,173.877
							c169.653-13.874,288.474-91.574,358.396-154.482c76.118-68.486,112.23-134.596,112.584-135.255l3.292,1.774
							c-0.361,0.666-36.784,67.345-113.376,136.258c-70.688,63.601-191.059,142.228-363.074,155.628L2838.664,1364.292z"/>
						<path style="fill:#FFFFFF;" d="M2819.364,1628.559c-114.565,0-194.3-25.26-195.114-25.52l-1.529-0.493l0.259-1.585
							c26.982-165.862-37.152-390.725-37.805-392.979l3.591-1.036c0.65,2.252,64.601,226.484,38.159,393.006
							c11.9,3.569,91.74,26.197,202.043,24.811c109.814-1.361,273.06-27.486,427.138-144.197l2.255,2.978
							c-154.936,117.363-319.076,143.607-429.492,144.958C2825.68,1628.541,2822.505,1628.559,2819.364,1628.559z"/>
						<path style="fill:#FFFFFF;" d="M2686.651,2021.434c-235.039,0-376.284-80.128-377.94-81.088l-1.704-0.989l1.076-1.65
							c106.012-162.475,31.613-403.899,30.85-406.318l3.562-1.124c0.766,2.427,75.195,243.854-30.19,407.8
							c20.06,10.875,212.735,109.688,513.215,70.484l0.482,3.704C2776.566,2018.706,2729.996,2021.434,2686.651,2021.434z"/>
					</g>
				</g>
			</g>
			<g>
				
					<linearGradient id="SVGID_00000075122265943514740930000012438671648992539313_" gradientUnits="userSpaceOnUse" x1="1870.6482" y1="25.5384" x2="1822.2662" y2="442.8306" gradientTransform="matrix(0.8997 0.4363 -0.4363 0.8997 1672.8074 -88.4499)">
					<stop  offset="0" style="stop-color:#AA80F9"/>
					<stop  offset="0.9964" style="stop-color:#6165D7"/>
				</linearGradient>
				<path style="fill:url(#SVGID_00000075122265943514740930000012438671648992539313_);" d="M1926.709,2098.406
					c56.2-30.909,147.336-74.462,266.051-101.053c211.155-47.298,298.824,6.269,394.89-68.966
					c99.439-77.877,52.522-172.098,170.713-258.2c9.938-7.239,136.51-96.944,235.035-45.928
					c68.925,35.689,87.117,121.086,95.654,161.154c33.128,155.51-24.143,379.435-197.014,472.399
					c-163.896,88.138-348.98,14.309-407.69-9.561c-102.998-41.878-123.219-86.441-228.318-125.784
					C2128.216,2074.622,2007.008,2083.961,1926.709,2098.406z"/>
			</g>
		</g>
		<g>
			<g>
				<g>
					<defs>
						<path id="SVGID_00000125581723109708823000000008738440854828809897_" d="M1461.668,2738.481
							c18.377-131.222,25.742-327.828-60.477-529.13c-99.003-231.15-230.917-257.235-387.926-495.112
							c-224.127-339.563-93.305-638.259-277.043-721.317c-89.603-40.503-214.999-17.998-282.402,50.967
							c-192.306,196.761-8.78,870.153,389.182,1074.237c179.985,92.301,315.516,53.137,462.386,188.05
							C1435.167,2425.388,1459.7,2609.038,1461.668,2738.481z"/>
					</defs>
					
						<linearGradient id="SVGID_00000082333888839647434840000011677707057302029719_" gradientUnits="userSpaceOnUse" x1="1245.0668" y1="1424.0026" x2="903.8925" y2="1973.3929">
						<stop  offset="0" style="stop-color:#FF9085"/>
						<stop  offset="1" style="stop-color:#FB6FBB"/>
					</linearGradient>
					
						<use xlink:href="#SVGID_00000125581723109708823000000008738440854828809897_"  style="overflow:visible;fill:url(#SVGID_00000082333888839647434840000011677707057302029719_);"/>
					<clipPath id="SVGID_00000019639367474638439660000007463663150001446589_">
						<use xlink:href="#SVGID_00000125581723109708823000000008738440854828809897_"  style="overflow:visible;"/>
					</clipPath>
					<g style="opacity:0.5;clip-path:url(#SVGID_00000019639367474638439660000007463663150001446589_);">
						<path style="fill:#FFFFFF;" d="M1430.59,2422.169c-22.632-49.731-49.672-97.739-80.373-142.695
							c-70.549-103.308-137.22-155.121-221.628-220.716c-55.077-42.803-117.503-91.315-192.541-163.474
							c-140.391-135.003-185.104-183.261-232.182-265.539c-93.167-162.804-111.712-320.466-114.474-399.956
							c-3.916-112.761,14.151-223.988,53.701-330.589l3.503,1.299c-39.378,106.143-57.368,216.888-53.467,329.158
							c2.748,79.147,21.216,236.125,113.978,398.23c46.848,81.873,91.444,129.992,231.532,264.703
							c74.896,72.022,137.238,120.47,192.245,163.216c84.664,65.796,151.539,117.768,222.42,221.559
							c30.817,45.131,57.967,93.329,80.687,143.255L1430.59,2422.169z"/>
						<path style="fill:#FFFFFF;" d="M651.245,1512.151l-2.923-0.965c-0.715-0.235-72.462-24.384-143.62-86.994
							c-65.7-57.808-144.379-161.162-146.109-325.257l3.737-0.04c1.712,162.652,79.65,265.095,144.73,322.395
							c62.496,55.024,125.414,80.116,139.518,85.31c-19.37-127.984,47.406-225.166,107.128-284.334
							c65.116-64.51,136.121-98.934,136.833-99.274l1.613,3.368c-0.704,0.339-71.221,34.539-135.891,98.635
							c-59.543,59.014-126.181,156.212-105.508,284.12L651.245,1512.151z"/>
						<path style="fill:#FFFFFF;" d="M676.687,1924.488c-49.421,0-104.961-10.028-161.311-39.612l1.737-3.31
							c183.874,96.535,361.866-14.923,378.798-26.046c-55.139-119.818-43.071-217.694-23.172-278.792
							c21.665-66.51,57.095-105.067,57.449-105.448l2.737,2.547c-0.35,0.376-35.298,38.448-56.686,104.231
							c-19.727,60.675-31.624,158.044,23.73,277.342l0.661,1.423l-1.288,0.896c-0.467,0.327-47.68,32.843-118.226,52.3
							C752.101,1918.02,716.364,1924.488,676.687,1924.488z"/>
						<path style="fill:#FFFFFF;" d="M852.573,2138.379c-30.843,0-64.944-2.729-102.429-9.254l0.642-3.682
							c132.468,23.061,222.395-1.565,274.494-26.285c50.797-24.099,76.498-52.957,81.303-58.713
							c-78.209-118.748-38.156-340.9-37.74-343.136l3.671,0.682c-0.102,0.558-10.356,56.628-10.754,126.489
							c-0.368,64.34,7.78,153.875,48.695,215.038l0.741,1.111l-0.814,1.064c-0.252,0.332-26.124,33.565-83.27,60.733
							C989.26,2120.421,931.654,2138.379,852.573,2138.379z"/>
					</g>
				</g>
			</g>
			<g>
				<g>
					<defs>
						<path id="SVGID_00000000224006213403657520000006352327117611906989_" d="M1679.877,2481.396
							c-45.376-86.951-125.511-208.552-264.04-292.725c-159.069-96.654-249.752-55.624-446.657-131.379
							c-281.076-108.138-330.758-344.342-477.167-315.339c-71.398,14.145-137.254,81.642-148.191,152.18
							c-31.204,201.248,369.015,527.944,696.529,479.695c148.125-21.821,212.919-103.713,359.426-85.62
							C1529.234,2304.194,1623.011,2404.269,1679.877,2481.396z"/>
					</defs>
					
						<linearGradient id="SVGID_00000050622869245158102590000001923431047783324827_" gradientUnits="userSpaceOnUse" x1="1003.4532" y1="2117.0591" x2="1056.1774" y2="2716.7939">
						<stop  offset="0" style="stop-color:#FFC444"/>
						<stop  offset="0.9964" style="stop-color:#F36F56"/>
					</linearGradient>
					
						<use xlink:href="#SVGID_00000000224006213403657520000006352327117611906989_"  style="overflow:visible;fill:url(#SVGID_00000050622869245158102590000001923431047783324827_);"/>
					<clipPath id="SVGID_00000059282534663301499370000018434966340532118699_">
						<use xlink:href="#SVGID_00000000224006213403657520000006352327117611906989_"  style="overflow:visible;"/>
					</clipPath>
					<g style="opacity:0.5;clip-path:url(#SVGID_00000059282534663301499370000018434966340532118699_);">
						<path style="fill:#FFFFFF;" d="M1524.851,2304.644c-35.006-20.209-71.921-37.484-109.719-51.349
							c-86.868-31.857-149.284-34.388-228.303-37.592c-51.603-2.093-110.092-4.463-186.356-15.657
							c-142.697-20.941-190.41-30.782-254.223-60.12c-126.254-58.043-205.298-145.104-241.181-191.831
							c-50.899-66.291-87.89-141.121-109.942-222.411l3.605-0.978c21.924,80.818,58.697,155.212,109.3,221.112
							c35.671,46.456,114.255,133.005,239.779,190.714c63.382,29.139,110.924,38.937,253.201,59.817
							c76.074,11.165,134.457,13.531,185.965,15.62c79.347,3.217,142.022,5.757,229.438,37.818
							c38.002,13.936,75.111,31.304,110.303,51.619L1524.851,2304.644z"/>
						<path style="fill:#FFFFFF;" d="M573.704,2103.611c-11.243,0-23.205-0.522-35.693-1.794
							c-64.539-6.57-156.535-35.026-228.27-133.276l3.022-2.204c70.881,97.084,161.742,125.232,225.482,131.749
							c59.846,6.111,107.683-5.145,119.809-8.393c-66.294-68.816-67.845-155.925-57.332-217.191
							c11.488-66.948,39.491-118.3,39.776-118.811l3.27,1.803c-1.113,2.022-109.803,203.572,19.151,333.831l2.164,2.186
							l-2.938,0.912C661.707,2092.56,625.391,2103.611,573.704,2103.611z"/>
						<path style="fill:#FFFFFF;" d="M742.726,2374.733l-0.511-3.7c150.78-20.738,210.192-161.966,216.443-177.939
							c-162.453-93.13-144.711-244.956-144.514-246.483l3.708,0.482c-0.197,1.507-17.662,151.767,144.043,243.545l1.365,0.775
							l-0.529,1.478C962.161,2194.486,904.001,2352.554,742.726,2374.733z"/>
						<path style="fill:#FFFFFF;" d="M989.358,2420.833l-1.62-3.368c89.576-43.026,133.081-96.429,153.801-133.653
							c19.811-35.592,23.147-63.572,23.661-69.84c-98.199-38.177-169.555-189.054-170.266-190.581l3.386-1.58
							c0.708,1.52,72.053,152.36,169.496,189.162l1.252,0.472l-0.044,1.337C1168.981,2214.021,1162.88,2337.486,989.358,2420.833z"
							/>
					</g>
				</g>
			</g>
			<g>
				<g>
					<defs>
						<path id="SVGID_00000083075241028992931760000000014853654561471377_" d="M1384.084,2551.035
							c84.142-63.839,203.201-175.226,241.642-339.234c67.063-286.125-186.725-410.359-187.24-785.391
							c-0.416-302.479,164.458-381.216,97.112-645.717c-11.272-44.273-67.157-282.09-232.978-327.652
							c-93.441-25.676-180.271,20.992-196.571,29.754C859.692,615.204,770.36,1103.02,895.68,1483.413
							c72.001,218.551,143.997,237.539,315.266,575.054C1311.585,2256.794,1359.521,2434.893,1384.084,2551.035z"/>
					</defs>
					
						<linearGradient id="SVGID_00000009555828723680415730000010716465595639464601_" gradientUnits="userSpaceOnUse" x1="1496.5355" y1="787.5212" x2="989.3375" y2="2300.804">
						<stop  offset="0" style="stop-color:#AA80F9"/>
						<stop  offset="0.9964" style="stop-color:#6165D7"/>
					</linearGradient>
					
						<use xlink:href="#SVGID_00000083075241028992931760000000014853654561471377_"  style="overflow:visible;fill:url(#SVGID_00000009555828723680415730000010716465595639464601_);"/>
					<clipPath id="SVGID_00000009585485012220132580000001145798450964908212_">
						<use xlink:href="#SVGID_00000083075241028992931760000000014853654561471377_"  style="overflow:visible;"/>
					</clipPath>
					<g style="opacity:0.7;clip-path:url(#SVGID_00000009585485012220132580000001145798450964908212_);">
						<path style="fill:#FFFFFF;" d="M1323.257,2664.975l-3.182-1.963c132.957-215.576,176.422-403.683,129.188-559.098
							c-23.059-75.864-58.737-118.205-96.509-163.032c-41.159-48.849-83.723-99.359-110.679-197.139
							c-26.227-95.13-14.443-151.524,0.474-222.92c13.283-63.559,29.81-142.661,23.752-274.554
							c-5.313-115.625-23.555-184.677-39.652-245.598c-17.589-66.566-31.478-119.142-22.118-207.079
							c15.257-143.328,83-281.38,201.346-410.325l2.751,2.525c-117.795,128.345-185.213,265.681-200.383,408.194
							c-9.287,87.253,4.525,139.537,22.015,205.731c16.144,61.102,34.441,130.357,39.769,246.381
							c6.083,132.366-10.499,211.724-23.822,275.49c-14.816,70.901-26.519,126.903-0.529,221.163
							c26.737,96.989,69.031,147.182,109.935,195.723c38.024,45.129,73.943,87.755,97.225,164.353
							C1500.398,2259.312,1456.802,2448.445,1323.257,2664.975z"/>
						<path style="fill:#FFFFFF;" d="M1236.042,1029.901l-1.865-1.662c-143.343-127.617-197.051-278.254-216.866-382.151
							c-21.468-112.578-8.86-196.137-8.732-196.967l3.693,0.577c-0.128,0.827-12.641,83.861,8.74,195.838
							c19.632,102.837,72.677,251.741,213.801,378.262c6.751-13.887,44.538-89.642,101.483-166.165
							c58-77.935,148.324-172.64,249.256-181.236l0.314,3.722c-190.767,16.246-347.2,344.209-348.758,347.521L1236.042,1029.901z"/>
						<path style="fill:#FFFFFF;" d="M1266.972,1386.434l-1.518-0.533c-0.92-0.323-93.39-33.339-198.372-115.137
							c-96.893-75.498-224.624-209.199-282.887-417.415l3.598-1.007c57.971,207.179,185.064,340.243,281.475,415.388
							c97.203,75.764,183.578,109.488,195.924,114.095c88.583-165.36,296.279-321.054,298.37-322.612l2.233,3
							c-0.525,0.389-53.081,39.641-115.806,98.816c-57.85,54.573-136.431,137.73-182.265,223.986L1266.972,1386.434z"/>
						<path style="fill:#FFFFFF;" d="M1319.892,1897.379l-1.952-0.243c-2.503-0.312-253.241-34.045-506.603-284.421l2.627-2.657
							c131.943,130.39,262.127,200.503,348.105,236.362c83.953,35.012,143.124,45.043,154.385,46.731
							c16.823-216.209,245.363-380.071,247.676-381.706l2.157,3.051c-2.306,1.631-230.81,165.508-246.253,380.92L1319.892,1897.379z
							"/>
					</g>
				</g>
			</g>
		</g>
		<g>
			
				<linearGradient id="SVGID_00000119824558764046744530000016802579971291122843_" gradientUnits="userSpaceOnUse" x1="-569.3077" y1="2834.9155" x2="-529.8329" y2="3337.3206" gradientTransform="matrix(-1 0 0 1 1460.9358 0)">
				<stop  offset="0" style="stop-color:#311944"/>
				<stop  offset="1" style="stop-color:#A03976"/>
			</linearGradient>
			<path style="fill:url(#SVGID_00000119824558764046744530000016802579971291122843_);" d="M1953.257,3085.476
				c0,0,158.901,72.219,161.496,83.747c2.596,11.529-102.189-3.865-144.966-2.202c-42.776,1.664-77.965-10.98-74.094-29.098
				c3.875-18.12,18.848-63.691,18.848-63.691L1953.257,3085.476z"/>
			
				<linearGradient id="SVGID_00000038375740493991584640000002677991709877321353_" gradientUnits="userSpaceOnUse" x1="-467.3998" y1="3114.6216" x2="-474.5765" y2="2594.2856" gradientTransform="matrix(-1 0 0 1 1460.9358 0)">
				<stop  offset="0" style="stop-color:#FFC444"/>
				<stop  offset="0.9964" style="stop-color:#F36F56"/>
			</linearGradient>
			<path style="fill:url(#SVGID_00000038375740493991584640000002677991709877321353_);" d="M1959.07,3026.866l-9.665,71.542
				c0,0-25.156,8.955-42.055-1.632l-7.209-78.466L1959.07,3026.866z"/>
			
				<linearGradient id="SVGID_00000057842439549393197990000002218741497517441171_" gradientUnits="userSpaceOnUse" x1="176.6698" y1="2776.3113" x2="216.1437" y2="3278.7041" gradientTransform="matrix(-1 0 0 1 1460.9358 0)">
				<stop  offset="0" style="stop-color:#311944"/>
				<stop  offset="1" style="stop-color:#A03976"/>
			</linearGradient>
			<path style="fill:url(#SVGID_00000057842439549393197990000002218741497517441171_);" d="M1210.747,3028.583l-18.482,29.67
				c-5.17,8.298-6.71,18.287-4.232,27.746c6.464,24.674,19.373,72.759,25.002,85.296c7.664,17.08,110.495,27.225,110.495,27.225
				s9.169-12.903-12.181-28.49c-21.349-15.585-35.072-18.036-42.608-41.037c-7.533-22.997-12.561-88.053-12.561-88.053
				L1210.747,3028.583z"/>
			
				<linearGradient id="SVGID_00000139283563256865532140000014361085922498592927_" gradientUnits="userSpaceOnUse" x1="216.2549" y1="3105.1936" x2="209.078" y2="2584.8406" gradientTransform="matrix(-1 0 0 1 1460.9358 0)">
				<stop  offset="0" style="stop-color:#FFC444"/>
				<stop  offset="0.9964" style="stop-color:#F36F56"/>
			</linearGradient>
			<path style="fill:url(#SVGID_00000139283563256865532140000014361085922498592927_);" d="M1287.679,2953.18
				c-6.752,5.382-39.778,105.625-39.778,105.625s-10.69,13.671-30.999-6.504c-20.306-20.175-9.19-9.05-9.19-9.05l3.809-98.594
				L1287.679,2953.18z"/>
			
				<linearGradient id="SVGID_00000062874053354017634470000002119157585698962594_" gradientUnits="userSpaceOnUse" x1="-591.5806" y1="2271.6833" x2="-206.8545" y2="2271.6833" gradientTransform="matrix(-1 0 0 1 1460.9358 0)">
				<stop  offset="0" style="stop-color:#444B8C"/>
				<stop  offset="0.9964" style="stop-color:#3E4177"/>
			</linearGradient>
			<path style="fill:url(#SVGID_00000062874053354017634470000002119157585698962594_);" d="M2046.498,1589.519
				c8.384,213.411,8.725,445.274-3.555,692.972c-13.824,278.927-41.608,536.729-76.622,770.424
				c-13.016,0.416-26.695,0.483-40.982,0.083c-9.649-0.268-18.997-0.739-28.032-1.362c-18.169-48.457-39.647-112.182-58.879-188.297
				c-20.219-80.037-32.418-151.828-41.108-220.48c-30.6-241.719,5.261-262.806-19.573-441.944
				c-21.993-158.652-53.27-164.847-89.987-390.098c-39.836-244.404-10.181-281.071,4.242-294.316
				C1753.396,1460.111,1897.609,1498.5,2046.498,1589.519z"/>
			
				<linearGradient id="SVGID_00000069377862699287168950000011618245905652711809_" gradientUnits="userSpaceOnUse" x1="-591.5813" y1="2271.7" x2="-206.857" y2="2271.7" gradientTransform="matrix(-1 0 0 1 1460.9358 0)">
				<stop  offset="0" style="stop-color:#444B8C"/>
				<stop  offset="0.9964" style="stop-color:#3E4177"/>
			</linearGradient>
			<path style="opacity:0.3;fill:url(#SVGID_00000069377862699287168950000011618245905652711809_);" d="M1692.002,1516.502
				c58.556-53.786,192.472-21.224,333.913,60.863c-162.715,175.8-180.453,289.843-160.946,363.838
				c22.045,83.632,89.072,107.718,88.816,199.167c-0.314,112.379-101.739,142.148-99.583,261.066
				c1.426,78.635,45.995,77.819,56.519,174.943c12.453,114.917-45.772,154.514-26.913,239.538
				c8.113,36.577,31.27,84.375,97.223,133.611c-4.756,34.915-9.631,69.478-14.713,103.389c-13.012,0.411-26.692,0.483-40.979,0.079
				c-9.649-0.266-19-0.735-28.03-1.36c-18.172-48.457-39.65-112.18-58.882-188.296c-20.219-80.039-32.418-151.828-41.108-220.482
				c-30.599-241.717,5.261-262.806-19.573-441.944c-21.993-158.652-53.27-164.85-89.985-390.1
				C1647.925,1566.41,1677.579,1529.744,1692.002,1516.502z"/>
			
				<linearGradient id="SVGID_00000021091613464531198590000011210260481972067257_" gradientUnits="userSpaceOnUse" x1="-484.7729" y1="2233.7603" x2="289.7211" y2="2233.7603" gradientTransform="matrix(-1 0 0 1 1460.9358 0)">
				<stop  offset="0" style="stop-color:#444B8C"/>
				<stop  offset="0.9964" style="stop-color:#3E4177"/>
			</linearGradient>
			<path style="fill:url(#SVGID_00000021091613464531198590000011210260481972067257_);" d="M1945.709,1585.935
				c-140.103,205-291.221,460.133-426.364,765.516c-102.129,230.779-176.2,447.459-230.583,640.569
				c-7.358,3.407-24.718,10.203-46.899,7.271c-30.256-4.001-48.389-23.314-53.129-28.705
				c-22.133-138.433-19.694-255.675-12.182-340.29c4.811-54.176,13.323-144.396,47.855-255.773
				c38.679-124.758,65.27-131.77,115.732-263.761c52.375-137,39.688-171.188,89.845-342.636
				c20.606-70.431,55.098-175.242,112.012-300.613C1676.568,1506.984,1811.14,1546.461,1945.709,1585.935z"/>
			
				<linearGradient id="SVGID_00000100340511463621534460000006394535726545118395_" gradientUnits="userSpaceOnUse" x1="1901.1602" y1="2192.6006" x2="2184.4385" y2="589.143">
				<stop  offset="0" style="stop-color:#311944"/>
				<stop  offset="1" style="stop-color:#893976"/>
			</linearGradient>
			<path style="fill:url(#SVGID_00000100340511463621534460000006394535726545118395_);" d="M2637.539,1689.403
				c7.223,51.276-105.107,136.101-208.326,127.028c-140.81-12.378-258.349-198.943-270.88-347.129
				c-2.683-31.73-0.713-63.641-7.177-64.591c-16.404-2.414-58.531,192.153-91.6,357.108c-26.585,9.728-66.889,20.064-112.948,12.515
				c-75.38-12.348-84.356-59.18-168.664-89.716c-49.19-17.814-97.387-17.856-193.784-17.938
				c-108.816-0.097-111.815,13.323-132.774,3.587c0,0-5.183-2.843-9.644-6.046c-77.493-55.632,144.201-478.497,80.371-868.657
				c-7.095-43.366-17.972-87.892,6.248-131.3c62.59-112.169,309.952-127.983,463.202-54.166
				c42.004,20.233,112.353,64.5,175.179,111.152c25.112,18.645,51.227,39.516,78.469,63.313
				c84.382,73.711,140.239,141.336,149.967,153.637c144.545,182.772-72.084,524.14,79.765,664.824
				C2541.075,1664.292,2631.293,1645.064,2637.539,1689.403z"/>
			
				<linearGradient id="SVGID_00000050622990137318388140000013263263038646310813_" gradientUnits="userSpaceOnUse" x1="-616.5763" y1="857.9015" x2="-616.5763" y2="547.0419" gradientTransform="matrix(-1 0 0 1 1460.9358 0)">
				<stop  offset="0" style="stop-color:#FFC444"/>
				<stop  offset="0.9964" style="stop-color:#F36F56"/>
			</linearGradient>
			<path style="fill:url(#SVGID_00000050622990137318388140000013263263038646310813_);" d="M2181.667,569.575
				c0,0-39.785,45.173-82.545,68.585c-38.646,21.156-123.834-14.481-143.546-18.665c-19.709-4.186,3.941,48.889,41.129,85.468
				c37.184,36.579,160.098,120.236,193.25,121.636c33.151,1.403-5.338-27.63-25.695-61.435
				c-20.358-33.806,8.331-103.697,34.024-125.232C2223.981,618.393,2181.667,569.575,2181.667,569.575z"/>
			<g>
				
					<linearGradient id="SVGID_00000182489976108066424710000008902609848288320183_" gradientUnits="userSpaceOnUse" x1="-1887.8348" y1="-436.0631" x2="-2019.8429" y2="-771.3393" gradientTransform="matrix(-0.8789 -0.477 -0.477 0.8789 160.8578 210.4266)">
					<stop  offset="0" style="stop-color:#444B8C"/>
					<stop  offset="0.9964" style="stop-color:#3E4177"/>
				</linearGradient>
				<path style="fill:url(#SVGID_00000182489976108066424710000008902609848288320183_);" d="M2273.086,604.914
					c45.145-3.427,90.758-59.027,81.544-83.295c-2.635-6.937-8.5-8.037-96.874-22.595c-43.887-7.226-65.824-10.208-80.989,1.92
					c-9.259,7.402-16.485,20.603-18.766,33.07c-1.172,6.418-1.234,15.252-0.134,32.853c0.978,15.62,0.688,14.935,1.095,19.55
					c0.974,11.081,3.995,30.576,14.8,57.599c4.501-4.936,10.46-10.83,17.984-16.639c2.893-2.236,14.346-10.891,27.368-16.136
					C2241.524,602.216,2258.434,606.028,2273.086,604.914z"/>
				
					<linearGradient id="SVGID_00000067196660956067988330000005605413170560964513_" gradientUnits="userSpaceOnUse" x1="-836.3122" y1="768.3138" x2="-690.9751" y2="485.7138" gradientTransform="matrix(-1 0 0 1 1460.9358 0)">
					<stop  offset="0" style="stop-color:#FFC444"/>
					<stop  offset="0.9964" style="stop-color:#F36F56"/>
				</linearGradient>
				<path style="fill:url(#SVGID_00000067196660956067988330000005605413170560964513_);" d="M2157.265,613.899
					c0,0,2.01,43.195,42.711,62.161c36.445,16.978,84.813-59.111,71.507-88.167c-4.438-9.693-18.187-20.235-32.272-23.502
					c-8.321-1.93-12.402-0.266-25.935-3.683c-12.479-3.15-14.905-6.055-19.725-5.082c-6.028,1.213-13.712,8.072-19.457,34.918
					c-2.99-10.476-9.622-17.499-16.806-17.929c-1.145-0.069-4.464,0.251-7.185,1.999
					C2140.246,580.933,2142.173,596.949,2157.265,613.899z"/>
			</g>
			
				<linearGradient id="SVGID_00000153698626987295033480000004664546072201919401_" gradientUnits="userSpaceOnUse" x1="1225.5432" y1="2084.7175" x2="1510.835" y2="469.8631">
				<stop  offset="0" style="stop-color:#311944"/>
				<stop  offset="1" style="stop-color:#893976"/>
			</linearGradient>
			<path style="fill:url(#SVGID_00000153698626987295033480000004664546072201919401_);" d="M1183.46,1485.61
				c-61.019-29.91-192.753-106.508-233.256-247.612c-67.432-234.903,172.386-458.968,296.196-542.804
				c141.952-96.125,284.593-111.646,371.276-121.08c107.546-11.704,173.187-18.846,222.49,21.531
				c127.507,104.425,50.862,448.989-75.359,484.458c-41.322,11.611-56.959-18.616-143.544-39.477
				c-28.197-6.791-238.651-57.491-348.088,53.828c-76.595,77.912-86.379,217.556-32.298,348.094
				C1221.738,1456.901,1202.599,1471.255,1183.46,1485.61z"/>
		</g>
		<g>
			<path style="fill:#97A6B7;" d="M3087.855,2220.587l-2510.429-79.352c-129.755-4.102-236.574,118.547-236.574,274.007v589.243
				c0,155.46,106.819,276.914,236.574,271.36l2510.429-107.441c89.156-3.816,160.52-109.233,160.52-235.504v-478.606
				C3248.375,2328.023,3177.011,2223.405,3087.855,2220.587z"/>
			
				<linearGradient id="SVGID_00000072974895739027130080000017133560879306904718_" gradientUnits="userSpaceOnUse" x1="983.0656" y1="3913.1392" x2="2307.3572" y2="1903.6011">
				<stop  offset="0.0036" style="stop-color:#EBEFF2"/>
				<stop  offset="1" style="stop-color:#FFFFFF"/>
			</linearGradient>
			<path style="fill:url(#SVGID_00000072974895739027130080000017133560879306904718_);" d="M577.426,3238.887
				c-112.146,4.528-204.607-100.95-204.607-235.19v-588.026c0-134.24,92.461-240.752,204.607-237.479l2510.429,73.268
				c77.218,2.254,139.352,93.105,139.352,202.55v479.412c0,109.444-62.134,200.991-139.352,204.109L577.426,3238.887z"/>
			<g>
				<path style="fill:#D8DEE8;" d="M892.694,2410.818l68.212,168.894c2.515,6.228,7.375,10.55,12.992,11.559l150.035,26.956
					c13.844,2.487,19.364,23.475,9.357,35.541l-108.122,130.37c-4.036,4.867-5.879,11.838-4.926,18.637l25.685,183.199
					c2.392,17.06-12.258,30.504-24.815,22.74l-135.941-84.045c-5.085-3.143-11.163-3.022-16.255,0.328l-138.763,91.293
					c-13.078,8.604-28.392-4.35-25.887-21.931l26.792-188.078c0.991-6.955-0.924-14.019-5.123-18.891l-114.224-132.54
					c-10.745-12.468-4.814-34.229,10.02-36.796l157.196-27.204c5.762-0.997,10.739-5.348,13.312-11.634l69.131-168.846
					C867.786,2394.698,886.298,2394.981,892.694,2410.818z"/>
				
					<linearGradient id="SVGID_00000003796914098108403660000003441987048754687911_" gradientUnits="userSpaceOnUse" x1="1851.6182" y1="2330.2554" x2="1078.8553" y2="3118.6616">
					<stop  offset="0" style="stop-color:#FFC444"/>
					<stop  offset="0.9964" style="stop-color:#F36F56"/>
				</linearGradient>
				<path style="fill:url(#SVGID_00000003796914098108403660000003441987048754687911_);" d="M1445.438,2418.68l63.267,162.636
					c2.333,5.998,6.841,10.161,12.053,11.132l139.241,25.961c12.853,2.396,17.979,22.62,8.687,34.246l-100.359,125.578
					c-3.746,4.687-5.455,11.401-4.571,17.951l23.835,176.497c2.22,16.437-11.375,29.375-23.028,21.884l-126.101-81.058
					c-4.715-3.031-10.351-2.918-15.073,0.304l-128.621,87.779c-12.118,8.27-26.306-4.213-23.986-21.134l24.823-181.02
					c0.918-6.695-0.857-13.495-4.748-18.187l-105.807-127.589c-9.95-11.999-4.458-32.939,9.279-35.41l145.636-26.192
					c5.34-0.96,9.953-5.149,12.339-11.201l64.087-162.591C1422.341,2403.171,1439.506,2403.433,1445.438,2418.68z"/>
				
					<linearGradient id="SVGID_00000179605222099892573300000005752448900192187032_" gradientUnits="userSpaceOnUse" x1="2093.2888" y1="2605.3569" x2="1319.3613" y2="3394.9514">
					<stop  offset="0" style="stop-color:#FFC444"/>
					<stop  offset="0.9964" style="stop-color:#F36F56"/>
				</linearGradient>
				<path style="fill:url(#SVGID_00000179605222099892573300000005752448900192187032_);" d="M1958.724,2425.981l58.84,156.824
					c2.171,5.785,6.364,9.799,11.212,10.736l129.572,25.038c11.965,2.312,16.737,21.825,8.087,33.042l-93.403,121.126
					c-3.485,4.519-5.076,10.995-4.253,17.314l22.178,170.267c2.066,15.858-10.585,28.326-21.427,21.09l-117.293-78.275
					c-4.384-2.926-9.625-2.821-14.015,0.283l-119.553,84.524c-11.259,7.96-24.442-4.085-22.286-20.392l23.064-174.473
					c0.853-6.453-0.796-13.009-4.411-17.533l-98.288-122.996c-9.241-11.564-4.14-31.743,8.618-34.124l135.306-25.252
					c4.963-0.926,9.25-4.965,11.468-10.8l59.576-156.783C1937.248,2411.037,1953.208,2411.281,1958.724,2425.981z"/>
				
					<linearGradient id="SVGID_00000133517682031177562280000008934761803798643883_" gradientUnits="userSpaceOnUse" x1="2206.7888" y1="2699.8428" x2="2634.4951" y2="2699.8428">
					<stop  offset="0" style="stop-color:#FFC444"/>
					<stop  offset="0.9964" style="stop-color:#F36F56"/>
				</linearGradient>
				<path style="fill:url(#SVGID_00000133517682031177562280000008934761803798643883_);" d="M2436.632,2432.779l54.863,151.414
					c2.024,5.586,5.935,9.462,10.456,10.367l120.876,24.177c11.166,2.233,15.619,21.084,7.547,31.92l-87.146,116.978
					c-3.251,4.364-4.735,10.617-3.967,16.72l20.688,164.462c1.927,15.318-9.874,27.349-19.988,20.352l-109.376-75.677
					c-4.087-2.828-8.973-2.73-13.065,0.263l-111.41,81.503c-10.489,7.673-22.769-3.964-20.76-19.701l21.486-168.383
					c0.794-6.228-0.742-12.556-4.11-16.924l-91.542-118.722c-8.604-11.159-3.855-30.631,8.025-32.929l126.036-24.377
					c4.625-0.895,8.62-4.794,10.686-10.426l55.525-151.376C2416.612,2418.361,2431.49,2418.588,2436.632,2432.779z"/>
				<path style="fill:#D8DEE8;" d="M2882.697,2439.124l51.275,146.365c1.892,5.401,5.548,9.148,9.773,10.022l113.027,23.375
					c10.444,2.16,14.61,20.392,7.059,30.871l-81.497,113.105c-3.039,4.218-4.427,10.264-3.709,16.166l19.344,159.04
					c1.802,14.814-9.233,26.438-18.689,19.663l-102.235-73.246c-3.819-2.736-8.384-2.645-12.208,0.246l-104.072,78.689
					c-9.795,7.406-21.262-3.85-19.387-19.055l20.064-162.703c0.742-6.019-0.693-12.134-3.838-16.356l-85.468-114.735
					c-8.031-10.781-3.598-29.594,7.49-31.814l117.688-23.561c4.32-0.865,8.052-4.634,9.982-10.078l51.873-146.329
					C2863.99,2425.196,2877.892,2425.408,2882.697,2439.124z"/>
			</g>
			<g style="opacity:0.1;">
				<path style="fill:#97A6B7;" d="M2718.152,2740.991c-324.047-103.352-541.777,414.311-918.569,300.617
					c-326.707-98.582-335.83-525.452-724.131-829.274c-26.608-20.819-53.713-40.093-81.256-57.926l-416.769-13.174
					c-129.755-4.102-236.574,118.547-236.574,274.007v589.243c0,155.46,106.819,276.914,236.574,271.36l2493.372-106.711
					C2950.955,2878.49,2824.142,2774.796,2718.152,2740.991z"/>
			</g>
			
				<linearGradient id="SVGID_00000020400518168799343530000008523624567397608877_" gradientUnits="userSpaceOnUse" x1="977.9504" y1="2365.0569" x2="448.2604" y2="3934.0151">
				<stop  offset="0" style="stop-color:#FFC444"/>
				<stop  offset="0.9964" style="stop-color:#F36F56"/>
			</linearGradient>
			<path style="fill:url(#SVGID_00000020400518168799343530000008523624567397608877_);" d="M892.694,2410.818l68.212,168.894
				c2.515,6.228,7.375,10.55,12.992,11.559l150.035,26.956c13.844,2.487,19.364,23.475,9.357,35.541l-108.122,130.37
				c-4.036,4.867-5.879,11.838-4.926,18.637l25.685,183.199c2.392,17.06-12.258,30.504-24.815,22.74l-135.941-84.045
				c-5.085-3.143-11.163-3.022-16.255,0.328l-138.763,91.293c-13.078,8.604-28.392-4.35-25.887-21.931l26.792-188.078
				c0.991-6.955-0.924-14.019-5.123-18.891l-114.224-132.54c-10.745-12.468-4.814-34.229,10.02-36.796l157.196-27.204
				c5.762-0.997,10.739-5.348,13.312-11.634l69.131-168.846C867.786,2394.698,886.298,2394.981,892.694,2410.818z"/>
		</g>
		<g>
			<path style="fill:#FFFFFF;" d="M2053.996,950.151l204.667,414.7c7.582,15.364,22.24,26.014,39.196,28.478l457.648,66.5
				c42.698,6.204,59.748,58.677,28.851,88.794L2453.2,1871.421c-12.269,11.959-17.867,29.19-14.971,46.078l78.176,455.799
				c7.294,42.526-37.342,74.956-75.533,54.878l-409.333-215.199c-15.166-7.973-33.283-7.973-48.449,0l-409.333,215.199
				c-38.19,20.078-82.826-12.352-75.533-54.878l78.176-455.799c2.896-16.887-2.702-34.118-14.971-46.078l-331.158-322.799
				c-30.896-30.117-13.847-82.59,28.851-88.794l457.648-66.5c16.956-2.464,31.613-13.113,39.196-28.478l204.666-414.7
				C1979.728,911.46,2034.901,911.46,2053.996,950.151z"/>
			
				<linearGradient id="SVGID_00000128475544365733740590000008724677429400438435_" gradientUnits="userSpaceOnUse" x1="2498.1897" y1="861.8541" x2="932.23" y2="3637.8687">
				<stop  offset="0" style="stop-color:#FFC444"/>
				<stop  offset="0.9964" style="stop-color:#F36F56"/>
			</linearGradient>
			<path style="fill:url(#SVGID_00000128475544365733740590000008724677429400438435_);" d="M2074.32,950.151l204.667,414.7
				c7.583,15.364,22.24,26.014,39.196,28.478l457.648,66.5c42.699,6.204,59.748,58.677,28.851,88.794l-331.157,322.799
				c-12.269,11.959-17.868,29.19-14.971,46.078l78.175,455.799c7.294,42.526-37.342,74.956-75.532,54.878l-409.333-215.199
				c-15.166-7.973-33.284-7.973-48.449,0l-409.333,215.199c-38.191,20.078-82.826-12.352-75.533-54.878l78.175-455.799
				c2.896-16.887-2.702-34.118-14.972-46.078l-331.157-322.799c-30.897-30.117-13.848-82.59,28.851-88.794l457.649-66.5
				c16.956-2.464,31.613-13.113,39.195-28.478l204.667-414.7C2000.052,911.46,2055.225,911.46,2074.32,950.151z"/>
			<g style="opacity:0.3;">
				
					<linearGradient id="SVGID_00000102545175288997163720000012277846084139598251_" gradientUnits="userSpaceOnUse" x1="2497.4219" y1="861.4204" x2="931.4589" y2="3637.4407">
					<stop  offset="0" style="stop-color:#FFC444"/>
					<stop  offset="0.9964" style="stop-color:#F36F56"/>
				</linearGradient>
				<path style="fill:url(#SVGID_00000102545175288997163720000012277846084139598251_);" d="M2350.044,2112.61
					c-157.076-149.362-334.011-141.038-405.447-313.647c-80.043-193.409,90.396-328.801,61.199-566.095
					c-7.072-57.477-26.128-123.111-68.395-194.465l-161.112,326.449c-7.582,15.363-22.24,26.013-39.196,28.478l-457.648,66.5
					c-42.699,6.204-59.748,58.676-28.851,88.792l331.157,322.799c12.27,11.96,17.868,29.191,14.972,46.078l-78.176,455.798
					c-7.293,42.527,37.342,74.955,75.533,54.878l409.333-215.199c15.165-7.973,33.284-7.973,48.449,0l409.333,215.199
					c22.218,11.68,46.597,5.572,61.684-9.94C2482.253,2269.482,2415.991,2175.319,2350.044,2112.61z"/>
			</g>
		</g>
		
			<linearGradient id="SVGID_00000072239716840703685310000017122086794734582969_" gradientUnits="userSpaceOnUse" x1="1239.6544" y1="1408.9191" x2="1108.0923" y2="1270.9393">
			<stop  offset="0" style="stop-color:#FFC444"/>
			<stop  offset="0.9964" style="stop-color:#F36F56"/>
		</linearGradient>
		<path style="fill:url(#SVGID_00000072239716840703685310000017122086794734582969_);" d="M1207.589,1467.513
			c0,0,54.452-46.493,91.603-54.749c19.648-4.366,43.914,13.782,62.418,31.851c9.335,9.116,0.768,24.705-11.896,21.566
			c-22.509-5.578-46.844-10.938-50.916-9.164C1290.937,1460.442,1264.59,1520.198,1207.589,1467.513z"/>
		
			<linearGradient id="SVGID_00000177485815210704870880000008289142957691582365_" gradientUnits="userSpaceOnUse" x1="2671.4829" y1="1811.697" x2="2644.6514" y2="1613.5579">
			<stop  offset="0" style="stop-color:#FFC444"/>
			<stop  offset="0.9964" style="stop-color:#F36F56"/>
		</linearGradient>
		<path style="fill:url(#SVGID_00000177485815210704870880000008289142957691582365_);" d="M2619.302,1736.337
			c0,0-9.502-51.131,35.905-94.474c45.407-43.343,35.087,9.76,30.959,35.839C2682.038,1703.781,2619.302,1736.337,2619.302,1736.337
			z"/>
	</g>
</g>
</svg>
