<svg version="1.1" id="Layer_1" xmlns="http://www.w3.org/2000/svg" xmlns:xlink="http://www.w3.org/1999/xlink" x="0px" y="0px"
	 width="100%" viewBox="0 0 736 736" enable-background="new 0 0 736 736" xml:space="preserve">
<path fill="#000000" opacity="1.000000" stroke="none" 
	d="
M160.654694,368.283325 
	C154.750107,342.236267 154.845123,316.418030 157.381226,290.418274 
	C158.623535,277.682129 158.939911,264.862701 161.273911,252.228500 
	C167.404617,219.042023 186.312500,194.370819 212.758163,174.692200 
	C221.059662,168.514908 229.685181,162.884293 239.170364,158.631531 
	C243.596786,156.646896 248.134903,155.093307 252.664322,153.992523 
	C254.952850,154.253448 254.496597,157.389526 256.807800,157.416260 
	C257.049744,157.323761 257.596802,157.247757 257.623871,157.085190 
	C258.954041,149.092606 265.651306,151.407089 270.118622,151.384781 
	C281.905670,151.325974 293.855530,151.414017 305.246643,154.956696 
	C312.186951,157.115158 318.795410,160.361359 325.505951,163.228836 
	C328.628693,164.563232 330.401031,167.100159 331.117249,170.418655 
	C331.823853,173.692703 332.304718,177.003403 332.082825,180.339310 
	C330.366974,206.135727 331.604492,231.967041 331.224182,257.779327 
	C331.093750,266.632446 328.066681,273.183960 320.619507,277.877106 
	C307.922729,285.878571 293.746429,290.232941 279.620392,294.725128 
	C276.246338,295.798126 276.101929,293.244568 275.828308,291.092346 
	C274.423279,280.041473 273.097473,268.980560 271.686462,257.930481 
	C271.308990,254.974457 270.729309,252.044250 270.000732,247.641251 
	C267.868225,257.176514 268.347473,265.253021 269.513580,273.341156 
	C270.367371,279.263184 271.131561,285.200714 272.129181,291.098572 
	C272.815674,295.157043 271.756653,297.585785 267.494720,298.965424 
	C262.132355,300.701324 256.846069,302.779633 251.878357,305.570374 
	C248.498032,307.469330 247.054596,309.972168 247.034439,314.022552 
	C246.736053,373.968384 267.257111,425.653381 308.146149,469.395111 
	C312.930603,474.513367 317.616486,479.665283 323.276642,483.860016 
	C325.182159,485.272217 326.912750,485.630707 329.275879,485.049347 
	C335.516785,483.514008 340.750671,479.563049 346.731964,477.740967 
	C354.949646,475.237640 360.768768,469.066620 368.120911,465.302643 
	C375.535797,461.506500 382.840546,457.523621 390.639557,454.548340 
	C393.905487,453.302460 397.200409,452.209290 400.676422,451.620575 
	C408.633087,450.272949 415.202332,452.867889 420.391144,458.756409 
	C438.889893,479.749451 457.374146,500.757080 475.657532,521.937317 
	C484.142334,531.766479 484.573822,536.962219 478.092133,548.143250 
	C470.793060,560.734253 461.655060,571.902588 450.923492,581.805298 
	C447.391327,580.142639 445.943634,576.937256 443.540283,574.742371 
	C441.930969,573.272522 440.804749,569.171936 438.108093,571.431763 
	C435.749603,573.408203 439.261993,575.320679 440.470490,577.042603 
	C442.076477,579.330750 444.018005,581.383362 446.059418,583.829712 
	C440.169556,589.847900 432.755035,592.719238 425.476562,594.951294 
	C396.848480,603.730713 367.659637,609.606079 337.497498,607.119995 
	C312.516235,605.060852 290.338867,595.877625 271.856598,578.637024 
	C253.705017,561.704956 235.571213,544.712341 220.411942,524.936951 
	C201.436417,500.183319 189.078384,472.002289 178.954117,442.770447 
	C170.604141,418.661469 164.229691,394.031494 160.654694,368.283325 
M397.670105,478.863617 
	C407.173096,493.148560 416.684998,507.427612 426.175842,521.720642 
	C432.161438,530.734924 438.205475,539.712524 444.043549,548.821777 
	C446.717346,552.993774 447.466736,557.502502 444.510071,561.987793 
	C443.587006,563.388062 443.337952,564.741821 444.509277,566.090637 
	C446.447144,568.322083 448.005249,570.937439 451.234375,572.767395 
	C460.876892,562.636353 469.790833,552.005615 475.462708,539.033813 
	C476.812042,535.947876 475.771881,532.874451 473.915070,530.048035 
	C470.315277,524.568420 465.436615,520.218567 461.186554,515.315857 
	C446.454529,498.321320 431.628967,481.407043 417.004150,464.320862 
	C411.587982,457.993195 405.277954,455.910950 397.419128,458.697388 
	C392.394806,460.478760 387.375519,462.286499 382.743408,464.977356 
	C381.696106,465.585724 380.093323,465.799103 380.415131,468.299835 
	C388.128876,467.798431 393.422302,471.876770 397.670105,478.863617 
M165.369446,265.795380 
	C165.319550,266.626465 165.481659,267.542999 165.186661,268.275330 
	C162.489304,274.971436 166.801056,280.724091 167.701096,286.922852 
	C168.030243,289.189789 169.829849,290.791412 172.294373,290.831207 
	C176.233109,290.894775 179.255188,292.530670 181.912766,295.358246 
	C184.848679,298.482025 188.134476,298.413452 191.046997,295.325714 
	C194.117310,292.070709 198.072189,291.011322 202.198059,290.263245 
	C209.744400,288.895020 211.066360,287.897491 212.051208,280.240082 
	C213.414093,269.643372 216.089752,259.360443 219.020493,249.151260 
	C221.051453,242.076462 220.875305,240.786835 214.131058,238.246017 
	C207.235672,235.648270 201.378235,231.825439 197.319748,225.541733 
	C195.107971,222.117249 191.895203,220.299103 187.950089,219.485825 
	C186.399734,219.166199 184.542267,219.442459 183.356613,217.761276 
	C182.802139,214.925034 185.923645,213.196198 186.236069,209.312500 
	C184.265701,212.231537 182.923721,214.116364 181.687134,216.067947 
	C172.225449,231.000488 167.704590,247.579727 165.369446,265.795380 
M254.587250,395.781189 
	C246.729828,374.616119 243.315750,352.489655 240.396393,330.219116 
	C240.059235,331.360657 239.930344,332.495422 239.794846,333.629395 
	C239.715775,334.290955 239.571396,334.949402 239.549088,335.612366 
	C238.283829,373.205597 246.200119,408.707703 264.346954,441.711090 
	C273.409393,458.192810 283.099487,474.278046 295.768158,488.440674 
	C300.834778,494.104828 308.928925,494.078979 317.839294,488.355011 
	C311.740112,483.011688 306.438049,477.118286 301.180511,471.176758 
	C281.483459,448.917389 264.875305,424.766968 254.587250,395.781189 
M372.295166,553.236511 
	C380.622681,565.887146 388.966217,578.527344 397.262512,591.198425 
	C398.699158,593.392700 400.159058,595.352661 403.208923,594.621765 
	C406.535919,593.824341 410.027863,593.535034 413.019043,591.766846 
	C412.862732,589.386414 411.536743,587.842041 410.445099,586.197144 
	C401.519043,572.747192 392.564362,559.316223 383.654480,545.855591 
	C371.345490,527.259827 359.084259,508.632385 346.746887,490.055481 
	C345.738800,488.537567 345.022736,485.860291 342.372864,487.046204 
	C339.094727,488.513306 335.407745,489.261902 331.979004,492.493622 
	C345.284119,512.543640 358.588165,532.592041 372.295166,553.236511 
M282.719391,273.384583 
	C282.725037,240.571365 282.731110,207.758148 282.735718,174.944931 
	C282.736328,170.614120 282.666931,166.282135 282.748627,161.952927 
	C282.798950,159.285080 281.538666,157.878220 278.992828,157.635239 
	C277.009125,157.445892 275.003754,157.496231 273.012573,157.368668 
	C270.258789,157.192230 269.059784,158.442429 269.091583,161.189926 
	C269.245483,174.493713 268.774963,187.797058 270.579559,201.064972 
	C273.355591,221.475311 275.735718,241.939255 278.359283,262.370758 
	C279.345978,270.054779 280.543243,277.711731 281.644531,285.381042 
	C282.000641,285.342773 282.356781,285.304474 282.712891,285.266205 
	C282.712891,281.624146 282.712891,277.982086 282.719391,273.384583 
M249.341583,299.694275 
	C254.093964,296.930145 259.689575,295.795654 264.838806,292.205322 
	C254.228226,291.207153 242.289169,297.779022 242.475494,304.128815 
	C244.593307,302.723999 246.638184,301.367554 249.341583,299.694275 
M426.258667,582.741089 
	C424.779907,584.491577 422.288757,585.584290 422.205841,589.061401 
	C427.535767,587.617676 432.125153,585.846619 436.328217,582.990845 
	C435.342255,580.521362 434.167267,578.850891 431.949768,577.775024 
	C430.211029,579.282532 428.486053,580.778076 426.258667,582.741089 
z"/>
<path fill="#000000" opacity="1.000000" stroke="none" 
	d="
M580.810059,434.567993 
	C578.001282,448.041992 574.110901,460.754639 569.507324,473.269440 
	C566.627502,481.098236 561.390869,486.159302 553.098083,487.654633 
	C549.985840,488.215851 548.157837,489.698792 546.985352,492.683350 
	C545.467834,496.545868 543.536682,500.260620 541.591492,503.937378 
	C536.832642,512.932739 527.797180,516.481995 519.946716,512.558350 
	C511.375366,508.274353 508.678650,498.896606 513.595581,489.482910 
	C520.559326,476.150360 526.276978,462.311401 530.648621,447.941650 
	C539.949097,417.370605 542.139343,386.183990 537.924561,354.569611 
	C530.888611,301.794159 508.075348,256.919403 469.849670,219.893661 
	C456.126648,206.601410 440.512329,195.878677 424.110901,186.150436 
	C416.272308,181.501099 408.655518,176.644012 400.296051,172.810425 
	C390.672424,168.397110 387.256012,156.485718 391.553741,146.626007 
	C395.671112,137.180084 406.367554,132.148163 416.545380,135.633530 
	C433.796051,141.541016 450.022278,149.760620 465.234589,159.756470 
	C528.446899,201.292496 567.480835,259.278778 582.015991,333.483276 
	C588.586731,367.027802 587.754883,400.673584 580.810059,434.567993 
M573.957336,436.604858 
	C580.675537,408.096802 581.745178,379.180450 578.367065,350.274658 
	C573.675720,310.131561 559.898315,273.042053 537.484680,239.331879 
	C507.523285,194.269943 467.138275,162.042267 416.857239,142.160721 
	C413.927185,141.002151 411.003235,139.944794 407.664032,140.810532 
	C399.753021,142.861603 395.440094,148.656708 396.196869,156.565979 
	C396.935699,164.288040 403.465546,169.895737 412.146851,170.099533 
	C412.390381,169.382111 412.663574,168.612656 412.913391,167.835709 
	C416.823456,155.676636 426.196167,151.974777 437.495941,158.030655 
	C461.800873,171.056351 483.184204,187.839844 501.958130,207.991882 
	C544.887878,254.072800 567.494690,308.883789 571.162720,371.465424 
	C572.789429,399.220795 569.469055,426.657867 561.569885,453.408478 
	C558.862061,462.578796 555.739807,471.626770 552.732971,480.960175 
	C558.692444,479.557159 561.171875,477.507202 563.577698,471.321686 
	C567.864502,460.300079 571.288696,449.000275 573.957336,436.604858 
z"/>
<path fill="#000000" opacity="1.000000" stroke="none" 
	d="
M473.005280,418.142090 
	C491.550812,355.701874 464.466675,286.597229 408.693359,253.448700 
	C404.111450,250.725464 399.338776,248.353729 396.217010,243.715195 
	C395.548065,242.721222 394.094635,242.182037 392.914795,241.616470 
	C381.909241,236.340866 377.232117,225.249527 381.608643,214.709320 
	C386.010956,204.107056 397.125946,199.333511 408.533051,203.629745 
	C438.689941,214.987717 463.756836,233.520569 484.035339,258.457123 
	C506.139954,285.639191 518.962341,316.881165 523.153137,351.568420 
	C526.606018,380.147583 522.863586,407.978455 513.005737,435.008026 
	C510.259644,442.537689 505.575012,447.932983 497.398926,449.641693 
	C495.297455,450.080872 493.907379,451.278290 492.988739,453.275238 
	C491.668640,456.144806 490.283722,459.012177 488.621857,461.691589 
	C484.142334,468.913849 475.442261,471.375092 468.171753,467.643982 
	C460.830444,463.876617 457.481140,454.743774 461.126129,447.095093 
	C465.567780,437.774658 470.305817,428.604706 473.005280,418.142090 
M413.717133,221.310028 
	C415.257172,221.932892 416.880829,222.404144 418.324982,223.200821 
	C453.481689,242.595062 479.571838,270.424713 495.588257,307.313049 
	C513.825745,349.316864 514.921204,392.106934 500.513458,435.442780 
	C499.931458,437.193298 498.428741,439.004425 500.211700,441.414154 
	C503.892456,439.902527 505.517029,436.804077 506.841278,433.341888 
	C518.239868,403.539734 520.987732,372.761078 515.303040,341.575378 
	C507.179504,297.010529 484.807739,260.713531 448.902252,232.938644 
	C435.771942,222.781631 421.319336,214.903900 405.763184,209.150665 
	C397.744507,206.185028 389.892517,209.998566 387.125244,217.731033 
	C384.639923,224.675659 387.429199,231.575745 394.073120,234.288284 
	C397.124664,225.370819 402.757202,219.905823 413.717133,221.310028 
z"/>
<path fill="#000000" opacity="1.000000" stroke="none" 
	d="
M322.123108,614.716675 
	C319.008972,619.529053 312.757629,619.825806 309.596619,615.697571 
	C307.396576,612.824402 308.702942,608.535828 312.077454,607.553467 
	C316.309692,606.321350 321.372589,609.708191 322.123108,614.716675 
z"/>
<path fill="#000000" opacity="1.000000" stroke="none" 
	d="
M343.927429,147.816681 
	C346.425293,146.910599 348.154144,147.412994 349.300079,149.469910 
	C350.486664,151.599716 349.533417,153.267975 348.058563,154.776947 
	C346.329468,156.546082 344.590210,158.306259 342.819275,160.033295 
	C340.963837,161.842712 338.790131,162.701538 336.725677,160.654572 
	C334.552704,158.500015 335.187439,156.113754 337.163208,154.106628 
	C339.241852,151.995010 341.446014,150.006973 343.927429,147.816681 
z"/>
<path fill="#000000" opacity="1.000000" stroke="none" 
	d="
M338.538574,128.429199 
	C336.067719,125.971428 333.757019,123.343773 336.690521,120.586212 
	C339.567749,117.881554 342.135315,120.288963 344.291931,122.515938 
	C345.786957,124.059753 347.362091,125.536133 348.749176,127.171776 
	C350.397491,129.115524 350.263092,131.190018 348.426453,132.918304 
	C346.710022,134.533447 344.790802,134.335999 343.077820,132.815933 
	C341.595459,131.500458 340.216766,130.068192 338.538574,128.429199 
z"/>
<path fill="#000000" opacity="1.000000" stroke="none" 
	d="
M337.468445,620.548340 
	C333.842773,623.443237 330.406464,622.045105 327.495422,620.396240 
	C324.767944,618.851379 324.126404,615.960327 326.193115,613.165405 
	C328.045502,610.660339 333.496429,610.339966 336.636322,612.617615 
	C339.504333,614.698181 340.052643,617.324158 337.468445,620.548340 
z"/>
<path fill="#000000" opacity="1.000000" stroke="none" 
	d="
M300.694336,602.025208 
	C304.083771,603.569946 306.066864,605.635437 304.991211,609.197144 
	C304.212006,611.777161 302.100677,612.827393 299.534332,612.480652 
	C296.132141,612.020935 292.985870,610.874939 291.891174,607.140564 
	C291.344421,605.275391 291.972382,603.498718 293.425781,602.162537 
	C295.613617,600.151062 297.971710,600.634766 300.694336,602.025208 
z"/>
<path fill="#000000" opacity="1.000000" stroke="none" 
	d="
M365.940857,622.590515 
	C362.270660,622.547546 360.059174,620.939575 359.970490,617.630310 
	C359.888489,614.570251 361.976440,613.041992 364.919434,612.416809 
	C368.183136,611.723572 371.251770,611.464233 373.135193,614.898743 
	C375.332825,618.906433 372.575226,621.959229 365.940857,622.590515 
z"/>
<path fill="#000000" opacity="1.000000" stroke="none" 
	d="
M345.543030,612.891724 
	C347.946167,612.846619 350.002350,612.600830 351.909149,613.025635 
	C355.479431,613.820862 357.108856,617.400513 355.471893,620.318359 
	C353.936249,623.055481 351.384247,623.510315 348.582855,623.184265 
	C345.836823,622.864685 343.257324,622.067200 342.252655,619.128540 
	C341.274994,616.268982 342.708282,614.355469 345.543030,612.891724 
z"/>
<path fill="#000000" opacity="1.000000" stroke="none" 
	d="
M368.072144,157.941650 
	C366.571045,156.370209 365.228058,155.128616 364.104004,153.713150 
	C362.836029,152.116425 362.755890,150.285172 364.129486,148.718246 
	C365.660492,146.971786 367.763824,146.775818 369.479401,148.133331 
	C371.794983,149.965652 373.862610,152.137863 375.885925,154.304932 
	C377.660980,156.206116 378.137390,158.493240 376.153381,160.484604 
	C374.086182,162.559464 371.965393,161.790222 370.092773,159.931366 
	C369.506866,159.349762 368.915680,158.773483 368.072144,157.941650 
z"/>
<path fill="#000000" opacity="1.000000" stroke="none" 
	d="
M386.337219,618.511230 
	C382.114471,619.731140 379.178284,618.625671 378.408051,614.588074 
	C377.720490,610.984070 380.111084,609.339050 383.451324,608.579773 
	C387.179993,607.732117 390.738647,607.569031 391.843201,612.021851 
	C392.781403,615.804016 390.333191,617.798096 386.337219,618.511230 
z"/>
<path fill="#000000" opacity="1.000000" stroke="none" 
	d="
M373.482971,129.391205 
	C370.665192,131.599228 368.534851,136.330917 364.693726,132.676880 
	C360.541168,128.726578 365.408417,126.430458 367.481628,123.780899 
	C367.583466,123.650719 367.702576,123.531326 367.826630,123.421623 
	C370.229279,121.297241 372.672638,117.513000 376.096436,120.844841 
	C379.497925,124.155060 375.987701,126.743996 373.482971,129.391205 
z"/>
<path fill="#000000" opacity="1.000000" stroke="none" 
	d="
M338.039368,256.390778 
	C343.031891,258.378937 344.736450,264.690765 341.455750,268.153168 
	C339.146423,270.590393 336.622925,270.232880 334.638977,267.679199 
	C332.091766,264.400391 333.756134,258.523499 338.039368,256.390778 
z"/>
<path fill="#000000" opacity="1.000000" stroke="none" 
	d="
M335.852692,250.806641 
	C332.827332,248.039520 333.431152,244.771408 333.963501,241.777023 
	C334.504822,238.731750 338.176453,237.264877 340.526520,238.977676 
	C343.675781,241.272980 343.626770,244.676514 342.684723,247.930344 
	C341.761108,251.120621 339.453186,252.346664 335.852692,250.806641 
z"/>
<path fill="#000000" opacity="1.000000" stroke="none" 
	d="
M337.404114,167.148087 
	C340.428253,166.708893 342.584229,167.684814 343.040710,170.310516 
	C343.532776,173.140884 344.270813,176.266022 342.094055,178.828186 
	C340.120331,181.151398 336.157928,180.760468 335.132721,177.876617 
	C333.818909,174.181030 332.728241,170.142441 337.404114,167.148087 
z"/>
<path fill="#000000" opacity="1.000000" stroke="none" 
	d="
M334.207031,193.560120 
	C334.133270,192.987503 334.113464,192.821381 334.114746,192.655441 
	C334.137665,189.632065 333.960175,186.494125 337.574036,185.152023 
	C339.348969,184.492844 341.005371,185.055496 342.055725,186.452621 
	C344.156769,189.247345 343.638367,192.495239 342.760773,195.512985 
	C342.227295,197.347351 340.506226,198.354782 338.430298,198.221420 
	C335.789978,198.051804 334.788696,196.234787 334.207031,193.560120 
z"/>
<path fill="#000000" opacity="1.000000" stroke="none" 
	d="
M341.244263,203.891602 
	C343.145752,205.429337 343.291656,207.214859 343.324677,209.089584 
	C343.387421,212.653671 343.020081,216.313858 338.468658,216.166504 
	C333.840149,216.016647 333.889740,212.072922 334.082550,208.703415 
	C334.344299,204.129135 336.230743,202.842224 341.244263,203.891602 
z"/>
<path fill="#000000" opacity="1.000000" stroke="none" 
	d="
M333.826416,229.421417 
	C333.731232,228.511322 333.709381,228.011734 333.671875,227.513336 
	C333.393890,223.822739 334.147491,220.616150 338.494537,220.199127 
	C341.563141,219.904739 343.660980,223.797684 343.150330,228.241531 
	C342.888123,230.522888 342.157135,232.574188 339.687927,233.204025 
	C336.760956,233.950638 334.898163,232.550797 333.826416,229.421417 
z"/>
<path fill="#000000" opacity="1.000000" stroke="none" 
	d="
M258.977051,600.003174 
	C257.156616,598.288208 255.523911,596.849792 254.151352,595.195618 
	C252.950806,593.748657 252.961166,592.052063 254.436783,590.724670 
	C255.767975,589.527222 257.351776,589.735962 258.487000,590.929138 
	C260.579041,593.128174 264.168549,594.551819 263.624329,598.317322 
	C263.312073,600.477844 261.338867,600.955444 258.977051,600.003174 
z"/>
<path fill="#000000" opacity="1.000000" stroke="none" 
	d="
M579.150513,251.906281 
	C578.767212,251.538849 578.634399,251.435425 578.535706,251.306000 
	C577.033081,249.335831 574.035156,247.951370 575.597473,244.726135 
	C576.256531,243.365677 577.879822,243.109131 579.067993,243.745010 
	C581.998657,245.313431 585.268250,247.473679 585.029846,250.908844 
	C584.735901,255.144409 581.835999,254.010056 579.150513,251.906281 
z"/>
<path fill="#000000" opacity="1.000000" stroke="none" 
	d="
M577.370850,227.375259 
	C578.619934,226.234299 579.565063,225.305573 580.601562,224.493484 
	C581.583496,223.724182 582.779053,223.513000 583.842163,224.212265 
	C585.795288,225.496918 585.774963,227.454330 584.429688,228.901886 
	C582.324341,231.167313 580.776978,235.221802 576.720581,233.659851 
	C574.180115,232.681625 574.644470,230.247437 576.409668,228.343124 
	C576.634155,228.100922 576.874023,227.873001 577.370850,227.375259 
z"/>
<path fill="#000000" opacity="1.000000" stroke="none" 
	d="
M561.791748,251.865540 
	C559.868652,253.495361 557.935120,254.579681 556.301270,252.532593 
	C554.789978,250.639084 555.943054,248.762634 557.474060,247.242966 
	C558.065308,246.656128 558.677917,246.090912 559.269897,245.504852 
	C560.894165,243.897018 562.778137,242.362823 564.870361,244.315506 
	C567.069336,246.367783 565.368225,248.227814 563.841431,249.864746 
	C563.273682,250.473495 562.656860,251.036545 561.791748,251.865540 
z"/>
<path fill="#000000" opacity="1.000000" stroke="none" 
	d="
M142.909058,367.425018 
	C144.593948,364.856598 146.470078,365.272522 148.098373,366.805267 
	C150.088501,368.678558 153.147171,370.122253 152.800873,373.379333 
	C152.582199,375.435913 150.572693,376.565613 148.650650,375.299866 
	C145.928299,373.507080 143.066345,371.585449 142.909058,367.425018 
z"/>
<path fill="#000000" opacity="1.000000" stroke="none" 
	d="
M261.442657,616.438660 
	C260.479126,617.394287 259.806976,618.120178 259.065277,618.766174 
	C257.612030,620.031860 255.978470,620.996155 254.311203,619.292419 
	C252.771561,617.719055 253.195328,616.002502 254.583191,614.473450 
	C255.355392,613.622620 256.109009,612.746521 256.953247,611.971313 
	C258.672791,610.392395 260.600586,608.512146 262.868164,610.720947 
	C265.004272,612.801575 263.195190,614.577332 261.442657,616.438660 
z"/>
<path fill="#000000" opacity="1.000000" stroke="none" 
	d="
M283.200867,617.129639 
	C282.313141,620.164734 280.455597,621.165039 278.364380,619.244812 
	C276.097687,617.163452 272.089081,615.680542 273.323944,611.584839 
	C274.036896,609.220154 276.450867,609.254578 278.243622,610.739380 
	C280.247162,612.398682 282.474609,613.978577 283.200867,617.129639 
z"/>
<path fill="#000000" opacity="1.000000" stroke="none" 
	d="
M128.604507,347.183533 
	C129.129929,347.659668 129.402390,347.862213 129.610687,348.117188 
	C131.196243,350.058014 134.242615,351.362549 132.713913,354.702087 
	C132.189972,355.846649 130.908981,356.555389 129.796265,356.018829 
	C126.749199,354.549530 123.576813,352.410278 123.269150,349.052277 
	C122.961136,345.690521 125.498474,345.013519 128.604507,347.183533 
z"/>
<path fill="#000000" opacity="1.000000" stroke="none" 
	d="
M548.267456,495.770966 
	C551.858154,494.929779 557.842773,498.989929 557.843933,502.005890 
	C557.844788,504.209442 556.193542,505.860413 554.340637,504.803223 
	C551.081604,502.943848 547.104309,501.105164 548.267456,495.770966 
z"/>
<path fill="#000000" opacity="1.000000" stroke="none" 
	d="
M550.015076,524.607300 
	C547.229309,523.311401 547.117310,521.350464 548.651245,519.617371 
	C550.544495,517.478333 551.940857,514.078979 555.526489,514.630249 
	C558.038513,515.016418 558.665649,517.178101 557.137451,519.188477 
	C555.362732,521.523193 553.662598,524.147034 550.015076,524.607300 
z"/>
<path fill="#000000" opacity="1.000000" stroke="none" 
	d="
M568.207153,519.707214 
	C566.877991,517.878845 566.705750,516.281067 568.310364,515.066650 
	C569.873779,513.883362 571.574890,514.338196 572.708435,515.757385 
	C574.581787,518.102722 579.726318,520.120911 576.571533,523.452209 
	C573.045776,527.175171 571.010254,521.701111 568.207153,519.707214 
z"/>
<path fill="#000000" opacity="1.000000" stroke="none" 
	d="
M275.907166,600.540649 
	C272.220612,599.312256 272.065887,597.127075 274.256134,594.886108 
	C276.129852,592.969116 277.494812,590.054016 280.787140,590.147949 
	C281.974182,590.181824 282.969879,591.038147 283.122742,592.348938 
	C283.518646,595.744263 280.522827,597.057007 278.772095,599.097107 
	C278.178497,599.788879 277.114868,600.077271 275.907166,600.540649 
z"/>
<path fill="#000000" opacity="1.000000" stroke="none" 
	d="
M567.391663,502.818970 
	C567.737366,498.942261 570.638000,497.284546 573.030884,495.373871 
	C574.513306,494.190155 576.508423,494.595337 577.079895,496.573730 
	C578.150269,500.279358 574.741638,501.730774 572.769775,503.745605 
	C571.034241,505.519043 568.983459,505.923950 567.391663,502.818970 
z"/>
<path fill="#000000" opacity="1.000000" stroke="none" 
	d="
M565.754395,231.923813 
	C564.325256,234.558075 562.434143,234.685715 560.665405,233.120575 
	C558.498169,231.202881 555.429260,229.584198 555.882751,226.056686 
	C556.197388,223.609299 558.279419,223.215454 560.022095,224.475235 
	C562.529541,226.287918 565.250854,228.110641 565.754395,231.923813 
z"/>
<path fill="#000000" opacity="1.000000" stroke="none" 
	d="
M123.003418,372.996307 
	C123.882027,369.767914 126.168884,368.067261 128.381454,366.378235 
	C129.652390,365.407990 131.257309,365.337219 132.439987,366.594818 
	C133.671143,367.903961 133.295273,369.388977 132.155380,370.570435 
	C130.559952,372.224121 129.006897,374.002930 127.129738,375.277649 
	C125.122253,376.640839 123.765411,375.367035 123.003418,372.996307 
z"/>
<path fill="#000000" opacity="1.000000" stroke="none" 
	d="
M150.752563,346.044434 
	C153.230682,347.536560 153.622284,349.311584 151.727707,351.016693 
	C149.622131,352.911774 148.313858,356.395508 144.799286,355.831635 
	C142.597610,355.478394 142.053696,353.224304 143.316025,351.546295 
	C145.137634,349.124878 146.802460,346.234344 150.752563,346.044434 
z"/>
<path fill="#000000" opacity="1.000000" stroke="none" 
	d="
M166.076294,270.380219 
	C166.616989,268.851807 166.473099,267.394409 168.043213,266.279968 
	C169.570145,269.422455 169.331467,272.098267 167.121811,274.791199 
	C165.254791,273.648438 166.072662,272.077789 166.076294,270.380219 
z"/>
</svg>