<?xml version="1.0" encoding="utf-8"?>
<!-- Generator: Adobe Illustrator 27.5.0, SVG Export Plug-In . SVG Version: 6.00 Build 0)  -->
<svg version="1.1" xmlns="http://www.w3.org/2000/svg" xmlns:xlink="http://www.w3.org/1999/xlink" x="0px" y="0px"
	 viewBox="0 0 3710 3710" style="enable-background:new 0 0 3710 3710;" xml:space="preserve">
<g id="Background">
	<g>
		<g>
			<rect style="fill:#FFFFFF;" width="3710" height="3710"/>
		</g>
	</g>
</g>
<g id="Illustration">
	<g>
		<path style="fill:#F4F7FA;" d="M2361.424,514.718c-211.6-47.207-431.599-69.833-646.704-55.41
			c-190.651,12.783-406.759,47.673-560.179,172.648c-73.114,59.558-160.306,166.577-184.221,260.989
			c-0.003,0.011-125.886,496.951-377.648,603.44c-251.766,106.489-426.603,1923.907,1482.619,1746.425
			c0,0,1121.373-46.507,1188.893-1386.112c16.311-323.606,7.198-679.362-188.2-949.951
			c-149.734-207.354-359.526-299.551-600.6-364.062C2437.723,532.607,2399.711,523.26,2361.424,514.718z"/>
		<linearGradient id="SVGID_1_" gradientUnits="userSpaceOnUse" x1="3035.0166" y1="1778.7042" x2="3045.415" y2="5625.0205">
			<stop  offset="0" style="stop-color:#AA80F9"/>
			<stop  offset="0.9964" style="stop-color:#6165D7"/>
		</linearGradient>
		<path style="fill:url(#SVGID_1_);" d="M3035.643,2512.641c-7.654,0-13.859-6.206-13.859-13.859v-41.578
			c0-7.654,6.206-13.859,13.859-13.859c7.654,0,13.859,6.205,13.859,13.859v41.578
			C3049.502,2506.435,3043.296,2512.641,3035.643,2512.641z M3035.643,2408.697c-7.654,0-13.859-6.206-13.859-13.859v-41.578
			c0-7.654,6.206-13.859,13.859-13.859c7.654,0,13.859,6.206,13.859,13.859v41.578
			C3049.502,2402.491,3043.296,2408.697,3035.643,2408.697z M3035.643,2304.753c-7.654,0-13.859-6.206-13.859-13.859v-41.578
			c0-7.654,6.206-13.859,13.859-13.859c7.654,0,13.859,6.206,13.859,13.859v41.578
			C3049.502,2298.547,3043.296,2304.753,3035.643,2304.753z M3035.643,2200.809c-7.654,0-13.859-6.205-13.859-13.859v-41.578
			c0-7.654,6.206-13.859,13.859-13.859c7.654,0,13.859,6.206,13.859,13.859v41.578
			C3049.502,2194.604,3043.296,2200.809,3035.643,2200.809z M3035.643,2096.865c-7.654,0-13.859-6.206-13.859-13.859v-41.578
			c0-7.654,6.206-13.859,13.859-13.859c7.654,0,13.859,6.206,13.859,13.859v41.578
			C3049.502,2090.659,3043.296,2096.865,3035.643,2096.865z M3035.643,1992.921c-7.654,0-13.859-6.205-13.859-13.859v-41.578
			c0-7.654,6.206-13.859,13.859-13.859c7.654,0,13.859,6.206,13.859,13.859v41.578
			C3049.502,1986.715,3043.296,1992.921,3035.643,1992.921z M3035.643,1888.977c-7.654,0-13.859-6.206-13.859-13.859v-41.578
			c0-7.654,6.206-13.859,13.859-13.859c7.654,0,13.859,6.206,13.859,13.859v41.578
			C3049.502,1882.771,3043.296,1888.977,3035.643,1888.977z M3035.643,1785.033c-7.654,0-13.859-6.206-13.859-13.859v-41.578
			c0-7.654,6.206-13.859,13.859-13.859c7.654,0,13.859,6.205,13.859,13.859v41.578
			C3049.502,1778.827,3043.296,1785.033,3035.643,1785.033z M3035.643,1681.089c-7.654,0-13.859-6.205-13.859-13.859v-41.578
			c0-7.654,6.206-13.859,13.859-13.859c7.654,0,13.859,6.205,13.859,13.859v41.578
			C3049.502,1674.883,3043.296,1681.089,3035.643,1681.089z M3035.643,1577.145c-7.654,0-13.859-6.205-13.859-13.859v-41.578
			c0-7.654,6.206-13.859,13.859-13.859c7.654,0,13.859,6.206,13.859,13.859v41.578
			C3049.502,1570.939,3043.296,1577.145,3035.643,1577.145z"/>
		<g>
			<g>
				<g>
					<g>
						<path style="fill:#BFC8D6;" d="M1914.051,1478.025l-79.97-4.667c-2.334-53.15-11.986-104.616-28.019-153.385l69.964-35.145
							c19.121-9.605,26.891-33.393,17.391-53.186l-25.34-52.798c-9.557-19.914-32.928-28.421-52.236-18.946l-69.044,33.882
							c-28.458-45.413-63.186-86.903-103.163-123.196l42.366-63.659c12.156-18.266,7.116-43.568-11.287-56.577l-49.205-34.783
							c-18.602-13.149-43.733-8.972-56.101,9.393l-42.413,62.979c-48.071-26.008-100.514-45.837-156.346-58.138l4.653-77.428
							c1.372-22.842-16.253-43.345-39.441-45.803l-62.059-6.579c-23.485-2.49-43.708,14.206-45.096,37.299l-4.704,78.278
							c-58.396,1.35-115.194,11.046-169.066,28.092l-37.287-73.264c-10.957-21.529-37.585-31.222-59.518-21.588l-58.662,25.767
							c-22.183,9.744-31.133,35.272-19.944,56.958l38.689,74.987c-49.109,30.473-93.617,67.812-132.003,110.875l-75.203-48.723
							c-21.321-13.814-50.034-9.042-64.095,10.73l-37.518,52.758c-14.155,19.905-8.102,47.202,13.481,60.899l77.877,49.418
							c-25.427,50.098-43.829,104.333-53.857,161.594l-96.638-5.64c-26.008-1.518-48.345,16.922-49.803,41.192l-3.878,64.543
							c-1.458,24.27,18.527,44.952,44.552,46.191l99.268,4.726c4.991,56.81,18.311,111.407,38.826,162.585l-90.539,44.43
							c-23.087,11.329-32.371,37.814-20.691,59.087l30.959,56.387c11.603,21.132,39.562,28.907,62.403,17.433l91.641-46.035
							c32.868,43.975,71.81,83.218,115.635,116.567l-56.258,83.537c-13.715,20.365-7.881,46.677,12.994,58.703l55.202,31.8
							c20.64,11.89,48.26,5.072,61.727-15.163l55.86-83.935c48.938,20.639,101.179,35.01,155.717,42.165l-5.827,96.962
							c-1.388,23.093,16.707,41.819,40.342,41.825l62.453,0.019c23.335,0.007,43.305-18.504,44.677-41.346l5.763-95.909
							c53.704-5.892,105.215-18.758,153.578-37.56l42.229,81.848c10.09,19.555,34.561,26.36,54.62,15.259l53.06-29.364
							c19.845-10.982,27.884-35.592,17.993-55.026l-40.935-80.433c42.762-29.851,81.348-65.04,114.747-104.516l73.532,46.662
							c18.05,11.454,42.292,5.47,54.174-13.308l31.505-49.787c11.811-18.664,6.939-43.121-10.909-54.685l-71.052-46.033
							c22.727-45.533,39.657-94.44,49.805-145.834l82.175,3.912c21.182,1.009,39.365-15.845,40.674-37.641l3.483-57.964
							C1951.268,1497.928,1935.22,1479.26,1914.051,1478.025z M1238.022,1916.286c-237.135-5.438-424.105-200.968-409.948-436.554
							c14.156-235.585,223.347-409.85,459.608-389.876c228.233,19.295,396.858,213.85,383.561,435.136
							C1657.945,1746.28,1467.098,1921.539,1238.022,1916.286z"/>
						<polygon style="fill:#BFC8D6;" points="1036.358,850.461 979.525,845.075 956.818,894.954 						"/>
						<polygon style="fill:#BFC8D6;" points="1599.663,907.961 1665.295,912.562 1662.384,961.003 						"/>
						<polygon style="fill:#BFC8D6;" points="1835.894,1156.67 1901.197,1163.248 1882.628,1198.923 						"/>
						<polygon style="fill:#BFC8D6;" points="1919.668,1479.05 1985.469,1488.26 1961.939,1519.038 						"/>
						<polygon style="fill:#BFC8D6;" points="1782.433,1926.089 1846.035,1939.108 1857.037,1887.211 						"/>
						<polygon style="fill:#BFC8D6;" points="1522.753,2147.653 1579.73,2161.588 1586.869,2119.314 						"/>
						<polygon style="fill:#BFC8D6;" points="1228.587,2232.465 1177.423,2220.193 1225.91,2156.752 						"/>
						<polygon style="fill:#BFC8D6;" points="951.756,2159.987 892.279,2143.931 942.139,2090.427 						"/>
						<polygon style="fill:#BFC8D6;" points="678.146,1060.848 740.871,1066.589 713.242,1110.917 						"/>
						<polygon style="fill:#BFC8D6;" points="523.495,1546.259 580.59,1558.23 578.84,1510.823 						"/>
						<polygon style="fill:#BFC8D6;" points="626.487,1898.675 682.233,1911.222 689.058,1874.184 						"/>
					</g>
					<path style="fill:#D8DEE8;" d="M1978.343,1487.099l-80.633-4.706c-2.354-53.583-12.087-105.468-28.252-154.635l70.544-35.431
						c19.279-9.683,27.114-33.665,17.535-53.619l-25.551-53.228c-9.637-20.076-33.201-28.653-52.669-19.101l-69.616,34.157
						c-28.694-45.783-63.71-87.611-104.02-124.201l42.717-64.177c12.257-18.414,7.175-43.923-11.381-57.038l-49.613-35.066
						c-18.756-13.256-44.095-9.046-56.566,9.469l-42.764,63.492c-48.47-26.22-101.348-46.211-157.642-58.613l4.691-78.059
						c1.384-23.028-16.388-43.698-39.768-46.177l-62.573-6.633c-23.679-2.51-44.07,14.321-45.469,37.602l-4.742,78.916
						c-58.88,1.36-116.149,11.135-170.466,28.32l-37.597-73.861c-11.048-21.705-37.897-31.477-60.012-21.764l-59.148,25.976
						c-22.367,9.824-31.39,35.56-20.109,57.422l39.011,75.598c-49.515,30.721-94.392,68.363-133.096,111.777l-75.827-49.121
						c-21.498-13.927-50.449-9.116-64.626,10.818l-37.828,53.187c-14.272,20.067-8.168,47.587,13.593,61.395l78.523,49.822
						c-25.638,50.506-44.191,105.183-54.303,162.91l-97.439-5.687c-26.224-1.531-48.745,17.06-50.216,41.527l-3.91,65.069
						c-1.47,24.467,18.681,45.318,44.922,46.568l100.091,4.766c5.033,57.273,18.463,112.315,39.149,163.91l-91.29,44.791
						c-23.278,11.422-32.639,38.122-20.862,59.569l31.217,56.847c11.699,21.304,39.89,29.142,62.92,17.575l92.4-46.409
						c33.141,44.334,72.406,83.897,116.595,117.518l-56.724,84.218c-13.829,20.531-7.946,47.057,13.102,59.181l55.66,32.06
						c20.811,11.987,48.66,5.114,62.238-15.286l56.322-84.619c49.344,20.808,102.018,35.296,157.008,42.51l-5.874,97.752
						c-1.399,23.281,16.846,42.159,40.676,42.166l62.97,0.019c23.528,0.007,43.664-18.655,45.048-41.682l5.81-96.69
						c54.15-5.939,106.087-18.91,154.851-37.865l42.58,82.515c10.173,19.715,34.847,26.575,55.072,15.384l53.499-29.603
						c20.009-11.072,28.115-35.882,18.142-55.474l-41.275-81.088c43.116-30.094,82.022-65.569,115.697-105.367l74.141,47.042
						c18.2,11.548,42.642,5.515,54.623-13.416l31.766-50.192c11.908-18.816,6.996-43.472-11-55.131l-71.641-46.409
						c22.915-45.903,39.985-95.209,50.216-147.022l82.856,3.945c21.358,1.017,39.691-15.974,41.011-37.947l3.511-58.437
						C2015.868,1507.165,1999.687,1488.345,1978.343,1487.099z M1296.714,1928.925c-239.1-5.484-427.622-202.609-413.35-440.114
						c14.272-237.505,225.195-413.187,463.414-393.049c230.125,19.454,400.149,215.595,386.743,438.685
						C1720.116,1757.538,1527.689,1934.223,1296.714,1928.925z"/>
				</g>
			</g>
			<g>
				<g>
					<g>
						<path style="fill:#BFC8D6;" d="M2677.679,2076.771l-42.536-10.584c4.111-28.82,4.116-57.472,0.418-85.318l41.175-11.837
							c11.253-3.235,17.833-15.244,14.723-26.847l-8.297-30.953c-3.129-11.675-14.839-18.609-26.18-15.463l-40.552,11.25
							c-10.719-27.296-25.207-53.115-43.042-76.67l29.212-29.958c8.382-8.596,8.226-22.712-0.358-31.567l-22.95-23.674
							c-8.677-8.95-22.613-9.241-31.119-0.613l-29.168,29.588c-23.227-18.84-49.428-34.799-78.212-47.052l10.32-41.171
							c3.044-12.146-4.365-24.952-16.586-28.615l-32.711-9.804c-12.379-3.71-24.94,3.227-28.018,15.506l-10.433,41.623
							c-31.542-5.17-63.066-5.69-93.759-1.962l-12.656-43.166c-3.719-12.685-17.061-20.586-29.829-17.619l-34.15,7.935
							c-12.914,3.001-20.304,15.826-16.477,28.618l13.236,44.234c-29.487,11.43-57.193,27.017-82.185,46.3l-35.525-33.796
							c-10.072-9.582-25.995-9.914-35.553-0.701l-25.504,24.585c-9.622,9.276-9.123,24.567,1.102,34.112l36.892,34.44
							c-18.733,24.375-34.105,51.685-45.28,81.467l-51.402-12.79c-13.834-3.442-27.708,4.22-30.943,17.125l-8.602,34.32
							c-3.235,12.905,5.425,26.045,19.296,29.339l52.909,12.564c-3.052,31.056-1.401,61.763,4.465,91.357l-53.178,14.753
							c-13.56,3.762-21.227,17.068-17.093,29.688l10.957,33.45c4.106,12.536,18.358,19.54,31.8,15.676l53.932-15.505
							c13.236,26.968,30.217,52.005,50.419,74.364l-38.69,39.246c-9.432,9.568-8.951,24.307,1.062,32.882l26.477,22.676
							c9.9,8.478,25.442,7.6,34.727-1.923l38.516-39.5c24.235,16.041,50.879,29.044,79.487,38.398l-12.923,51.558
							c-3.078,12.279,4.763,24.177,17.473,26.566l33.585,6.315c12.549,2.36,25.157-5.579,28.202-17.725l12.783-50.997
							c29.477,2.254,58.478,0.535,86.386-4.694l14.447,48.281c3.452,11.535,15.925,17.666,27.833,13.721l31.5-10.435
							c11.781-3.903,18.589-16.326,15.232-27.776l-13.894-47.389c26.011-11.737,50.315-26.765,72.263-44.623l34.834,32.519
							c8.551,7.982,22.192,7.212,30.478-1.687l21.97-23.594c8.236-8.845,8.085-22.49-0.346-30.511l-33.564-31.93
							c16.82-22.193,30.863-46.786,41.509-73.4l43.799,10.401c11.29,2.681,22.77-4.547,25.675-16.136l7.725-30.821
							C2695.685,2091.233,2688.939,2079.573,2677.679,2076.771z M2269.865,2244.211
							c-126.981-26.867-207.791-150.899-176.392-276.167c31.399-125.267,161.495-197.865,286.539-163.27
							c120.794,33.42,191.837,155.076,162.344,272.74C2512.863,2195.18,2392.531,2270.165,2269.865,2244.211z"/>
						<polygon style="fill:#BFC8D6;" points="2269.022,1650.655 2239.001,1642.02 2221.753,1666.552 						"/>
						<polygon style="fill:#BFC8D6;" points="2566.159,1738.452 2600.991,1747.552 2594.535,1773.31 						"/>
						<polygon style="fill:#BFC8D6;" points="2668.092,1896.057 2702.547,1906.188 2688.959,1923.499 						"/>
						<polygon style="fill:#BFC8D6;" points="2680.596,2077.89 2715.054,2089.486 2699.292,2103.663 						"/>
						<polygon style="fill:#BFC8D6;" points="2561.657,2304.449 2594.547,2317.872 2605.704,2291.073 						"/>
						<polygon style="fill:#BFC8D6;" points="2399.633,2397.387 2428.867,2410.634 2436.975,2388.619 						"/>
						<polygon style="fill:#BFC8D6;" points="2232.868,2413.298 2206.592,2401.532 2239.073,2372.309 						"/>
						<polygon style="fill:#BFC8D6;" points="2091.308,2346.37 2060.943,2331.729 2093.159,2307.99 						"/>
						<polygon style="fill:#BFC8D6;" points="2055.136,1727.633 2088.289,1737.053 2068.955,1758.103 						"/>
						<polygon style="fill:#BFC8D6;" points="1922.956,1973.071 1952.453,1985.273 1956.298,1959.601 						"/>
						<polygon style="fill:#BFC8D6;" points="1942.763,2172.996 1971.476,2185.373 1978.886,2166.143 						"/>
					</g>
					<path style="fill:#D8DEE8;" d="M2711.339,2088.142l-42.889-10.672c4.144-29.054,4.148-57.941,0.418-86.014l41.515-11.932
						c11.346-3.261,17.981-15.367,14.844-27.066l-8.367-31.206c-3.156-11.77-14.963-18.761-26.397-15.59l-40.888,11.341
						c-10.809-27.519-25.417-53.55-43.401-77.297l29.452-30.201c8.451-8.666,8.293-22.897-0.362-31.824l-23.141-23.868
						c-8.749-9.023-22.801-9.317-31.377-0.619l-29.409,29.828c-23.42-18.995-49.839-35.085-78.862-47.438l10.404-41.506
						c3.069-12.245-4.402-25.155-16.725-28.849l-32.982-9.885c-12.481-3.741-25.147,3.252-28.25,15.632l-10.518,41.962
						c-31.803-5.213-63.588-5.739-94.535-1.981l-12.762-43.518c-3.75-12.788-17.203-20.754-30.077-17.764l-34.432,7.998
						c-13.021,3.025-20.472,15.954-16.612,28.851l13.347,44.595c-29.731,11.522-57.666,27.235-82.864,46.675l-35.82-34.073
						c-10.155-9.66-26.211-9.996-35.848-0.707l-25.714,24.785c-9.701,9.351-9.197,24.767,1.112,34.39l37.199,34.722
						c-18.887,24.573-34.385,52.105-45.652,82.13l-51.828-12.896c-13.949-3.471-27.937,4.253-31.198,17.263l-8.672,34.599
						c-3.261,13.01,5.471,26.258,19.457,29.579l53.347,12.669c-3.076,31.309-1.41,62.266,4.505,92.102l-53.617,14.871
						c-13.672,3.792-21.402,17.206-17.234,29.929l11.049,33.724c4.141,12.638,18.51,19.7,32.064,15.804l54.378-15.629
						c13.347,27.189,30.469,52.43,50.839,74.973l-39.009,39.565c-9.51,9.646-9.025,24.505,1.071,33.15l26.697,22.861
						c9.982,8.548,25.653,7.663,35.015-1.937l38.833-39.821c24.436,16.172,51.301,29.282,80.146,38.714l-13.028,51.978
						c-3.103,12.379,4.803,24.374,17.618,26.784l33.863,6.368c12.653,2.379,25.366-5.624,28.435-17.868l12.887-51.413
						c29.721,2.273,58.962,0.541,87.101-4.729l14.568,48.675c3.481,11.629,16.057,17.81,28.064,13.834l31.76-10.519
						c11.878-3.934,18.743-16.458,15.357-28.002l-14.01-47.776c26.226-11.832,50.731-26.981,72.86-44.984l35.123,32.785
						c8.622,8.048,22.376,7.271,30.73-1.7l22.151-23.786c8.304-8.917,8.152-22.673-0.35-30.76l-33.843-32.192
						c16.958-22.373,31.117-47.166,41.85-73.998l44.161,10.487c11.384,2.703,22.958-4.583,25.887-16.267l7.788-31.072
						C2729.494,2102.722,2722.692,2090.967,2711.339,2088.142z M2300.153,2256.934c-128.033-27.09-209.516-152.136-177.862-278.424
						c31.655-126.288,162.826-199.473,288.906-164.591c121.796,33.697,193.43,156.347,163.697,274.97
						C2545.161,2207.511,2423.836,2283.104,2300.153,2256.934z"/>
				</g>
			</g>
		</g>
		<g>
			<g>
				
					<linearGradient id="SVGID_00000008130696671164211330000008470997216048250241_" gradientUnits="userSpaceOnUse" x1="1653.473" y1="2850.6238" x2="1492.3945" y2="2918.2769">
					<stop  offset="0" style="stop-color:#40447E"/>
					<stop  offset="0.9964" style="stop-color:#3C3B6B"/>
				</linearGradient>
				<path style="fill:url(#SVGID_00000008130696671164211330000008470997216048250241_);" d="M2977.92,2762.482l-2293.002-19.971
					v59.089c0,16.038,10.001,29.675,23.546,32.105l648.392,116.357c7.695,1.381,15.498,1.747,23.263,1.092l1572.883-132.666
					c14.042-1.184,24.918-14.864,24.918-31.342V2762.482z"/>
				
					<linearGradient id="SVGID_00000020378062342666667650000002541723013679224234_" gradientUnits="userSpaceOnUse" x1="1438.384" y1="2140.697" x2="1263.5724" y2="2214.1179">
					<stop  offset="0" style="stop-color:#40447E"/>
					<stop  offset="0.9964" style="stop-color:#3C3B6B"/>
				</linearGradient>
				<path style="fill:url(#SVGID_00000020378062342666667650000002541723013679224234_);" d="M2239.773,2666.695L710.154,2774.792
					c-27.371,1.934-49.626-18.619-49.626-45.913V1635.383c0-27.294,22.255-49.42,49.626-49.42h1529.619
					c22.55,0,40.782,20.002,40.782,44.675v988.5C2280.555,2643.811,2262.323,2665.101,2239.773,2666.695z"/>
				
					<linearGradient id="SVGID_00000016798003790885354320000017241586873264219817_" gradientUnits="userSpaceOnUse" x1="684.9173" y1="2180.4402" x2="2304.9451" y2="2180.4402">
					<stop  offset="0" style="stop-color:#40447E"/>
					<stop  offset="0.9964" style="stop-color:#3C3B6B"/>
				</linearGradient>
				<path style="fill:url(#SVGID_00000016798003790885354320000017241586873264219817_);" d="M2264.163,2666.695L734.544,2774.792
					c-27.372,1.934-49.627-18.619-49.627-45.913V1635.383c0-27.294,22.255-49.42,49.627-49.42h1529.618
					c22.551,0,40.782,20.002,40.782,44.675v988.5C2304.945,2643.811,2286.713,2665.101,2264.163,2666.695z"/>
				
					<linearGradient id="SVGID_00000045592296849047052220000010830982597403280045_" gradientUnits="userSpaceOnUse" x1="2039.8367" y1="1373.7837" x2="723.2419" y2="3213.6384">
					<stop  offset="0" style="stop-color:#FFC444"/>
					<stop  offset="0.9964" style="stop-color:#F36F56"/>
				</linearGradient>
				<path style="fill:url(#SVGID_00000045592296849047052220000010830982597403280045_);" d="M2216.511,2597.004L791.831,2690.9
					c-22.274,1.468-40.375-15.402-40.375-37.684v-957.357c0-22.281,18.101-40.42,40.375-40.512l1424.68-5.896
					c18.602-0.077,33.649,16.313,33.649,36.608v871.981C2250.16,2578.334,2235.113,2595.778,2216.511,2597.004z"/>
				
					<linearGradient id="SVGID_00000146490379908412323500000006052025524027529356_" gradientUnits="userSpaceOnUse" x1="684.9173" y1="2779.5203" x2="2977.9197" y2="2779.5203">
					<stop  offset="0" style="stop-color:#40447E"/>
					<stop  offset="0.9964" style="stop-color:#3C3B6B"/>
				</linearGradient>
				<path style="fill:url(#SVGID_00000146490379908412323500000006052025524027529356_);" d="M2225.995,2661.792L684.917,2775.575
					l671.939,120.582c7.695,1.381,15.498,1.748,23.263,1.093l1597.801-134.768l-727.41-99.916
					C2242.375,2661.448,2234.17,2661.189,2225.995,2661.792z"/>
				<g>
					<ellipse style="fill:#FFFFFF;" cx="1619.577" cy="2158.677" rx="246.786" ry="249.944"/>
					
						<linearGradient id="SVGID_00000061441012921810773230000001607968211908041601_" gradientUnits="userSpaceOnUse" x1="1487.4928" y1="2152.7878" x2="1751.6621" y2="2152.7878">
						<stop  offset="0" style="stop-color:#FF9085"/>
						<stop  offset="1" style="stop-color:#FB6FBB"/>
					</linearGradient>
					<path style="fill:url(#SVGID_00000061441012921810773230000001607968211908041601_);" d="M1610.886,2293.355
						c-10.698,0-20.648-5.675-26.183-15.006l-92.843-156.519c-8.69-14.649-4.008-33.656,10.456-42.455
						c14.457-8.798,33.227-4.061,41.917,10.587l64.449,108.652l85.199-169.486c7.655-15.228,26.053-21.287,41.085-13.534
						c15.036,7.753,21.02,26.383,13.365,41.609l-110.216,219.249c-5.04,10.024-15.057,16.49-26.155,16.883
						C1611.602,2293.348,1611.244,2293.355,1610.886,2293.355z"/>
				</g>
				
					<linearGradient id="SVGID_00000141451276480791087400000014161106623639108755_" gradientUnits="userSpaceOnUse" x1="909.7847" y1="2760.7327" x2="2589.853" y2="2760.7327">
					<stop  offset="0" style="stop-color:#40447E"/>
					<stop  offset="0.9964" style="stop-color:#3C3B6B"/>
				</linearGradient>
				<polygon style="opacity:0.3;fill:url(#SVGID_00000141451276480791087400000014161106623639108755_);" points="909.785,2778.436 
					2192.778,2682.298 2589.853,2736.399 1317.912,2839.167 				"/>
				<path style="opacity:0.48;fill:#FFFFFF;" d="M1895.625,2366.787c-117.92-63.447-210.64,16.948-300.121-62.374
					c-54.25-48.09-27.615-83.951-94.368-155.815c-73.934-79.596-122.069-52.84-196.371-124.477
					c-93.95-90.58-46.961-161.054-127.888-226.088c-98.175-78.896-204.052-5.873-297.508-81.536
					c-40.308-32.634-62.424-80.078-73.974-130.534h-91.442c-16.024,0-29.036,12.987-29.036,29.008v1133.503
					c0,16.021,13.012,28.085,29.036,26.947l1558.932-110.656c7.65-0.543,14.434-5.01,18.788-11.485
					c-114.118-4.159-184.227-42.415-229.042-81.963C1974.96,2493.949,1990.167,2417.654,1895.625,2366.787z"/>
			</g>
			<g>
				<g>
					<g>
						
							<linearGradient id="SVGID_00000181768528437301452230000006650307016785678978_" gradientUnits="userSpaceOnUse" x1="2909.4192" y1="3016.6174" x2="2464.9644" y2="2637.4771">
							<stop  offset="0" style="stop-color:#444B8C"/>
							<stop  offset="0.9964" style="stop-color:#26264F"/>
						</linearGradient>
						<path style="fill:url(#SVGID_00000181768528437301452230000006650307016785678978_);" d="M2850.792,2244.834v853.729
							c0,12.767-13.969,16.512-29.817,18.05l-548.099,61.292l-8.377,0.813c-17.198,1.67-31.299-7.875-31.299-21.216v-892.114
							c0-13.341,14.101-24.702,31.299-25.245l11.368-0.359l550.035,1.803C2841.748,2241.083,2850.792,2232.067,2850.792,2244.834z"
							/>
						
							<linearGradient id="SVGID_00000111193389768379269880000014494020999591275955_" gradientUnits="userSpaceOnUse" x1="-1399.1332" y1="3931.2673" x2="179.4397" y2="3989.9888" gradientTransform="matrix(0 -1 1 0 -1389.0323 1734.3226)">
							<stop  offset="0" style="stop-color:#444B8C"/>
							<stop  offset="0.9964" style="stop-color:#26264F"/>
						</linearGradient>
						<path style="fill:url(#SVGID_00000111193389768379269880000014494020999591275955_);" d="M2867.698,2243.862v853.498
							c0,12.763-12.932,24.462-28.771,26.001l-557.203,54.122c-17.188,1.669-31.281-7.874-31.281-21.211v-891.869
							c0-13.337,14.094-24.695,31.281-25.238l557.203-17.6C2854.766,2221.064,2867.698,2231.098,2867.698,2243.862z"/>
						
							<linearGradient id="SVGID_00000034803486471743967150000010280741279711853487_" gradientUnits="userSpaceOnUse" x1="2701.6248" y1="2507.4128" x2="2136.9121" y2="3266.7078">
							<stop  offset="0" style="stop-color:#FFC444"/>
							<stop  offset="0.9964" style="stop-color:#F36F56"/>
						</linearGradient>
						<path style="fill:url(#SVGID_00000034803486471743967150000010280741279711853487_);" d="M2849.835,2291.823v790.891
							c0,11.92-12.092,22.831-26.9,24.25l-523.938,50.208c-15.991,1.532-29.101-7.375-29.101-19.798V2313.12
							c0-12.423,13.11-23.047,29.101-23.609l523.938-18.414C2837.743,2270.576,2849.835,2279.903,2849.835,2291.823z"/>
					</g>
				</g>
				<g>
					<path style="fill:#FFFFFF;" d="M2766.354,2639.108c0,106.846-86.096,199.217-192.628,206.338
						c-106.896,7.146-193.82-74.195-193.82-181.702c0-107.507,86.924-199.931,193.82-206.414
						C2680.259,2450.868,2766.354,2532.262,2766.354,2639.108z"/>
					
						<linearGradient id="SVGID_00000036954927665476398360000017408989556914042770_" gradientUnits="userSpaceOnUse" x1="2470.1392" y1="2644.582" x2="2676.9722" y2="2644.582">
						<stop  offset="0" style="stop-color:#FF9085"/>
						<stop  offset="1" style="stop-color:#FB6FBB"/>
					</linearGradient>
					<path style="fill:url(#SVGID_00000036954927665476398360000017408989556914042770_);" d="M2566.921,2756.398
						c-8.379,0.548-16.174-3.35-20.511-10.314l-72.84-116.965c-6.826-10.961-3.148-25.974,8.211-33.531
						c11.35-7.552,26.08-4.793,32.898,6.163l50.515,81.192l66.654-135.75c5.981-12.183,20.354-17.771,32.091-12.487
						c11.736,5.282,16.406,19.432,10.432,31.607l-86.135,175.57c-3.944,8.039-11.785,13.571-20.475,14.444
						C2567.481,2756.356,2567.201,2756.38,2566.921,2756.398z"/>
				</g>
				<g style="opacity:0.48;">
					<path style="fill:#FFFFFF;" d="M2687.575,2735c-50.695-101.729-169.169-77.448-213.675-188.391
						c-26.55-66.185,6.5-97.572-13.403-178.313c-13.469-54.642-42.879-98.185-76.198-132.371l-102.574,3.24
						c-17.187,0.543-31.281,11.901-31.281,25.238v891.869c0,13.338,14.094,22.881,31.281,21.211l448.406-43.554
						c-33.203-46.141-47.415-89.536-52.538-127.186C2661.701,2889.961,2732.602,2825.357,2687.575,2735z"/>
				</g>
			</g>
			<g>
				<g>
					<g>
						
							<linearGradient id="SVGID_00000099642281317709053830000013629735077338359954_" gradientUnits="userSpaceOnUse" x1="3217.0251" y1="3110.2141" x2="2940.2144" y2="2874.0818">
							<stop  offset="0" style="stop-color:#444B8C"/>
							<stop  offset="0.9964" style="stop-color:#26264F"/>
						</linearGradient>
						<path style="fill:url(#SVGID_00000099642281317709053830000013629735077338359954_);" d="M3154.287,2601.852v589.181
							c0,8.811-7.529,11.25-16.069,12.145l-294.134,36.418l-4.478,0.47c-9.189,0.964-16.723-5.744-16.723-14.91V2612.27
							c0-9.165,7.533-16.886,16.723-17.157l6.076-0.179l295.191,4.529C3149.413,2599.208,3154.287,2593.041,3154.287,2601.852z"/>
						
							<linearGradient id="SVGID_00000054261542982419144260000010228356456232508576_" gradientUnits="userSpaceOnUse" x1="-1473.5552" y1="4375.3662" x2="-399.1854" y2="4415.332" gradientTransform="matrix(0 -1 1 0 -1389.0323 1734.3226)">
							<stop  offset="0" style="stop-color:#444B8C"/>
							<stop  offset="0.9964" style="stop-color:#26264F"/>
						</linearGradient>
						<path style="fill:url(#SVGID_00000054261542982419144260000010228356456232508576_);" d="M3163.401,2601.283v589.094
							c0,8.81-6.972,16.749-15.509,17.644l-299.079,31.377c-9.187,0.964-16.718-5.744-16.718-14.908v-612.795
							c0-9.164,7.531-16.884,16.718-17.155l299.079-8.819C3156.429,2585.471,3163.401,2592.473,3163.401,2601.283z"/>
						
							<linearGradient id="SVGID_00000008132028638636685070000010643985609818488980_" gradientUnits="userSpaceOnUse" x1="3088.4639" y1="2791.3179" x2="2729.2922" y2="3274.2485">
							<stop  offset="0" style="stop-color:#FFC444"/>
							<stop  offset="0.9964" style="stop-color:#F36F56"/>
						</linearGradient>
						<path style="fill:url(#SVGID_00000008132028638636685070000010643985609818488980_);" d="M3153.771,2634.274v545.811
							c0,8.226-6.517,15.631-14.497,16.456l-281.226,29.083c-8.549,0.884-15.557-5.376-15.557-13.912v-566.419
							c0-8.537,7.008-15.757,15.557-16.044l281.226-9.444C3147.254,2619.537,3153.771,2626.048,3153.771,2634.274z"/>
					</g>
				</g>
				<g>
					<path style="fill:#FFFFFF;" d="M3120.594,2876.832c0,63.62-51,118.698-114.026,123.028
						c-63.154,4.339-114.445-43.901-114.445-107.755s51.291-118.951,114.445-123.056
						C3069.594,2764.952,3120.594,2813.212,3120.594,2876.832z"/>
					
						<linearGradient id="SVGID_00000052814413399470448170000007277766856350070963_" gradientUnits="userSpaceOnUse" x1="2945.3669" y1="2880.3284" x2="3067.6484" y2="2880.3284">
						<stop  offset="0" style="stop-color:#FF9085"/>
						<stop  offset="1" style="stop-color:#FB6FBB"/>
					</linearGradient>
					<path style="fill:url(#SVGID_00000052814413399470448170000007277766856350070963_);" d="M3002.544,2946.912
						c-4.953,0.336-9.56-1.972-12.124-6.108l-43.028-69.423c-4.031-6.502-1.859-15.431,4.849-19.942
						c6.703-4.51,15.403-2.897,19.431,3.604l29.852,48.191l39.419-80.859c3.539-7.26,12.044-10.615,18.991-7.495
						c6.947,3.119,9.712,11.53,6.175,18.787l-50.962,104.587c-2.333,4.786-6.969,8.085-12.106,8.615
						C3002.876,2946.886,3002.71,2946.901,3002.544,2946.912z"/>
				</g>
				<g style="opacity:0.48;">
					<path style="fill:#FFFFFF;" d="M3066.172,2954.107c-27.293-68.613-100.856-52.405-123.774-121.751
						c-18.706-56.602,22.903-89.771,6.614-155.307c-9.139-36.772-31.628-64.094-54.618-83.851l-45.581,1.344
						c-9.187,0.271-16.718,7.991-16.718,17.155v612.795c0,9.164,7.531,15.871,16.718,14.907l229.291-24.055
						c-18.402-29.01-25.795-55.518-28.407-77.531C3040.191,3057.699,3091.176,3016.967,3066.172,2954.107z"/>
				</g>
			</g>
		</g>
		<g>
			
				<linearGradient id="SVGID_00000162343993763845895780000002150057674002084744_" gradientUnits="userSpaceOnUse" x1="1393.7117" y1="979.5408" x2="3148.5881" y2="979.5408">
				<stop  offset="0" style="stop-color:#444B8C"/>
				<stop  offset="0.9964" style="stop-color:#26264F"/>
			</linearGradient>
			<path style="fill:url(#SVGID_00000162343993763845895780000002150057674002084744_);" d="M2967.761,831.842
				c-92.934-42.616-196.556-31.222-281.521,20.909c-24.06-153.773-114.527-288.255-254.165-352.096
				c-227.44-103.982-498.648,19.083-606.932,273.356c-27.841,65.377-42.239,133.144-44.507,199.539
				c-11.403-8.32-23.654-15.632-36.722-21.772c-121.699-57.175-267.362,8.36-325.685,145.927
				c-58.213,137.302-9.714,300.251,113.141,353.214c65.825,28.376,171.694,37.21,171.694,37.21s1052.848,3.34,1085.794,6.188
				c131.928,11.404,266.223-69.302,327.714-210.185C3193.633,1107.581,3126.754,904.753,2967.761,831.842z"/>
			
				<linearGradient id="SVGID_00000054977151197446601450000003494771742660815500_" gradientUnits="userSpaceOnUse" x1="1435.2441" y1="992.5906" x2="3191.2449" y2="992.5906">
				<stop  offset="0.0036" style="stop-color:#E38DDD"/>
				<stop  offset="1" style="stop-color:#9571F6"/>
			</linearGradient>
			<path style="fill:url(#SVGID_00000054977151197446601450000003494771742660815500_);" d="M3010.263,844.805
				c-93.013-42.63-196.723-31.224-281.76,20.934c-24.082-153.837-114.626-288.371-254.38-352.229
				c-227.632-104.013-499.067,19.121-607.44,273.505c-27.863,65.406-42.274,133.202-44.543,199.625
				c-11.412-8.323-23.674-15.637-36.751-21.779c-121.8-57.192-267.582,8.378-325.954,146.005
				c-58.26,137.362-7.714,295.363,113.235,353.354c25.657,12.302,171.833,37.216,171.833,37.216s1053.732,3.288,1086.706,6.136
				c132.04,11.402,266.45-69.345,327.994-210.291C3236.329,1120.649,3169.392,917.737,3010.263,844.805z"/>
			<g style="opacity:0.3;">
				<path style="fill:#FFFFFF;" d="M2334.064,1228.303c-129.652-157.447-11.964-343.436-142.299-455.337
					c-88.49-75.973-198.404-37.565-285.782-61.612c-14.722,23.698-27.915,48.94-39.298,75.66
					c-27.864,65.406-42.274,133.201-44.544,199.625c-11.411-8.323-23.673-15.637-36.751-21.779
					c-121.801-57.193-267.583,8.378-325.955,146.005c-58.26,137.363-7.712,295.363,113.236,353.355
					c25.657,12.302,171.835,37.217,171.835,37.217s1053.729,3.288,1086.703,6.135c21.532,1.859,43.125,1.253,64.457-1.651
					c-40.966-41.19-81.581-71.063-119.097-93.332C2587.158,1300.156,2443.965,1361.765,2334.064,1228.303z"/>
			</g>
		</g>
		
			<linearGradient id="SVGID_00000085222621323952540840000015176504769461939131_" gradientUnits="userSpaceOnUse" x1="2604.863" y1="1818.943" x2="2615.2617" y2="5665.2563">
			<stop  offset="0" style="stop-color:#AA80F9"/>
			<stop  offset="0.9964" style="stop-color:#6165D7"/>
		</linearGradient>
		<path style="fill:url(#SVGID_00000085222621323952540840000015176504769461939131_);" d="M2604.97,2191.259
			c-7.654,0-13.859-6.206-13.859-13.859v-41.578c0-7.654,6.206-13.859,13.859-13.859c7.654,0,13.859,6.206,13.859,13.859v41.578
			C2618.83,2185.053,2612.624,2191.259,2604.97,2191.259z M2604.97,2087.314c-7.654,0-13.859-6.206-13.859-13.859v-41.578
			c0-7.654,6.206-13.859,13.859-13.859c7.654,0,13.859,6.205,13.859,13.859v41.578
			C2618.83,2081.109,2612.624,2087.314,2604.97,2087.314z M2604.97,1983.37c-7.654,0-13.859-6.205-13.859-13.859v-41.578
			c0-7.654,6.206-13.859,13.859-13.859c7.654,0,13.859,6.206,13.859,13.859v41.578
			C2618.83,1977.165,2612.624,1983.37,2604.97,1983.37z M2604.97,1879.427c-7.654,0-13.859-6.206-13.859-13.859v-41.578
			c0-7.654,6.206-13.859,13.859-13.859c7.654,0,13.859,6.206,13.859,13.859v41.578
			C2618.83,1873.221,2612.624,1879.427,2604.97,1879.427z M2604.97,1775.482c-7.654,0-13.859-6.206-13.859-13.859v-41.578
			c0-7.654,6.206-13.859,13.859-13.859c7.654,0,13.859,6.205,13.859,13.859v41.578
			C2618.83,1769.277,2612.624,1775.482,2604.97,1775.482z M2604.97,1671.538c-7.654,0-13.859-6.206-13.859-13.859v-41.578
			c0-7.654,6.206-13.859,13.859-13.859c7.654,0,13.859,6.205,13.859,13.859v41.578
			C2618.83,1665.333,2612.624,1671.538,2604.97,1671.538z M2604.97,1567.594c-7.654,0-13.859-6.205-13.859-13.859v-13.859
			c0-7.654,6.206-13.859,13.859-13.859c7.654,0,13.859,6.205,13.859,13.859v13.859
			C2618.83,1561.389,2612.624,1567.594,2604.97,1567.594z"/>
		<g>
			<g>
				
					<linearGradient id="SVGID_00000037682131084593892590000011199858644411641273_" gradientUnits="userSpaceOnUse" x1="964.8646" y1="1595.2211" x2="975.2632" y2="5441.5361">
					<stop  offset="0" style="stop-color:#AA80F9"/>
					<stop  offset="0.9964" style="stop-color:#6165D7"/>
				</linearGradient>
				<path style="fill:url(#SVGID_00000037682131084593892590000011199858644411641273_);" d="M964.459,1469.403
					c-7.654,0-13.859-6.206-13.859-13.859v-20.789c0-7.654,6.206-13.859,13.859-13.859c7.654,0,13.859,6.205,13.859,13.859v20.789
					C978.318,1463.197,972.113,1469.403,964.459,1469.403z"/>
			</g>
			<g>
				
					<linearGradient id="SVGID_00000013167779589301034580000004818378111835475844_" gradientUnits="userSpaceOnUse" x1="965.6796" y1="1595.2184" x2="976.0781" y2="5441.5317">
					<stop  offset="0" style="stop-color:#AA80F9"/>
					<stop  offset="0.9964" style="stop-color:#6165D7"/>
				</linearGradient>
				<path style="fill:url(#SVGID_00000013167779589301034580000004818378111835475844_);" d="M964.459,1386.248
					c-7.654,0-13.859-6.205-13.859-13.859v-41.578c0-7.654,6.206-13.859,13.859-13.859c7.654,0,13.859,6.206,13.859,13.859v41.578
					C978.318,1380.042,972.113,1386.248,964.459,1386.248z M964.459,1282.304c-7.654,0-13.859-6.206-13.859-13.859v-41.578
					c0-7.654,6.206-13.859,13.859-13.859c7.654,0,13.859,6.206,13.859,13.859v41.578
					C978.318,1276.098,972.113,1282.304,964.459,1282.304z M964.459,1178.36c-7.654,0-13.859-6.206-13.859-13.859v-41.578
					c0-7.654,6.206-13.859,13.859-13.859c7.654,0,13.859,6.205,13.859,13.859v41.578
					C978.318,1172.154,972.113,1178.36,964.459,1178.36z M964.459,1074.416c-7.654,0-13.859-6.206-13.859-13.859v-41.578
					c0-7.654,6.206-13.859,13.859-13.859c7.654,0,13.859,6.205,13.859,13.859v41.578
					C978.318,1068.21,972.113,1074.416,964.459,1074.416z M964.459,970.472c-7.654,0-13.859-6.206-13.859-13.859v-41.578
					c0-7.654,6.206-13.859,13.859-13.859c7.654,0,13.859,6.206,13.859,13.859v41.578
					C978.318,964.266,972.113,970.472,964.459,970.472z"/>
			</g>
			<g>
				
					<linearGradient id="SVGID_00000152240973941955281610000012120458472031481249_" gradientUnits="userSpaceOnUse" x1="976.9169" y1="1595.1859" x2="987.3155" y2="5441.501">
					<stop  offset="0" style="stop-color:#AA80F9"/>
					<stop  offset="0.9964" style="stop-color:#6165D7"/>
				</linearGradient>
				<path style="fill:url(#SVGID_00000152240973941955281610000012120458472031481249_);" d="M964.459,856.133
					c-7.654,0-13.859-6.206-13.859-13.859v-20.789c0-7.654,6.206-13.859,13.859-13.859h20.789c7.654,0,13.859,6.206,13.859,13.859
					c0,7.654-6.205,13.859-13.859,13.859h-6.93v6.93C978.318,849.928,972.113,856.133,964.459,856.133z"/>
			</g>
			<g>
				
					<linearGradient id="SVGID_00000076569860559020100450000006819296819381742779_" gradientUnits="userSpaceOnUse" x1="1318.2255" y1="1594.2769" x2="1328.6241" y2="5440.6489">
					<stop  offset="0" style="stop-color:#AA80F9"/>
					<stop  offset="0.9964" style="stop-color:#6165D7"/>
				</linearGradient>
				<path style="fill:url(#SVGID_00000076569860559020100450000006819296819381742779_);" d="M1588.123,835.344h-41.578
					c-7.654,0-13.859-6.206-13.859-13.859c0-7.654,6.206-13.859,13.859-13.859h41.578c7.654,0,13.859,6.206,13.859,13.859
					C1601.982,829.139,1595.777,835.344,1588.123,835.344z M1487.644,835.344h-41.578c-7.654,0-13.859-6.206-13.859-13.859
					c0-7.654,6.206-13.859,13.859-13.859h41.578c7.654,0,13.859,6.206,13.859,13.859
					C1501.503,829.139,1495.297,835.344,1487.644,835.344z M1387.165,835.344h-41.578c-7.654,0-13.859-6.206-13.859-13.859
					c0-7.654,6.206-13.859,13.859-13.859h41.578c7.654,0,13.859,6.206,13.859,13.859
					C1401.024,829.139,1394.818,835.344,1387.165,835.344z M1286.685,835.344h-41.578c-7.654,0-13.859-6.206-13.859-13.859
					c0-7.654,6.205-13.859,13.859-13.859h41.578c7.654,0,13.859,6.206,13.859,13.859
					C1300.545,829.139,1294.339,835.344,1286.685,835.344z M1186.206,835.344h-41.578c-7.654,0-13.859-6.206-13.859-13.859
					c0-7.654,6.206-13.859,13.859-13.859h41.578c7.654,0,13.859,6.206,13.859,13.859
					C1200.065,829.139,1193.86,835.344,1186.206,835.344z M1085.727,835.344h-41.578c-7.654,0-13.859-6.206-13.859-13.859
					c0-7.654,6.206-13.859,13.859-13.859h41.578c7.654,0,13.859,6.206,13.859,13.859
					C1099.586,829.139,1093.381,835.344,1085.727,835.344z"/>
			</g>
			<g>
				
					<linearGradient id="SVGID_00000106149594792943189260000001954622739165606808_" gradientUnits="userSpaceOnUse" x1="1659.5057" y1="1593.3442" x2="1669.9043" y2="5439.6602">
					<stop  offset="0" style="stop-color:#AA80F9"/>
					<stop  offset="0.9964" style="stop-color:#6165D7"/>
				</linearGradient>
				<path style="fill:url(#SVGID_00000106149594792943189260000001954622739165606808_);" d="M1667.813,835.344h-20.789
					c-7.654,0-13.859-6.206-13.859-13.859c0-7.654,6.205-13.859,13.859-13.859h20.789c7.654,0,13.859,6.206,13.859,13.859
					C1681.673,829.139,1675.467,835.344,1667.813,835.344z"/>
			</g>
		</g>
		<g>
			<g>
				
					<linearGradient id="SVGID_00000055689288315174013350000000383745588500145816_" gradientUnits="userSpaceOnUse" x1="1262.0604" y1="2775.3577" x2="1485.9652" y2="2775.3577">
					<stop  offset="0" style="stop-color:#AA80F9"/>
					<stop  offset="0.9964" style="stop-color:#6165D7"/>
				</linearGradient>
				<path style="fill:url(#SVGID_00000055689288315174013350000000383745588500145816_);" d="M1477.885,2607.808
					c-26.918,89.954-152.616,557.002-159.118,517.991c0,0-41.304,3.739-52.779-85.029c-1.155-8.973-2.016-18.888-2.487-29.844
					c-5.185-119.407,2.081-572.558,47.643-506.255c45.546,66.303,40.962,109.509,48.667,36.199
					c7.721-73.325,17.815-144.732,58.631-108.566c2.325,2.064,4.665,4.177,7.022,6.323
					C1464.197,2474.242,1503.258,2523.006,1477.885,2607.808z"/>
				
					<linearGradient id="SVGID_00000042734512472968640870000014719718255679280558_" gradientUnits="userSpaceOnUse" x1="1265.9875" y1="2783.3674" x2="1485.9652" y2="2783.3674">
					<stop  offset="0" style="stop-color:#AA80F9"/>
					<stop  offset="0.9964" style="stop-color:#6165D7"/>
				</linearGradient>
				<path style="opacity:0.3;fill:url(#SVGID_00000042734512472968640870000014719718255679280558_);" d="M1477.885,2607.808
					c-26.918,89.954-152.616,557.002-159.118,517.991c0,0-41.304,3.739-52.779-85.029c5.006-59.866,52.259-118.172,70.659-144.164
					c27.633-39.011,40.637-45.513,22.757-121.244c-17.88-75.731-4.876-111.199,45.513-220.106
					c22.741-49.155,24.951-88.377,20.546-116.628C1464.197,2474.242,1503.258,2523.006,1477.885,2607.808z"/>
			</g>
			<g>
				
					<linearGradient id="SVGID_00000029748191664939564980000015157013347209485952_" gradientUnits="userSpaceOnUse" x1="1946.656" y1="2560.4822" x2="2321.0994" y2="2560.4822" gradientTransform="matrix(0.9938 0.1116 -0.1116 0.9938 -294.7406 10.2369)">
					<stop  offset="0.0036" style="stop-color:#E38DDD"/>
					<stop  offset="1" style="stop-color:#9571F6"/>
				</linearGradient>
				<path style="fill:url(#SVGID_00000029748191664939564980000015157013347209485952_);" d="M1688.967,2863.256
					c-77.076,81.769-289.28,240.36-353.853,255.193c-14.49,3.33-21.558-0.588-17.983-14.221c0,0,62.481-637.038,241.449-655.469
					c23.961-2.463,57.552-0.949,78.923,11.362c3.686,2.131,7.024,4.452,10.062,6.969c47.951,39.846,17.851,126.578-3.276,173.146
					c-7.851,17.34-20.341,31.559-29.373,48.194c-7.672,14.138-10.257,32.936,10.068,31.259
					c18.657-1.553,30.816-23.464,47.598-29.579c19.046-6.907,34.031,2.397,46.358,25.764
					C1744.919,2765.082,1726.009,2823.97,1688.967,2863.256z"/>
				
					<linearGradient id="SVGID_00000113331870398818102440000002837378535239077777_" gradientUnits="userSpaceOnUse" x1="1966.4425" y1="2565.7158" x2="2321.0994" y2="2565.7158" gradientTransform="matrix(0.9938 0.1116 -0.1116 0.9938 -294.7406 10.2369)">
					<stop  offset="0.0036" style="stop-color:#E38DDD"/>
					<stop  offset="1" style="stop-color:#9571F6"/>
				</linearGradient>
				<path style="opacity:0.3;fill:url(#SVGID_00000113331870398818102440000002837378535239077777_);" d="M1688.967,2863.256
					c-77.076,81.769-289.28,240.36-353.853,255.193c8.34-19.804,18.093-41.838,29.511-66.188
					c67.746-144.514,196.956-115.289,147.531-221.415c-49.423-106.143-42.574-210.875,53.06-261.102
					c56.579-29.732,75.949-72.604,82.348-102.654c47.951,39.846,17.851,126.578-3.276,173.146
					c-7.851,17.34-20.341,31.559-29.373,48.194c-7.672,14.138-10.257,32.936,10.068,31.259
					c18.657-1.553,30.816-23.464,47.598-29.579c19.046-6.907,34.031,2.397,46.358,25.764
					C1744.919,2765.082,1726.009,2823.97,1688.967,2863.256z"/>
			</g>
		</g>
		<g>
			<g>
				
					<linearGradient id="SVGID_00000140003058698845592440000015580671733477096334_" gradientUnits="userSpaceOnUse" x1="774.0387" y1="2930.8508" x2="1089.2129" y2="3178.0466">
					<stop  offset="0" style="stop-color:#FF9085"/>
					<stop  offset="1" style="stop-color:#FB6FBB"/>
				</linearGradient>
				<path style="fill:url(#SVGID_00000140003058698845592440000015580671733477096334_);" d="M628.877,3076.393v54.892l0.08,0.003
					c3.365,33.131,141.937,93.978,343.203,95.103c295.931,1.654,395.871-64.43,400.521-98.267h0.111v-50.58L628.877,3076.393z"/>
				
					<linearGradient id="SVGID_00000055682609142758716970000002260747289376378773_" gradientUnits="userSpaceOnUse" x1="1619.808" y1="3184.0586" x2="700.1196" y2="3032.29" gradientTransform="matrix(1 0.0219 0 1 0 -26.6952)">
					<stop  offset="0" style="stop-color:#311944"/>
					<stop  offset="1" style="stop-color:#893976"/>
				</linearGradient>
				<path style="fill:url(#SVGID_00000055682609142758716970000002260747289376378773_);" d="M1372.792,3077.748
					c0,34.122-170.749,61.066-377.973,60.195c-203.554-0.855-365.942-28.317-365.942-61.353s162.387-59.993,365.942-60.214
					C1202.042,3016.151,1372.792,3043.627,1372.792,3077.748z"/>
				
					<linearGradient id="SVGID_00000036232494389770632560000017549555433677928382_" gradientUnits="userSpaceOnUse" x1="1001.6719" y1="3129.8113" x2="999.1082" y2="2999.0627" gradientTransform="matrix(1 0.0219 0 1 0 -26.6952)">
					<stop  offset="0" style="stop-color:#FF9085"/>
					<stop  offset="1" style="stop-color:#FB6FBB"/>
				</linearGradient>
				<path style="fill:url(#SVGID_00000036232494389770632560000017549555433677928382_);" d="M1369.91,3073.596
					c0,33.866-169.446,60.664-375.137,59.868c-202.105-0.782-363.374-27.998-363.374-60.802c0-32.803,161.269-59.612,363.374-59.883
					C1200.464,3012.504,1369.91,3039.73,1369.91,3073.596z"/>
				
					<linearGradient id="SVGID_00000140729430891842838200000010955612534245733818_" gradientUnits="userSpaceOnUse" x1="776.0248" y1="2928.0938" x2="1089.4065" y2="3173.8835">
					<stop  offset="0" style="stop-color:#FF9085"/>
					<stop  offset="1" style="stop-color:#FB6FBB"/>
				</linearGradient>
				<polygon style="fill:url(#SVGID_00000140729430891842838200000010955612534245733818_);" points="1372.792,3128.125 
					1372.792,3077.545 628.877,3076.393 628.877,3131.285 				"/>
				
					<linearGradient id="SVGID_00000038404404056399304100000003380819723663659450_" gradientUnits="userSpaceOnUse" x1="1619.808" y1="3184.0586" x2="700.1196" y2="3032.29" gradientTransform="matrix(1 0.0219 0 1 0 -26.6952)">
					<stop  offset="0" style="stop-color:#311944"/>
					<stop  offset="1" style="stop-color:#893976"/>
				</linearGradient>
				<path style="fill:url(#SVGID_00000038404404056399304100000003380819723663659450_);" d="M1372.792,3077.748
					c0,34.122-170.749,61.066-377.973,60.195c-203.554-0.855-365.942-28.317-365.942-61.353s162.387-59.993,365.942-60.214
					C1202.042,3016.151,1372.792,3043.627,1372.792,3077.748z"/>
				
					<linearGradient id="SVGID_00000019656259839248499190000011383757859133295268_" gradientUnits="userSpaceOnUse" x1="1001.6719" y1="3129.8113" x2="999.1082" y2="2999.0627" gradientTransform="matrix(1 0.0219 0 1 0 -26.6952)">
					<stop  offset="0" style="stop-color:#FF9085"/>
					<stop  offset="1" style="stop-color:#FB6FBB"/>
				</linearGradient>
				<path style="fill:url(#SVGID_00000019656259839248499190000011383757859133295268_);" d="M1369.91,3073.596
					c0,33.866-169.446,60.664-375.137,59.868c-202.105-0.782-363.374-27.998-363.374-60.802c0-32.803,161.269-59.612,363.374-59.883
					C1200.464,3012.504,1369.91,3039.73,1369.91,3073.596z"/>
			</g>
			<g>
				
					<linearGradient id="SVGID_00000124875544670455816620000000166442784830357675_" gradientUnits="userSpaceOnUse" x1="774.1259" y1="2826.7463" x2="1089.6425" y2="3074.2107">
					<stop  offset="0" style="stop-color:#FF9085"/>
					<stop  offset="1" style="stop-color:#FB6FBB"/>
				</linearGradient>
				<path style="fill:url(#SVGID_00000124875544670455816620000000166442784830357675_);" d="M628.877,2972.357v54.893l0.08,0.003
					c3.365,33.131,141.936,91.094,343.203,90.059c318.938-1.64,395.871-59.386,400.521-93.224h0.111v-50.58L628.877,2972.357z"/>
				
					<linearGradient id="SVGID_00000125591248715224407360000014953429835619029168_" gradientUnits="userSpaceOnUse" x1="1619.808" y1="3080.0222" x2="700.1196" y2="2928.2537" gradientTransform="matrix(1 0.0219 0 1 0 -26.6952)">
					<stop  offset="0" style="stop-color:#311944"/>
					<stop  offset="1" style="stop-color:#893976"/>
				</linearGradient>
				<path style="fill:url(#SVGID_00000125591248715224407360000014953429835619029168_);" d="M1372.792,2973.712
					c0,34.122-170.749,61.066-377.973,60.195c-203.554-0.855-365.942-28.318-365.942-61.353c0-33.035,162.387-59.992,365.942-60.214
					C1202.042,2912.115,1372.792,2939.591,1372.792,2973.712z"/>
				
					<linearGradient id="SVGID_00000117642369179876580190000013055565660281504681_" gradientUnits="userSpaceOnUse" x1="1001.6719" y1="3025.7747" x2="999.1082" y2="2895.0264" gradientTransform="matrix(1 0.0219 0 1 0 -26.6952)">
					<stop  offset="0" style="stop-color:#FF9085"/>
					<stop  offset="1" style="stop-color:#FB6FBB"/>
				</linearGradient>
				<path style="fill:url(#SVGID_00000117642369179876580190000013055565660281504681_);" d="M1369.91,2969.56
					c0,33.865-169.446,60.664-375.137,59.868c-202.105-0.782-363.374-27.998-363.374-60.802s161.269-59.612,363.374-59.883
					C1200.464,2908.467,1369.91,2935.694,1369.91,2969.56z"/>
				
					<linearGradient id="SVGID_00000115488731557702241760000004899225505179503001_" gradientUnits="userSpaceOnUse" x1="776.0248" y1="2824.0576" x2="1089.4064" y2="3069.8472">
					<stop  offset="0" style="stop-color:#FF9085"/>
					<stop  offset="1" style="stop-color:#FB6FBB"/>
				</linearGradient>
				<polygon style="fill:url(#SVGID_00000115488731557702241760000004899225505179503001_);" points="1372.792,3024.088 
					1372.792,2973.508 628.877,2972.357 628.877,3027.25 				"/>
				
					<linearGradient id="SVGID_00000183218638884366839590000003109783235729397134_" gradientUnits="userSpaceOnUse" x1="1619.808" y1="3080.0222" x2="700.1196" y2="2928.2537" gradientTransform="matrix(1 0.0219 0 1 0 -26.6952)">
					<stop  offset="0" style="stop-color:#311944"/>
					<stop  offset="1" style="stop-color:#893976"/>
				</linearGradient>
				<path style="fill:url(#SVGID_00000183218638884366839590000003109783235729397134_);" d="M1372.792,2973.712
					c0,34.122-170.749,61.066-377.973,60.195c-203.554-0.855-365.942-28.318-365.942-61.353c0-33.035,162.387-59.992,365.942-60.214
					C1202.042,2912.115,1372.792,2939.591,1372.792,2973.712z"/>
				
					<linearGradient id="SVGID_00000093898766274329989060000017459704664234606483_" gradientUnits="userSpaceOnUse" x1="1001.6719" y1="3025.7747" x2="999.1082" y2="2895.0264" gradientTransform="matrix(1 0.0219 0 1 0 -26.6952)">
					<stop  offset="0" style="stop-color:#FF9085"/>
					<stop  offset="1" style="stop-color:#FB6FBB"/>
				</linearGradient>
				<path style="fill:url(#SVGID_00000093898766274329989060000017459704664234606483_);" d="M1369.91,2969.56
					c0,33.865-169.446,60.664-375.137,59.868c-202.105-0.782-363.374-27.998-363.374-60.802s161.269-59.612,363.374-59.883
					C1200.464,2908.467,1369.91,2935.694,1369.91,2969.56z"/>
			</g>
			<g>
				
					<linearGradient id="SVGID_00000120544746814703292420000010407486967306758826_" gradientUnits="userSpaceOnUse" x1="774.1262" y1="2722.4543" x2="1089.6427" y2="2969.9185">
					<stop  offset="0" style="stop-color:#FF9085"/>
					<stop  offset="1" style="stop-color:#FB6FBB"/>
				</linearGradient>
				<path style="fill:url(#SVGID_00000120544746814703292420000010407486967306758826_);" d="M628.877,2868.065v54.892l0.08,0.004
					c3.365,33.13,141.936,91.094,343.203,90.059c318.938-1.64,395.871-59.387,400.521-93.223h0.111v-50.58L628.877,2868.065z"/>
				
					<linearGradient id="SVGID_00000110470472171602078360000005316558880077410998_" gradientUnits="userSpaceOnUse" x1="1619.808" y1="2975.73" x2="700.1196" y2="2823.9614" gradientTransform="matrix(1 0.0219 0 1 0 -26.6952)">
					<stop  offset="0" style="stop-color:#311944"/>
					<stop  offset="1" style="stop-color:#893976"/>
				</linearGradient>
				<path style="fill:url(#SVGID_00000110470472171602078360000005316558880077410998_);" d="M1372.792,2869.42
					c0,34.122-170.749,61.065-377.973,60.195c-203.554-0.855-365.942-28.317-365.942-61.353c0-33.035,162.387-59.992,365.942-60.214
					C1202.042,2807.823,1372.792,2835.298,1372.792,2869.42z"/>
				
					<linearGradient id="SVGID_00000050644740746231386970000011182567210549411995_" gradientUnits="userSpaceOnUse" x1="1001.6719" y1="2921.4827" x2="999.1082" y2="2790.7344" gradientTransform="matrix(1 0.0219 0 1 0 -26.6952)">
					<stop  offset="0" style="stop-color:#FF9085"/>
					<stop  offset="1" style="stop-color:#FB6FBB"/>
				</linearGradient>
				<path style="fill:url(#SVGID_00000050644740746231386970000011182567210549411995_);" d="M1369.91,2865.268
					c0,33.865-169.446,60.664-375.137,59.868c-202.105-0.781-363.374-27.998-363.374-60.802c0-32.804,161.269-59.613,363.374-59.883
					C1200.464,2804.175,1369.91,2831.402,1369.91,2865.268z"/>
				
					<linearGradient id="SVGID_00000157289011441125304820000017824273624405016224_" gradientUnits="userSpaceOnUse" x1="776.0251" y1="2719.7654" x2="1089.4066" y2="2965.5549">
					<stop  offset="0" style="stop-color:#FF9085"/>
					<stop  offset="1" style="stop-color:#FB6FBB"/>
				</linearGradient>
				<polygon style="fill:url(#SVGID_00000157289011441125304820000017824273624405016224_);" points="1372.792,2919.796 
					1372.792,2869.216 628.877,2868.065 628.877,2922.957 				"/>
				
					<linearGradient id="SVGID_00000018205657638988651740000012323849300173192066_" gradientUnits="userSpaceOnUse" x1="1619.808" y1="2975.73" x2="700.1196" y2="2823.9614" gradientTransform="matrix(1 0.0219 0 1 0 -26.6952)">
					<stop  offset="0" style="stop-color:#311944"/>
					<stop  offset="1" style="stop-color:#893976"/>
				</linearGradient>
				<path style="fill:url(#SVGID_00000018205657638988651740000012323849300173192066_);" d="M1372.792,2869.42
					c0,34.122-170.749,61.065-377.973,60.195c-203.554-0.855-365.942-28.317-365.942-61.353c0-33.035,162.387-59.992,365.942-60.214
					C1202.042,2807.823,1372.792,2835.298,1372.792,2869.42z"/>
				
					<linearGradient id="SVGID_00000083790615992348790200000011728453985871490232_" gradientUnits="userSpaceOnUse" x1="1001.6719" y1="2921.4827" x2="999.1082" y2="2790.7344" gradientTransform="matrix(1 0.0219 0 1 0 -26.6952)">
					<stop  offset="0" style="stop-color:#FF9085"/>
					<stop  offset="1" style="stop-color:#FB6FBB"/>
				</linearGradient>
				<path style="fill:url(#SVGID_00000083790615992348790200000011728453985871490232_);" d="M1369.91,2865.268
					c0,33.865-169.446,60.664-375.137,59.868c-202.105-0.781-363.374-27.998-363.374-60.802c0-32.804,161.269-59.613,363.374-59.883
					C1200.464,2804.175,1369.91,2831.402,1369.91,2865.268z"/>
			</g>
			<g>
				
					<linearGradient id="SVGID_00000174567249082581337730000016622374556246387105_" gradientUnits="userSpaceOnUse" x1="774.1259" y1="2618.1624" x2="1089.6425" y2="2865.6265">
					<stop  offset="0" style="stop-color:#FF9085"/>
					<stop  offset="1" style="stop-color:#FB6FBB"/>
				</linearGradient>
				<path style="fill:url(#SVGID_00000174567249082581337730000016622374556246387105_);" d="M628.877,2763.773v54.892l0.08,0.003
					c3.365,33.131,141.936,91.094,343.203,90.059c318.938-1.64,395.871-59.386,400.521-93.223h0.111v-50.58L628.877,2763.773z"/>
				
					<linearGradient id="SVGID_00000022532485868035340310000009987428464178088125_" gradientUnits="userSpaceOnUse" x1="1619.808" y1="2871.438" x2="700.1196" y2="2719.6694" gradientTransform="matrix(1 0.0219 0 1 0 -26.6952)">
					<stop  offset="0" style="stop-color:#311944"/>
					<stop  offset="1" style="stop-color:#893976"/>
				</linearGradient>
				<path style="fill:url(#SVGID_00000022532485868035340310000009987428464178088125_);" d="M1372.792,2765.128
					c0,34.122-170.749,61.065-377.973,60.195c-203.554-0.855-365.942-28.318-365.942-61.354s162.387-59.992,365.942-60.214
					C1202.042,2703.531,1372.792,2731.006,1372.792,2765.128z"/>
				
					<linearGradient id="SVGID_00000052105121646920570040000000244349628989923501_" gradientUnits="userSpaceOnUse" x1="1001.6719" y1="2817.1904" x2="999.1082" y2="2686.4424" gradientTransform="matrix(1 0.0219 0 1 0 -26.6952)">
					<stop  offset="0" style="stop-color:#FF9085"/>
					<stop  offset="1" style="stop-color:#FB6FBB"/>
				</linearGradient>
				<path style="fill:url(#SVGID_00000052105121646920570040000000244349628989923501_);" d="M1369.91,2760.975
					c0,33.866-169.446,60.664-375.137,59.868c-202.105-0.782-363.374-27.998-363.374-60.802c0-32.804,161.269-59.613,363.374-59.883
					C1200.464,2699.884,1369.91,2727.109,1369.91,2760.975z"/>
				
					<linearGradient id="SVGID_00000168811580627802270670000011324047519231073924_" gradientUnits="userSpaceOnUse" x1="776.0247" y1="2615.4734" x2="1089.4065" y2="2861.2632">
					<stop  offset="0" style="stop-color:#FF9085"/>
					<stop  offset="1" style="stop-color:#FB6FBB"/>
				</linearGradient>
				<polygon style="fill:url(#SVGID_00000168811580627802270670000011324047519231073924_);" points="1372.792,2815.504 
					1372.792,2764.925 628.877,2763.773 628.877,2818.665 				"/>
				
					<linearGradient id="SVGID_00000168804585642709343670000017506472192525157561_" gradientUnits="userSpaceOnUse" x1="1619.808" y1="2871.438" x2="700.1196" y2="2719.6694" gradientTransform="matrix(1 0.0219 0 1 0 -26.6952)">
					<stop  offset="0" style="stop-color:#311944"/>
					<stop  offset="1" style="stop-color:#893976"/>
				</linearGradient>
				<path style="fill:url(#SVGID_00000168804585642709343670000017506472192525157561_);" d="M1372.792,2765.128
					c0,34.122-170.749,61.065-377.973,60.195c-203.554-0.855-365.942-28.318-365.942-61.354s162.387-59.992,365.942-60.214
					C1202.042,2703.531,1372.792,2731.006,1372.792,2765.128z"/>
				
					<linearGradient id="SVGID_00000010304421195757682510000002245120726010612398_" gradientUnits="userSpaceOnUse" x1="1001.6719" y1="2817.1904" x2="999.1082" y2="2686.4424" gradientTransform="matrix(1 0.0219 0 1 0 -26.6952)">
					<stop  offset="0" style="stop-color:#FF9085"/>
					<stop  offset="1" style="stop-color:#FB6FBB"/>
				</linearGradient>
				<path style="fill:url(#SVGID_00000010304421195757682510000002245120726010612398_);" d="M1369.91,2760.975
					c0,33.866-169.446,60.664-375.137,59.868c-202.105-0.782-363.374-27.998-363.374-60.802c0-32.804,161.269-59.613,363.374-59.883
					C1200.464,2699.884,1369.91,2727.109,1369.91,2760.975z"/>
			</g>
			<g>
				
					<linearGradient id="SVGID_00000178167667946087676210000002466732071395056054_" gradientUnits="userSpaceOnUse" x1="774.126" y1="2513.8701" x2="1089.6425" y2="2761.3342">
					<stop  offset="0" style="stop-color:#FF9085"/>
					<stop  offset="1" style="stop-color:#FB6FBB"/>
				</linearGradient>
				<path style="fill:url(#SVGID_00000178167667946087676210000002466732071395056054_);" d="M628.877,2659.481v54.892l0.08,0.004
					c3.365,33.131,141.936,91.094,343.203,90.059c318.938-1.64,395.871-59.386,400.521-93.223h0.111v-50.58L628.877,2659.481z"/>
				
					<linearGradient id="SVGID_00000121973148945315240090000004818877881092512657_" gradientUnits="userSpaceOnUse" x1="1619.808" y1="2767.1458" x2="700.1197" y2="2615.377" gradientTransform="matrix(1 0.0219 0 1 0 -26.6952)">
					<stop  offset="0" style="stop-color:#311944"/>
					<stop  offset="1" style="stop-color:#893976"/>
				</linearGradient>
				<path style="fill:url(#SVGID_00000121973148945315240090000004818877881092512657_);" d="M1372.792,2660.835
					c0,34.122-170.749,61.066-377.973,60.195c-203.554-0.855-365.942-28.318-365.942-61.353c0-33.036,162.387-59.993,365.942-60.214
					C1202.042,2599.238,1372.792,2626.714,1372.792,2660.835z"/>
				
					<linearGradient id="SVGID_00000084507819945867501960000000538807920376823486_" gradientUnits="userSpaceOnUse" x1="1001.6719" y1="2712.8982" x2="999.1082" y2="2582.1501" gradientTransform="matrix(1 0.0219 0 1 0 -26.6952)">
					<stop  offset="0" style="stop-color:#FF9085"/>
					<stop  offset="1" style="stop-color:#FB6FBB"/>
				</linearGradient>
				<path style="fill:url(#SVGID_00000084507819945867501960000000538807920376823486_);" d="M1369.91,2656.683
					c0,33.866-169.446,60.664-375.137,59.868c-202.105-0.782-363.374-27.998-363.374-60.802c0-32.803,161.269-59.612,363.374-59.883
					C1200.464,2595.591,1369.91,2622.817,1369.91,2656.683z"/>
				
					<linearGradient id="SVGID_00000013898971757634046910000013945950509605141645_" gradientUnits="userSpaceOnUse" x1="776.0251" y1="2511.1809" x2="1089.4066" y2="2756.9707">
					<stop  offset="0" style="stop-color:#FF9085"/>
					<stop  offset="1" style="stop-color:#FB6FBB"/>
				</linearGradient>
				<polygon style="fill:url(#SVGID_00000013898971757634046910000013945950509605141645_);" points="1372.792,2711.212 
					1372.792,2660.632 628.877,2659.481 628.877,2714.373 				"/>
				
					<linearGradient id="SVGID_00000051376507976204815140000017861584611512347053_" gradientUnits="userSpaceOnUse" x1="1619.808" y1="2767.1458" x2="700.1197" y2="2615.377" gradientTransform="matrix(1 0.0219 0 1 0 -26.6952)">
					<stop  offset="0" style="stop-color:#311944"/>
					<stop  offset="1" style="stop-color:#893976"/>
				</linearGradient>
				<path style="fill:url(#SVGID_00000051376507976204815140000017861584611512347053_);" d="M1372.792,2660.835
					c0,34.122-170.749,61.066-377.973,60.195c-203.554-0.855-365.942-28.318-365.942-61.353c0-33.036,162.387-59.993,365.942-60.214
					C1202.042,2599.238,1372.792,2626.714,1372.792,2660.835z"/>
				
					<linearGradient id="SVGID_00000109725597981589907070000000884253048844218500_" gradientUnits="userSpaceOnUse" x1="1001.6719" y1="2712.8982" x2="999.1082" y2="2582.1501" gradientTransform="matrix(1 0.0219 0 1 0 -26.6952)">
					<stop  offset="0" style="stop-color:#FF9085"/>
					<stop  offset="1" style="stop-color:#FB6FBB"/>
				</linearGradient>
				<path style="fill:url(#SVGID_00000109725597981589907070000000884253048844218500_);" d="M1369.91,2656.683
					c0,33.866-169.446,60.664-375.137,59.868c-202.105-0.782-363.374-27.998-363.374-60.802c0-32.803,161.269-59.612,363.374-59.883
					C1200.464,2595.591,1369.91,2622.817,1369.91,2656.683z"/>
			</g>
			<g>
				
					<linearGradient id="SVGID_00000016050479566144879600000000224166743905671861_" gradientUnits="userSpaceOnUse" x1="774.1261" y1="2409.5779" x2="1089.6427" y2="2657.042">
					<stop  offset="0" style="stop-color:#FF9085"/>
					<stop  offset="1" style="stop-color:#FB6FBB"/>
				</linearGradient>
				<path style="fill:url(#SVGID_00000016050479566144879600000000224166743905671861_);" d="M628.877,2555.188v54.892l0.08,0.003
					c3.365,33.131,141.936,91.094,343.203,90.059c318.938-1.639,395.871-59.386,400.521-93.223h0.111v-50.58L628.877,2555.188z"/>
				
					<linearGradient id="SVGID_00000098182622641243955800000000978120737750001085_" gradientUnits="userSpaceOnUse" x1="1619.8079" y1="2662.8535" x2="700.1196" y2="2511.085" gradientTransform="matrix(1 0.0219 0 1 0 -26.6952)">
					<stop  offset="0" style="stop-color:#311944"/>
					<stop  offset="1" style="stop-color:#893976"/>
				</linearGradient>
				<path style="fill:url(#SVGID_00000098182622641243955800000000978120737750001085_);" d="M1372.792,2556.543
					c0,34.122-170.749,61.066-377.973,60.195c-203.554-0.855-365.942-28.318-365.942-61.353c0-33.036,162.387-59.993,365.942-60.214
					C1202.042,2494.946,1372.792,2522.422,1372.792,2556.543z"/>
				
					<linearGradient id="SVGID_00000068639897905110208510000002315801574304669064_" gradientUnits="userSpaceOnUse" x1="1001.6719" y1="2608.6064" x2="999.1082" y2="2477.8579" gradientTransform="matrix(1 0.0219 0 1 0 -26.6952)">
					<stop  offset="0" style="stop-color:#FF9085"/>
					<stop  offset="1" style="stop-color:#FB6FBB"/>
				</linearGradient>
				<path style="fill:url(#SVGID_00000068639897905110208510000002315801574304669064_);" d="M1369.91,2552.391
					c0,33.866-169.446,60.664-375.137,59.868c-202.105-0.781-363.374-27.999-363.374-60.802c0-32.804,161.269-59.613,363.374-59.883
					C1200.464,2491.299,1369.91,2518.525,1369.91,2552.391z"/>
				
					<linearGradient id="SVGID_00000056386097095796384910000004979616709027198852_" gradientUnits="userSpaceOnUse" x1="776.025" y1="2406.8889" x2="1089.4066" y2="2652.6787">
					<stop  offset="0" style="stop-color:#FF9085"/>
					<stop  offset="1" style="stop-color:#FB6FBB"/>
				</linearGradient>
				<polygon style="fill:url(#SVGID_00000056386097095796384910000004979616709027198852_);" points="1372.792,2606.92 
					1372.792,2556.34 628.877,2555.188 628.877,2610.081 				"/>
				
					<linearGradient id="SVGID_00000154404112181960217260000005357222241497579430_" gradientUnits="userSpaceOnUse" x1="1619.8079" y1="2662.8535" x2="700.1196" y2="2511.085" gradientTransform="matrix(1 0.0219 0 1 0 -26.6952)">
					<stop  offset="0" style="stop-color:#311944"/>
					<stop  offset="1" style="stop-color:#893976"/>
				</linearGradient>
				<path style="fill:url(#SVGID_00000154404112181960217260000005357222241497579430_);" d="M1372.792,2556.543
					c0,34.122-170.749,61.066-377.973,60.195c-203.554-0.855-365.942-28.318-365.942-61.353c0-33.036,162.387-59.993,365.942-60.214
					C1202.042,2494.946,1372.792,2522.422,1372.792,2556.543z"/>
				
					<linearGradient id="SVGID_00000150104826450142224610000004111214595864342965_" gradientUnits="userSpaceOnUse" x1="1001.6719" y1="2608.6064" x2="999.1082" y2="2477.8579" gradientTransform="matrix(1 0.0219 0 1 0 -26.6952)">
					<stop  offset="0" style="stop-color:#FF9085"/>
					<stop  offset="1" style="stop-color:#FB6FBB"/>
				</linearGradient>
				<path style="fill:url(#SVGID_00000150104826450142224610000004111214595864342965_);" d="M1369.91,2552.391
					c0,33.866-169.446,60.664-375.137,59.868c-202.105-0.781-363.374-27.999-363.374-60.802c0-32.804,161.269-59.613,363.374-59.883
					C1200.464,2491.299,1369.91,2518.525,1369.91,2552.391z"/>
			</g>
			<g>
				
					<linearGradient id="SVGID_00000145768306580990439980000016542037885253019811_" gradientUnits="userSpaceOnUse" x1="774.1259" y1="2305.2859" x2="1089.6426" y2="2552.75">
					<stop  offset="0" style="stop-color:#FF9085"/>
					<stop  offset="1" style="stop-color:#FB6FBB"/>
				</linearGradient>
				<path style="fill:url(#SVGID_00000145768306580990439980000016542037885253019811_);" d="M628.877,2450.896v54.892l0.08,0.003
					c3.365,33.131,141.936,91.094,343.203,90.059c318.938-1.64,395.871-59.386,400.521-93.223h0.111v-50.58L628.877,2450.896z"/>
				
					<linearGradient id="SVGID_00000115484152087410371560000016593371032853289124_" gradientUnits="userSpaceOnUse" x1="1619.808" y1="2558.5615" x2="700.1196" y2="2406.793" gradientTransform="matrix(1 0.0219 0 1 0 -26.6952)">
					<stop  offset="0" style="stop-color:#311944"/>
					<stop  offset="1" style="stop-color:#893976"/>
				</linearGradient>
				<path style="fill:url(#SVGID_00000115484152087410371560000016593371032853289124_);" d="M1372.792,2452.251
					c0,34.122-170.749,61.065-377.973,60.195c-203.554-0.855-365.942-28.317-365.942-61.353s162.387-59.992,365.942-60.214
					C1202.042,2390.654,1372.792,2418.129,1372.792,2452.251z"/>
				
					<linearGradient id="SVGID_00000101819260322485912600000008322620778468827821_" gradientUnits="userSpaceOnUse" x1="1001.6719" y1="2504.3142" x2="999.1082" y2="2373.5662" gradientTransform="matrix(1 0.0219 0 1 0 -26.6952)">
					<stop  offset="0" style="stop-color:#FF9085"/>
					<stop  offset="1" style="stop-color:#FB6FBB"/>
				</linearGradient>
				<path style="fill:url(#SVGID_00000101819260322485912600000008322620778468827821_);" d="M1369.91,2448.099
					c0,33.865-169.446,60.663-375.137,59.868c-202.105-0.782-363.374-27.998-363.374-60.802c0-32.803,161.269-59.612,363.374-59.882
					C1200.464,2387.007,1369.91,2414.233,1369.91,2448.099z"/>
				
					<linearGradient id="SVGID_00000072982432006272536670000015782871067232289688_" gradientUnits="userSpaceOnUse" x1="776.0249" y1="2302.5969" x2="1089.4066" y2="2548.3865">
					<stop  offset="0" style="stop-color:#FF9085"/>
					<stop  offset="1" style="stop-color:#FB6FBB"/>
				</linearGradient>
				<polygon style="fill:url(#SVGID_00000072982432006272536670000015782871067232289688_);" points="1372.792,2502.628 
					1372.792,2452.048 628.877,2450.896 628.877,2505.789 				"/>
				
					<linearGradient id="SVGID_00000175297196804347156280000001323926488132238260_" gradientUnits="userSpaceOnUse" x1="1619.808" y1="2558.5615" x2="700.1196" y2="2406.793" gradientTransform="matrix(1 0.0219 0 1 0 -26.6952)">
					<stop  offset="0" style="stop-color:#311944"/>
					<stop  offset="1" style="stop-color:#893976"/>
				</linearGradient>
				<path style="fill:url(#SVGID_00000175297196804347156280000001323926488132238260_);" d="M1372.792,2452.251
					c0,34.122-170.749,61.065-377.973,60.195c-203.554-0.855-365.942-28.317-365.942-61.353s162.387-59.992,365.942-60.214
					C1202.042,2390.654,1372.792,2418.129,1372.792,2452.251z"/>
				
					<linearGradient id="SVGID_00000095336720835077469220000016913124359492852127_" gradientUnits="userSpaceOnUse" x1="1001.6719" y1="2504.3142" x2="999.1082" y2="2373.5662" gradientTransform="matrix(1 0.0219 0 1 0 -26.6952)">
					<stop  offset="0" style="stop-color:#FF9085"/>
					<stop  offset="1" style="stop-color:#FB6FBB"/>
				</linearGradient>
				<path style="fill:url(#SVGID_00000095336720835077469220000016913124359492852127_);" d="M1369.91,2448.099
					c0,33.865-169.446,60.663-375.137,59.868c-202.105-0.782-363.374-27.998-363.374-60.802c0-32.803,161.269-59.612,363.374-59.882
					C1200.464,2387.007,1369.91,2414.233,1369.91,2448.099z"/>
			</g>
		</g>
		<g>
			
				<linearGradient id="SVGID_00000091008150715728409020000010068398020545082002_" gradientUnits="userSpaceOnUse" x1="1042.1763" y1="2172.2856" x2="1035.1774" y2="2310.5125">
				<stop  offset="0" style="stop-color:#FF9085"/>
				<stop  offset="1" style="stop-color:#FB6FBB"/>
			</linearGradient>
			<polygon style="fill:url(#SVGID_00000091008150715728409020000010068398020545082002_);" points="1034.801,2278.385 
				1361.314,2196.713 1377.646,2276.04 1078.731,2414 842.049,2355.535 699.273,2215.349 			"/>
			
				<linearGradient id="SVGID_00000130631151967613183710000005051427318176766599_" gradientUnits="userSpaceOnUse" x1="1042.1763" y1="2172.2856" x2="1035.1774" y2="2310.5125">
				<stop  offset="0" style="stop-color:#AA80F9"/>
				<stop  offset="0.9964" style="stop-color:#6165D7"/>
			</linearGradient>
			<polygon style="fill:url(#SVGID_00000130631151967613183710000005051427318176766599_);" points="1034.801,2278.385 
				1361.314,2196.713 1377.646,2276.04 1078.731,2414 842.049,2355.535 699.273,2215.349 			"/>
			
				<linearGradient id="SVGID_00000171681181696061769760000008941426178475997342_" gradientUnits="userSpaceOnUse" x1="1024.5365" y1="2296.2869" x2="1433.6227" y2="2296.2869">
				<stop  offset="0" style="stop-color:#AA80F9"/>
				<stop  offset="0.9964" style="stop-color:#6165D7"/>
			</linearGradient>
			<path style="fill:url(#SVGID_00000171681181696061769760000008941426178475997342_);" d="M1024.536,2388.186
				c64.896-34.791,112.824-70.227,145.357-97.012c64.01-52.701,93.374-92.457,158.177-108.167
				c11.582-2.807,77.566-18.803,98.859,10.498c23.574,32.442-22.259,100.282-27.826,108.523
				c-82.792,122.545-293.624,116.826-359.755,112.852C1034.411,2405.981,1029.474,2397.083,1024.536,2388.186z"/>
			
				<linearGradient id="SVGID_00000142887674997191069530000018150785864760186273_" gradientUnits="userSpaceOnUse" x1="1024.5361" y1="2297.239" x2="1433.6218" y2="2297.239">
				<stop  offset="0" style="stop-color:#AA80F9"/>
				<stop  offset="0.9964" style="stop-color:#6165D7"/>
			</linearGradient>
			<path style="opacity:0.3;fill:url(#SVGID_00000142887674997191069530000018150785864760186273_);" d="M1426.929,2193.505
				c-6.223-8.563-16.304-13.184-27.687-15.469c3.788,13.115,4.133,25.422-0.6,36.175c-12.937,29.388-51.246,20.336-78.154,54.824
				c-26.427,33.872-8.133,66.516-31.495,80.487c-26.776,16.012-59.97-21.397-88.652-3.5c-19.501,12.167-13.434,35.251-36.16,47.825
				c-15.705,8.69-31.101,4.58-48.992,2.333c-20.507-2.577-48.601-3.127-83.865,4.239c2.674,4.82,5.349,9.64,8.025,14.461
				c66.13,3.974,276.962,9.692,359.754-112.852C1404.67,2293.787,1450.504,2225.947,1426.929,2193.505z"/>
			
				<linearGradient id="SVGID_00000106110948075778497530000011353836226063562935_" gradientUnits="userSpaceOnUse" x1="1140.38" y1="2455.4656" x2="1061.6433" y2="2357.4824">
				<stop  offset="0" style="stop-color:#311944"/>
				<stop  offset="1" style="stop-color:#6B3976"/>
			</linearGradient>
			<path style="fill:url(#SVGID_00000106110948075778497530000011353836226063562935_);" d="M1073.599,2406.499
				c0,0,11.891-8.527,29.146-2.716c17.255,5.81,44.654,10.5,44.612,18.937c-0.042,8.437-27.456,13.717-46.4,10.25
				C1082.838,2429.651,1068.586,2413.902,1073.599,2406.499z"/>
			
				<linearGradient id="SVGID_00000156566096251359289140000004349524193955768983_" gradientUnits="userSpaceOnUse" x1="1092.04" y1="2432.1975" x2="983.5568" y2="2295.7188">
				<stop  offset="0" style="stop-color:#FFC444"/>
				<stop  offset="0.9964" style="stop-color:#F36F56"/>
			</linearGradient>
			<path style="fill:url(#SVGID_00000156566096251359289140000004349524193955768983_);" d="M1056.174,2392.097l31.756,10.216
				c0,0,5.159,8.593-1.803,14.042c-6.962,5.45-31.154-6.076-31.154-6.076L1056.174,2392.097z"/>
			
				<linearGradient id="SVGID_00000164495091664122958470000017366837611195098813_" gradientUnits="userSpaceOnUse" x1="858.4893" y1="2291.709" x2="768.3512" y2="2479.1965">
				<stop  offset="0" style="stop-color:#AA80F9"/>
				<stop  offset="0.9964" style="stop-color:#6165D7"/>
			</linearGradient>
			<path style="fill:url(#SVGID_00000164495091664122958470000017366837611195098813_);" d="M614.773,2245.705
				c-9.377,54.594,108.447,113.651,135.42,127.171c54.972,27.553,158.407,66.45,311.922,51.591
				c2.042-12.248,4.083-24.496,6.124-36.744c-20.28-6.948-50.334-18.24-85.206-35.394c-59.515-29.276-82.114-50.184-164.701-100.115
				c-91.387-55.25-118.007-62.338-145.235-55.501C649.814,2202.56,619.129,2220.337,614.773,2245.705z"/>
			<path style="fill:#FFFFFF;" d="M737.543,2141.889c-19.917-72.032,12.96-169.226,82.236-216.089
				c56.546-38.25,122.801-35.768,143.477-34.994c22.631,0.848,20.294,3.786,91.534,16.966
				c98.903,18.3,108.033,13.863,136.803,27.651c54.098,25.927,80.348,73.033,85.26,82.199c25.14,46.908,45.6,134.112-2.149,176.758
				c-27.144,24.244-65.197,24.144-86.611,21.871c-1.458-9.623-2.915-19.247-4.374-28.87c4.358-3.375,30.068-23.984,33.244-60.365
				c3.651-41.811-25.574-68.798-28.87-71.738c-10.366,20.01-23.124,50.396-28.87,89.235c-7.419,50.157,0.263,91.4,6.768,115.653
				c-26.156,14.357-69.408,33.838-125.749,40.071c-42.447,4.696-95.003,10.511-128.604-15.747
				c-47.412-37.053-51.421-133.546-4.594-233.979c-17.14,11.481-41.971,32.252-52.271,65.131
				c-1.557,4.972-4.195,14.728-5.249,52.491C847.631,2235.984,758.183,2216.533,737.543,2141.889z"/>
			
				<linearGradient id="SVGID_00000021800441041163260040000004989511068966312602_" gradientUnits="userSpaceOnUse" x1="861.432" y1="2153.9644" x2="1149.415" y2="2153.9644">
				<stop  offset="0" style="stop-color:#AA80F9"/>
				<stop  offset="0.9964" style="stop-color:#6165D7"/>
			</linearGradient>
			<path style="opacity:0.2;fill:url(#SVGID_00000021800441041163260040000004989511068966312602_);" d="M1058.615,2191.756
				c-23.859,2.925-30.352,27.696-52.491,26.245c-48.172-3.154-86.835-86.55-66.489-132.103c13.267-29.7,47.853-34.88,45.493-54.241
				c-1.888-15.492-25.891-27.413-45.493-27.995c-30.517-0.906-50.669,25.67-57.74,34.995
				c-16.526,21.794-20.089,45.723-20.462,61.113c12.127-23.79,31.441-39.764,45.613-49.258
				c-46.826,100.433-42.818,196.926,4.594,233.979c33.6,26.257,86.156,20.443,128.604,15.747
				c45.727-5.059,82.831-18.844,109.172-31.534C1123.82,2227.039,1091.221,2187.757,1058.615,2191.756z"/>
			
				<linearGradient id="SVGID_00000096056100431114568630000012443158011498911647_" gradientUnits="userSpaceOnUse" x1="862.5847" y1="2273.45" x2="1142.4749" y2="2273.45">
				<stop  offset="0" style="stop-color:#AA80F9"/>
				<stop  offset="0.9964" style="stop-color:#6165D7"/>
			</linearGradient>
			<polygon style="fill:url(#SVGID_00000096056100431114568630000012443158011498911647_);" points="1141.76,2259.703 
				862.585,2255.535 936.823,2291.364 1142.475,2277.904 			"/>
			
				<linearGradient id="SVGID_00000072962671837017360360000011755240271056045714_" gradientUnits="userSpaceOnUse" x1="852.7331" y1="2282.417" x2="950.5248" y2="2282.417">
				<stop  offset="0" style="stop-color:#444B8C"/>
				<stop  offset="0.9964" style="stop-color:#26264F"/>
			</linearGradient>
			<path style="fill:url(#SVGID_00000072962671837017360360000011755240271056045714_);" d="M852.733,2262.954v0.001
				c0,5.225,3.268,9.892,8.179,11.677l89.206,34.971l0.407-24.245l-87.94-29.823
				C857.651,2254.117,852.733,2257.821,852.733,2262.954z"/>
			<path style="fill:#FFFFFF;" d="M751.042,2093.892c21.543-20.391,74.393-7.548,94.109,21.751
				c14.514,21.568,2.502,39.316,13.123,66.489c13.012,33.289,62.09,63.386,92.252,73.404c-4.721,10.165-3.332,12.797-8.053,22.961
				c-19.187-2.396-157.878-23.641-191.806-105.988C748.899,2168.217,727.94,2115.758,751.042,2093.892z"/>
			
				<linearGradient id="SVGID_00000051363236893155673120000017627337572991655088_" gradientUnits="userSpaceOnUse" x1="986.4108" y1="2004.4989" x2="1088.3475" y2="1851.9358">
				<stop  offset="0.0036" style="stop-color:#F36F56"/>
				<stop  offset="1" style="stop-color:#FFC444"/>
			</linearGradient>
			<path style="fill:url(#SVGID_00000051363236893155673120000017627337572991655088_);" d="M1077.033,1871.446
				c0,0-25.311,27.37-46.321,30.219c-21.01,2.849-51.373-2.732-56.604,0c-5.232,2.731,26.386,13.98,51.463,20.858
				c25.077,6.879,70.608,20.62,83.195,17.611c12.588-3.01-13.756-19.15-24.188-23.428c-10.433-4.279,4.5-26.259,4.5-26.259
				L1077.033,1871.446z"/>
			<g>
				
					<linearGradient id="SVGID_00000006688990975416190060000018315017208957946284_" gradientUnits="userSpaceOnUse" x1="-853.8978" y1="1089.0391" x2="-899.6705" y2="972.7848" gradientTransform="matrix(-0.7945 -0.6073 -0.6073 0.7945 992.7459 529.0761)">
					<stop  offset="0" style="stop-color:#311944"/>
					<stop  offset="1" style="stop-color:#6B3976"/>
				</linearGradient>
				<path style="fill:url(#SVGID_00000006688990975416190060000018315017208957946284_);" d="M1114.589,1887.12
					c9.152-2.523,17.513-12.798,17.409-23.445c-0.09-9.16-6.522-15.411-10.371-19.155c-11.155-10.848-30.544-17.638-44.6-10.507
					c-8.329,4.226-12.131,23.409-12.974,26.735c-0.952,3.762,0.516,6.436,0.922,10.147c0.561,5.146,1.382,13.273,2.578,26.728
					c2.353-1.886,5.422-4.099,9.184-6.166c1.447-0.794,7.16-3.855,13.335-5.285
					C1102.45,1883.306,1105.914,1889.513,1114.589,1887.12z"/>
				
					<linearGradient id="SVGID_00000029752865199477734920000006192515040721573274_" gradientUnits="userSpaceOnUse" x1="1058.1793" y1="1887.6675" x2="1115.4468" y2="1887.6675">
					<stop  offset="0.0036" style="stop-color:#F36F56"/>
					<stop  offset="1" style="stop-color:#FFC444"/>
				</linearGradient>
				<path style="fill:url(#SVGID_00000029752865199477734920000006192515040721573274_);" d="M1062.3,1883.035
					c0,0-2.123,19.407,14.708,30.711c15.07,10.12,41.961-20.44,38.056-34.331c-1.303-4.634-6.698-10.297-12.753-12.738
					c-3.576-1.442-5.513-0.987-11.311-3.455c-5.347-2.277-6.226-3.741-8.443-3.645c-2.774,0.12-6.681,2.643-11.118,14.214
					c-0.603-4.88-3.068-8.476-6.244-9.171c-0.506-0.11-2.008-0.198-3.346,0.39C1057.011,1867.141,1056.752,1874.42,1062.3,1883.035z
					"/>
				
					<linearGradient id="SVGID_00000062162751126595900920000001053389024902802590_" gradientUnits="userSpaceOnUse" x1="-867.8788" y1="1094.6096" x2="-913.7012" y2="978.2292" gradientTransform="matrix(-0.7945 -0.6073 -0.6073 0.7945 992.7459 529.0761)">
					<stop  offset="0" style="stop-color:#311944"/>
					<stop  offset="1" style="stop-color:#6B3976"/>
				</linearGradient>
				<path style="fill:url(#SVGID_00000062162751126595900920000001053389024902802590_);" d="M1083.391,1857.151
					c0.294,1.05-3.811,2.003-6.783,5.536c-5.771,6.858-5.151,20.902,1.618,27.268c4.002,3.763,7.203,2.069,14.944,6.827
					c4.794,2.946,8.049,6.351,9.98,8.647c-3.743,9.513-11.836,15.639-19.807,15.232c-8.585-0.439-13.925-8.297-16.158-11.583
					c-1.494-2.199-6.29-9.23-5.111-17.688c1.228-8.814,7.496-9.866,6.684-17.094c-0.41-3.645-2.366-6.594-1.832-12.63
					c0.145-1.639,0.426-2.972,0.644-3.846C1074.293,1856.748,1082.964,1855.632,1083.391,1857.151z"/>
				
					<linearGradient id="SVGID_00000181808580133598619290000015506388762814242465_" gradientUnits="userSpaceOnUse" x1="1085.4248" y1="1902.5507" x2="1096.7738" y2="1902.5507">
					<stop  offset="0.0036" style="stop-color:#F36F56"/>
					<stop  offset="1" style="stop-color:#FFC444"/>
				</linearGradient>
				<path style="fill:url(#SVGID_00000181808580133598619290000015506388762814242465_);" d="M1095.718,1904.3
					c0,0-4.347-0.77-9.47-5.196c-0.25-0.215-0.595-0.359-0.732-0.25c-0.514,0.413,1.167,5.338,5.018,6.886
					c2.735,1.1,6.123,0.319,6.237-0.455C1096.819,1904.958,1096.286,1904.596,1095.718,1904.3z"/>
			</g>
			<g>
				
					<linearGradient id="SVGID_00000167370402470324072350000012338804748595767963_" gradientUnits="userSpaceOnUse" x1="938.2135" y1="2203.6245" x2="1286.9252" y2="2203.6245">
					<stop  offset="0" style="stop-color:#444B8C"/>
					<stop  offset="0.9964" style="stop-color:#26264F"/>
				</linearGradient>
				<path style="fill:url(#SVGID_00000167370402470324072350000012338804748595767963_);" d="M957.93,2115.246l-19.679,179.175
					c-0.679,6.182,7.977,15.393,14.189,15.099l288.684-17.723c4.743-0.225,8.692-3.716,9.496-8.396l36.233-173.05
					c1.082-6.298-10.239-12.802-16.627-12.623l-302.521,8.506C962.654,2106.375,958.481,2110.222,957.93,2115.246z"/>
				
					<linearGradient id="SVGID_00000029737937549992077570000014619566850481043354_" gradientUnits="userSpaceOnUse" x1="944.7877" y1="2206.9099" x2="1287.2333" y2="2206.9099">
					<stop  offset="0" style="stop-color:#444B8C"/>
					<stop  offset="0.9964" style="stop-color:#26264F"/>
				</linearGradient>
				<path style="fill:url(#SVGID_00000029737937549992077570000014619566850481043354_);" d="M964.528,2120.47l-19.678,179.175
					c-0.679,6.182,4.326,11.508,10.539,11.215l292.334-13.839c4.743-0.225,8.692-3.716,9.496-8.396l29.866-173.842
					c1.082-6.298-3.872-12.011-10.26-11.831l-302.521,8.506C969.252,2111.6,965.079,2115.447,964.528,2120.47z"/>
			</g>
			
				<linearGradient id="SVGID_00000033349178749633033760000013816705961785913261_" gradientUnits="userSpaceOnUse" x1="944.7874" y1="2210.8567" x2="1261.3397" y2="2210.8567">
				<stop  offset="0" style="stop-color:#444B8C"/>
				<stop  offset="0.9964" style="stop-color:#26264F"/>
			</linearGradient>
			<path style="opacity:0.3;fill:url(#SVGID_00000033349178749633033760000013816705961785913261_);" d="M1136.186,2255.037
				c-25.525-10.819-16.516-31.449-46.659-57.157c-39.764-33.914-80.295-19.206-94.485-45.493
				c-4.419-8.187-6.528-20.927,1.167-41.545l-21.906,0.616c-5.052,0.142-9.224,3.989-9.776,9.012l-19.678,179.175
				c-0.678,6.182,4.327,11.508,10.539,11.215l292.334-13.839c4.743-0.224,8.692-3.716,9.496-8.396l4.122-23.989
				c-8.87-4.936-19.469-9.424-31.836-11.933C1186.616,2244.005,1165.573,2267.491,1136.186,2255.037z"/>
		</g>
	</g>
</g>
</svg>
