<?xml version="1.0" encoding="utf-8"?>
<!-- Generator: Adobe Illustrator 27.5.0, SVG Export Plug-In . SVG Version: 6.00 Build 0)  -->
<svg version="1.1" xmlns="http://www.w3.org/2000/svg" xmlns:xlink="http://www.w3.org/1999/xlink" x="0px" y="0px"
	 viewBox="0 0 3710 3710" style="enable-background:new 0 0 3710 3710;" xml:space="preserve">
<g id="Background">
	<g>
		<g>
			<rect style="fill:#FFFFFF;" width="3710" height="3710"/>
		</g>
	</g>
</g>
<g id="Illustration">
	<g>
		<path style="fill:#F4F7FA;" d="M2893.675,2967.801c-73.366,75.623-139.011,120.077-189.272,153.636
			c-490.179,327.297-1050.508,232.962-1223.747,200.719c-279.501-52.021-515.438-88.719-718.151-271.862
			c-460.624-416.155-438.22-1284.286-86.247-1822.056c41.733-63.764,393.173-584.707,954.715-658.112
			c13.734-1.795,23.982-2.818,32.958-3.768c86.869-9.197,625.18-57.74,1064.119,310.003
			c62.832,52.64,163.947,147.591,257.713,292.405C3328.615,1698.273,3329.701,2518.362,2893.675,2967.801z"/>
		<g>
			<g>
				<defs>
					<path id="SVGID_1_" d="M1201.221,2497.172l191.863-94.38c0,0-12.298-116.188-93.484-162.517
						c-165.644-94.527-71.294-233.006-40.453-296.918c46.511-96.385,45.462-201.607-83.964-183.974
						c-129.426,17.633-102.456-209.659-4.907-354.494c95.458-141.732-101.403-393.203-336.177-105.413
						c-140.206,171.868-17.483,349.788,23.131,454.37c40.614,104.582-104.465,186.254,6.853,283.66
						c95.085,83.202,215.473,118.756,187.638,221.807C1023.885,2362.363,1057.027,2446.25,1201.221,2497.172z"/>
				</defs>
				<clipPath id="SVGID_00000034069971858607454910000012915732854552912010_">
					<use xlink:href="#SVGID_1_"  style="overflow:visible;"/>
				</clipPath>
				
					<linearGradient id="SVGID_00000034794475030403155550000007565107294769456568_" gradientUnits="userSpaceOnUse" x1="-930.9998" y1="43.3554" x2="-1356.6725" y2="1253.1632" gradientTransform="matrix(0.8973 -0.4414 0.4414 0.8973 1807.6943 763.6229)">
					<stop  offset="0" style="stop-color:#AA80F9"/>
					<stop  offset="0.9964" style="stop-color:#6165D7"/>
				</linearGradient>
				
					<path style="clip-path:url(#SVGID_00000034069971858607454910000012915732854552912010_);fill:url(#SVGID_00000034794475030403155550000007565107294769456568_);" d="
					M1201.221,2497.172l191.863-94.38c0,0-12.298-116.188-93.484-162.517c-165.644-94.527-71.294-233.006-40.453-296.918
					c46.511-96.385,42.219-189.248-73.124-194.117c-130.505-5.509-113.295-199.516-15.747-344.352
					c95.458-141.732-101.403-393.203-336.177-105.413c-140.206,171.868-17.483,349.788,23.131,454.37
					c40.614,104.582-104.465,186.254,6.853,283.66c95.085,83.202,215.473,118.756,187.638,221.807
					C1023.885,2362.363,1057.027,2446.25,1201.221,2497.172z"/>
				<g style="clip-path:url(#SVGID_00000034069971858607454910000012915732854552912010_);">
					<path style="fill:#BEB8F2;" d="M1293.33,2473.902c-1.668-2.249-167.997-228.05-265.41-501.66
						c-57.257-160.807-79.869-306.446-67.217-432.87c15.836-158.221,87.231-286.586,212.207-381.532l2.264,2.98
						c-124.113,94.291-195.019,221.779-210.748,378.925c-12.598,125.869,9.95,270.96,67.018,431.242
						c97.232,273.09,263.227,498.44,264.891,500.684L1293.33,2473.902z"/>
					<path style="fill:#BEB8F2;" d="M956.879,1605.57c-82.905-126.257-125.575-342.157-125.997-344.323l3.673-0.714
						c0.421,2.159,42.957,217.348,125.451,342.984L956.879,1605.57z"/>
					<path style="fill:#BEB8F2;" d="M969.679,1500.371l-3.181-1.976c95.628-153.734,244.927-175.832,246.427-176.038l0.509,3.707
						C1211.951,1326.268,1064.34,1348.186,969.679,1500.371z"/>
					<path style="fill:#BEB8F2;" d="M1101.026,2146.737c-49.069-215.057,190.029-392.659,192.57-393.908l1.651,3.358l-0.825-1.679
						l0.91,1.633c-2.456,1.49-238.896,178.341-190.659,389.763L1101.026,2146.737z"/>
					<path style="fill:#BEB8F2;" d="M1064.296,2065.276c-84.724-108.667-257.502-127.445-259.237-127.621l0.377-3.723
						c1.752,0.179,176.093,19.103,261.812,129.043L1064.296,2065.276z"/>
					<path style="fill:#BEB8F2;" d="M1267.466,2436.928c-31.551-79.282,46.896-192.143,47.691-193.274l3.059,2.154
						c-0.785,1.115-78.073,112.338-47.273,189.737L1267.466,2436.928z"/>
					<path style="fill:#BEB8F2;" d="M1231.585,2382.331c-37.529-51.88-155.974-73.185-194.898-80.186
						c-7.709-1.386-10.883-1.968-12.005-2.424l1.415-3.465c0.802,0.327,5.644,1.199,11.25,2.207
						c39.291,7.067,158.855,28.573,197.27,81.675L1231.585,2382.331z"/>
				</g>
			</g>
			<g>
				<g>
					<g>
						<g>
							
								<linearGradient id="SVGID_00000005976729490158248160000012046075853163238571_" gradientUnits="userSpaceOnUse" x1="-1214.8368" y1="1431.306" x2="-2064.1257" y2="-37.254" gradientTransform="matrix(0.8973 -0.4414 0.4414 0.8973 1807.6943 763.6229)">
								<stop  offset="0" style="stop-color:#FF9085"/>
								<stop  offset="1" style="stop-color:#FB6FBB"/>
							</linearGradient>
							<path style="fill:url(#SVGID_00000005976729490158248160000012046075853163238571_);" d="M1303.17,2894.637
								c-7.815,72.089,40.752,125.158,81.327,158.212c6.309-2.088,10.557-1.576,17.442-2.176
								c62.137-5.421,86.668-21.622,146.468-37.109c12.871-3.333,47.035-25.3,60.382-35.248l24.569-18.98
								c0,0-1.855-168.302-93.545-184.001c-91.689-15.7-112.958-176.639-134.249-261.14
								c-57.77-229.271-292.241-127.483-390.026-416.172c-26.008-76.782-49.932-231.908-135.346-271.217
								c-97.31-44.784-128.081,41.772-195.198-0.492c-104.901-66.058-236.248-58.108-276.308,59.856
								c-39.537,116.426,108.662,271.566,372.451,347.402c183.082,75.842,197.783,112.092,217.08,205.94
								c13.516,65.736,8.832,250.449,116.651,287.168C1222.687,2763.4,1312.104,2812.226,1303.17,2894.637z"/>
							<g>
								<defs>
									<path id="SVGID_00000108993987356844962990000016684884842751729049_" d="M1438.999,3091.301l191.536-124.872
										c0,0,0.966-175.395-90.723-191.094c-91.689-15.7-112.958-176.639-134.249-261.14
										c-57.77-229.271-292.241-127.483-390.026-416.172c-26.008-76.782-49.932-231.907-135.346-271.217
										c-97.31-44.784-128.082,41.772-195.198-0.492c-104.901-66.058-236.248-58.108-276.308,59.856
										c-39.537,116.426,108.662,271.566,372.451,347.402c183.082,75.843,197.783,112.092,217.08,205.94
										c13.516,65.736,8.832,250.449,116.652,287.168c107.82,36.719,197.236,85.545,188.302,167.956
										C1289.575,3020.036,1438.999,3091.301,1438.999,3091.301z"/>
								</defs>
								<clipPath id="SVGID_00000008114876776200452480000013268566427020888204_">
									<use xlink:href="#SVGID_00000108993987356844962990000016684884842751729049_"  style="overflow:visible;"/>
								</clipPath>
								<g style="clip-path:url(#SVGID_00000008114876776200452480000013268566427020888204_);">
									<path style="fill:#FCFDFE;" d="M1519.156,3026.008c-11.77-24.378-23.893-48.733-36.04-72.387
										c-90.227-175.729-193.598-336.68-307.242-478.381c-96.271-120.036-201.233-227.952-311.962-320.75
										c-89.024-74.612-182.259-139.909-277.116-194.078c-66.644-38.059-133.389-70.27-198.385-95.735
										c-11.25-4.408-23.057-8.306-34.476-12.076c-15.385-5.079-31.295-10.332-46.212-16.942l1.523-3.435
										c14.748,6.535,30.568,11.758,45.868,16.808c11.466,3.786,23.32,7.7,34.665,12.145
										c65.168,25.532,132.082,57.821,198.884,95.971c95.048,54.28,188.466,119.707,277.661,194.461
										c110.922,92.958,216.055,201.052,312.481,321.28c113.803,141.899,217.312,303.063,307.653,479.016
										c12.16,23.682,24.3,48.065,36.08,72.47L1519.156,3026.008z"/>
									<path style="fill:#FCFDFE;" d="M994.236,2273.207c-135.643-141.471-171.137-474.402-171.481-477.749l3.74-0.382
										c0.34,3.333,35.706,334.993,170.449,475.53L994.236,2273.207z"/>
									<path style="fill:#FCFDFE;" d="M1336.492,2699.128c-79.205-104.648-332.465-121.231-335.016-121.387l0.229-3.75
										c2.567,0.156,257.546,16.86,337.786,122.87L1336.492,2699.128z"/>
									<path style="fill:#FCFDFE;" d="M1376.905,2763.355c-39.732-78.199-52.166-205.72-35.019-359.072
										c0.394-3.524,0.708-6.308,0.701-6.803l1.563-0.018l1.985-0.975c0.33,0.669,0.33,0.669-0.512,8.213
										c-17.07,152.633-4.771,279.401,34.631,356.953L1376.905,2763.355z"/>
									<path style="fill:#FCFDFE;" d="M1497.032,2981.825c-64.599-67.928-204.11-56.472-205.505-56.344l-0.33-3.743
										c1.422-0.125,142.726-11.728,208.558,57.499L1497.032,2981.825z"/>
									<path style="fill:#FCFDFE;" d="M1521.286,3024.743c-7.965-77.463,6.014-159.663,42.738-251.296l3.491,1.398
										c-36.494,91.054-50.393,172.67-42.489,249.513L1521.286,3024.743z"/>
									<path style="fill:#FCFDFE;" d="M642.335,1993.355c-79.549-74.22-145.829-170.51-167.609-202.152
										c-3.838-5.574-6.867-9.976-7.463-10.578l2.675-2.64c0.795,0.806,2.864,3.797,7.881,11.088
										c21.723,31.558,87.828,127.594,167.077,201.534L642.335,1993.355z"/>
									<path style="fill:#FCFDFE;" d="M500.721,2120.268l-1.253-3.541c0.495-0.176,50.312-17.742,110.682-29.633
										c81.271-16.006,141.941-14.683,180.298,3.936l-1.638,3.381C698.942,2050.796,502.696,2119.568,500.721,2120.268z"/>
								</g>
							</g>
						</g>
						<g>
							
								<linearGradient id="SVGID_00000006667349733699020770000015117351305108051332_" gradientUnits="userSpaceOnUse" x1="-1695.7886" y1="1158.4441" x2="-1222.3455" y2="1937.8534" gradientTransform="matrix(0.8973 -0.4414 0.4414 0.8973 1807.6943 763.6229)">
								<stop  offset="0.0036" style="stop-color:#E38DDD"/>
								<stop  offset="1" style="stop-color:#9571F6"/>
							</linearGradient>
							<path style="fill:url(#SVGID_00000006667349733699020770000015117351305108051332_);" d="M1379.218,3054.42
								c0.885-0.037,1.771-0.077,2.657-0.121c52.45-2.538,109.322-14.576,169.668-41.248c11.396-6.029,22.793-12.058,34.189-18.087
								c-3.681-32.232-12.952-62.229-53.425-55.753c-62.852,10.057-110.769-85.911-112.191-127.349
								c-1.761-51.289-8.311-170.627-105.722-156.608c-81.094,11.67-131.039,35.775-179.65-52.442
								c-48.611-88.218-125.314-120.894-204.875-75.889c-83.725,47.361-210.12-33.542-262.391,39.109
								c-91.079,126.591,117.006,272.315,294.998,257.773s117.97,81.064,149.67,157.155
								c43.277,103.879,169.682,16.275,224.999,38.609C1355.884,3027.133,1369.397,3039.942,1379.218,3054.42z"/>
							<g>
								<defs>
									<path id="SVGID_00000017506589867593645710000014018040484124508092_" d="M1402.126,3112.121l187.676-92.321
										c-2.136-31.945-12.285-87.823-57.493-80.589c-62.852,10.056-110.769-85.91-112.191-127.349
										c-1.76-51.288-8.311-170.626-105.722-156.608c-81.094,11.67-131.039,35.775-179.65-52.442
										c-48.611-88.218-125.314-120.894-204.875-75.889c-83.726,47.36-210.12-33.542-262.391,39.109
										c-91.079,126.59,117.005,272.314,294.998,257.773c177.992-14.542,117.97,81.064,149.67,157.155
										c43.277,103.88,169.682,16.275,224.999,38.609C1380.512,3037.077,1395.996,3082.626,1402.126,3112.121z"/>
								</defs>
								<clipPath id="SVGID_00000016771981741104969550000005258243297723598235_">
									<use xlink:href="#SVGID_00000017506589867593645710000014018040484124508092_"  style="overflow:visible;"/>
								</clipPath>
								<g style="clip-path:url(#SVGID_00000016771981741104969550000005258243297723598235_);">
									<path style="fill:#FCFDFE;" d="M1476.283,3038.897c-98.219-128.787-228.801-236.522-377.626-311.557
										c-149.667-75.459-313.792-115.76-474.632-116.545l0.02-3.757c161.416,0.788,326.121,41.227,476.303,116.947
										c149.33,75.289,280.36,183.396,378.92,312.633L1476.283,3038.897z"/>
									<path style="fill:#FCFDFE;" d="M1354.468,2904.699c-57.789-118.792-1.24-260.503-0.66-261.921l3.477,1.418
										c-0.569,1.403-56.482,141.598,0.559,258.858L1354.468,2904.699z"/>
									<path style="fill:#FCFDFE;" d="M1109.571,3005.829l-1.429-3.476c2.241-0.92,224.943-90.985,331.963-14.049l-2.19,3.051
										C1332.567,2915.623,1111.785,3004.918,1109.571,3005.829z"/>
									<path style="fill:#FCFDFE;" d="M1086.228,2721.331c-80.849-69.319-89.233-231.486-89.307-233.116l3.753-0.173
										c0.074,1.614,8.387,162.179,87.999,230.437L1086.228,2721.331z"/>
									<path style="fill:#FCFDFE;" d="M645.587,2735.305l-2.345-2.935c1.263-1.01,127.624-100.839,246.245-89.139l-0.371,3.74
										C772.089,2635.43,646.84,2734.305,645.587,2735.305z"/>
								</g>
							</g>
						</g>
					</g>
				</g>
			</g>
		</g>
		<g>
			<g>
				
					<linearGradient id="SVGID_00000162347276075882984150000009685039432905022600_" gradientUnits="userSpaceOnUse" x1="1568.6761" y1="783.7278" x2="778.0227" y2="4895.1362" gradientTransform="matrix(1 0 0.0982 1 361.6243 0)">
					<stop  offset="0" style="stop-color:#AB316D"/>
					<stop  offset="1" style="stop-color:#792D3D"/>
				</linearGradient>
				<path style="fill:url(#SVGID_00000162347276075882984150000009685039432905022600_);" d="M2512.002,1029.576l-198.119-294.531
					c-8.968-13.332-23.775-6.329-39.024-6.951L1260.332,671.11c-16.196-0.661-30.379,6.985-37.25,20.094l-153.417,292.719
					c-3.47,6.621-4.893,14.234-4.125,22.057l204.063,2077.768c2.391,24.342,24.845,43.464,50.119,42.712l1357.735-40.426
					c23.306-0.694,40.318-20.169,38.026-43.5l-195.585-1991.443C2519.162,1043.594,2516.437,1036.168,2512.002,1029.576z
					 M1821.732,1167.343c-85.39-2.305-161.577-71.922-169.784-155.484c-8.207-83.562,54.734-148.813,140.198-145.757
					c85.037,3.041,160.258,72.627,168.391,155.44C1968.671,1104.354,1906.696,1169.636,1821.732,1167.343z"/>
			</g>
			<g>
				
					<linearGradient id="SVGID_00000101801319734754336980000010720674204850036640_" gradientUnits="userSpaceOnUse" x1="1587.7438" y1="774.2839" x2="794.0182" y2="4901.6675" gradientTransform="matrix(1 0 0.0982 1 361.6243 0)">
					<stop  offset="0" style="stop-color:#FFC444"/>
					<stop  offset="0.9964" style="stop-color:#F36F56"/>
				</linearGradient>
				<path style="fill:url(#SVGID_00000101801319734754336980000010720674204850036640_);" d="M2529.254,1029.576l-198.119-294.531
					c-8.968-13.332-23.849-21.911-39.099-22.533L1277.583,671.11c-16.196-0.661-30.379,6.985-37.25,20.094l-153.417,292.719
					c-3.47,6.621-4.893,14.234-4.125,22.057l204.063,2077.768c2.391,24.342,24.846,43.464,50.119,42.712l1357.735-40.426
					c23.306-0.694,40.318-20.169,38.026-43.5L2537.15,1051.091C2536.414,1043.594,2533.688,1036.168,2529.254,1029.576z
					 M1838.983,1167.343c-85.39-2.305-161.577-71.922-169.784-155.484c-8.207-83.562,54.734-148.813,140.198-145.757
					c85.037,3.041,160.258,72.627,168.391,155.44C1985.922,1104.354,1923.947,1169.636,1838.983,1167.343z"/>
			</g>
			
				<linearGradient id="SVGID_00000070802632386425745150000000454201112170345617_" gradientUnits="userSpaceOnUse" x1="1208.2123" y1="1016.7" x2="1515.8506" y2="1016.7" gradientTransform="matrix(1 0 0.0982 1 361.6243 0)">
				<stop  offset="0" style="stop-color:#AB316D"/>
				<stop  offset="1" style="stop-color:#792D3D"/>
			</linearGradient>
			<path style="fill:url(#SVGID_00000070802632386425745150000000454201112170345617_);" d="M1809.399,866.102
				c-85.464-3.056-148.405,62.196-140.198,145.757c8.207,83.562,84.394,153.179,169.784,155.484
				c84.964,2.293,146.939-62.989,138.806-145.801C1969.657,938.729,1894.436,869.142,1809.399,866.102z M1835.176,1128.559
				c-63.368-1.782-119.844-53.47-125.93-115.443c-6.087-61.973,40.554-110.426,103.963-108.23
				c63.175,2.188,119.118,53.859,125.164,115.419C1944.418,1081.865,1898.31,1130.334,1835.176,1128.559z"/>
			<g>
				
					<linearGradient id="SVGID_00000165218344485224891350000003175251567271984575_" gradientUnits="userSpaceOnUse" x1="1396.9469" y1="693.4757" x2="1226.0439" y2="1582.173" gradientTransform="matrix(1 0 0.0982 1 361.6243 0)">
					<stop  offset="0" style="stop-color:#FF9085"/>
					<stop  offset="1" style="stop-color:#FB6FBB"/>
				</linearGradient>
				<path style="fill:url(#SVGID_00000165218344485224891350000003175251567271984575_);" d="M1591.468,683.92l35.188,358.285
					c9.705,98.819,99.87,181.009,200.846,183.561l34.507,0.872c100.185,2.532,173.192-74.607,163.599-172.282l-34.781-354.137
					L1591.468,683.92z M1838.985,1167.343c-85.39-2.305-161.577-71.922-169.784-155.483
					c-8.207-83.562,54.734-148.813,140.198-145.757c85.037,3.041,160.258,72.627,168.391,155.44
					C1985.924,1104.354,1923.948,1169.636,1838.985,1167.343z"/>
			</g>
			<g>
				<path style="fill:#FFFFFF;" d="M1823.495,1534.561l33.331-0.876c20.344,0.332,39.351,2.058,57.027,5.178l-11.283-114.882
					l40.538,0.792l11.826,120.412c18.659,4.076,43.815,10.832,75.442,20.261c31.551,9.434,54.241,14.226,68.113,14.435
					c13.836,0.208,24.149-9.006,30.887-27.681l14.304,0.227l37.253,277.611l-21.427-0.165
					c-71.329-114.332-137.722-190.889-199.146-229.439l28.661,291.824c81.25,25.9,146.657,61.486,196.377,106.754
					c49.566,45.148,78.606,111.266,87.168,198.443c8.562,87.177-6.855,159.766-46.279,217.885
					c-39.551,58.273-97.901,94.547-175.214,108.729l9.043,92.081l-40.399,0.623l-8.636-87.935
					c-5.689,1.005-16.982,1.638-33.849,1.855c-16.91,0.218-35.648-0.964-56.252-3.548l8.938,91.011l-40.709,0.627l-9.369-95.391
					l-177.388-30.715c-15.704,0.183-27.601,14.19-35.682,42.01l-19.177,0.247l-45.963-332.513l23.639-0.076
					c73.555,128.547,156.657,217.018,249.119,265.523l-31.462-320.341c-80.55-26.495-144.07-63.386-190.391-110.625
					c-46.456-47.354-73.671-111.444-81.605-192.23c-7.932-80.764,6.831-148.623,44.215-203.477
					c37.294-54.695,93.376-88.558,168.074-101.603l-11.606-118.17l40.849,0.798L1823.495,1534.561z M1689.346,1700.65
					c5.892,59.988,47.006,105.53,123.097,136.503l-26.428-269.085c-32.202,9.002-57.171,25.25-74.853,48.729
					C1693.436,1640.323,1686.168,1668.29,1689.346,1700.65z M1854.78,1853.099c39.96,12.588,70.786,21.301,92.504,26.156
					l-29.531-300.68c-25.194-10.763-46.034-16.291-62.498-16.545c-16.502-0.255-26.148,0.084-28.967,0.973L1854.78,1853.099z
					 M1996.731,2500.61l11.564-0.139l-30.506-310.607c-22.072-8.455-52.513-18.32-91.388-29.607l-1.455,0.003l31.983,325.646
					C1944.085,2496.039,1970.682,2500.922,1996.731,2500.61z M2152.374,2354.578c-6.192-63.042-50.315-112.764-132.604-149.25
					l28.383,288.99c33.734-8.9,60.417-25.245,80.128-49.048C2147.945,2421.521,2155.979,2391.283,2152.374,2354.578z"/>
			</g>
			<g>
				
					<linearGradient id="SVGID_00000045581757281404670380000015995107454173526706_" gradientUnits="userSpaceOnUse" x1="1723.6735" y1="798.6324" x2="942.3465" y2="4861.5425" gradientTransform="matrix(1 0 0.0982 1 361.6243 0)">
					<stop  offset="0" style="stop-color:#FFC444"/>
					<stop  offset="0.9964" style="stop-color:#F36F56"/>
				</linearGradient>
				<path style="opacity:0.35;fill:url(#SVGID_00000045581757281404670380000015995107454173526706_);" d="M2529.253,1029.576
					l-198.119-294.531c-8.968-13.332-23.849-21.911-39.099-22.533l-846.065-34.529c-122.119,287.884-88.841,485.74-32.338,615.739
					c197.656,454.738,834.114,454.753,967.918,893.006c86.493,283.296-131.322,434.578-9.164,799.133
					c12.81,38.23,27.916,74.361,44.632,108.441l277.689-8.268c23.306-0.694,40.318-20.169,38.026-43.5l-195.585-1991.443
					C2536.413,1043.594,2533.687,1036.168,2529.253,1029.576z M1838.982,1167.343c-85.39-2.305-161.577-71.922-169.783-155.484
					c-8.207-83.562,54.734-148.813,140.198-145.757c85.037,3.041,160.258,72.627,168.391,155.44
					C1985.921,1104.354,1923.946,1169.636,1838.982,1167.343z"/>
			</g>
		</g>
		<path style="fill:#BFBFBF;" d="M2021.294,795.734c-2.202-27.728-6.961-55.271-14.455-82.119
			c-7.559-26.806-17.679-53.043-31.343-77.505c-13.54-24.492-30.385-47.304-50.019-67.278
			c-19.608-19.996-41.766-37.302-65.48-51.829c-23.763-14.466-49.002-26.278-75.042-35.644
			c-52.091-18.702-107.446-27.947-162.865-26.137c-13.843,0.767-27.712,1.723-41.449,4.236
			c-13.725,2.399-27.422,5.495-40.676,10.457c-13.237,4.876-26.216,11.133-37.824,19.977c-11.552,8.717-21.664,20.74-26.896,34.864
			c-5.364,14.025-6.358,28.973-5.128,43.136c1.253,14.233,4.614,27.935,8.89,41.164c7.721,23.748,18.51,46.005,30.347,67.524
			l14.534,0.593c-12.745-23.253-24.378-47.207-32.153-72.162c-3.912-12.581-6.864-25.424-7.832-38.229
			c-0.969-12.766,0.184-25.545,4.675-36.844c4.37-11.32,12.425-20.802,22.503-28.277c10.065-7.493,21.812-13.055,34.018-17.383
			c24.563-8.604,51.123-11.94,77.526-12.862c26.497-0.578,53.107,1.591,79.303,6.083c26.184,4.591,51.938,11.611,76.806,20.859
			c24.856,9.268,48.828,20.844,71.226,34.838c22.348,14.051,43.029,30.633,61.159,49.562c18.149,18.908,33.543,40.27,45.973,63.365
			c12.531,23.044,21.777,47.865,28.623,73.278c6.784,25.452,11.001,51.628,12.785,77.966c1.653,26.349,0.933,52.849-2.195,78.993
			c-0.788,6.532-1.833,13.029-2.871,19.515c-1.292,6.433-2.313,12.934-3.942,19.274c-2.788,12.813-6.693,25.282-11.03,37.497
			c-4.439,12.184-9.894,23.865-16.168,34.862c-6.26,11.002-13.818,21.042-22.469,29.198c-8.693,8.13-18.416,14.173-28.977,16.401
			l-4.02,0.776c-1.351,0.221-2.76,0.238-4.134,0.383c-2.729,0.391-5.62,0.066-8.434,0.119c-5.73-0.518-11.539-1.264-17.364-2.965
			c-11.66-3.046-23.22-8.226-34.383-14.404c-11.183-6.179-22.024-13.374-32.554-21.134l-0.098-0.072
			c-0.024-0.017-0.047-0.034-0.071-0.051c-0.965-0.695-2.001-1.197-3.061-1.61c-0.477,6.147-0.436,12.478,0.2,18.963
			c0.531,5.409,1.481,10.728,2.751,15.953c6.439,4.147,13.043,8.111,19.883,11.788c12.619,6.771,26.025,12.697,40.661,16.37
			c7.234,1.987,14.932,3.005,22.698,3.542c3.957-0.038,7.866,0.242,11.874-0.288c1.991-0.215,3.984-0.318,5.971-0.656l5.952-1.206
			c1.996-0.33,3.92-1.043,5.863-1.653c1.912-0.679,3.925-1.155,5.742-2.034l5.484-2.577c1.816-0.877,3.686-1.689,5.29-2.826
			c6.821-4.092,12.955-8.918,18.438-14.193c10.946-10.586,19.617-22.656,26.634-35.258c7.019-12.616,12.878-25.668,17.572-39.012
			c4.584-13.365,8.612-26.88,11.441-40.598c1.654-6.819,2.675-13.734,3.961-20.606c1.028-6.904,2.052-13.814,2.807-20.744
			C2022.94,851.394,2023.361,823.475,2021.294,795.734z"/>
		<g>
			<path style="fill:#26264F;" d="M2437.426,1248.938c-24.022-14.491-47.912,4.652-65.499-12.626
				c-21.973-21.59-14.833-81.09,17.216-110.763c23.205-21.485,45.29-14.208,126.072-29.506c27.862-5.276,65.83-12.469,88.519-21.459
				c99.035-39.245,75.182-179.463,152.896-246.779c89.609-77.622,308.653-53.464,418.452,83.154
				c125.697,156.401,52.86,391.303-69.742,493.559c-77.231,64.414-179.347,65.293-383.581,67.06
				c-203.665,1.761-237.313-42.976-246.779-59.012C2442.278,1357.161,2479.979,1274.61,2437.426,1248.938z"/>
			
				<linearGradient id="SVGID_00000144313570402006993750000015118836810950682265_" gradientUnits="userSpaceOnUse" x1="2131.031" y1="1446.1134" x2="2401.9524" y2="1703.6227">
				<stop  offset="0" style="stop-color:#AA80F9"/>
				<stop  offset="0.9964" style="stop-color:#6165D7"/>
			</linearGradient>
			<path style="fill:url(#SVGID_00000144313570402006993750000015118836810950682265_);" d="M2193.329,1817.603
				c-27.441-37.192-32.724-88.288-21.459-128.754c19.038-68.379,73.543-64.026,101.93-142.166
				c18.364-50.546,3.044-72.975,29.506-109.978c19.468-27.222,59.513-59.489,87.893-51.961
				c84.912,22.528,123.173,416.65-12.786,483.825C2324.013,1895.445,2234.578,1873.509,2193.329,1817.603z"/>
			
				<linearGradient id="SVGID_00000158743499579830932590000017081716494342031022_" gradientUnits="userSpaceOnUse" x1="2911.844" y1="3257.0718" x2="2338.6775" y2="2356.3816" gradientTransform="matrix(0.9873 -0.1586 0.1586 0.9873 -230.7199 205.6246)">
				<stop  offset="0" style="stop-color:#40447E"/>
				<stop  offset="0.9964" style="stop-color:#1C2C5A"/>
			</linearGradient>
			<path style="fill:url(#SVGID_00000158743499579830932590000017081716494342031022_);" d="M2511.67,1920.504
				c-86.704,26.155-100.289,194.209-108.649,297.63c-9.414,116.446-19.902,246.173,54.574,362.374
				c93.676,146.163,287.681,217.727,493.788,197.214c-2.137-13.301-4.274-26.603-6.411-39.905
				c-211.532-80.741-269.301-171.474-283.875-238.212c-30.993-141.928,120.762-233.065,81.563-386.973
				C2713.122,1996.655,2588.443,1897.343,2511.67,1920.504z"/>
			<g>
				
					<linearGradient id="SVGID_00000181081359642569079100000002356842678225666224_" gradientUnits="userSpaceOnUse" x1="2142.0796" y1="2481.7456" x2="2287.5774" y2="2974.8206" gradientTransform="matrix(0.9832 -0.1825 0.1825 0.9832 -66.6194 160.6767)">
					<stop  offset="0" style="stop-color:#40447E"/>
					<stop  offset="0.9964" style="stop-color:#3C3B6B"/>
				</linearGradient>
				<path style="fill:url(#SVGID_00000181081359642569079100000002356842678225666224_);" d="M2813.259,2032.229
					c-47.048-69.364-92.908-139.531-138.883-209.609c-9.032-13.768-14.269-29.743-16.787-46.515
					c-18.255,14.49-35.739,31.834-51.852,52.128c-43.632,161.414-84.795,376.354-89.255,632.645
					c-2.783,159.936,33.362,643.577,50.814,765.115c6.394,1.312,8.714-15.331,15.257-14.083
					c7.983,1.521,10.005,16.017,17.799,17.366c23.219-245.466,49.851-467.013,63.29-580.866
					c4.56-38.631,18.018-154.515,80.063-247.858c0.999-1.503,92.807-127.047,124.486-177.206
					c10.546-16.699,23.74-38.362,38.736-67.331C2871.356,2118.635,2842.851,2075.856,2813.259,2032.229z"/>
				
					<linearGradient id="SVGID_00000018223308970109310450000005186550634257771401_" gradientUnits="userSpaceOnUse" x1="2034.2904" y1="3271.5803" x2="2024.6829" y2="3746.0603" gradientTransform="matrix(0.9832 -0.1825 0.1825 0.9832 -66.6194 160.6767)">
					<stop  offset="0" style="stop-color:#AB316D"/>
					<stop  offset="1" style="stop-color:#792D3D"/>
				</linearGradient>
				<path style="fill:url(#SVGID_00000018223308970109310450000005186550634257771401_);" d="M2602.044,3096.213
					c-3.599-8.305-23.419,12.566-41.884,34.608c2.379,31.725,4.757,63.449,7.136,95.174c-6.556-4.168-14.822-8.722-24.146-10.875
					c-11.206-2.583-30.573,1.451-32.061,6.807c-9.183,33.062,73.261,40.28,82.296,29.893c9.034-10.388,6.969-22.544,6.969-22.544
					c-8.368-47.64-7.261-79.906-3.294-102.185C2599.848,3111.443,2604.032,3100.796,2602.044,3096.213z"/>
				
					<linearGradient id="SVGID_00000111183836745933774800000004933663633393530553_" gradientUnits="userSpaceOnUse" x1="2084.4294" y1="3271.9001" x2="2074.7598" y2="3749.4514" gradientTransform="matrix(0.9832 -0.1825 0.1825 0.9832 -66.6194 160.6767)">
					<stop  offset="0" style="stop-color:#AB316D"/>
					<stop  offset="1" style="stop-color:#792D3D"/>
				</linearGradient>
				<path style="fill:url(#SVGID_00000111183836745933774800000004933663633393530553_);" d="M2567.297,3225.995
					c6.395,1.312,8.714-15.331,15.257-14.083c7.983,1.521,10.005,16.017,17.8,17.366c8.486-89.727,17.428-176.223,26.017-255.466
					c-27.773-3.255-55.982-4.084-83.81-4.405C2551.402,3082.027,2560.689,3179.975,2567.297,3225.995z"/>
				
					<linearGradient id="SVGID_00000045595974165872138470000005658402178779697291_" gradientUnits="userSpaceOnUse" x1="2597.5979" y1="2126.5059" x2="2746.5515" y2="2631.2927">
					<stop  offset="0" style="stop-color:#40447E"/>
					<stop  offset="0.9964" style="stop-color:#3C3B6B"/>
				</linearGradient>
				<path style="opacity:0.25;fill:url(#SVGID_00000045595974165872138470000005658402178779697291_);" d="M2813.259,2032.229
					c-47.047-69.364-92.909-139.53-138.883-209.61c-9.031-13.769-14.269-29.742-16.787-46.515
					c-18.255,14.491-35.739,31.836-51.852,52.13c-32.078,118.672-62.766,266.37-78.569,438.068
					c48.05-2.783,93.864,25.479,107.366,59.232c27.919,69.802-60.137,124.453-59.242,270.82
					c0.489,80.179,29.159,100.306,16.107,173.902c-3.369,18.999-12.92,60.736-8.702,118.074c1.852,25.18,3.883,19.7,5.426,42.451
					c4.394,64.823-11.068,124.413-4.368,164.894c2.407,14.55,7.358,24.695,9.281,28.391c5.157,9.914,11.205,17.017,15.457,21.425
					c21.043-211.307,43.258-396.352,55.15-497.082c4.56-38.63,18.018-154.514,80.063-247.858
					c0.999-1.503,92.807-127.048,124.486-177.207c10.546-16.698,23.74-38.361,38.736-67.33
					C2871.356,2118.635,2842.85,2075.854,2813.259,2032.229z"/>
			</g>
			<path style="fill:#F4F7FA;" d="M2276.906,1705.804l6.343-13.087c0,0,15.29-20.528,21.492-34.355
				c6.205-13.826,4.844-25.071-7.92-33.776c-12.766-8.706-24.957,5.8-35.659,18.246c-6.511,7.572-7.213,23.465-6.634,36.334
				c0.408,9.049-6.001,27.094-6.001,27.094L2276.906,1705.804z"/>
			
				<linearGradient id="SVGID_00000081608793107011389500000002550678311897315228_" gradientUnits="userSpaceOnUse" x1="2603.2056" y1="1670.941" x2="3468.6279" y2="2219.3267" gradientTransform="matrix(0.9995 -0.0302 0.0302 0.9995 -235.3357 118.8563)">
				<stop  offset="0" style="stop-color:#AA80F9"/>
				<stop  offset="0.9964" style="stop-color:#6165D7"/>
			</linearGradient>
			<path style="fill:url(#SVGID_00000081608793107011389500000002550678311897315228_);" d="M2326.417,1425.691
				c-29.576,54.234-26.208,108.245-22.97,131.884c10.076,73.539,54.363,123.15,65.226,136.406
				c51.318,62.623,80.494,206.753-11.62,561.673c21.134,9.307,110.159,97.591,123.454,39.156
				c18.128-79.669,50.935-612.988,49.985,8.116c-0.012,8.185,16.451,1.804,24.958,2.464c60.999,4.726,131.457,0.679,206.353-21.872
				c117.384-35.343,195.669-101.083,235.745-140.396c-53.754-65.772-116.641-157.623-166.491-276.715
				c-95.098-227.189-92.407-433.239-81.933-546.943c-43.586-14.679-179.678-54.354-309.166,8.35
				C2407.694,1343.437,2357.572,1368.568,2326.417,1425.691z"/>
			<g>
				
					<linearGradient id="SVGID_00000178183122350682950530000005412354923810329732_" gradientUnits="userSpaceOnUse" x1="2509.1758" y1="1537.95" x2="2426.7751" y2="1635.2097">
					<stop  offset="0" style="stop-color:#FFC444"/>
					<stop  offset="0.9964" style="stop-color:#F36F56"/>
				</linearGradient>
				<path style="fill:url(#SVGID_00000178183122350682950530000005412354923810329732_);" d="M2236.248,1613.072l149.196,180.152
					c2.633,3.379,6.677,5.355,10.96,5.355h106.028c10.953,0,17.597-12.083,11.733-21.332l-113.553-179.055
					c-2.599-4.098-9.121-12.95-18.51-12.95l-128.084,3.353C2242.58,1588.816,2229.217,1604.046,2236.248,1613.072z"/>
				
					<linearGradient id="SVGID_00000048474783037002645130000008022926863635547042_" gradientUnits="userSpaceOnUse" x1="2233.2712" y1="1695.1593" x2="2685.8396" y2="1695.1593">
					<stop  offset="0" style="stop-color:#FF9085"/>
					<stop  offset="1" style="stop-color:#FB6FBB"/>
				</linearGradient>
				<path style="fill:url(#SVGID_00000048474783037002645130000008022926863635547042_);" d="M2236.228,1616.682l137.51,176.542
					c2.633,3.379,6.677,5.355,10.96,5.355h106.028c10.953,0,17.598-12.083,11.732-21.332l-113.552-179.055
					c-2.599-4.098-7.148-6.543-12-6.449l-129.987,2.513C2235.48,1594.476,2229.197,1607.656,2236.228,1616.682z"/>
			</g>
			<path style="fill:#FFFFFF;" d="M2526.481,1726.08l-13.136-6.238c0,0-20.652-15.121-34.529-21.213
				c-13.875-6.092-25.109-4.641-33.711,8.195c-8.602,12.836,6.003,24.909,18.535,35.509c7.625,6.448,23.522,7.024,36.387,6.339
				c9.044-0.481,27.141,5.782,27.141,5.782L2526.481,1726.08z"/>
			
				<linearGradient id="SVGID_00000079486189827247967050000015039988954076337855_" gradientUnits="userSpaceOnUse" x1="2488.1819" y1="2849.0354" x2="2849.251" y2="3189.8958" gradientTransform="matrix(0.9873 -0.1586 0.1586 0.9873 -230.7199 205.6246)">
				<stop  offset="0" style="stop-color:#AB316D"/>
				<stop  offset="1" style="stop-color:#792D3D"/>
			</linearGradient>
			<path style="fill:url(#SVGID_00000079486189827247967050000015039988954076337855_);" d="M2944.972,2737.816
				c-51.645-19.713-94.068-40.022-128.992-60.432c-9.92,31.267-14.467,65.183-13.865,98.914
				c48.132,5.916,98.326,6.494,149.268,1.423C2949.245,2764.42,2947.109,2751.119,2944.972,2737.816z"/>
			
				<linearGradient id="SVGID_00000158741504876452170910000007147213407138927249_" gradientUnits="userSpaceOnUse" x1="2505.1038" y1="2831.1038" x2="2866.1775" y2="3171.9683" gradientTransform="matrix(0.9873 -0.1586 0.1586 0.9873 -230.7199 205.6246)">
				<stop  offset="0" style="stop-color:#AB316D"/>
				<stop  offset="1" style="stop-color:#792D3D"/>
			</linearGradient>
			<path style="fill:url(#SVGID_00000158741504876452170910000007147213407138927249_);" d="M2940.348,2745.837l4.623-8.02
				c0,0,8.299-4.972,12.225,5.314c3.926,10.284,26.202,64.015,27.388,88.386c-5.843,14.583-22.383,2.231-25.794-7.682
				c-3.412-9.913-15.23-46.676-15.23-46.676L2940.348,2745.837z"/>
			
				<linearGradient id="SVGID_00000163037337217589448390000000421953087229867157_" gradientUnits="userSpaceOnUse" x1="2667.6516" y1="1557.1705" x2="3540.8389" y2="2110.4766" gradientTransform="matrix(0.9995 -0.0302 0.0302 0.9995 -235.3357 118.8563)">
				<stop  offset="0" style="stop-color:#AA80F9"/>
				<stop  offset="0.9964" style="stop-color:#6165D7"/>
			</linearGradient>
			<path style="opacity:0.3;fill:url(#SVGID_00000163037337217589448390000000421953087229867157_);" d="M2831.056,1866.405
				c-73.449-175.471-88.49-338.121-86.74-455.564c-40.339,19.756-91.668,53.092-101.668,104.528
				c-13.197,67.888,56.315,112.131,36.192,160.068c-24.858,59.216-146.827,29.543-172.369,89.682
				c-14.116,33.237,10.375,72.366,51.662,138.321c36.527,58.353,67.294,110.679,128.754,142.166
				c88.539,45.359,139.145,19.389,190.449,64.377c27.931,24.492,42.489,58.122,49.766,92.144
				c30.168-21.517,53.693-42.573,70.444-59.007C2943.793,2077.349,2880.907,1985.498,2831.056,1866.405z"/>
			<g>
				<path style="fill:#F4F7FA;" d="M2501.643,1210.812c-0.041,11.459,0.4,72.818,27.664,82.891
					c5.96,2.203,10.747,0.798,37.181,1.488c15.07,0.393,27.331,1.199,35.227,1.806c-1.34,10.455-3.973,24.476-9.576,40.243
					c-33.925,95.458-143.733,161.779-180.933,137.891c-19.373-12.441-20.868-49.759-21.487-65.244
					c-0.931-23.26,4.677-41.685,8.771-52.234c13.618-9.893,27.552-19.811,41.803-29.729c9.309-6.481,18.569-12.834,27.773-19.061
					c-0.621-11.741-1.244-23.482-1.865-35.223C2478.015,1252.698,2489.828,1231.754,2501.643,1210.812z"/>
				<path style="fill:#FFFFFF;" d="M2513.54,1233.441c0,0,0.131,50.496-40.188,66.921c-36.101,14.707-83.449-70.044-69.18-97.548
					c4.761-9.176,19.01-19.949,32.808-22.442c9.701-1.752,49.968-1.992,61.375,29.647c3.395-10.002,10.15-16.487,17.129-16.56
					c1.114-0.013,4.311,0.456,6.865,2.278C2531.592,1202.327,2528.963,1217.747,2513.54,1233.441z"/>
			</g>
			
				<linearGradient id="SVGID_00000000189831013973474850000009186189729863681163_" gradientUnits="userSpaceOnUse" x1="2649.0186" y1="1554.7649" x2="3083.012" y2="1829.7701">
				<stop  offset="0" style="stop-color:#AA80F9"/>
				<stop  offset="0.9964" style="stop-color:#6165D7"/>
			</linearGradient>
			<path style="fill:url(#SVGID_00000000189831013973474850000009186189729863681163_);" d="M2662.747,1324.045
				c36.874-9.189,37.062-21.181,86.377-4.579c141.614,47.67,291.528,261.386,214.05,412.302
				c-43.093,83.939-146.351,159.628-260.191,142.166c-92.672-14.213-147.104-83.217-160.943-101.931
				c-5.365-21.459-10.729-42.918-16.094-64.377c60.393,34.237,102.929,34.226,131.437,26.824
				c48.524-12.6,59.3-47.371,139.484-77.789c31.238-11.851,50.006-14.313,50.965-24.141c1.984-20.322-76.556-27.102-126.072-69.742
				C2685.662,1531.693,2649.651,1468.338,2662.747,1324.045z"/>
			
				<linearGradient id="SVGID_00000091737036937104229310000015067665438595561893_" gradientUnits="userSpaceOnUse" x1="2317.2451" y1="1703.4581" x2="2203.2441" y2="1948.8954">
				<stop  offset="0" style="stop-color:#AA80F9"/>
				<stop  offset="0.9964" style="stop-color:#6165D7"/>
			</linearGradient>
			<path style="fill:url(#SVGID_00000091737036937104229310000015067665438595561893_);" d="M2242.954,1694.214
				c14.305,2.237,28.612,4.469,42.918,6.706c5.308,3.609,69.066,48.388,63.036,112.66c-0.785,8.361-3.75,39.974-25.483,52.306
				c-33.536,19.033-101.569-13.616-116.684-67.06C2196.611,1763.007,2211.542,1722.405,2242.954,1694.214z"/>
			<path style="fill:#26264F;" d="M3119.644,1375.01c-2.127,0-4.144-1.278-4.982-3.374c-1.1-2.756,0.241-5.878,2.991-6.978
				c116.636-46.554,140.914-248.099,141.15-250.132c0.33-2.934,2.913-5.03,5.936-4.726c2.944,0.335,5.056,2.997,4.72,5.941
				c-0.058,0.524-6.193,52.851-27.17,110.376c-28.018,76.836-69.737,128.189-120.655,148.516
				C3120.98,1374.884,3120.309,1375.01,3119.644,1375.01z"/>
			<path style="fill:#26264F;" d="M2436.752,1149.679c-0.561,0-1.121-0.084-1.682-0.272c-2.803-0.922-4.333-3.929-3.421-6.748
				c0.461-1.404,11.783-34.703,56.938-46.03c6.544-1.635,13.538-3.196,20.699-4.788c37.716-8.403,80.466-17.928,81.294-45.601
				c0.094-2.965,2.625-5.019,5.527-5.208c2.96,0.094,5.286,2.567,5.202,5.522c-1.084,36.024-48.157,46.502-89.692,55.754
				c-7.062,1.572-13.962,3.112-20.422,4.736c-39.162,9.818-48.953,37.773-49.352,38.968
				C2441.095,1148.254,2438.994,1149.679,2436.752,1149.679z"/>
		</g>
	</g>
</g>
</svg>
