<?xml version="1.0" encoding="utf-8"?>
<!-- Generator: Adobe Illustrator 27.5.0, SVG Export Plug-In . SVG Version: 6.00 Build 0)  -->
<svg version="1.1" xmlns="http://www.w3.org/2000/svg" xmlns:xlink="http://www.w3.org/1999/xlink" x="0px" y="0px"
	 viewBox="0 0 3710 3710" style="enable-background:new 0 0 3710 3710;" xml:space="preserve">
<g id="Background">
	<g>
		<g>
			<rect style="fill:#FFFFFF;" width="3710" height="3710"/>
		</g>
	</g>
</g>
<g id="Illustration">
	<g>
		<path style="fill:#F4F7FA;" d="M1894.371,455.639C1159.404,433.937,522.767,967.226,426.582,1666.969
			c-105.164,765.073,469.691,1483.044,1185.848,1563.71c1585.307,178.564,1745.093-656.223,1667.942-1516.902
			C3222.247,1065.33,2641.479,477.701,1894.371,455.639z"/>
		<g>
			<g>
				<defs>
					<path id="SVGID_1_" d="M1879.658,2820.292c178.95,21.465,409.977,23.279,639.83-50.896
						c58.659-18.93,421.026-135.868,398.069-297.483c-8.087-56.929-57.156-71.323-69.298-147.249
						c-14.387-89.965,45.297-127.341,95.547-231.752c29.984-62.302,117.733-244.63,15.895-362.594
						c-60.856-70.491-186.658-114.811-287.568-102.978c-148.013,17.356-213.466,152.116-320.27,382.048
						c-94.677,203.827-82.387,257.878-153.125,403.462C2146.238,2520.897,2053.827,2667.381,1879.658,2820.292z"/>
				</defs>
				
					<linearGradient id="SVGID_00000164476842597759135920000010070999743116794298_" gradientUnits="userSpaceOnUse" x1="2791.6064" y1="1609.6796" x2="2374.2327" y2="2730.0002">
					<stop  offset="0" style="stop-color:#FFC444"/>
					<stop  offset="0.9964" style="stop-color:#F36F56"/>
				</linearGradient>
				
					<use xlink:href="#SVGID_1_"  style="overflow:visible;fill:url(#SVGID_00000164476842597759135920000010070999743116794298_);"/>
				<clipPath id="SVGID_00000064335461068977845610000014680244971421185727_">
					<use xlink:href="#SVGID_1_"  style="overflow:visible;"/>
				</clipPath>
				<g style="opacity:0.5;clip-path:url(#SVGID_00000064335461068977845610000014680244971421185727_);">
					<g>
						<path style="fill:#FFFFFF;" d="M1854.05,2827.414c-58.105,18.355-117.628,31.353-178.51,38.949
							c-186.515,23.269-378.166-2.903-569.633-77.79l3.36-8.589c190.021,74.322,380.157,100.304,565.129,77.227
							c661.857-82.568,978.544-787.865,1059.833-1002.06c46.097-121.471,55.593-260.683,28.218-413.769l9.079-1.624
							c27.673,154.753,18.025,295.613-28.674,418.665c-66.947,176.402-189.831,432.016-395.069,647.992
							C2198.657,2663.34,2033.168,2770.829,1854.05,2827.414z"/>
					</g>
					<g>
						<path style="fill:#FFFFFF;" d="M2572.502,2203.433l-2.228-3.496c-1.732-2.715-172.004-274.615-68.363-541.473l8.597,3.339
							c-95.602,246.157,45.93,497.058,65.384,529.637c406.513-203.82,434.64-485.958,433.537-567.772
							c-0.03-2.27-0.016-3.692,0.046-4.205l9.165,1.032c-0.032,0.475-0.01,1.503,0.011,3.049
							c1.125,83.43-27.46,371.684-442.437,578.044L2572.502,2203.433z"/>
					</g>
					<g>
						<path style="fill:#FFFFFF;" d="M2781.023,2508.25c-96.628,30.525-240.52,47.11-434.358-4.162l-2.383-0.63l-0.798-2.333
							c-0.792-2.304-78.339-233.82-22.063-530.252l56.704-298.661l9.063,1.72l-56.703,298.661
							c-52.793,278.073,13.054,498.348,20.967,523.216c227.282,59.577,384.495,24.875,476.481-14.821
							c99.676-43.024,145.927-100.725,146.382-101.302l7.244,5.709c-1.921,2.434-48.17,60.118-149.972,104.06
							C2816.476,2495.98,2799.619,2502.375,2781.023,2508.25z"/>
					</g>
				</g>
			</g>
		</g>
		<g>
			<g>
				<g style="opacity:0.3;">
					<defs>
						<path id="SVGID_00000034083951297292890650000012413898410167897747_" style="opacity:0.3;" d="M2115.19,2742.711
							c-85.78-100.01-196.002-259.275-230.674-471.305c-45.471-278.074,78.954-402.583,116.241-860.958
							c23.576-289.827,37.109-492.328-96.864-615.98c-104.989-96.9-287.993-133.777-408.674-67.641
							c-100.342,54.99-169.347,187.638-196.552,284.716c-22.172,79.119-17.749,138.795-68.808,176.196
							c-52.181,38.222-100.756,8.097-148.632,35.405c-97.091,55.379-68.416,276.87-63.781,312.666
							c51.553,398.201,380.654,698.734,525.789,828.098C1663.236,2470.869,1851.035,2616.432,2115.19,2742.711z"/>
					</defs>
					
						<linearGradient id="SVGID_00000054268282539023125580000013357247883333200518_" gradientUnits="userSpaceOnUse" x1="2091.9221" y1="512.5875" x2="1140.8628" y2="3265.6545">
						<stop  offset="0" style="stop-color:#FF9085"/>
						<stop  offset="1" style="stop-color:#FB6FBB"/>
					</linearGradient>
					
						<use xlink:href="#SVGID_00000034083951297292890650000012413898410167897747_"  style="overflow:visible;fill:url(#SVGID_00000054268282539023125580000013357247883333200518_);"/>
					<clipPath id="SVGID_00000053537057863057063020000004256129335363288762_">
						<use xlink:href="#SVGID_00000034083951297292890650000012413898410167897747_"  style="overflow:visible;"/>
					</clipPath>
					<g style="clip-path:url(#SVGID_00000053537057863057063020000004256129335363288762_);">
						<path style="fill:#FFFFFF;" d="M2215.349,2828.639c-159.888-81.488-295.232-172.695-402.284-271.089
							c-158.675-145.852-250.256-303.63-272.192-468.956c-17.142-129.217,9.052-264.104,42.212-434.877
							c27.485-141.541,59.697-239.254,88.109-325.463c36.715-111.378,65.71-199.35,66.522-330.847
							c0.823-133.648-28.511-269.853-87.193-404.826l12.223-5.312c59.427,136.686,89.129,274.704,88.296,410.221
							c-0.822,133.594-30.109,222.444-67.188,334.935c-28.292,85.834-60.363,183.12-87.682,323.821
							c-34.221,176.222-58.948,303.535-42.087,430.597c21.515,162.146,111.685,317.214,268.002,460.896
							c106.157,97.575,240.506,188.089,399.312,269.026L2215.349,2828.639z"/>
						<path style="fill:#FFFFFF;" d="M1607.228,1559.385l-1.359-7.405c-48.729-265.753-168.915-441.744-261.162-542.583
							c-99.79-109.093-188.893-155.894-189.784-156.354l6.132-11.835c0.906,0.471,92.112,48.372,193.485,159.193
							c92.539,101.163,212.834,276.919,263.015,541.544c24.341-8.858,107.531-42.391,194.974-114.903
							c95.371-79.09,215.53-222.167,246.363-454.643l13.212,1.752c-31.436,237.012-154.121,382.879-251.506,463.512
							c-105.522,87.366-205.192,119.164-206.186,119.475L1607.228,1559.385z"/>
						<path style="fill:#FFFFFF;" d="M1546.885,1941.824l-4.471-1.858c-122.195-50.755-249.476-211.188-378.307-476.84
							c-95.621-197.163-156.432-381.962-157.036-383.805l12.67-4.144c2.384,7.29,240.569,726.692,523.381,850.604
							c19.005-21.705,119.727-134.58,241.048-230.242c56.959-44.91,146.177-78.309,265.186-99.274
							c88.291-15.553,161.012-18.046,161.736-18.07l0.427,13.318c-2.853,0.092-287.164,10.459-419.093,114.489
							c-133.179,105.007-241.313,230.881-242.391,232.14L1546.885,1941.824z"/>
						<path style="fill:#FFFFFF;" d="M1777.22,2519.448l-12.941-2.984c-1.385-0.32-140.961-33.012-318.615-117.453
							c-164.027-77.962-395.168-217.295-564.801-438.333l-326.835-425.86l10.567-8.113l326.835,425.86
							c167.946,218.829,397.032,356.936,559.637,434.259c145.495,69.187,265.149,103.383,303.395,113.422
							c-55.121-137.102-26.252-276.397,83.924-403.656c85.178-98.386,190.169-155.778,191.22-156.347l6.34,11.722
							c-1.031,0.558-104.147,56.975-187.717,153.617c-111.263,128.668-136.953,263.822-76.35,401.708L1777.22,2519.448z"/>
					</g>
				</g>
			</g>
			<g>
				<g style="opacity:0.3;">
					<defs>
						<path id="SVGID_00000114041175078012860370000009067444243778800036_" style="opacity:0.3;" d="M1816.489,2189.684
							c-181.109,45.121-418.264,76.763-664.005,30.172c-62.713-11.891-450.129-85.342-447.371-254.364
							c0.972-59.539,49.536-80.654,52.226-160.234c3.187-94.297-62.957-125.008-128.048-225.817
							c-38.839-60.153-152.505-236.189-63.069-370.527c53.445-80.276,176.999-142.03,282.212-142.878
							c154.325-1.244,238.949,128.789,378.329,351.285c123.556,197.235,117.894,254.358,209.344,394.832
							C1503.98,1916.407,1617.817,2055.012,1816.489,2189.684z"/>
					</defs>
					<use xlink:href="#SVGID_00000114041175078012860370000009067444243778800036_"  style="overflow:visible;fill:#C1CAD4;"/>
					<clipPath id="SVGID_00000063621499243272147720000000920660742801631119_">
						<use xlink:href="#SVGID_00000114041175078012860370000009067444243778800036_"  style="overflow:visible;"/>
					</clipPath>
					<g style="clip-path:url(#SVGID_00000063621499243272147720000000920660742801631119_);">
						<path style="fill:#FFFFFF;" d="M2031.461,2214.144c-259.977,0.01-508.455-95.536-738.614-283.988
							c-239.169-195.829-398.653-443.049-490.322-615.956c-64.143-120.98-92.343-265.075-83.823-428.281l16.396,0.857
							c-8.371,160.197,19.196,301.419,81.924,419.737c90.97,171.575,249.164,416.844,486.22,610.944
							c227.138,185.978,472.147,280.273,728.225,280.275c0.233,0,0.46,0,0.693,0c192.46-0.128,383.935-51.195,569.099-151.779
							l7.833,14.422c-187.594,101.904-381.697,153.639-576.921,153.77C2031.951,2214.144,2031.688,2214.144,2031.461,2214.144z"/>
						<path style="fill:#FFFFFF;" d="M1026.839,1649.403l-6.962-2.438c-454.909-159.221-521.752-453.42-531.4-539.795
							c-0.155-1.412-0.257-2.388-0.346-2.899l15.99-3.688c0.143,0.575,0.382,2.182,0.669,4.765
							c9.332,83.518,73.953,367.007,513.369,523.604c19.512-45.603,123.898-313.202-2.227-546.706l14.437-7.801
							c141.715,262.36,1.069,565.265-0.364,568.294L1026.839,1649.403z"/>
						<path style="fill:#FFFFFF;" d="M964.117,1998.714c-68.729,0-125.361-10.201-169.36-22.983
							c-111.091-32.269-166.655-86.168-168.966-88.446l11.518-11.694c0.543,0.533,55.57,53.689,163.048,84.675
							c98.708,28.455,263.004,43.471,486.495-45.669c6.054-33.866,41.914-264.206-46.13-536.787l-96.756-299.574l15.62-5.045
							l96.755,299.573c96.314,298.193,46.291,546.97,45.778,549.448l-0.896,4.294l-4.072,1.642
							C1166.113,1981.002,1054.633,1998.714,964.117,1998.714z"/>
					</g>
				</g>
			</g>
		</g>
		<g>
			<g>
				<g>
					
						<linearGradient id="SVGID_00000119822815228122533840000000501379742229456279_" gradientUnits="userSpaceOnUse" x1="1654.3368" y1="2960.2454" x2="1459.1862" y2="3042.2085">
						<stop  offset="0" style="stop-color:#40447E"/>
						<stop  offset="0.9964" style="stop-color:#3C3B6B"/>
					</linearGradient>
					<path style="fill:url(#SVGID_00000119822815228122533840000000501379742229456279_);" d="M3258.937,2853.459l-2778.03-24.195
						v71.588c0,19.43,12.117,35.952,28.527,38.896l785.544,140.97c9.323,1.673,18.777,2.117,28.184,1.323l1905.586-160.729
						c17.012-1.435,30.189-18.008,30.189-37.971V2853.459z"/>
					
						<linearGradient id="SVGID_00000152974643448330212340000015879768502604481170_" gradientUnits="userSpaceOnUse" x1="1393.7511" y1="2100.1511" x2="1181.9624" y2="2189.1023">
						<stop  offset="0" style="stop-color:#40447E"/>
						<stop  offset="0.9964" style="stop-color:#3C3B6B"/>
					</linearGradient>
					<path style="fill:url(#SVGID_00000152974643448330212340000015879768502604481170_);" d="M2364.654,2737.411L511.483,2868.373
						c-33.161,2.343-60.124-22.558-60.124-55.625V1487.95c0-33.067,26.963-59.874,60.124-59.874h1853.171
						c27.32,0,49.409,24.232,49.409,54.125v1197.593C2414.063,2709.686,2391.974,2735.479,2364.654,2737.411z"/>
					
						<linearGradient id="SVGID_00000123439276226077549040000013961626725630646415_" gradientUnits="userSpaceOnUse" x1="480.9074" y1="2148.301" x2="2443.6116" y2="2148.301">
						<stop  offset="0" style="stop-color:#40447E"/>
						<stop  offset="0.9964" style="stop-color:#3C3B6B"/>
					</linearGradient>
					<path style="fill:url(#SVGID_00000123439276226077549040000013961626725630646415_);" d="M2394.202,2737.411L541.032,2868.373
						c-33.162,2.343-60.124-22.558-60.124-55.625V1487.95c0-33.067,26.962-59.874,60.124-59.874h1853.171
						c27.321,0,49.409,24.232,49.409,54.125v1197.593C2443.612,2709.686,2421.523,2735.479,2394.202,2737.411z"/>
					<path style="fill:#D8DEE8;" d="M2336.471,2652.978L610.436,2766.736c-26.986,1.778-48.916-18.66-48.916-45.655V1561.219
						c0-26.995,21.93-48.97,48.916-49.082l1726.035-7.143c22.537-0.094,40.767,19.763,40.767,44.351v1056.427
						C2377.238,2630.359,2359.008,2651.493,2336.471,2652.978z"/>
					
						<linearGradient id="SVGID_00000170258278687050242870000011762209500980033423_" gradientUnits="userSpaceOnUse" x1="480.9074" y1="2874.1016" x2="3258.937" y2="2874.1016">
						<stop  offset="0" style="stop-color:#40447E"/>
						<stop  offset="0.9964" style="stop-color:#3C3B6B"/>
					</linearGradient>
					<path style="fill:url(#SVGID_00000170258278687050242870000011762209500980033423_);" d="M2347.962,2731.471l-1867.055,137.85
						l814.071,146.088c9.323,1.673,18.777,2.117,28.184,1.323l1935.775-163.275l-881.275-121.051
						C2367.806,2731.054,2357.866,2730.74,2347.962,2731.471z"/>
					
						<linearGradient id="SVGID_00000076605100253086870740000011791938055903720112_" gradientUnits="userSpaceOnUse" x1="753.3399" y1="2851.3398" x2="2788.7847" y2="2851.3398">
						<stop  offset="0" style="stop-color:#40447E"/>
						<stop  offset="0.9964" style="stop-color:#3C3B6B"/>
					</linearGradient>
					<polygon style="opacity:0.3;fill:url(#SVGID_00000076605100253086870740000011791938055903720112_);" points="753.34,2872.788 
						2307.718,2756.314 2788.785,2821.86 1247.796,2946.366 					"/>
					<path style="opacity:0.48;fill:#FFFFFF;" d="M1947.71,2374.064c-142.863-76.867-255.195,20.532-363.604-75.567
						c-65.725-58.262-33.457-101.708-114.329-188.774c-89.573-96.432-147.89-64.017-237.908-150.807
						c-113.823-109.74-56.895-195.121-154.94-273.911c-118.941-95.584-247.213-7.115-360.438-98.783
						c-48.834-39.537-75.629-97.016-89.621-158.146H516.086c-19.413,0-35.178,15.734-35.178,35.144v1373.267
						c0,19.409,15.765,34.025,35.178,32.647l1888.685-134.063c9.269-0.658,17.488-6.07,22.762-13.915
						c-138.257-5.039-223.196-51.387-277.491-99.301C2043.827,2528.125,2062.25,2435.691,1947.71,2374.064z"/>
				</g>
			</g>
			<g>
				<path style="opacity:0.5;fill:#FFFFFF;" d="M1561.333,2496.532c-73.974,1.334-147.647-15.744-212.952-49.571
					c-70.504-36.48-129.554-91.149-170.489-158.102c-39.674-64.91-60.71-139.356-60.71-215.091
					c0-237.529,201.774-425.515,444.151-419.199c236.377,6.16,424.41,195.714,424.41,422.685S1797.71,2492.27,1561.333,2496.532z"/>
				<path style="fill:#FFFFFF;" d="M1949.028,2077.107c0,207.656-171.626,378.777-387.695,382.252
					c-69.935,1.125-136.066-15.407-193.93-45.509c-64.157-33.339-117.929-83.329-155.055-144.195
					c-34.995-57.389-55.118-124.287-55.118-195.727c0-216.444,183.031-387.517,404.103-382.187
					C1777.402,1696.952,1949.028,1869.451,1949.028,2077.107z"/>
				
					<linearGradient id="SVGID_00000170255698147176487060000014969372784908145034_" gradientUnits="userSpaceOnUse" x1="1668.1616" y1="1870.8499" x2="1163.2638" y2="2933.1333">
					<stop  offset="0" style="stop-color:#444B8C"/>
					<stop  offset="0.9964" style="stop-color:#26264F"/>
				</linearGradient>
				<path style="fill:url(#SVGID_00000170255698147176487060000014969372784908145034_);" d="M1809.155,2015.603l-0.111,110.291
					c-0.038,10.566-4.295,20.655-11.919,28.106l-96.047,94.18c-7.745,7.57-18.26,11.875-29.203,11.863l-145.368,0.006
					c0,0-99.842,96.396-159.105,153.802c-64.157-33.339-117.929-83.329-155.055-144.195
					c59.824-57.417,162.248-156.08,162.248-156.08l-0.586-142.981c-0.04-10.849,4.455-21.237,12.459-28.805l99.214-94.12
					c7.878-7.448,18.526-11.525,29.584-11.342l115.112,1.974c9.508,0.157,18.094,5.886,21.739,14.491
					c3.607,8.638,1.594,18.448-5.125,24.898l-109.682,105.087c-9.765,9.335-9.804,24.677-0.039,34.204l39.264,38.387l10.823,10.561
					l39.061,38.223c9.664,9.429,25.319,9.461,34.958,0.088l108.267-105.065c6.633-6.452,16.595-8.314,25.276-4.715
					C1803.553,1998.055,1809.194,2006.394,1809.155,2015.603z"/>
			</g>
		</g>
		<g>
			
				<linearGradient id="SVGID_00000005969090350396416540000002969047362557826945_" gradientUnits="userSpaceOnUse" x1="1293.0969" y1="2250.8652" x2="1256.6696" y2="2889.3003">
				<stop  offset="0" style="stop-color:#AA80F9"/>
				<stop  offset="0.9964" style="stop-color:#6165D7"/>
			</linearGradient>
			<path style="fill:url(#SVGID_00000005969090350396416540000002969047362557826945_);" d="M1394.991,2537.202
				c30.08-16.671,21.275-111.285-19.535-177.768c-57.945-94.4-184.943-139.464-210.978-111.349
				c-26.645,28.772,50.054,136.782,62.513,154.326C1272.187,2466.058,1359.411,2556.922,1394.991,2537.202z"/>
			
				<linearGradient id="SVGID_00000065038335645394564680000010895521940225735094_" gradientUnits="userSpaceOnUse" x1="1339.5361" y1="3207.8503" x2="1430.5917" y2="3207.8503" gradientTransform="matrix(-0.9642 0.2651 0.2651 0.9642 2192.8501 -308.9189)">
				<stop  offset="0" style="stop-color:#444B8C"/>
				<stop  offset="0.9964" style="stop-color:#26264F"/>
			</linearGradient>
			<path style="fill:url(#SVGID_00000065038335645394564680000010895521940225735094_);" d="M1667.056,3140.224
				c-5.618,6.203-6.898,17.625-2.013,23.252c4.801,5.532,12.021,1.383,32.496,1.994c21.932,0.656,27.659,5.834,42.562,1.723
				c6.021-1.665,16.656-5.701,16.454-10.001c-0.142-3.024-5.557-4.585-23.639-10.643c-25.667-8.598-25.555-9.068-31.005-9.97
				C1688.221,3134.311,1674.475,3132.034,1667.056,3140.224z"/>
			
				<linearGradient id="SVGID_00000016066752278623770350000010260522356261358259_" gradientUnits="userSpaceOnUse" x1="1165.7766" y1="3213.3279" x2="1204.1742" y2="3133.8538" gradientTransform="matrix(-0.9802 0.1979 0.1979 0.9802 2204.0603 -227.1835)">
				<stop  offset="0" style="stop-color:#FFC444"/>
				<stop  offset="0.9964" style="stop-color:#F36F56"/>
			</linearGradient>
			<path style="fill:url(#SVGID_00000016066752278623770350000010260522356261358259_);" d="M1681.108,3104.452l11,36.592
				c-0.832,1.963-12.015,8.51-21.612,4.362l-16.337-35.515L1681.108,3104.452z"/>
			
				<linearGradient id="SVGID_00000105410614772311605900000008164051179566971835_" gradientUnits="userSpaceOnUse" x1="1482.1847" y1="3201.9807" x2="1573.24" y2="3201.9807" gradientTransform="matrix(-0.9642 0.2651 0.2651 0.9642 2192.8501 -308.9189)">
				<stop  offset="0" style="stop-color:#444B8C"/>
				<stop  offset="0.9964" style="stop-color:#26264F"/>
			</linearGradient>
			<path style="fill:url(#SVGID_00000105410614772311605900000008164051179566971835_);" d="M1527.959,3172.38
				c-5.619,6.204-6.898,17.626-2.014,23.253c4.801,5.532,12.02,1.384,32.495,1.994c21.932,0.656,27.659,5.835,42.562,1.724
				c6.022-1.665,16.656-5.701,16.454-10.002c-0.142-3.022-5.557-4.584-23.639-10.642c-25.667-8.599-25.554-9.068-31.005-9.971
				C1549.124,3166.468,1535.377,3164.19,1527.959,3172.38z"/>
			
				<linearGradient id="SVGID_00000084496185519942001770000001654975324109877168_" gradientUnits="userSpaceOnUse" x1="1308.4902" y1="3217.3203" x2="1346.8876" y2="3137.8469" gradientTransform="matrix(-0.9802 0.1979 0.1979 0.9802 2204.0603 -227.1835)">
				<stop  offset="0" style="stop-color:#FFC444"/>
				<stop  offset="0.9964" style="stop-color:#F36F56"/>
			</linearGradient>
			<path style="fill:url(#SVGID_00000084496185519942001770000001654975324109877168_);" d="M1542.01,3136.609l11,36.592
				c-0.832,1.962-12.014,8.51-21.612,4.362l-16.337-35.514L1542.01,3136.609z"/>
			
				<linearGradient id="SVGID_00000059277320471811920580000011864304850174819988_" gradientUnits="userSpaceOnUse" x1="1133.2966" y1="2241.7473" x2="1096.8693" y2="2880.1819">
				<stop  offset="0" style="stop-color:#AA80F9"/>
				<stop  offset="0.9964" style="stop-color:#6165D7"/>
			</linearGradient>
			<path style="fill:url(#SVGID_00000059277320471811920580000011864304850174819988_);" d="M923.219,2254.203
				c34.899-11.893,88.233-25.714,153.926-25.706c73.962,0.009,133.36,0.015,174.374,34.972
				c99.54,84.839-11.871,288.048,45.202,438.534c6.251,16.483,24.441,68.738,8.62,125.096c-2.916,10.388-8.921,19.39-19.19,34.629
				c-60.292,89.449-229.649,96.781-307.231,19.226c-41.002-40.989-77.868-33.482-78.855-80.251
				C896.175,2616.091,924.818,2431.946,923.219,2254.203z"/>
			
				<linearGradient id="SVGID_00000114764210608699028770000017912700321629449401_" gradientUnits="userSpaceOnUse" x1="948.9404" y1="2747.76" x2="1168.6698" y2="2469.5313">
				<stop  offset="0" style="stop-color:#AA80F9"/>
				<stop  offset="0.9964" style="stop-color:#6165D7"/>
			</linearGradient>
			<path style="opacity:0.4;fill:url(#SVGID_00000114764210608699028770000017912700321629449401_);" d="M966.154,2476.408
				c-14.099-38.602,0.51-82.791-30.925-102.08c-11.519-7.068-25.837-10.063-41.432-9.72c1.866,135.687,4.536,271.245,7.837,412.852
				c1.09,46.77,6.938,49.085,52.276,90.073c52.531,47.491,143.057,62.996,220.701,47.457
				c-101.688-62.537-174.242-127.317-163.851-182.843c12.101-64.665,130.523-83.761,125.758-129.737
				C1131.465,2553.682,996.974,2560.797,966.154,2476.408z"/>
			
				<linearGradient id="SVGID_00000072992543330845325410000002768962617454508419_" gradientUnits="userSpaceOnUse" x1="919.7021" y1="2229.5605" x2="883.2747" y2="2867.9966">
				<stop  offset="0" style="stop-color:#AA80F9"/>
				<stop  offset="0.9964" style="stop-color:#6165D7"/>
			</linearGradient>
			<path style="fill:url(#SVGID_00000072992543330845325410000002768962617454508419_);" d="M955.561,2258.378
				c-34.187-23.081-116.554,35.125-162.214,86.36c-21.222,23.811-95.11,106.715-76.752,218.084
				c2.991,18.149,16.765,103,89.401,144.564c65.036,37.216,152.855,27.643,223.216-25.065c9.614-8.533,19.232-17.063,28.848-25.597
				c9.461-10.224,18.922-20.449,28.38-30.676c-14.871-12.37-40.138-30.214-75.622-41.663c-54.071-17.448-89.62,8.438-102.551-8.603
				c-15.922-20.981,32.549-60.07,45.267-148.998C956.965,2402.787,993.747,2284.158,955.561,2258.378z"/>
			
				<linearGradient id="SVGID_00000121979645308695613780000012179719030433409978_" gradientUnits="userSpaceOnUse" x1="1263.6339" y1="3082.0129" x2="1569.5461" y2="2694.6567">
				<stop  offset="0" style="stop-color:#FF9085"/>
				<stop  offset="1" style="stop-color:#FB6FBB"/>
			</linearGradient>
			<path style="fill:url(#SVGID_00000121979645308695613780000012179719030433409978_);" d="M1011.641,2839.069
				c-22.591,73.52,19.237,43.631,104.425,1.661c89.72-44.202,285.841-107.68,370.349-24.534
				c62.939,61.926,18.416,159.839,115.792,267.615c17.152,18.984,33.41,32.244,43.569,39.939
				c17.549-7.261,35.097-14.521,52.646-21.784c6.885-40.208,28.572-195.209-68.984-334.03c-23.586-33.562-68.451-98-145.23-125.26
				C1276.636,2568.98,1032.474,2771.262,1011.641,2839.069z"/>
			
				<linearGradient id="SVGID_00000114753164784519111560000014300430481583793551_" gradientUnits="userSpaceOnUse" x1="1445.7875" y1="2724.2461" x2="1090.8713" y2="3117.3843">
				<stop  offset="0" style="stop-color:#FF9085"/>
				<stop  offset="1" style="stop-color:#FB6FBB"/>
			</linearGradient>
			<path style="fill:url(#SVGID_00000114753164784519111560000014300430481583793551_);" d="M928.811,2770.475
				c-14.626,42.228-1.462,90.76,22.436,120.912c53.05,66.933,172.145,59.893,246.533,35.174
				c90.511-30.074,110.727-84.846,146.321-71.384c55.309,20.92,15.956,157.116,115.792,267.615
				c17.152,18.984,33.41,32.242,43.569,39.939c17.548-7.263,35.097-14.523,52.646-21.787c13.254-93.628,3.569-168.646-6.524-216.564
				c-11.574-54.949-21.943-104.177-60.66-151.652c-48.103-58.984-110.962-79.7-147.029-91.073
				C1189.302,2633.54,966.813,2660.754,928.811,2770.475z"/>
			<g>
				
					<linearGradient id="SVGID_00000106830886615229848880000006048126146626882744_" gradientUnits="userSpaceOnUse" x1="1278.8005" y1="2826.6111" x2="1228.9691" y2="2685.4219">
					<stop  offset="0" style="stop-color:#311944"/>
					<stop  offset="1" style="stop-color:#893976"/>
				</linearGradient>
				<polygon style="fill:url(#SVGID_00000106830886615229848880000006048126146626882744_);" points="1423.575,2656.306 
					1011.641,2650.157 1121.181,2703.023 1424.629,2683.163 				"/>
				
					<linearGradient id="SVGID_00000024684659329081216840000001711193025090497956_" gradientUnits="userSpaceOnUse" x1="1061.1095" y1="2622.0498" x2="1079.381" y2="2748.2893">
					<stop  offset="0" style="stop-color:#311944"/>
					<stop  offset="1" style="stop-color:#893976"/>
				</linearGradient>
				<path style="fill:url(#SVGID_00000024684659329081216840000001711193025090497956_);" d="M997.102,2661.103v0.004
					c0,7.708,4.825,14.595,12.07,17.229l131.628,51.601l0.599-35.775l-129.758-44.005
					C1004.359,2648.065,997.102,2653.53,997.102,2661.103z"/>
			</g>
			
				<linearGradient id="SVGID_00000045578072322893159910000004387122475415327111_" gradientUnits="userSpaceOnUse" x1="1055.6289" y1="2649.7068" x2="1158.8948" y2="2649.7068">
				<stop  offset="0" style="stop-color:#FFC444"/>
				<stop  offset="0.9964" style="stop-color:#F36F56"/>
			</linearGradient>
			<path style="fill:url(#SVGID_00000045578072322893159910000004387122475415327111_);" d="M1055.913,2644.57
				c-2.527-0.564,12.317-30.142,23.972-26.729c11.651,3.415,68.648,36.446,73.829,50.048c5.182,13.601,5.182,13.601,5.182,13.601
				s-24.861,1.943-40.281-3.237C1103.193,2673.071,1076.473,2649.154,1055.913,2644.57z"/>
			<g>
				<g>
					
						<linearGradient id="SVGID_00000119078755170482421920000014113303336590399399_" gradientUnits="userSpaceOnUse" x1="1423.1505" y1="2633.1062" x2="1325.9976" y2="2495.1492">
						<stop  offset="0" style="stop-color:#444B8C"/>
						<stop  offset="0.9964" style="stop-color:#26264F"/>
					</linearGradient>
					<path style="fill:url(#SVGID_00000119078755170482421920000014113303336590399399_);" d="M1152.325,2443.154l-29.035,264.378
						c-1.002,9.122,11.769,22.713,20.935,22.279l425.962-26.15c7-0.333,12.827-5.484,14.011-12.39l53.464-255.343
						c1.596-9.292-15.107-18.889-24.533-18.626l-446.381,12.552C1159.296,2430.065,1153.14,2435.741,1152.325,2443.154z"/>
					
						<linearGradient id="SVGID_00000137817849387533979660000017839625752044335776_" gradientUnits="userSpaceOnUse" x1="1236.7937" y1="2861.4229" x2="1449.4083" y2="2429.5498">
						<stop  offset="0" style="stop-color:#311944"/>
						<stop  offset="1" style="stop-color:#893976"/>
					</linearGradient>
					<path style="fill:url(#SVGID_00000137817849387533979660000017839625752044335776_);" d="M1162.061,2450.862l-29.038,264.38
						c-1,9.123,6.386,16.982,15.553,16.55l431.349-20.42c6.999-0.332,12.826-5.485,14.012-12.389l44.068-256.511
						c1.597-9.294-5.712-17.724-15.138-17.458l-446.382,12.551C1169.032,2437.773,1162.874,2443.451,1162.061,2450.862z"/>
				</g>
				
					<linearGradient id="SVGID_00000043453474864729953350000016526767075497937291_" gradientUnits="userSpaceOnUse" x1="1132.932" y1="2584.2327" x2="1600.0179" y2="2584.2327">
					<stop  offset="0" style="stop-color:#311944"/>
					<stop  offset="1" style="stop-color:#893976"/>
				</linearGradient>
				<path style="opacity:0.3;fill:url(#SVGID_00000043453474864729953350000016526767075497937291_);" d="M1415.349,2649.42
					c-37.664-15.963-24.37-46.405-68.846-84.336c-58.675-50.042-118.48-28.34-139.417-67.127c-6.519-12.081-9.634-30.877,1.723-61.3
					l-32.324,0.908c-7.453,0.208-13.611,5.886-14.425,13.297l-29.038,264.38c-0.999,9.122,6.387,16.982,15.553,16.55l431.349-20.42
					c6.999-0.332,12.826-5.483,14.012-12.389l6.081-35.396c-13.088-7.283-28.727-13.906-46.975-17.608
					C1489.76,2633.142,1458.711,2667.799,1415.349,2649.42z"/>
			</g>
			<g>
				
					<linearGradient id="SVGID_00000036972293857905670150000013182654279704300972_" gradientUnits="userSpaceOnUse" x1="1594.8563" y1="2061.0952" x2="1605.1423" y2="1787.109" gradientTransform="matrix(0.917 0.3988 -0.3988 0.917 399.6047 -184.8945)">
					<stop  offset="0" style="stop-color:#FFC444"/>
					<stop  offset="0.9964" style="stop-color:#F36F56"/>
				</linearGradient>
				<path style="fill:url(#SVGID_00000036972293857905670150000013182654279704300972_);" d="M1084.052,2127.448
					c0.229,27.42-2.83,49.166-5.724,64.058c-3.315,17.063-5.703,21.47-8.752,25.047c-4.589,5.385-11.543,9.901-50.834,19.644
					c-21.382,5.301-24.132,5.156-24.605,7.278c-2.303,10.351,56,45.628,116.234,37.126c36.865-5.204,70.406-26.236,68.348-37.28
					c-2.072-11.116-38.897-5.151-49.872-25.26c-7.634-13.99,0.924-33.848,11.041-50.295
					C1130.09,2149.408,1093.848,2145.806,1084.052,2127.448z"/>
				<g>
					
						<linearGradient id="SVGID_00000047025503787653603640000009733078754101393042_" gradientUnits="userSpaceOnUse" x1="925.9997" y1="2130.3442" x2="856.2614" y2="1953.2218" gradientTransform="matrix(-0.9687 -0.2485 -0.2485 0.9687 2456.1904 427.3052)">
						<stop  offset="0" style="stop-color:#311944"/>
						<stop  offset="1" style="stop-color:#6B3976"/>
					</linearGradient>
					<path style="fill:url(#SVGID_00000047025503787653603640000009733078754101393042_);" d="M1161.411,2162.313
						c11.332-8.99,16.936-28.38,10.449-43.249c-5.582-12.795-18.325-17.73-25.953-20.688c-22.105-8.567-53.339-6.542-68.806,11.829
						c-9.164,10.888-3.07,40.055-2.271,45.221c0.906,5.843,4.558,8.718,7.337,13.68c3.851,6.883,9.844,17.792,19.534,35.949
						c2.174-4.047,5.163-8.979,9.207-14.116c1.557-1.977,7.745-9.671,15.557-15.354
						C1142.115,2164.194,1150.669,2170.835,1161.411,2162.313z"/>
					
						<linearGradient id="SVGID_00000139992684712083749140000017603351803679110054_" gradientUnits="userSpaceOnUse" x1="521.4415" y1="1987.588" x2="518.2341" y2="2246.0002" gradientTransform="matrix(0.982 0.1887 -0.1887 0.982 983.7829 102.0635)">
						<stop  offset="0" style="stop-color:#FFC444"/>
						<stop  offset="0.9964" style="stop-color:#F36F56"/>
					</linearGradient>
					<path style="fill:url(#SVGID_00000139992684712083749140000017603351803679110054_);" d="M1085.646,2187.727
						c0,0,8.581,28.483,38.918,34.311c27.161,5.218,46.672-53.66,32.924-70.813c-4.588-5.722-15.528-10.451-25.472-10.268
						c-5.874,0.109-8.32,1.9-17.92,1.89c-8.857-0.008-10.96-1.537-14.013-0.083c-3.818,1.821-7.796,7.686-7.126,26.557
						c-3.753-6.486-9.353-10.059-14.22-9.141c-0.776,0.148-2.935,0.917-4.459,2.539
						C1068.762,2168.586,1072.735,2178.949,1085.646,2187.727z"/>
					
						<linearGradient id="SVGID_00000181789936098525212960000010053937803240954045_" gradientUnits="userSpaceOnUse" x1="904.6924" y1="2138.8228" x2="834.8861" y2="1961.5276" gradientTransform="matrix(-0.9687 -0.2485 -0.2485 0.9687 2456.1904 427.3052)">
						<stop  offset="0" style="stop-color:#311944"/>
						<stop  offset="1" style="stop-color:#6B3976"/>
					</linearGradient>
					<path style="fill:url(#SVGID_00000181789936098525212960000010053937803240954045_);" d="M1099.807,2138.867
						c1.039,1.295-4.151,5.076-6.215,11.801c-4.01,13.053,5.227,32.382,18.509,37.277c7.853,2.894,11.334-1.387,25.025,0.675
						c8.476,1.277,15.07,4.115,19.144,6.183c0.416,15.571-7.283,28.983-18.706,33.16c-12.298,4.497-24.47-3.345-29.558-6.624
						c-3.404-2.193-14.318-9.195-17.704-21.759c-3.526-13.093,4.638-18.304-0.807-27.955c-2.745-4.868-7.243-7.838-10.09-16.62
						c-0.773-2.386-1.173-4.422-1.389-5.779C1086.809,2143.719,1098.305,2136.99,1099.807,2138.867z"/>
					
						<linearGradient id="SVGID_00000153695377442752244970000011837607550943378062_" gradientUnits="userSpaceOnUse" x1="836.3704" y1="2031.9939" x2="840.0009" y2="2064.3589" gradientTransform="matrix(-0.9687 -0.2485 -0.2485 0.9687 2456.1904 427.3052)">
						<stop  offset="0" style="stop-color:#FFC444"/>
						<stop  offset="1" style="stop-color:#F36F56"/>
					</linearGradient>
					<path style="fill:url(#SVGID_00000153695377442752244970000011837607550943378062_);" d="M1145.177,2197.646
						c0,0-6.554,1.51-16.375-1.645c-0.478-0.155-1.05-0.152-1.177,0.084c-0.475,0.886,4.815,6.791,11.138,6.669
						c4.49-0.088,8.777-3.199,8.477-4.354C1147.111,2197.913,1146.151,2197.722,1145.177,2197.646z"/>
				</g>
			</g>
		</g>
		<g>
			<g>
				
					<linearGradient id="SVGID_00000052805335666777646660000004027715327734738581_" gradientUnits="userSpaceOnUse" x1="1137.8365" y1="1150.4124" x2="2013.576" y2="1150.4124" gradientTransform="matrix(1 0 0 1 918.7108 0)">
					<stop  offset="0" style="stop-color:#444B8C"/>
					<stop  offset="0.9964" style="stop-color:#26264F"/>
				</linearGradient>
				<path style="fill:url(#SVGID_00000052805335666777646660000004027715327734738581_);" d="M2932.287,1179.952
					c0,236.931-185.266,423.313-422.057,416.042c-246.428-7.568-453.683-220.396-453.683-475.082
					c0-254.685,207.254-439.568,453.683-413.908C2747.021,731.66,2932.287,943.021,2932.287,1179.952z"/>
				
					<linearGradient id="SVGID_00000084520527608713486340000018059312786936239500_" gradientUnits="userSpaceOnUse" x1="1838.7703" y1="690.1094" x2="1382.8275" y2="1696.0043" gradientTransform="matrix(1 0 0 1 918.7108 0)">
					<stop  offset="0" style="stop-color:#AA80F9"/>
					<stop  offset="0.9964" style="stop-color:#6165D7"/>
				</linearGradient>
				<path style="fill:url(#SVGID_00000084520527608713486340000018059312786936239500_);" d="M2996.272,1159.523
					c0,236.931-185.266,423.312-422.057,416.041c-246.429-7.568-453.684-220.395-453.684-475.081
					c0-254.686,207.255-439.569,453.684-413.909C2811.006,711.23,2996.272,922.592,2996.272,1159.523z"/>
				
					<linearGradient id="SVGID_00000134226693605541566660000002467151242214839705_" gradientUnits="userSpaceOnUse" x1="1356.9043" y1="1580.873" x2="1594.4534" y2="1203.5887" gradientTransform="matrix(1 0 0 1 918.7108 0)">
					<stop  offset="0" style="stop-color:#AA80F9"/>
					<stop  offset="0.9964" style="stop-color:#6165D7"/>
				</linearGradient>
				<path style="fill:url(#SVGID_00000134226693605541566660000002467151242214839705_);" d="M2977.686,1158.269
					c0,226.498-177.265,404.371-403.47,397.046c-234.985-7.609-432.279-210.72-432.279-453.39
					c0-242.67,197.294-419.178,432.279-395.103C2800.421,729.998,2977.686,931.772,2977.686,1158.269z"/>
				<path style="opacity:0.53;fill:#FFFFFF;" d="M2958.104,1156.95c0,198.894-143.713,358.222-334.885,376.074
					c-16.062,1.511-32.515,2.015-49.192,1.455c-223.293-7.499-410.547-200.629-410.547-431.087
					c0-200.405,141.586-353.465,325.37-375.123c27.536-3.246,56.076-3.582,85.177-0.616
					C2789.208,749.424,2958.104,941.323,2958.104,1156.95z"/>
				
					<linearGradient id="SVGID_00000138533432930562349430000010043262367135238306_" gradientUnits="userSpaceOnUse" x1="1461.8669" y1="1025.4456" x2="1816.0853" y2="1777.3837" gradientTransform="matrix(1 0 0 1 918.7108 0)">
					<stop  offset="0" style="stop-color:#AA80F9"/>
					<stop  offset="0.9964" style="stop-color:#6165D7"/>
				</linearGradient>
				<path style="fill:url(#SVGID_00000138533432930562349430000010043262367135238306_);" d="M2623.219,1533.024
					c-16.062,1.511-32.515,2.015-49.192,1.455c-223.293-7.499-410.547-200.629-410.547-431.087
					c0-200.405,141.586-353.465,325.37-375.123c62.065,48.464,117.635,110.472,127.205,183.952
					c15.614,119.762-104.035,174.886-117.242,305.057C2487.956,1324.672,2539.387,1444.322,2623.219,1533.024z"/>
			</g>
			<g>
				<path style="fill:#FFFFFF;" d="M2673.393,1236.402l-21.985-4.304c0.087-10.132-0.683-20.267-2.322-30.288l21.189-7.394
					c5.712-1.994,8.722-8.316,6.722-14.124l-12.532-36.387c-2.008-5.829-8.28-8.944-14.011-6.953l-21.282,7.391
					c-4.884-8.817-10.6-17.273-17.07-25.302l14.77-17.32c3.966-4.65,3.432-11.726-1.194-15.808l-28.992-25.578
					c-4.646-4.099-11.639-3.642-15.615,1.021l-14.815,17.372c-8.806-5.396-17.94-9.979-27.323-13.675l4.136-22.64
					c1.116-6.105-2.878-12.052-8.924-13.282l-37.869-7.707c-6.067-1.234-11.888,2.729-12.997,8.851l-4.106,22.673
					c-10.203-0.253-20.399,0.399-30.475,1.926l-7.718-21.89c-2.089-5.927-8.51-9.115-14.341-7.118l-36.509,12.503
					c-5.845,2.001-8.875,8.434-6.767,14.364l7.705,21.683c-8.86,4.905-17.329,10.683-25.349,17.239l-17.392-15.085
					c-4.76-4.129-11.875-3.667-15.886,1.038l-25.087,29.418c-4.011,4.704-3.39,11.855,1.382,15.971l17.297,14.914
					c-5.301,8.984-9.748,18.312-13.287,27.893l-22.115-4.329c-6.139-1.203-11.996,2.785-13.077,8.907l-6.756,38.232
					c-1.08,6.107,3.021,12.017,9.154,13.201l21.99,4.247c-0.028,10.386,0.866,20.763,2.648,31.009l-20.904,7.26
					c-5.843,2.029-8.854,8.422-6.725,14.275l13.287,36.534c2.121,5.832,8.563,8.908,14.386,6.875l20.684-7.218
					c5.106,8.942,11.082,17.487,17.821,25.572l-14.167,16.613c-3.977,4.664-3.368,11.694,1.357,15.699l29.489,24.996
					c4.706,3.989,11.734,3.45,15.699-1.2l14.125-16.564c9.008,5.315,18.33,9.797,27.889,13.357l-3.868,21.358
					c-1.088,6.005,2.917,11.78,8.943,12.897l37.611,6.976c6.004,1.113,11.755-2.838,12.848-8.827l3.92-21.458
					c10.207,0.089,20.395-0.704,30.441-2.393l7.325,20.612c2.039,5.736,8.331,8.742,14.056,6.717l35.752-12.649
					c5.711-2.02,8.703-8.302,6.681-14.036l-7.296-20.696c8.699-4.941,17.019-10.719,24.886-17.268l16.69,14.391
					c4.592,3.959,11.502,3.431,15.434-1.18l24.588-28.834c3.933-4.611,3.408-11.568-1.173-15.541l-16.783-14.556
					c5.163-8.81,9.523-17.945,12.998-27.329l21.744,4.199c5.931,1.146,11.648-2.781,12.768-8.772l7.014-37.503
					C2683.234,1243.375,2679.331,1237.565,2673.393,1236.402z M2562.854,1303.076c-39.885,46.772-110.352,52.073-157.648,11.619
					c-47.582-40.699-53.679-112.206-13.355-159.493c40.324-47.286,111.44-52.026,158.582-10.812
					C2597.293,1185.357,2602.739,1256.303,2562.854,1303.076z"/>
				<path style="fill:#FFFFFF;" d="M2813.706,942.123l-12.24-2.419c-0.089-5.484-0.654-10.972-1.699-16.401l11.634-3.919
					c3.138-1.056,4.717-4.466,3.529-7.616l-7.44-19.724c-1.192-3.158-4.706-4.864-7.851-3.809l-11.677,3.92
					c-2.821-4.782-6.097-9.37-9.783-13.729l7.934-9.305c2.13-2.498,1.74-6.321-0.874-8.54l-16.369-13.897
					c-2.622-2.226-6.479-2.002-8.614,0.502l-7.951,9.325c-4.935-2.939-10.038-5.44-15.266-7.463l1.984-12.195
					c0.534-3.287-1.747-6.504-5.097-7.185l-20.986-4.263c-3.361-0.683-6.519,1.435-7.05,4.729l-1.973,12.204
					c-5.626-0.167-11.237,0.152-16.77,0.944l-4.527-11.812c-1.227-3.198-4.802-4.934-7.988-3.875l-19.94,6.621
					c-3.191,1.06-4.778,4.513-3.545,7.712l4.509,11.7c-4.816,2.613-9.405,5.698-13.738,9.203l-9.753-8.18
					c-2.667-2.238-6.574-2.011-8.722,0.509l-13.435,15.755c-2.15,2.52-1.722,6.373,0.952,8.605l9.692,8.094
					c-2.806,4.822-5.14,9.832-6.971,14.984l-12.212-2.413c-3.39-0.67-6.562,1.457-7.083,4.752l-3.257,20.581
					c-0.522,3.289,1.804,6.491,5.19,7.154l12.146,2.377c0.111,5.603,0.727,11.206,1.832,16.744l-11.416,3.832
					c-3.19,1.071-4.771,4.508-3.529,7.676l7.749,19.785c1.238,3.159,4.821,4.85,8.004,3.778l11.305-3.808
					c2.922,4.855,6.317,9.5,10.131,13.902l-7.604,8.917c-2.136,2.504-1.714,6.308,0.94,8.497l16.566,13.666
					c2.645,2.182,6.516,1.925,8.646-0.573l7.587-8.898c5.039,2.921,10.242,5.392,15.563,7.366l-1.865,11.549
					c-0.526,3.248,1.76,6.396,5.102,7.032l20.874,3.97c3.333,0.635,6.463-1.478,6.99-4.72l1.89-11.611
					c5.646,0.099,11.269-0.282,16.803-1.148l4.322,11.212c1.203,3.121,4.725,4.783,7.867,3.714l19.629-6.682
					c3.136-1.068,4.709-4.461,3.514-7.581l-4.316-11.259c4.75-2.637,9.28-5.731,13.55-9.243l9.438,7.883
					c2.599,2.17,6.421,1.916,8.538-0.566l13.238-15.523c2.116-2.483,1.731-6.258-0.863-8.434l-9.5-7.966
					c2.742-4.751,5.033-9.682,6.831-14.751l12.109,2.369c3.304,0.647,6.418-1.456,6.957-4.698l3.371-20.288
					C2819.257,945.938,2817.014,942.776,2813.706,942.123z M2753.398,977.759c-21.448,25.152-60.33,27.696-86.951,5.592
					c-26.74-22.202-30.977-60.828-9.355-86.184c21.623-25.356,60.774-27.673,87.341-5.267
					C2770.88,914.207,2774.846,952.608,2753.398,977.759z"/>
			</g>
		</g>
	</g>
</g>
</svg>
