<?xml version="1.0" encoding="utf-8"?>
<!-- Generator: Adobe Illustrator 27.5.0, SVG Export Plug-In . SVG Version: 6.00 Build 0)  -->
<svg version="1.1" xmlns="http://www.w3.org/2000/svg" xmlns:xlink="http://www.w3.org/1999/xlink" x="0px" y="0px"
	 viewBox="0 0 3710 3710" style="enable-background:new 0 0 3710 3710;" xml:space="preserve">
<g id="Background">
	<g>
		<g>
			<rect style="fill:#FFFFFF;" width="3710" height="3710"/>
		</g>
	</g>
</g>
<g id="Illustration">
	<g>
		<path style="fill:#F4F7FA;" d="M3243.632,1624.188c-56.433-369.382-101.737-624.658-305.521-764.541
			c-343.734-235.948-727.615,147.086-1214.528-109.935c-239.737-126.547-248.723-273.268-451.76-292.743
			c-359.217-34.455-653.393,394.235-678.888,430.999c-154.902,223.374-206.645,495.746-143.849,755.419
			c40.785,168.661,68.346,343.218,60.781,516.527c-13.164,301.627-5.589,583.173,287.134,763.056
			c261.366,160.615,590.302,302.272,904.11,327.082c213.261,16.863,452.422-10.425,657.965-65.946
			C3406.577,2901.143,3321.224,2132.068,3243.632,1624.188z"/>
		<linearGradient id="SVGID_1_" gradientUnits="userSpaceOnUse" x1="1488.2131" y1="1722.4011" x2="3043.8564" y2="1722.4011">
			<stop  offset="0.0036" style="stop-color:#E38DDD"/>
			<stop  offset="1" style="stop-color:#9571F6"/>
		</linearGradient>
		<path style="opacity:0.3;fill:url(#SVGID_1_);" d="M3005.581,1675l-84.648-7.031c-3.842-39.217-11.104-78.478-21.618-117.412
			l76.902-38.745c20.647-10.401,29.311-36.592,19.343-58.518l-62.54-137.565c-10.035-22.07-34.99-31.508-55.73-21.058l-77.252,38.92
			c-22.592-33.32-47.542-64.257-74.685-92.42l48.001-74.847c12.948-20.19,7.892-47.934-11.312-61.969l-120.448-88.025
			c-19.317-14.117-45.495-9.105-58.453,11.198l-47.961,75.161c-35.21-17.143-71.751-31.032-109.184-41.571l5.501-91.248
			c1.491-24.721-16.215-46.484-39.558-48.586l-146.225-13.173c-23.422-2.112-43.553,16.288-44.954,41.075l-5.117,90.572
			c-38.257,3.57-76.451,10.915-114.219,21.781l-38.636-82.213c-10.585-22.524-36.211-32.214-57.228-21.626l-131.435,66.218
			c-21.018,10.59-29.388,37.409-18.706,59.884l38.68,81.384c-31.825,23.963-61.163,50.519-87.684,79.433l-71.218-50.801
			c-19.785-14.113-46.22-9.051-59.022,11.31l-79.925,127.111c-12.759,20.291-7.042,48.093,12.75,62.093l70.907,50.159
			c-15.353,37.322-27.454,76.056-36.246,115.712l-83.961-6.975c-23.471-1.95-43.407,16.272-44.516,40.68l-6.92,152.195
			c-1.103,24.266,16.965,45.454,40.348,47.339l83.011,6.698c4.768,40.089,13.159,80.104,24.891,119.654l-73.876,37.22
			c-20.74,10.449-28.893,36.565-18.216,58.313l66.536,135.55c10.606,21.605,35.932,30.672,56.577,20.269l73.543-37.051
			c23.649,33.063,49.602,63.63,77.711,91.257l-44.74,70.112c-12.575,19.709-7.061,46.525,12.299,59.895l120.721,83.365
			c19.249,13.292,45.031,8.177,57.599-11.425l45.059-70.26c35.353,16.202,71.915,29.228,109.287,38.847l-4.784,84.661
			c-1.331,23.546,16.101,43.986,38.926,45.671l142.498,10.528c22.751,1.68,42.331-15.983,43.748-39.47l5.114-84.84
			c37.401-4.048,74.717-11.656,111.59-22.7l36.605,77.019c10.068,21.18,34.742,30.013,55.12,19.747l127.437-64.205
			c20.377-10.266,28.817-35.783,18.843-57.01l-36.565-77.806c30.846-23.293,59.397-48.989,85.259-76.957l68.949,48.775
			c18.801,13.3,44.337,8.235,57.053-11.313l79.653-122.451c12.759-19.612,7.88-46.379-10.914-59.785l-69.625-49.665
			c15.293-35.975,27.628-73.309,36.792-111.615l84.217,6.794c22.7,1.831,42.469-16.002,44.166-39.848l10.646-149.548
			C3045.445,1697.884,3028.366,1676.894,3005.581,1675z M2518.003,2260.832c-274.757,138.427-609.94,17.632-749.82-272.227
			c-141.189-292.567-30.094-645.88,249.332-786.66c279.428-140.78,617.542-13.782,754.038,281.148
			C2906.785,1775.295,2792.76,2122.406,2518.003,2260.832z"/>
		
			<linearGradient id="SVGID_00000085935588921846336160000007042560453930938499_" gradientUnits="userSpaceOnUse" x1="659.1653" y1="1160.2412" x2="1521.9054" y2="1160.2412">
			<stop  offset="0.0036" style="stop-color:#E38DDD"/>
			<stop  offset="1" style="stop-color:#9571F6"/>
		</linearGradient>
		<path style="opacity:0.3;fill:url(#SVGID_00000085935588921846336160000007042560453930938499_);" d="M1500.678,1133.953
			l-46.945-3.899c-2.13-21.749-6.158-43.523-11.989-65.115l42.649-21.488c11.451-5.768,16.255-20.293,10.727-32.453l-34.684-76.292
			c-5.565-12.24-19.405-17.474-30.907-11.678l-42.843,21.584c-12.529-18.479-26.366-35.636-41.419-51.255l26.621-41.509
			c7.181-11.197,4.377-26.584-6.273-34.367l-66.799-48.818c-10.713-7.829-25.231-5.049-32.417,6.21l-26.599,41.684
			c-19.527-9.508-39.792-17.21-60.552-23.055l3.051-50.605c0.827-13.71-8.993-25.779-21.938-26.945l-81.095-7.306
			c-12.99-1.171-24.154,9.033-24.931,22.779l-2.838,50.23c-21.217,1.98-42.399,6.054-63.344,12.08l-21.427-45.594
			c-5.87-12.491-20.082-17.866-31.738-11.993l-72.892,36.724c-11.656,5.873-16.298,20.747-10.374,33.211l21.452,45.135
			c-17.65,13.29-33.92,28.017-48.628,44.052l-39.497-28.174c-10.973-7.827-25.633-5.019-32.733,6.273l-44.325,70.494
			c-7.076,11.253-3.906,26.672,7.071,34.436l39.324,27.817c-8.515,20.698-15.226,42.18-20.102,64.172l-46.564-3.869
			c-13.017-1.081-24.073,9.024-24.688,22.56l-3.838,84.405c-0.612,13.458,9.409,25.208,22.376,26.254l46.037,3.714
			c2.644,22.233,7.298,44.425,13.804,66.358l-40.971,20.642c-11.502,5.795-16.024,20.279-10.102,32.34l36.9,75.174
			c5.882,11.982,19.927,17.01,31.377,11.241l40.786-20.548c13.115,18.336,27.509,35.288,43.098,50.61l-24.812,38.883
			c-6.974,10.93-3.916,25.802,6.821,33.217l66.951,46.233c10.675,7.372,24.973,4.535,31.944-6.336l24.989-38.965
			c19.606,8.986,39.883,16.209,60.609,21.544l-2.653,46.952c-0.738,13.058,8.929,24.394,21.588,25.329l79.028,5.839
			c12.617,0.932,23.476-8.864,24.262-21.89l2.836-47.051c20.742-2.245,41.437-6.464,61.886-12.589l20.301,42.714
			c5.583,11.746,19.267,16.645,30.569,10.952l70.675-35.607c11.301-5.694,15.981-19.845,10.45-31.617l-20.278-43.15
			c17.107-12.918,32.941-27.169,47.284-42.68l38.238,27.05c10.427,7.376,24.589,4.567,31.641-6.274l44.175-67.91
			c7.076-10.877,4.37-25.721-6.053-33.156l-38.613-27.544c8.481-19.951,15.323-40.656,20.404-61.9l46.706,3.768
			c12.589,1.016,23.553-8.875,24.494-22.099l5.904-82.937C1522.786,1146.644,1513.315,1135.004,1500.678,1133.953z
			 M1230.274,1458.848c-152.377,76.77-338.265,9.779-415.841-150.974c-78.302-162.254-16.69-358.197,138.277-436.272
			c154.967-78.074,342.481-7.644,418.18,155.921C1445.887,1189.575,1382.65,1382.079,1230.274,1458.848z"/>
		<g>
			<g>
				
					<linearGradient id="SVGID_00000119079783586085331090000016975938385010186401_" gradientUnits="userSpaceOnUse" x1="2299.1824" y1="1320.5156" x2="2742.4299" y2="1787.7871" gradientTransform="matrix(1 0 0 1 -208.2705 0)">
					<stop  offset="0" style="stop-color:#FFC444"/>
					<stop  offset="0.9964" style="stop-color:#F36F56"/>
				</linearGradient>
				<polygon style="fill:url(#SVGID_00000119079783586085331090000016975938385010186401_);" points="2407.898,1488.616 
					2009.027,1480.076 2009.026,1401.645 2407.898,1408.799 				"/>
				<polygon style="fill:#FFFFFF;" points="2023.444,1466.028 2023.444,1416.26 2392.984,1423.123 2392.984,1473.705 				"/>
				
					<linearGradient id="SVGID_00000165228241257801611510000002128663564572290944_" gradientUnits="userSpaceOnUse" x1="2575.4453" y1="1387.7306" x2="2780.572" y2="1603.9752" gradientTransform="matrix(1 0 0 1 -208.2705 0)">
					<stop  offset="0" style="stop-color:#FFC444"/>
					<stop  offset="0.9964" style="stop-color:#F36F56"/>
				</linearGradient>
				<polygon style="fill:url(#SVGID_00000165228241257801611510000002128663564572290944_);" points="2487.767,1490.285 
					2328.581,1486.877 2384.045,1373.325 2487.767,1375.027 				"/>
				<polygon style="fill:#FFFFFF;" points="2352.044,1472.814 2393.467,1388.071 2472.75,1389.423 2472.75,1475.321 				"/>
				<polygon style="fill:#FFFFFF;" points="2060.056,1459.24 2034.031,1458.708 2034.031,1423.997 2060.056,1424.489 				"/>
				<polygon style="fill:#FFFFFF;" points="2095.42,1459.963 2069.313,1459.429 2069.313,1424.664 2095.42,1425.158 				"/>
				<polygon style="fill:#FFFFFF;" points="2130.894,1460.688 2104.706,1460.152 2104.706,1425.333 2130.894,1425.828 				"/>
				
					<linearGradient id="SVGID_00000130616846560909180840000000511343222395812753_" gradientUnits="userSpaceOnUse" x1="3738.5835" y1="1443.7097" x2="3764.8538" y2="1443.7097" gradientTransform="matrix(-1 0 0 1 5905.063 0)">
					<stop  offset="0" style="stop-color:#FFC444"/>
					<stop  offset="0.9964" style="stop-color:#F36F56"/>
				</linearGradient>
				<polygon style="fill:url(#SVGID_00000130616846560909180840000000511343222395812753_);" points="2166.479,1461.415 
					2140.209,1460.878 2140.209,1426.004 2166.479,1426.501 				"/>
				
					<linearGradient id="SVGID_00000111161317942848499750000003365191534018907816_" gradientUnits="userSpaceOnUse" x1="2469.4709" y1="1374.863" x2="2292.8442" y2="1545.0018" gradientTransform="matrix(1 0 0 1 -208.2705 0)">
					<stop  offset="0" style="stop-color:#FFC444"/>
					<stop  offset="0.9964" style="stop-color:#F36F56"/>
				</linearGradient>
				<polygon style="fill:url(#SVGID_00000111161317942848499750000003365191534018907816_);" points="2202.177,1462.145 
					2175.824,1461.606 2175.824,1426.678 2202.177,1427.176 				"/>
				
					<linearGradient id="SVGID_00000019650283647270649300000007389071337232675992_" gradientUnits="userSpaceOnUse" x1="2487.1179" y1="1393.0222" x2="2310.092" y2="1563.5453" gradientTransform="matrix(1 0 0 1 -208.2705 0)">
					<stop  offset="0" style="stop-color:#FFC444"/>
					<stop  offset="0.9964" style="stop-color:#F36F56"/>
				</linearGradient>
				<polygon style="fill:url(#SVGID_00000019650283647270649300000007389071337232675992_);" points="2237.986,1462.877 
					2211.55,1462.336 2211.55,1427.353 2237.986,1427.853 				"/>
				
					<linearGradient id="SVGID_00000147929621331720105260000002926673553235148679_" gradientUnits="userSpaceOnUse" x1="2504.7952" y1="1411.2629" x2="2327.3691" y2="1582.1714" gradientTransform="matrix(1 0 0 1 -208.2705 0)">
					<stop  offset="0" style="stop-color:#FFC444"/>
					<stop  offset="0.9964" style="stop-color:#F36F56"/>
				</linearGradient>
				<polygon style="fill:url(#SVGID_00000147929621331720105260000002926673553235148679_);" points="2273.908,1463.611 
					2247.389,1463.069 2247.389,1428.03 2273.908,1428.532 				"/>
				
					<linearGradient id="SVGID_00000144324431023946748870000007346022993568032384_" gradientUnits="userSpaceOnUse" x1="2522.5029" y1="1429.5852" x2="2344.6765" y2="1600.8795" gradientTransform="matrix(1 0 0 1 -208.2705 0)">
					<stop  offset="0" style="stop-color:#FFC444"/>
					<stop  offset="0.9964" style="stop-color:#F36F56"/>
				</linearGradient>
				<polygon style="fill:url(#SVGID_00000144324431023946748870000007346022993568032384_);" points="2309.944,1464.348 
					2283.342,1463.804 2283.341,1428.71 2309.944,1429.213 				"/>
			</g>
		</g>
		<g>
			
				<linearGradient id="SVGID_00000041289721205294529290000012772147462372566401_" gradientUnits="userSpaceOnUse" x1="4560.2163" y1="1320.7019" x2="5010.0044" y2="1794.8687" gradientTransform="matrix(-1 0 0 1 5905.063 0)">
				<stop  offset="0" style="stop-color:#AA80F9"/>
				<stop  offset="0.9964" style="stop-color:#6165D7"/>
			</linearGradient>
			<polygon style="fill:url(#SVGID_00000041289721205294529290000012772147462372566401_);" points="1014.424,1482.974 
				1435.268,1491.984 1435.267,1409.978 1014.424,1402.43 			"/>
			<polygon style="fill:#FFFFFF;" points="1419.526,1476.656 1419.526,1424.687 1029.631,1417.447 1029.631,1468.556 			"/>
			
				<linearGradient id="SVGID_00000039824306188129278540000013369896626439965323_" gradientUnits="userSpaceOnUse" x1="4849.3311" y1="1381.9406" x2="5052.6738" y2="1596.3046" gradientTransform="matrix(-1 0 0 1 5905.063 0)">
				<stop  offset="0" style="stop-color:#AA80F9"/>
				<stop  offset="0.9964" style="stop-color:#6165D7"/>
			</linearGradient>
			<polygon style="fill:url(#SVGID_00000039824306188129278540000013369896626439965323_);" points="933.659,1481.204 
				1095.755,1484.674 1038.763,1367.429 933.659,1365.704 			"/>
			<polygon style="fill:#FFFFFF;" points="1071.578,1469.386 1029.137,1382.014 948.759,1380.644 948.759,1466.835 			"/>
			<polygon style="fill:#FFFFFF;" points="1379.738,1467.972 1407.994,1468.55 1407.994,1432.339 1379.738,1431.805 			"/>
			<polygon style="fill:#FFFFFF;" points="1341.554,1467.192 1369.719,1467.767 1369.719,1431.616 1341.554,1431.083 			"/>
			<polygon style="fill:#FFFFFF;" points="1303.495,1466.414 1331.568,1466.988 1331.568,1430.895 1303.495,1430.364 			"/>
			<polygon style="fill:#FFFFFF;" points="1265.558,1465.638 1293.541,1466.21 1293.541,1430.176 1265.558,1429.647 			"/>
			
				<linearGradient id="SVGID_00000023964216691939065290000008043912721714124453_" gradientUnits="userSpaceOnUse" x1="4739.8423" y1="1373.5016" x2="4552.7183" y2="1553.7516" gradientTransform="matrix(-1 0 0 1 5905.063 0)">
				<stop  offset="0" style="stop-color:#AA80F9"/>
				<stop  offset="0.9964" style="stop-color:#6165D7"/>
			</linearGradient>
			<polygon style="fill:url(#SVGID_00000023964216691939065290000008043912721714124453_);" points="1227.744,1464.866 
				1255.637,1465.436 1255.637,1429.459 1227.744,1428.932 			"/>
			
				<linearGradient id="SVGID_00000145747054663847527420000010821515783453956255_" gradientUnits="userSpaceOnUse" x1="4758.1187" y1="1391.5052" x2="4571.4326" y2="1571.3339" gradientTransform="matrix(-1 0 0 1 5905.063 0)">
				<stop  offset="0" style="stop-color:#AA80F9"/>
				<stop  offset="0.9964" style="stop-color:#6165D7"/>
			</linearGradient>
			<polygon style="fill:url(#SVGID_00000145747054663847527420000010821515783453956255_);" points="1190.052,1464.095 
				1217.854,1464.663 1217.854,1428.745 1190.052,1428.219 			"/>
			
				<linearGradient id="SVGID_00000008871270579273625070000015227659604512338615_" gradientUnits="userSpaceOnUse" x1="4776.3643" y1="1409.4238" x2="4590.1128" y2="1588.8334" gradientTransform="matrix(-1 0 0 1 5905.063 0)">
				<stop  offset="0" style="stop-color:#AA80F9"/>
				<stop  offset="0.9964" style="stop-color:#6165D7"/>
			</linearGradient>
			<polygon style="fill:url(#SVGID_00000008871270579273625070000015227659604512338615_);" points="1152.481,1463.327 
				1180.194,1463.894 1180.194,1428.033 1152.481,1427.509 			"/>
			
				<linearGradient id="SVGID_00000170251512413681605000000002447876385588172716_" gradientUnits="userSpaceOnUse" x1="4794.5791" y1="1427.2582" x2="4608.7627" y2="1606.2489" gradientTransform="matrix(-1 0 0 1 5905.063 0)">
				<stop  offset="0" style="stop-color:#AA80F9"/>
				<stop  offset="0.9964" style="stop-color:#6165D7"/>
			</linearGradient>
			<polygon style="fill:url(#SVGID_00000170251512413681605000000002447876385588172716_);" points="1115.031,1462.562 
				1142.655,1463.126 1142.655,1427.323 1115.031,1426.801 			"/>
		</g>
		<g>
			<g>
				
					<linearGradient id="SVGID_00000095325015817338835900000008003173429674972839_" gradientUnits="userSpaceOnUse" x1="1714.5278" y1="989.3617" x2="976.3401" y2="2097.7522">
					<stop  offset="0" style="stop-color:#444B8C"/>
					<stop  offset="0.9964" style="stop-color:#26264F"/>
				</linearGradient>
				<path style="fill:url(#SVGID_00000095325015817338835900000008003173429674972839_);" d="M1154.844,2412.069
					c-17.671-53.553-14.361-111.693,9.295-163.149l27.154-60.094c7.079-15.398,10.265-32.082,10.265-48.926v-33.757
					c0-14.618-6.884-28.212-19.186-36.323l-113.867-75.223c-33.103-21.822-57.093-54.45-67.973-92.214
					c-10.895-37.821-26.231-88.047-42.611-131.322c-19.329-51.071-66.981-85.978-122.107-89.493l-38.683-2.468
					c-76.592-4.884-144.137,51.396-153.003,127.102c-8.369,71.462-22.112,153.731-43.796,200.843
					c-20.811,45.202-26.92,95.106-17.761,143.661c28.966,153.499,69.693,365.469,45.198,417.666
					c352.453,38.695,579.161,1.536,579.161,1.536L1154.844,2412.069z M776.685,2042.764l-68.924,0.794
					c0,0,8.324-46.784,17.207-89.915c8.887-43.151,42.809-58.393,46.149-58.445l12.809-0.199L776.685,2042.764z M869.917,2041.931
					l-25.727-145.215c54.292,1.379,95.818,149.955,97.504,150.49C943.378,2047.742,869.917,2041.931,869.917,2041.931z"/>
				
					<linearGradient id="SVGID_00000026852290959073477160000011793905522607151026_" gradientUnits="userSpaceOnUse" x1="600.4842" y1="2132.1877" x2="1229.7365" y2="2132.1877">
					<stop  offset="0" style="stop-color:#444B8C"/>
					<stop  offset="0.9964" style="stop-color:#26264F"/>
				</linearGradient>
				<path style="fill:url(#SVGID_00000026852290959073477160000011793905522607151026_);" d="M1177.589,2412.033
					c-17.692-53.586-14.379-111.761,9.306-163.248l27.361-60.116c7.087-15.407,10.449-32.083,10.449-48.935v-33.774
					c0-14.625-7.064-28.247-19.381-36.363l-114.086-75.277c-33.141-21.834-57.208-54.489-68.1-92.274
					c-10.908-37.844-26.286-88.103-42.687-131.404c-19.352-51.101-67.074-86.031-122.266-89.548l-38.736-2.47
					c-76.683-4.885-144.313,51.428-153.19,127.179c-8.379,71.505-22.14,153.823-43.85,200.963
					c-20.836,45.229-26.953,95.163-17.783,143.746c29.001,153.591,69.776,365.688,45.252,417.916
					c352.877,38.719,579.86,1.538,579.86,1.538L1177.589,2412.033z M798.973,2042.507l-69.007,0.795c0,0,8.334-46.812,17.228-89.969
					c8.898-43.177,42.861-58.428,46.204-58.48l12.824-0.199L798.973,2042.507z M892.317,2041.673l-25.758-145.302
					c54.358,1.379,95.934,150.044,97.621,150.58C965.867,2047.487,892.317,2041.673,892.317,2041.673z"/>
			</g>
			<g>
				
					<linearGradient id="SVGID_00000063611880225722640690000004815999255115896249_" gradientUnits="userSpaceOnUse" x1="862.5383" y1="2572.3804" x2="1060.2218" y2="1952.9709">
					<stop  offset="0" style="stop-color:#311944"/>
					<stop  offset="1" style="stop-color:#A03976"/>
				</linearGradient>
				<path style="fill:url(#SVGID_00000063611880225722640690000004815999255115896249_);" d="M856.378,2354.458
					c-26.806,11.716-63.102,27.829-112.027,26.359c-31.151-0.936-48.169-1.447-59.308-12.081
					c-37.101-35.417,27.452-151.515,158.072-382.264c41.773-73.795,69.235-118.233,124.339-139.096
					c62.562-23.686,122.73-2.588,144.827,5.159c15.591,5.467,142.214,52.152,165.843,172.433
					c19.309,98.291-37.926,206.203-142.779,257.002c-6.224-8.786-12.447-17.573-18.671-26.359
					c9.595-15.445,28.029-49.883,28.556-96.65c0.564-50.124-19.498-109.451-36.244-108.731
					c-26.692,1.147,4.756,152.712-86.766,233.938C1007.408,2297.314,1016.662,2284.4,856.378,2354.458z"/>
				
					<linearGradient id="SVGID_00000034053963169785127480000009338705821401893544_" gradientUnits="userSpaceOnUse" x1="855.1556" y1="2570.0239" x2="1052.8389" y2="1950.6155">
					<stop  offset="0" style="stop-color:#311944"/>
					<stop  offset="1" style="stop-color:#A03976"/>
				</linearGradient>
				<path style="opacity:0.3;fill:url(#SVGID_00000034053963169785127480000009338705821401893544_);" d="M1230.898,2097.456
					c-5.754-40.138-23.647-164.954-101.043-195.497c-60.687-23.948-120.709,24.761-149.369-5.492
					c-11.596-12.24-12.552-31.597-9.774-50.254c-1.085,0.385-2.17,0.751-3.256,1.163c-55.105,20.863-82.566,65.301-124.339,139.096
					c-130.62,230.749-195.173,346.847-158.072,382.264c11.139,10.634,28.157,11.145,59.308,12.081
					c48.925,1.47,85.221-14.643,112.027-26.359c160.284-70.059,151.03-57.144,165.843-70.291
					c91.521-81.226,60.074-232.79,86.766-233.938c16.746-0.719,36.808,58.607,36.244,108.731
					c-0.527,46.768-18.961,81.206-28.556,96.65c6.224,8.786,12.447,17.573,18.671,26.359c38.874-18.834,71.183-45.53,95.493-76.663
					C1235.347,2173.484,1236.572,2137.035,1230.898,2097.456z"/>
				
					<linearGradient id="SVGID_00000137125091887308838340000013928247788666298793_" gradientUnits="userSpaceOnUse" x1="699.1674" y1="2397.9421" x2="865.1723" y2="1877.7927">
					<stop  offset="0" style="stop-color:#311944"/>
					<stop  offset="1" style="stop-color:#A03976"/>
				</linearGradient>
				<path style="fill:url(#SVGID_00000137125091887308838340000013928247788666298793_);" d="M821.766,2260.074l17.673-7.311
					c0,0-98.835-100.056,86.547-304.086c0,0,91.317-116.997,45.887-106.842c-58.854,13.156-155.099,41.293-243.911,162.508
					C639.151,2125.557,690.089,2231.635,821.766,2260.074z"/>
				
					<linearGradient id="SVGID_00000021840164022351808470000010337038207892119188_" gradientUnits="userSpaceOnUse" x1="973.6245" y1="1830.968" x2="1105.4161" y2="1830.968">
					<stop  offset="0" style="stop-color:#FFC444"/>
					<stop  offset="0.9964" style="stop-color:#F36F56"/>
				</linearGradient>
				<path style="fill:url(#SVGID_00000021840164022351808470000010337038207892119188_);" d="M1084.749,1850.382
					c-6.535-5.131-7.895-14.487-3.09-21.266l14.146-19.958l-14.756-27.277l-51.927,38.871
					c-13.786,10.319-29.875,17.128-46.88,19.839l-8.617,1.374c0,0,50.019,27.139,75.667,35.879
					c25.648,8.74,56.125-11.238,56.125-11.238L1084.749,1850.382z"/>
				<g>
					<g>
						
							<linearGradient id="SVGID_00000122717933999849862760000001890758213890704024_" gradientUnits="userSpaceOnUse" x1="1609.8582" y1="1705.3463" x2="1591.3251" y2="1731.7787" gradientTransform="matrix(0.9943 0.1063 -0.1063 0.9943 -246.6458 -99.2899)">
							<stop  offset="0" style="stop-color:#AA80F9"/>
							<stop  offset="0.9964" style="stop-color:#6165D7"/>
						</linearGradient>
						<path style="fill:url(#SVGID_00000122717933999849862760000001890758213890704024_);" d="M1152.031,1750.489l3.751,0.328
							c15.451,1.35,26.177,19.12,23.947,39.686l-0.125,1.155c-2.23,20.564-16.568,36.112-32.012,34.731l-3.749-0.335
							c-7.785-0.696-12.261-18.166-10.002-39.024C1136.1,1766.169,1144.243,1749.808,1152.031,1750.489z"/>
						
							<linearGradient id="SVGID_00000041984801309228708820000009245988453100780732_" gradientUnits="userSpaceOnUse" x1="1576.1259" y1="1747.3162" x2="1611.8817" y2="1673.818" gradientTransform="matrix(0.9943 0.1063 -0.1063 0.9943 -246.6458 -99.2899)">
							<stop  offset="0" style="stop-color:#AA80F9"/>
							<stop  offset="0.9964" style="stop-color:#6165D7"/>
						</linearGradient>
						<path style="fill:url(#SVGID_00000041984801309228708820000009245988453100780732_);" d="M1125.051,1786.251
							c-2.471,22.824,4.536,42.131,16.032,43.16c11.504,1.03,23.146-16.628,25.623-39.477c2.478-22.852-5.153-42.221-16.662-43.225
							C1138.543,1745.705,1127.523,1763.425,1125.051,1786.251z"/>
						
							<linearGradient id="SVGID_00000095299120105558741160000009773468144668370080_" gradientUnits="userSpaceOnUse" x1="1602.2126" y1="1717.0237" x2="1608.2838" y2="1713.2385" gradientTransform="matrix(0.9943 0.1063 -0.1063 0.9943 -246.6458 -99.2899)">
							<stop  offset="0" style="stop-color:#444B8C"/>
							<stop  offset="0.9964" style="stop-color:#3E4177"/>
						</linearGradient>
						<polygon style="fill:url(#SVGID_00000095299120105558741160000009773468144668370080_);" points="1141.684,1829.465 
							1137.294,1829.072 1146.253,1746.378 1150.646,1746.761 						"/>
						
							<linearGradient id="SVGID_00000106127668188798800680000004179358638654465440_" gradientUnits="userSpaceOnUse" x1="1607.7961" y1="1697.2924" x2="1589.1899" y2="1719.3367" gradientTransform="matrix(0.9943 0.1063 -0.1063 0.9943 -246.6458 -99.2899)">
							<stop  offset="0" style="stop-color:#AA80F9"/>
							<stop  offset="0.9964" style="stop-color:#6165D7"/>
						</linearGradient>
						<path style="fill:url(#SVGID_00000106127668188798800680000004179358638654465440_);" d="M1120.961,1785.89
							c-2.471,22.821,4.838,42.153,16.332,43.182c11.501,1.03,22.837-16.654,25.314-39.5c2.477-22.85-4.848-42.19-16.355-43.194
							C1134.753,1745.374,1123.432,1763.066,1120.961,1785.89z"/>
						
							<linearGradient id="SVGID_00000052806338515829618120000006155795945734056081_" gradientUnits="userSpaceOnUse" x1="1569.8405" y1="1728.7904" x2="1592.5701" y2="1728.7904" gradientTransform="matrix(0.9943 0.1063 -0.1063 0.9943 -246.6458 -99.2899)">
							<stop  offset="0.0036" style="stop-color:#6165D7"/>
							<stop  offset="1" style="stop-color:#AA80F9"/>
						</linearGradient>
						<path style="opacity:0.6;fill:url(#SVGID_00000052806338515829618120000006155795945734056081_);" d="M1130.454,1786.729
							c-1.344,12.412,2.632,22.924,8.883,23.481c6.253,0.557,12.415-9.06,13.761-21.479c1.346-12.421-2.635-22.935-8.89-23.484
							C1137.956,1764.698,1131.798,1774.316,1130.454,1786.729z"/>
					</g>
					
						<linearGradient id="SVGID_00000149383847282074274200000017246464065129518778_" gradientUnits="userSpaceOnUse" x1="-9913.1816" y1="2732.0344" x2="-9911.6758" y2="2732.0344" gradientTransform="matrix(-0.9495 -0.3138 -0.3138 0.9495 8295.8398 1267.5063)">
						<stop  offset="0" style="stop-color:#40447E"/>
						<stop  offset="0.9964" style="stop-color:#3C3B6B"/>
					</linearGradient>
					<path style="fill:url(#SVGID_00000149383847282074274200000017246464065129518778_);" d="M1143.667,1782.781
						c14.523-9.525,22.883-31.871,16.118-50.002c-5.817-15.588-20.964-22.533-30.016-26.688
						c-26.167-12.003-64.061-12.333-84.083,7.825c-11.835,11.92-6.759,46.565-6.198,52.679c0.64,6.914,4.804,10.616,7.764,16.681
						c4.1,8.414,10.471,21.75,20.745,43.948c2.933-4.528,6.918-10.015,12.195-15.644c2.033-2.168,10.105-10.596,19.997-16.516
						C1120.05,1783.168,1129.929,1791.79,1143.667,1782.781z"/>
					
						<linearGradient id="SVGID_00000006690350274933723610000005027908066262599341_" gradientUnits="userSpaceOnUse" x1="-5327.5518" y1="677.2199" x2="-5327.5518" y2="676.0303" gradientTransform="matrix(0.9669 0.2551 -0.2551 0.9669 6848.7139 842.1304)">
						<stop  offset="0" style="stop-color:#FFC444"/>
						<stop  offset="0.9964" style="stop-color:#F36F56"/>
					</linearGradient>
					<path style="fill:url(#SVGID_00000006690350274933723610000005027908066262599341_);" d="M1050.004,1805.385
						c0,0,8.133,34.16,44.293,44.009c32.534,8.86,60.88-58.534,45.456-80.038c-5.14-7.165-18.072-13.742-30.155-14.442
						c-7.126-0.412-10.228,1.466-21.841,0.57c-10.697-0.822-13.116-2.808-16.911-1.384c-4.742,1.784-9.986,8.284-10.63,30.442
						c-4.019-7.943-10.479-12.648-16.398-12.029c-0.944,0.102-3.595,0.8-5.55,2.554
						C1031.2,1781.407,1035.172,1793.893,1050.004,1805.385z"/>
					
						<linearGradient id="SVGID_00000011011484895898164680000004120415930386030779_" gradientUnits="userSpaceOnUse" x1="-9892.6768" y1="2772.3315" x2="-9891.1719" y2="2772.3315" gradientTransform="matrix(-0.9495 -0.3138 -0.3138 0.9495 8295.8398 1267.5063)">
						<stop  offset="0" style="stop-color:#40447E"/>
						<stop  offset="0.9964" style="stop-color:#3C3B6B"/>
					</linearGradient>
					<path style="fill:url(#SVGID_00000011011484895898164680000004120415930386030779_);" d="M1070.814,1749.509
						c1.151,1.614-5.394,5.566-8.399,13.253c-5.832,14.908,3.803,38.412,19.45,45.423c9.268,4.151,13.809-0.534,30.235,3.21
						c10.191,2.324,17.984,6.305,22.779,9.138c-0.704,18.361-11.107,33.362-25.297,37.119c-15.244,4.036-29.349-6.383-35.239-10.734
						c-3.935-2.908-16.546-12.187-19.653-27.22c-3.235-15.658,6.99-20.975,1.179-32.789c-2.93-5.955-8.11-9.851-10.856-20.387
						c-0.744-2.861-1.069-5.28-1.224-6.885C1054.783,1754.003,1069.146,1747.172,1070.814,1749.509z"/>
					
						<linearGradient id="SVGID_00000060001786334864494910000012738949667729584781_" gradientUnits="userSpaceOnUse" x1="6647.1987" y1="-93.2996" x2="6647.1987" y2="-94.5214" gradientTransform="matrix(-0.9495 -0.3138 -0.3138 0.9495 8295.8398 1267.5063)">
						<stop  offset="0" style="stop-color:#FFC444"/>
						<stop  offset="1" style="stop-color:#F36F56"/>
					</linearGradient>
					<path style="fill:url(#SVGID_00000060001786334864494910000012738949667729584781_);" d="M1121.173,1822.788
						c0,0-8.072,1.135-19.733-3.533c-0.565-0.227-1.259-0.28-1.431-0.016c-0.644,0.993,5.307,8.445,12.983,8.924
						c5.457,0.338,10.904-2.899,10.629-4.286C1123.503,1823.293,1122.351,1822.975,1121.173,1822.788z"/>
					<g>
						
							<linearGradient id="SVGID_00000021822596894357838900000014497017927938231945_" gradientUnits="userSpaceOnUse" x1="1494.6261" y1="1442.1681" x2="1529.868" y2="1369.7263" gradientTransform="matrix(1.0295 0.11 -0.1166 1.0914 -281.2317 40.1212)">
							<stop  offset="0" style="stop-color:#AA80F9"/>
							<stop  offset="0.9964" style="stop-color:#6165D7"/>
						</linearGradient>
						<path style="fill:url(#SVGID_00000021822596894357838900000014497017927938231945_);" d="M1056.04,1754.815l-4.74-0.461
							l1.675-14.49c2.889-24.991,22.663-43.948,45.043-43.153l23.987,0.852c12.554,0.446,23.868,6.46,31.859,16.937
							c7.995,10.482,11.562,23.986,10.04,38.021l-1.26,11.622l-4.773-0.419l1.259-11.621c1.361-12.559-1.83-24.643-8.983-34.022
							c-7.151-9.376-17.28-14.758-28.508-15.16l-23.986-0.856c-19.841-0.707-37.376,16.098-39.938,38.257L1056.04,1754.815z"/>
						<g>
							
								<linearGradient id="SVGID_00000118358353086477290850000010022227024821359535_" gradientUnits="userSpaceOnUse" x1="1518.7227" y1="1351.9907" x2="1511.0438" y2="1377.4783" gradientTransform="matrix(1.0295 0.11 -0.1166 1.0914 -281.2317 40.1212)">
								<stop  offset="0" style="stop-color:#AA80F9"/>
								<stop  offset="0.9964" style="stop-color:#6165D7"/>
							</linearGradient>
							<path style="fill:url(#SVGID_00000118358353086477290850000010022227024821359535_);" d="M1152.923,1726.83
								c-1.94-0.168-3.777-1.215-5.001-3.069c-6.24-9.456-15.956-15.097-26.647-15.48l-23.986-0.859
								c-8.37-0.3-16.562,2.97-23.069,9.204c-3.076,2.947-7.595,2.648-10.095-0.667c-2.5-3.314-2.034-8.389,1.04-11.337
								c9.368-8.981,21.164-13.694,33.218-13.267l23.987,0.849c14.969,0.528,28.559,8.417,37.292,21.643
								c2.313,3.503,1.559,8.563-1.684,11.3C1156.451,1726.435,1154.646,1726.98,1152.923,1726.83z"/>
							
								<linearGradient id="SVGID_00000169533971112910183200000014141802719726648464_" gradientUnits="userSpaceOnUse" x1="1518.717" y1="1352.0095" x2="1511.041" y2="1377.4872" gradientTransform="matrix(1.0295 0.11 -0.1166 1.0914 -281.2317 40.1212)">
								<stop  offset="0" style="stop-color:#AA80F9"/>
								<stop  offset="0.9964" style="stop-color:#6165D7"/>
							</linearGradient>
							<path style="opacity:0.3;fill:url(#SVGID_00000169533971112910183200000014141802719726648464_);" d="M1144.613,1709.643
								c-16.951-7.251-16.475-12.53-25.609-13.72c-17.068-2.224-25.947,15.273-42.367,11.446c-3.847-0.896-7.001-2.707-9.45-4.583
								c-0.685,0.592-1.361,1.203-2.022,1.837c-3.074,2.947-3.54,8.022-1.04,11.337c2.5,3.315,7.02,3.613,10.095,0.667
								c6.507-6.234,14.7-9.504,23.069-9.204l23.986,0.859c10.691,0.384,20.407,6.024,26.647,15.48
								c1.224,1.854,3.061,2.901,5.001,3.069c1.724,0.149,3.529-0.395,5.054-1.683c2.939-2.481,3.833-6.87,2.253-10.278
								C1155.644,1713.738,1150.331,1712.089,1144.613,1709.643z"/>
						</g>
					</g>
					<g>
						<g>
							
								<linearGradient id="SVGID_00000012443234967112436710000001145453882874577057_" gradientUnits="userSpaceOnUse" x1="1470.0104" y1="1729.7561" x2="1512.0717" y2="1729.7561" gradientTransform="matrix(0.9943 0.1063 -0.1063 0.9943 -246.6458 -99.2899)">
								<stop  offset="0" style="stop-color:#AA80F9"/>
								<stop  offset="0.9964" style="stop-color:#6165D7"/>
							</linearGradient>
							<path style="fill:url(#SVGID_00000012443234967112436710000001145453882874577057_);" d="M1072.974,1780.961
								c-2.492,23.043-13.898,40.881-25.47,39.846c-11.565-1.035-18.919-20.531-16.433-43.549
								c2.486-23.021,13.877-40.867,25.448-39.858C1068.096,1738.41,1075.467,1757.914,1072.974,1780.961z"/>
							
								<linearGradient id="SVGID_00000055673323218353338030000017983114622767381670_" gradientUnits="userSpaceOnUse" x1="1474.0696" y1="1737.3007" x2="1440.301" y2="1756.9479" gradientTransform="matrix(0.9943 0.1063 -0.1063 0.9943 -246.6458 -99.2899)">
								<stop  offset="0" style="stop-color:#AA80F9"/>
								<stop  offset="0.9964" style="stop-color:#6165D7"/>
							</linearGradient>
							<path style="fill:url(#SVGID_00000055673323218353338030000017983114622767381670_);" d="M1068.851,1780.597
								c-2.492,23.041-13.895,40.877-25.465,39.842c-11.563-1.035-18.916-20.529-16.43-43.544
								c2.486-23.018,13.874-40.863,25.442-39.854C1063.974,1738.05,1071.342,1757.552,1068.851,1780.597z"/>
							
								<linearGradient id="SVGID_00000011000814887322232810000013599644364736214171_" gradientUnits="userSpaceOnUse" x1="1450.1088" y1="1729.9554" x2="1496.3098" y2="1729.9554" gradientTransform="matrix(0.9943 0.1063 -0.1063 0.9943 -246.6458 -99.2899)">
								<stop  offset="0" style="stop-color:#AA80F9"/>
								<stop  offset="0.9964" style="stop-color:#6165D7"/>
							</linearGradient>
							<path style="fill:url(#SVGID_00000011000814887322232810000013599644364736214171_);" d="M1047.206,1740.223l-3.77-0.329
								c-15.515-1.355-29.894,14.33-32.129,35.03l-0.125,1.162c-2.235,20.698,8.516,38.598,24.024,39.985l3.768,0.337
								c7.829,0.7,16.023-15.79,18.297-36.835C1059.547,1758.526,1055.039,1740.907,1047.206,1740.223z"/>
						</g>
						
							<linearGradient id="SVGID_00000126297218982857761620000003633634714405330879_" gradientUnits="userSpaceOnUse" x1="1450.11" y1="1729.6677" x2="1477.8793" y2="1729.6677" gradientTransform="matrix(0.9943 0.1063 -0.1063 0.9943 -246.6458 -99.2899)">
							<stop  offset="0" style="stop-color:#AA80F9"/>
							<stop  offset="0.9964" style="stop-color:#6165D7"/>
						</linearGradient>
						<path style="fill:url(#SVGID_00000126297218982857761620000003633634714405330879_);" d="M1038.973,1777.366
							c-1.641,15.183-9.166,26.938-16.805,26.257c-7.637-0.681-12.498-13.53-10.86-28.702c1.638-15.173,9.156-26.932,16.796-26.262
							C1035.746,1749.328,1040.613,1762.182,1038.973,1777.366z"/>
					</g>
				</g>
			</g>
			<g>
				
					<linearGradient id="SVGID_00000121270283992672148510000008620844153386382238_" gradientUnits="userSpaceOnUse" x1="2674.3442" y1="1053.7197" x2="1999.8309" y2="2066.5029">
					<stop  offset="0" style="stop-color:#444B8C"/>
					<stop  offset="0.9964" style="stop-color:#26264F"/>
				</linearGradient>
				<path style="fill:url(#SVGID_00000121270283992672148510000008620844153386382238_);" d="M2162.938,2353.707
					c-16.146-48.934-13.123-102.059,8.493-149.076l24.812-54.911c6.468-14.07,9.379-29.315,9.379-44.706v-30.845
					c0-13.357-6.29-25.779-17.531-33.19l-104.045-68.735c-30.247-19.939-52.169-49.753-62.109-84.259
					c-9.955-34.559-23.968-80.452-38.936-119.995c-17.661-46.666-61.204-78.562-111.575-81.774l-35.347-2.255
					c-69.985-4.462-131.704,46.963-139.806,116.138c-7.647,65.298-20.204,140.47-40.018,183.518
					c-19.016,41.302-24.598,86.902-16.229,131.269c26.468,140.259,63.681,333.945,41.299,381.639
					c322.052,35.357,529.204,1.404,529.204,1.404L2162.938,2353.707z M1817.398,2016.258l-62.979,0.726
					c0,0,7.606-42.749,15.723-82.159c8.121-39.429,39.116-53.356,42.168-53.404l11.704-0.181L1817.398,2016.258z M1902.587,2015.497
					l-23.508-132.689c49.609,1.26,87.553,137.02,89.093,137.509C1969.712,2020.807,1902.587,2015.497,1902.587,2015.497z"/>
				
					<linearGradient id="SVGID_00000137120119286528426030000001466798214745968512_" gradientUnits="userSpaceOnUse" x1="1656.3954" y1="2097.9683" x2="2231.3699" y2="2097.9683">
					<stop  offset="0" style="stop-color:#444B8C"/>
					<stop  offset="0.9964" style="stop-color:#26264F"/>
				</linearGradient>
				<path style="fill:url(#SVGID_00000137120119286528426030000001466798214745968512_);" d="M2183.721,2353.675
					c-16.166-48.964-13.139-102.121,8.503-149.166l25.001-54.931c6.476-14.078,9.548-29.316,9.548-44.714v-30.861
					c0-13.364-6.455-25.811-17.709-33.226l-104.246-68.784c-30.282-19.951-52.273-49.788-62.226-84.315
					c-9.967-34.579-24.019-80.504-39.005-120.069c-17.683-46.694-61.289-78.61-111.72-81.823l-35.395-2.257
					c-70.069-4.464-131.865,46.992-139.976,116.209c-7.657,65.337-20.231,140.554-40.068,183.628
					c-19.038,41.327-24.628,86.954-16.249,131.347c26.499,140.342,63.757,334.145,41.348,381.867
					c322.439,35.379,529.843,1.405,529.843,1.405L2183.721,2353.675z M1837.764,2016.023l-63.054,0.727
					c0,0,7.615-42.774,15.741-82.208c8.13-39.453,39.163-53.389,42.219-53.436l11.718-0.182L1837.764,2016.023z M1923.055,2015.261
					l-23.536-132.769c49.669,1.26,87.659,137.102,89.2,137.591C1990.262,2020.573,1923.055,2015.261,1923.055,2015.261z"/>
			</g>
			
				<linearGradient id="SVGID_00000074402322312541930170000001717542350347860369_" gradientUnits="userSpaceOnUse" x1="1235.0627" y1="2454.5847" x2="1411.4889" y2="1901.7819" gradientTransform="matrix(1 0 0 1 672.1235 0)">
				<stop  offset="0" style="stop-color:#FF9085"/>
				<stop  offset="1" style="stop-color:#FB6FBB"/>
			</linearGradient>
			<path style="fill:url(#SVGID_00000074402322312541930170000001717542350347860369_);" d="M1901.688,2260.096
				c-23.923,10.457-56.316,24.837-99.98,23.525c-27.802-0.835-42.989-1.292-52.931-10.782
				c-33.111-31.609,24.5-135.222,141.074-341.158c37.281-65.86,61.79-105.519,110.969-124.138
				c55.835-21.139,109.532-2.31,129.253,4.605c13.914,4.879,126.922,46.544,148.01,153.891
				c17.233,87.722-33.848,184.029-127.426,229.366c-5.555-7.842-11.109-15.683-16.663-23.525
				c8.563-13.784,25.015-44.519,25.485-86.257c0.503-44.734-17.401-97.682-32.346-97.039c-23.822,1.024,4.244,136.29-77.436,208.782
				C2036.478,2209.097,2044.737,2197.571,1901.688,2260.096z"/>
			
				<linearGradient id="SVGID_00000121249570152773129870000008157252191244799924_" gradientUnits="userSpaceOnUse" x1="1228.4739" y1="2452.4817" x2="1404.8998" y2="1899.6796" gradientTransform="matrix(1 0 0 1 672.1235 0)">
				<stop  offset="0" style="stop-color:#FF9085"/>
				<stop  offset="1" style="stop-color:#FB6FBB"/>
			</linearGradient>
			<path style="opacity:0.4;fill:url(#SVGID_00000121249570152773129870000008157252191244799924_);" d="M2235.935,2030.73
				c-5.136-35.822-21.104-147.216-90.178-174.475c-54.161-21.373-107.729,22.099-133.307-4.901
				c-10.349-10.924-11.203-28.199-8.723-44.85c-0.969,0.343-1.936,0.67-2.906,1.038c-49.179,18.619-73.688,58.278-110.969,124.138
				c-116.574,205.936-174.186,309.55-141.074,341.158c9.942,9.49,25.129,9.947,52.931,10.782
				c43.664,1.312,76.057-13.068,99.98-23.525c143.048-62.525,134.789-50.999,148.01-62.732
				c81.68-72.491,53.614-207.758,77.436-208.782c14.945-0.642,32.85,52.305,32.346,97.039c-0.47,41.738-16.922,72.473-25.485,86.257
				c5.555,7.842,11.109,15.683,16.663,23.525c34.693-16.809,63.529-40.634,85.224-68.419
				C2239.906,2098.583,2240.999,2066.053,2235.935,2030.73z"/>
			<g>
				<g>
					<polygon style="fill:#FFFFFF;" points="1465.122,2223.304 2383.662,2152.572 3113.6,2208.946 2189.376,2286.73 					"/>
					<polygon style="fill:#B7C0CE;" points="2189.376,2286.731 1465.122,2223.303 1465.122,2253.939 2189.376,2317.366 
						3113.6,2239.582 3113.6,2208.946 					"/>
				</g>
			</g>
			
				<linearGradient id="SVGID_00000178890712455957909400000008895814260984315309_" gradientUnits="userSpaceOnUse" x1="1148.5955" y1="2648.2852" x2="3113.5879" y2="2648.2852">
				<stop  offset="0.494" style="stop-color:#EBEFF2"/>
				<stop  offset="1" style="stop-color:#FFFFFF"/>
			</linearGradient>
			<polygon style="fill:url(#SVGID_00000178890712455957909400000008895814260984315309_);" points="3113.588,2239.576 
				3110.253,2249.872 2927.204,2814.554 1179.299,3052.817 1148.595,3056.995 1149.036,3053.221 1149.878,3046.516 
				1229.715,2386.39 			"/>
			<polygon style="fill:#D8DEE8;" points="1229.736,2386.365 1148.599,3055.806 1136.101,3053.365 543.033,2936.613 
				431.761,2347.972 425.193,2313.183 			"/>
			<g>
				<g>
					<polygon style="fill:#FFFFFF;" points="425.211,2292.707 2428.912,2152.572 3113.6,2208.946 1236.729,2363.774 					"/>
					<polygon style="fill:#B7C0CE;" points="1236.729,2363.775 425.211,2292.705 425.211,2327.033 1236.729,2398.101 
						3113.6,2239.582 3113.6,2208.946 					"/>
				</g>
			</g>
			<g>
				
					<linearGradient id="SVGID_00000135666594976029272200000010507612792137507485_" gradientUnits="userSpaceOnUse" x1="856.5783" y1="2277.9065" x2="1397.2479" y2="2277.9065">
					<stop  offset="0" style="stop-color:#AA80F9"/>
					<stop  offset="0.9964" style="stop-color:#6165D7"/>
				</linearGradient>
				<polygon style="fill:url(#SVGID_00000135666594976029272200000010507612792137507485_);" points="856.578,2272.184 
					860.204,2283.911 1010.379,2313.183 1397.248,2254.827 1397.248,2242.63 				"/>
				
					<linearGradient id="SVGID_00000039135276457805214640000007723291339880079750_" gradientUnits="userSpaceOnUse" x1="856.3243" y1="2261.2249" x2="1397.0026" y2="2261.2249">
					<stop  offset="0" style="stop-color:#40447E"/>
					<stop  offset="0.9964" style="stop-color:#3C3B6B"/>
				</linearGradient>
				<polygon style="fill:url(#SVGID_00000039135276457805214640000007723291339880079750_);" points="856.324,2272.184 
					1008.316,2300.461 1397.003,2243.568 1330.126,2221.989 				"/>
			</g>
			<g>
				<g>
					
						<linearGradient id="SVGID_00000038395529545514246170000016909605601253719470_" gradientUnits="userSpaceOnUse" x1="94.4706" y1="2065.5332" x2="617.5617" y2="2065.5332" gradientTransform="matrix(-1 0 0 1 1755.9615 0)">
						<stop  offset="0" style="stop-color:#AA80F9"/>
						<stop  offset="0.9964" style="stop-color:#6165D7"/>
					</linearGradient>
					<path style="fill:url(#SVGID_00000038395529545514246170000016909605601253719470_);" d="M1140.705,2257.503l-2.305-375.48
						c-0.039-6.295,5.078-10.82,12.34-10.918l489.268-6.539c4.088-0.055,11.919,3.423,15.023,6.395
						c3.098,2.966,6.604,3.532,6.455,7.334l-17.737,326.127c-0.281,5.155-4.473,9.164-10.239,9.79l-481.329,52.291
						L1140.705,2257.503z"/>
					<g>
						
							<linearGradient id="SVGID_00000133488910348046625410000017439509546107693965_" gradientUnits="userSpaceOnUse" x1="489.6093" y1="1857.0986" x2="145.7385" y2="2379.6472" gradientTransform="matrix(-1 0 0 1 1755.9615 0)">
							<stop  offset="0" style="stop-color:#AA80F9"/>
							<stop  offset="0.9964" style="stop-color:#6165D7"/>
						</linearGradient>
						<path style="fill:url(#SVGID_00000133488910348046625410000017439509546107693965_);" d="M1152.181,2266.502l-0.771-376.823
							c-0.014-6.259,5.084-10.759,12.302-10.863l487.099-7.032c4.07-0.059,8.226,1.627,11.319,4.589
							c3.086,2.955,4.786,6.868,4.634,10.66l-12.929,323.05c-0.211,5.276-4.522,9.387-10.43,9.946L1152.181,2266.502z"/>
					</g>
					
						<linearGradient id="SVGID_00000168802022998450439330000007027482410981656240_" gradientUnits="userSpaceOnUse" x1="98.3615" y1="2191.2742" x2="603.9456" y2="2191.2742" gradientTransform="matrix(-1 0 0 1 1755.9615 0)">
						<stop  offset="0" style="stop-color:#AA80F9"/>
						<stop  offset="0.9964" style="stop-color:#6165D7"/>
					</linearGradient>
					<path style="opacity:0.3;fill:url(#SVGID_00000168802022998450439330000007027482410981656240_);" d="M1152.181,2266.501
						l491.225-46.472c5.908-0.559,10.219-4.67,10.43-9.946l3.764-94.035c-139.762,58.823-325.026,53.525-505.584,69.434
						L1152.181,2266.501z"/>
					<path style="fill:#FFFFFF;" d="M1418.363,2317.344l-17.49,5.295c0,0-90.897-27.695-95.938-29.233
						c-0.797-0.243-5.405-3.01-2.701-4.021c15.438-5.777,107.205-11.103,107.205-11.103l66.708,6.848L1418.363,2317.344z"/>
					
						<linearGradient id="SVGID_00000022541761073201194740000002615611345159994248_" gradientUnits="userSpaceOnUse" x1="429.2732" y1="2246.8491" x2="264.9531" y2="2345.4414" gradientTransform="matrix(-1 0 0 1 1755.9615 0)">
						<stop  offset="0" style="stop-color:#AA80F9"/>
						<stop  offset="0.9964" style="stop-color:#6165D7"/>
					</linearGradient>
					<path style="fill:url(#SVGID_00000022541761073201194740000002615611345159994248_);" d="M1417.117,2313.106l-17.684,5.637
						c0,0-92.097-27.814-97.2-29.358c-5.059-1.531,104.826-12.767,104.826-12.767l68.71,2.45L1417.117,2313.106z"/>
					
						<linearGradient id="SVGID_00000172419669016751114010000009961711986302036645_" gradientUnits="userSpaceOnUse" x1="1397.0026" y1="2192.0632" x2="1541.6401" y2="2192.0632">
						<stop  offset="0" style="stop-color:#AA80F9"/>
						<stop  offset="0.9964" style="stop-color:#6165D7"/>
					</linearGradient>
					<path style="fill:url(#SVGID_00000172419669016751114010000009961711986302036645_);" d="M1491.133,2060.779
						c0,0,46.035,219.599,50.402,231.519c4.007,10.937-108.153,28.417-135.967,31.028c-2.33,0.219-5.892-1.224-7.022-1.818
						c-8.087-0.444,18.235-255.866,18.235-255.866l2.826,0.052L1491.133,2060.779z"/>
					
						<linearGradient id="SVGID_00000039825022750872191870000000165605838317292687_" gradientUnits="userSpaceOnUse" x1="333.812" y1="2084.1309" x2="233.5524" y2="2506.2773" gradientTransform="matrix(-1 0 0 1 1755.9615 0)">
						<stop  offset="0" style="stop-color:#AA80F9"/>
						<stop  offset="0.9964" style="stop-color:#6165D7"/>
					</linearGradient>
					<path style="fill:url(#SVGID_00000039825022750872191870000000165605838317292687_);" d="M1490.19,2060.777
						c0,0,51.497,227.815,55.755,240.042c4.229,12.147-128.282,22.764-140.098,22.473c-7.685-0.817,13.382-257.495,13.382-257.495
						L1490.19,2060.777z"/>
				</g>
			</g>
			
				<linearGradient id="SVGID_00000129893997174671801610000006070955936144857484_" gradientUnits="userSpaceOnUse" x1="806.2198" y1="2259.3159" x2="929.5761" y2="2259.3159">
				<stop  offset="0" style="stop-color:#FFC444"/>
				<stop  offset="0.9964" style="stop-color:#F36F56"/>
			</linearGradient>
			<path style="fill:url(#SVGID_00000129893997174671801610000006070955936144857484_);" d="M806.241,2250.825
				c0,0,11.654-14.706,39.325-16.605c27.671-1.9,71.698,16.487,80.39,29.656c8.692,13.17,0.399,21.223-10.784,20.644
				c-11.182-0.58-26.558-15.956-47.426-19.251S805.143,2293.024,806.241,2250.825z"/>
			
				<linearGradient id="SVGID_00000136408017618142783880000007119265768979847299_" gradientUnits="userSpaceOnUse" x1="1089.2595" y1="2298.9045" x2="1237.4135" y2="1834.6877" gradientTransform="matrix(1 0 0 1 672.1235 0)">
				<stop  offset="0" style="stop-color:#FF9085"/>
				<stop  offset="1" style="stop-color:#FB6FBB"/>
			</linearGradient>
			<path style="fill:url(#SVGID_00000136408017618142783880000007119265768979847299_);" d="M1870.799,2175.861l15.772-6.525
				c0,0-88.207-89.297,77.24-271.387c0,0,81.497-104.416,40.952-95.353c-52.526,11.741-138.421,36.852-217.682,145.033
				C1707.82,2055.81,1753.281,2150.48,1870.799,2175.861z"/>
			
				<linearGradient id="SVGID_00000146471481878241881950000001103910530684665984_" gradientUnits="userSpaceOnUse" x1="1334.2036" y1="1792.8981" x2="1451.8234" y2="1792.8981" gradientTransform="matrix(1 0 0 1 672.1235 0)">
				<stop  offset="0" style="stop-color:#FFC444"/>
				<stop  offset="0.9964" style="stop-color:#F36F56"/>
			</linearGradient>
			<path style="fill:url(#SVGID_00000146471481878241881950000001103910530684665984_);" d="M2105.502,1810.224
				c-5.832-4.579-7.046-12.929-2.758-18.979l12.625-17.812l-13.169-24.344l-46.343,34.691
				c-12.303,9.209-26.662,15.286-41.839,17.706l-7.69,1.226c0,0,44.64,24.221,67.53,32.021c22.89,7.8,50.09-10.03,50.09-10.03
				L2105.502,1810.224z"/>
			<g>
				<g>
					
						<linearGradient id="SVGID_00000057850667177165595690000012164869644383946155_" gradientUnits="userSpaceOnUse" x1="822.5935" y1="1845.5081" x2="807.4116" y2="1867.161" gradientTransform="matrix(0.9799 -0.1993 0.1993 0.9799 1005.5059 65.2842)">
						<stop  offset="0" style="stop-color:#AA80F9"/>
						<stop  offset="0.9964" style="stop-color:#6165D7"/>
					</linearGradient>
					<path style="fill:url(#SVGID_00000057850667177165595690000012164869644383946155_);" d="M2158.92,1701.304l3.008-0.612
						c12.385-2.519,25.18,8.99,28.58,25.705l0.191,0.938c3.399,16.715-3.885,32.307-16.271,34.825l-3.008,0.612
						c-6.248,1.271-14.111-11.46-17.563-28.434S2152.673,1702.575,2158.92,1701.304z"/>
					
						<linearGradient id="SVGID_00000159449833932827627100000018380082401384770971_" gradientUnits="userSpaceOnUse" x1="794.9737" y1="1879.8125" x2="824.3824" y2="1819.3615" gradientTransform="matrix(0.9799 -0.1993 0.1993 0.9799 1005.5059 65.2842)">
						<stop  offset="0" style="stop-color:#AA80F9"/>
						<stop  offset="0.9964" style="stop-color:#6165D7"/>
					</linearGradient>
					<path style="fill:url(#SVGID_00000159449833932827627100000018380082401384770971_);" d="M2146.8,1735.774
						c3.778,18.579,14.079,32.168,23.308,30.291c9.229-1.877,13.892-18.509,10.114-37.088
						c-3.778-18.579-14.567-32.069-23.795-30.192C2147.197,1700.662,2143.022,1717.196,2146.8,1735.774z"/>
					
						<linearGradient id="SVGID_00000120543967559171402080000009020199007190209686_" gradientUnits="userSpaceOnUse" x1="816.4434" y1="1854.8752" x2="821.4351" y2="1851.7632" gradientTransform="matrix(0.9799 -0.1993 0.1993 0.9799 1005.5059 65.2842)">
						<stop  offset="0" style="stop-color:#444B8C"/>
						<stop  offset="0.9964" style="stop-color:#3E4177"/>
					</linearGradient>
					<polygon style="fill:url(#SVGID_00000120543967559171402080000009020199007190209686_);" points="2170.59,1765.968 
						2167.066,1766.684 2153.384,1699.404 2156.907,1698.688 					"/>
					
						<linearGradient id="SVGID_00000075156371815378045820000013625969527142784688_" gradientUnits="userSpaceOnUse" x1="820.9935" y1="1838.6757" x2="805.7285" y2="1856.7612" gradientTransform="matrix(0.9799 -0.1993 0.1993 0.9799 1005.5059 65.2842)">
						<stop  offset="0" style="stop-color:#AA80F9"/>
						<stop  offset="0.9964" style="stop-color:#6165D7"/>
					</linearGradient>
					<path style="fill:url(#SVGID_00000075156371815378045820000013625969527142784688_);" d="M2143.514,1736.442
						c3.778,18.579,14.323,32.119,23.552,30.242c9.229-1.877,13.648-18.459,9.87-37.038c-3.778-18.579-14.323-32.119-23.552-30.242
						C2144.155,1701.281,2139.736,1717.864,2143.514,1736.442z"/>
					
						<linearGradient id="SVGID_00000159449303137620610280000016853187876085941391_" gradientUnits="userSpaceOnUse" x1="789.9124" y1="1864.5142" x2="808.457" y2="1864.5142" gradientTransform="matrix(0.9799 -0.1993 0.1993 0.9799 1005.5059 65.2842)">
						<stop  offset="0.0036" style="stop-color:#6165D7"/>
						<stop  offset="1" style="stop-color:#AA80F9"/>
					</linearGradient>
					<path style="opacity:0.6;fill:url(#SVGID_00000159449303137620610280000016853187876085941391_);" d="M2151.139,1734.892
						c2.054,10.102,7.788,17.464,12.806,16.443c5.018-1.02,7.421-10.037,5.366-20.139c-2.054-10.102-7.788-17.464-12.806-16.443
						C2151.487,1715.774,2149.084,1724.79,2151.139,1734.892z"/>
				</g>
				<g>
					
						<linearGradient id="SVGID_00000080182525674180069340000000397483254792016032_" gradientUnits="userSpaceOnUse" x1="1482.7419" y1="1849.4744" x2="1418.8127" y2="1687.1058" gradientTransform="matrix(1 0 0 1 672.1235 0)">
						<stop  offset="0" style="stop-color:#311944"/>
						<stop  offset="1" style="stop-color:#6B3976"/>
					</linearGradient>
					<path style="fill:url(#SVGID_00000080182525674180069340000000397483254792016032_);" d="M2121.981,1775.749
						c-4.441,1.246-13.926,3.539-26.464,3.344c-11.531-0.179-32.544-0.703-46.202-15.415c-2.313-2.491-7.865-8.632-9.496-18.252
						c-0.47-2.77-2.179-12.847,3.431-20.584c6.053-8.35,13.703-4.42,21.074-11.762c10.491-10.449,2.073-25.454,10.782-31.366
						c7.674-5.21,15.442,5.608,32.346,1.96c9.195-1.984,9.158-5.672,21.564-8.822c8.241-2.092,18.611-4.724,24.119,0.316
						c5.316,4.865,0.43,11.687,5.609,21.417c5.21,9.788,12.795,7.846,16.621,15.149c7.086,13.524-9.209,38.729-26.681,51.554
						C2137.942,1771.173,2126.62,1774.448,2121.981,1775.749z"/>
					
						<linearGradient id="SVGID_00000070816487626362965510000005754571478507248033_" gradientUnits="userSpaceOnUse" x1="5202.2573" y1="-65.641" x2="5199.4209" y2="162.8705" gradientTransform="matrix(0.9971 -0.0753 0.0753 0.9971 -3062.8423 2194.3374)">
						<stop  offset="0" style="stop-color:#FFC444"/>
						<stop  offset="0.9964" style="stop-color:#F36F56"/>
					</linearGradient>
					<path style="fill:url(#SVGID_00000070816487626362965510000005754571478507248033_);" d="M2095.323,1776.885
						c0,0,14.559,21.917,44.108,18.847c26.405-2.745,30.937-57.737,14.25-68.669c-5.572-3.648-16.813-4.796-26.004-2.041
						c-5.432,1.629-7.294,3.788-16.222,6.293c-8.242,2.315-10.552,1.568-13.058,3.602c-3.135,2.547-5.487,8.569-0.511,24.415
						c-4.991-4.52-11.033-6.082-15.357-4.021c-0.69,0.33-2.525,1.551-3.573,3.329
						C2075.169,1765.078,2081.266,1772.836,2095.323,1776.885z"/>
				</g>
				<g>
					
						<linearGradient id="SVGID_00000036945521228987176040000013634905433652634020_" gradientUnits="userSpaceOnUse" x1="749.3228" y1="1563.9402" x2="777.8353" y2="1505.3312" gradientTransform="matrix(1.0146 -0.2063 0.2187 1.0756 1014.0135 209.5301)">
						<stop  offset="0" style="stop-color:#AA80F9"/>
						<stop  offset="0.9964" style="stop-color:#6165D7"/>
					</linearGradient>
					<path style="fill:url(#SVGID_00000036945521228987176040000013634905433652634020_);" d="M2084.917,1727.048l-3.833,0.742
						l-2.318-11.841c-3.996-20.42,6.761-39.985,24.49-44.542l18.979-4.878c9.924-2.55,20.263-0.423,29.12,5.988
						c8.857,6.411,15.013,16.225,17.333,27.636l1.272,6.255l-4.502-2.547l-0.596-2.93c-2.076-10.212-7.585-18.995-15.512-24.732
						c-7.927-5.737-17.184-7.638-26.06-5.359l-18.979,4.877c-15.718,4.04-25.255,21.385-21.712,39.489L2084.917,1727.048z"/>
					<g>
						
							<linearGradient id="SVGID_00000145772545218335672970000014228766009418846624_" gradientUnits="userSpaceOnUse" x1="769.2345" y1="1491.1093" x2="763.0905" y2="1511.5022" gradientTransform="matrix(1.0146 -0.2063 0.2187 1.0756 1014.0135 209.5301)">
							<stop  offset="0" style="stop-color:#AA80F9"/>
							<stop  offset="0.9964" style="stop-color:#6165D7"/>
						</linearGradient>
						<path style="fill:url(#SVGID_00000145772545218335672970000014228766009418846624_);" d="M2153.703,1682.451
							c-1.556,0.317-3.251-0.083-4.67-1.261c-7.236-6.01-16.236-8.21-24.688-6.039l-18.979,4.878
							c-6.628,1.703-12.227,6.185-15.765,12.619c-1.672,3.042-5.29,3.856-8.081,1.819c-2.791-2.038-3.697-6.156-2.024-9.198
							c5.095-9.267,13.158-15.721,22.705-18.174l18.979-4.877c11.831-3.042,24.415,0.038,34.536,8.444
							c2.679,2.226,3.356,6.387,1.51,9.294C2156.358,1681.324,2155.085,1682.17,2153.703,1682.451z"/>
						
							<linearGradient id="SVGID_00000140712393604054003370000001337638953229519251_" gradientUnits="userSpaceOnUse" x1="769.2635" y1="1491.0131" x2="763.1044" y2="1511.4562" gradientTransform="matrix(1.0146 -0.2063 0.2187 1.0756 1014.0135 209.5301)">
							<stop  offset="0" style="stop-color:#AA80F9"/>
							<stop  offset="0.9964" style="stop-color:#6165D7"/>
						</linearGradient>
						<path style="opacity:0.3;fill:url(#SVGID_00000140712393604054003370000001337638953229519251_);" d="M2142.92,1670.827
							c-15.055-1.797-16.003-6.071-23.442-4.898c-13.909,2.193-16.481,18.06-30.301,18.847c-3.24,0.185-6.166-0.513-8.555-1.428
							c-0.389,0.626-0.766,1.266-1.126,1.92c-1.673,3.042-0.766,7.16,2.024,9.198c2.791,2.038,6.409,1.223,8.081-1.819
							c3.538-6.434,9.136-10.916,15.765-12.619l18.979-4.878c8.452-2.171,17.451,0.029,24.688,6.039
							c1.419,1.178,3.114,1.578,4.67,1.261c1.382-0.281,2.654-1.128,3.522-2.496c1.673-2.635,1.274-6.3-0.811-8.62
							C2152.555,1671.504,2147.996,1671.433,2142.92,1670.827z"/>
					</g>
				</g>
				<g>
					<g>
						
							<linearGradient id="SVGID_00000005250036261115560770000010984304147198514332_" gradientUnits="userSpaceOnUse" x1="708.1946" y1="1863.9465" x2="742.6772" y2="1863.9465" gradientTransform="matrix(0.9799 -0.1993 0.1993 0.9799 1005.5059 65.2842)">
							<stop  offset="0" style="stop-color:#AA80F9"/>
							<stop  offset="0.9964" style="stop-color:#6165D7"/>
						</linearGradient>
						<path style="fill:url(#SVGID_00000005250036261115560770000010984304147198514332_);" d="M2104.74,1743.75
							c3.82,18.784-0.648,35.549-9.979,37.447c-9.331,1.897-19.991-11.791-23.811-30.575s0.648-35.549,9.979-37.446
							C2090.26,1711.278,2100.92,1724.967,2104.74,1743.75z"/>
						
							<linearGradient id="SVGID_00000168795305523606592860000001984511448011390612_" gradientUnits="userSpaceOnUse" x1="711.5236" y1="1870.0684" x2="683.8444" y2="1886.1726" gradientTransform="matrix(0.9799 -0.1993 0.1993 0.9799 1005.5059 65.2842)">
							<stop  offset="0" style="stop-color:#AA80F9"/>
							<stop  offset="0.9964" style="stop-color:#6165D7"/>
						</linearGradient>
						<path style="fill:url(#SVGID_00000168795305523606592860000001984511448011390612_);" d="M2101.418,1744.426
							c3.82,18.784-0.648,35.549-9.979,37.447c-9.331,1.897-19.991-11.791-23.811-30.575c-3.82-18.784,0.648-35.549,9.978-37.446
							C2086.938,1711.953,2097.598,1725.642,2101.418,1744.426z"/>
						
							<linearGradient id="SVGID_00000002361739873659295590000015944534067612843961_" gradientUnits="userSpaceOnUse" x1="691.8521" y1="1863.9463" x2="729.7646" y2="1863.9463" gradientTransform="matrix(0.9799 -0.1993 0.1993 0.9799 1005.5059 65.2842)">
							<stop  offset="0" style="stop-color:#AA80F9"/>
							<stop  offset="0.9964" style="stop-color:#6165D7"/>
						</linearGradient>
						<path style="fill:url(#SVGID_00000002361739873659295590000015944534067612843961_);" d="M2074.331,1717.576l-3.041,0.619
							c-12.521,2.546-19.886,18.31-16.45,35.209l0.193,0.948c3.437,16.899,16.373,28.534,28.895,25.988l3.041-0.619
							c6.317-1.284,8.608-16.238,5.118-33.399C2088.597,1729.162,2080.647,1716.292,2074.331,1717.576z"/>
					</g>
					
						<linearGradient id="SVGID_00000075138543984716635120000002796199606286610826_" gradientUnits="userSpaceOnUse" x1="691.8523" y1="1863.4592" x2="714.6509" y2="1863.4592" gradientTransform="matrix(0.9799 -0.1993 0.1993 0.9799 1005.5059 65.2842)">
						<stop  offset="0" style="stop-color:#AA80F9"/>
						<stop  offset="0.9964" style="stop-color:#6165D7"/>
					</linearGradient>
					<path style="fill:url(#SVGID_00000075138543984716635120000002796199606286610826_);" d="M2077.18,1748.858
						c2.519,12.387-0.44,23.446-6.609,24.7c-6.169,1.255-13.213-7.77-15.731-20.157c-2.519-12.387,0.44-23.446,6.609-24.7
						S2074.661,1736.471,2077.18,1748.858z"/>
				</g>
			</g>
			<g>
				
					<linearGradient id="SVGID_00000077314623437869607700000018077893736546028976_" gradientUnits="userSpaceOnUse" x1="1238.9598" y1="2195.4402" x2="1723.8473" y2="2195.4402" gradientTransform="matrix(1 0 0 1 672.1235 0)">
					<stop  offset="0" style="stop-color:#AA80F9"/>
					<stop  offset="0.9964" style="stop-color:#6165D7"/>
				</linearGradient>
				<polygon style="fill:url(#SVGID_00000077314623437869607700000018077893736546028976_);" points="1911.083,2190.333 
					1913.141,2200.8 2048.935,2226.924 2395.971,2174.842 2395.971,2163.957 				"/>
				
					<linearGradient id="SVGID_00000152976492520519562770000011497151842982305671_" gradientUnits="userSpaceOnUse" x1="1236.3757" y1="2180.5522" x2="1718.9137" y2="2180.5522" gradientTransform="matrix(1 0 0 1 672.1235 0)">
					<stop  offset="0" style="stop-color:#40447E"/>
					<stop  offset="0.9964" style="stop-color:#3C3B6B"/>
				</linearGradient>
				<polygon style="fill:url(#SVGID_00000152976492520519562770000011497151842982305671_);" points="1908.499,2190.333 
					2044.147,2215.569 2391.037,2164.794 2331.352,2145.535 				"/>
			</g>
			
				<linearGradient id="SVGID_00000157298271813307864820000007537615780339257988_" gradientUnits="userSpaceOnUse" x1="1184.8003" y1="2175.1848" x2="1294.8917" y2="2175.1848" gradientTransform="matrix(1 0 0 1 672.1235 0)">
				<stop  offset="0" style="stop-color:#FFC444"/>
				<stop  offset="0.9964" style="stop-color:#F36F56"/>
			</linearGradient>
			<path style="fill:url(#SVGID_00000157298271813307864820000007537615780339257988_);" d="M1856.943,2167.607
				c0,0,10.4-13.124,35.096-14.82s63.988,14.714,71.745,26.468s0.356,18.941-9.624,18.424c-9.98-0.517-23.703-14.24-42.326-17.181
				S1855.963,2205.268,1856.943,2167.607z"/>
			<g>
				<g>
					
						<linearGradient id="SVGID_00000121258516656967231520000001080336844979312013_" gradientUnits="userSpaceOnUse" x1="-192.3828" y1="2001.9846" x2="274.7013" y2="2001.9846" gradientTransform="matrix(-1 0 0 1 2428.085 0)">
						<stop  offset="0" style="stop-color:#AA80F9"/>
						<stop  offset="0.9964" style="stop-color:#6165D7"/>
					</linearGradient>
					<path style="fill:url(#SVGID_00000121258516656967231520000001080336844979312013_);" d="M2155.553,2173.483l-2.169-335.021
						c-0.037-5.618,4.777-9.66,11.6-9.752l437.247-5.829c3.476-0.047,10.127,2.901,12.761,5.418c2.627,2.51,5.598,2.987,5.471,6.206
						l-15.051,276.619c-0.239,4.38-3.804,7.903-8.713,8.602l-430.364,61.36L2155.553,2173.483z"/>
					
						<linearGradient id="SVGID_00000013908555722224787610000018091862110954755242_" gradientUnits="userSpaceOnUse" x1="159.9483" y1="1816.2013" x2="-146.7852" y2="2282.3157" gradientTransform="matrix(-1 0 0 1 2428.085 0)">
						<stop  offset="0" style="stop-color:#AA80F9"/>
						<stop  offset="0.9964" style="stop-color:#6165D7"/>
					</linearGradient>
					<path style="fill:url(#SVGID_00000013908555722224787610000018091862110954755242_);" d="M2166.299,2181.117l-0.685-335.851
						c-0.012-5.579,4.519-9.592,10.935-9.689l434.127-6.576c3.637-0.055,7.351,1.449,10.115,4.094
						c2.758,2.639,4.277,6.135,4.142,9.524l-11.554,288.701c-0.189,4.715-4.041,8.384-9.32,8.878L2166.299,2181.117z"/>
					
						<linearGradient id="SVGID_00000151540661015288090620000002749407684453076413_" gradientUnits="userSpaceOnUse" x1="-188.6571" y1="2114.2014" x2="261.9333" y2="2114.2014" gradientTransform="matrix(-1 0 0 1 2428.085 0)">
						<stop  offset="0" style="stop-color:#AA80F9"/>
						<stop  offset="0.9964" style="stop-color:#6165D7"/>
					</linearGradient>
					<path style="opacity:0.3;fill:url(#SVGID_00000151540661015288090620000002749407684453076413_);" d="M2166.299,2181.116
						l437.76-40.919c5.279-0.494,9.131-4.163,9.32-8.878l3.364-84.033c-124.802,52.456-289.95,47.58-450.591,61.618
						L2166.299,2181.116z"/>
					<path style="fill:#FFFFFF;" d="M2403.242,2226.974l-15.61,4.725c0,0-81.122-24.717-85.622-26.089
						c-0.711-0.217-4.824-2.686-2.41-3.589c13.778-5.156,95.677-9.909,95.677-9.909l59.535,6.111L2403.242,2226.974z"/>
					
						<linearGradient id="SVGID_00000005975601724705867690000015284878563397514408_" gradientUnits="userSpaceOnUse" x1="106.6598" y1="2164.0586" x2="-39.9906" y2="2252.0491" gradientTransform="matrix(-1 0 0 1 2428.085 0)">
						<stop  offset="0" style="stop-color:#AA80F9"/>
						<stop  offset="0.9964" style="stop-color:#6165D7"/>
					</linearGradient>
					<path style="fill:url(#SVGID_00000005975601724705867690000015284878563397514408_);" d="M2402.13,2223.19l-15.782,5.031
						c0,0-82.193-24.823-86.748-26.201c-4.515-1.366,93.554-11.394,93.554-11.394l61.322,2.187L2402.13,2223.19z"/>
					
						<linearGradient id="SVGID_00000066502117818782380690000003317757577296582034_" gradientUnits="userSpaceOnUse" x1="2384.1785" y1="2115.1638" x2="2513.2627" y2="2115.1638">
						<stop  offset="0" style="stop-color:#AA80F9"/>
						<stop  offset="0.9964" style="stop-color:#6165D7"/>
					</linearGradient>
					<path style="fill:url(#SVGID_00000066502117818782380690000003317757577296582034_);" d="M2468.187,1997.997
						c0,0,41.084,195.985,44.982,206.623c3.576,9.761-96.523,25.361-121.346,27.691c-2.08,0.196-5.259-1.092-6.267-1.622
						c-7.218-0.397,16.274-228.352,16.274-228.352l2.522,0.047L2468.187,1997.997z"/>
					
						<linearGradient id="SVGID_00000123409841208557323940000011375778943716495295_" gradientUnits="userSpaceOnUse" x1="21.4638" y1="2018.8378" x2="-68.0147" y2="2395.5898" gradientTransform="matrix(-1 0 0 1 2428.085 0)">
						<stop  offset="0" style="stop-color:#AA80F9"/>
						<stop  offset="0.9964" style="stop-color:#6165D7"/>
					</linearGradient>
					<path style="fill:url(#SVGID_00000123409841208557323940000011375778943716495295_);" d="M2467.345,1997.995
						c0,0,45.959,203.318,49.759,214.23c3.774,10.841-114.488,20.316-125.033,20.056c-6.859-0.729,11.943-229.806,11.943-229.806
						L2467.345,1997.995z"/>
				</g>
			</g>
			<path style="opacity:0.2;fill:#D8DEE8;" d="M3110.253,2249.872l-183.049,564.682l-1747.905,238.263
				c-12.859,0.184-23.046,0.293-30.263,0.404c-8.501,0.073-12.935,0.147-12.935,0.147c4.58-2.272,9.197-4.58,13.777-6.852
				c13.666-6.961,27.333-14.071,40.888-21.214c114.937-60.272,226.32-126.734,333.929-198.876
				c150-100.502,294.102-156.303,477.335-161.505c155.972-4.433,320.188-0.478,465.426-64.999
				c66.611-29.605,130.509-80.166,188.618-123.217C2787.5,2379.354,2941.091,2270.023,3110.253,2249.872z"/>
		</g>
		<g>
			<g>
				
					<linearGradient id="SVGID_00000173859764299337840310000014758025658706471818_" gradientUnits="userSpaceOnUse" x1="-660.8743" y1="2974.833" x2="-346.1661" y2="2974.833" gradientTransform="matrix(-0.9749 0.2227 0.2227 0.9749 1534.6844 -190.9517)">
					<stop  offset="0" style="stop-color:#FF9085"/>
					<stop  offset="1" style="stop-color:#FB6FBB"/>
				</linearGradient>
				<path style="fill:url(#SVGID_00000173859764299337840310000014758025658706471818_);" d="M2740.862,2884.626
					c0.22-0.014,0.44-0.029,0.663-0.044c35.937-2.383,78.508-16.176,101.318-45.665c12.019-15.538,18.379-33.863,17.118-53.557
					c-0.748-11.681-2.471-23.794-6.822-34.724c-4.555-11.443-11.76-21.855-20.042-30.911c-4.625-5.057-9.668-9.809-14.884-14.254
					c-14.94-12.731-46.882-28.117-39.322-52.731c4.57-14.879,20.178-26.963,29.603-38.816
					c20.146-25.339,31.357-57.799,24.194-90.306c-5.626-25.537-27.373-47.122-49.32-60.143
					c-89.31-52.987-62.644-185.285-164.425-152.128c-101.781,33.157-100.64,142.028-39.597,229.978
					c20.437,29.445,43.867,58.965,60.457,90.827c13.061,25.083,7.425,45.779-10.697,66.502
					c-9.75,11.149-25.512,20.832-33.383,33.142c-17.581,27.498-28.604,62.931-15.712,94.437
					c12.788,31.252,45.922,48.787,77.917,54.462C2685.595,2885.602,2712.888,2886.467,2740.862,2884.626z"/>
				<g style="opacity:0.8;">
					<path style="fill:#FFFFFF;" d="M2746.735,2853.965c0.243-0.056,0.481-0.155,0.703-0.298c1.015-0.658,1.305-2.015,0.648-3.03
						c-0.714-1.103-71.239-111.505-55.541-216.476c15.955-106.686-50.856-201.738-51.533-202.686
						c-0.703-0.984-2.07-1.211-3.056-0.51c-0.985,0.703-1.213,2.072-0.511,3.056c0.666,0.934,66.453,94.592,50.766,199.492
						c-15.947,106.63,55.474,218.39,56.198,219.506C2744.922,2853.813,2745.863,2854.164,2746.735,2853.965z"/>
				</g>
			</g>
			<g>
				
					<linearGradient id="SVGID_00000045580060668418123130000016036408960087607430_" gradientUnits="userSpaceOnUse" x1="-1051.1108" y1="2835.8511" x2="-443.275" y2="2835.8511" gradientTransform="matrix(-0.9749 0.2227 0.2227 0.9749 1534.6844 -190.9517)">
					<stop  offset="0" style="stop-color:#FFC444"/>
					<stop  offset="0.9964" style="stop-color:#F36F56"/>
				</linearGradient>
				<path style="fill:url(#SVGID_00000045580060668418123130000016036408960087607430_);" d="M2685.625,2686.023
					c6.731-19.093,15.209-37.545,24.559-54.618c31.592-57.691,49.826-115.439,54.904-181.248c4-51.838-8.962-107.102-11.034-159.209
					c-1.502-37.757,2.754-75.602,7.621-112.992c10.361-79.606,31.631-174.079,89.911-233.774
					c26.983-27.639,73.446-40.369,111.688-33.719c49.54,8.616,97.947,36.393,112.568,87.05
					c20.106,69.661-23.468,162.848,42.332,216.1c100.754,81.54,89.477,200.269-5.497,278.811
					c-30.951,25.596-68.205,51.278-91.25,84.995c-23.114,33.819,4.925,76.107,16.029,109.721
					c10.419,31.542,22.342,68.231,8.093,100.488c-24.042,54.423-103.117,93.807-156.478,110.829
					c-51.631,16.47-112.781,24.319-159.282-9.411C2659.716,2838.219,2660.389,2757.61,2685.625,2686.023z"/>
				<g style="opacity:0.8;">
					<path style="fill:#FFFFFF;" d="M2817.509,2868.764c1.045-0.239,1.885-1.101,2.039-2.226
						c0.677-4.908,68.309-493.052,124.1-696.284c0.388-1.414-0.444-2.874-1.858-3.262c-1.414-0.387-2.875,0.443-3.262,1.858
						c-55.882,203.566-123.562,692.053-124.24,696.963c-0.201,1.453,0.814,2.792,2.267,2.992
						C2816.884,2868.851,2817.205,2868.834,2817.509,2868.764z"/>
				</g>
			</g>
			<g>
				
					<linearGradient id="SVGID_00000116195376068795679660000004760162722258951596_" gradientUnits="userSpaceOnUse" x1="-1033.7078" y1="3763.0945" x2="-423.9421" y2="3763.0945" gradientTransform="matrix(-0.8467 0.532 0.532 0.8467 428.8371 -155.8841)">
					<stop  offset="0.0036" style="stop-color:#E38DDD"/>
					<stop  offset="1" style="stop-color:#9571F6"/>
				</linearGradient>
				<path style="fill:url(#SVGID_00000116195376068795679660000004760162722258951596_);" d="M2985.042,2893.893
					c-10.715,4.79-21.539,9.336-32.292,13.906c-30.052,12.773-69.213,25.518-96.94,0.45c-7.897-7.14-13.417-25.273-18.07-34.927
					c-4.739-9.833-9.199-19.838-12.718-30.181c-4.862-14.292-7.478-28.958-8.374-44.006c-1.553-26.073,1.432-48.302,21.3-66.912
					c14.486-13.569,32.296-25.8,49.41-35.786c93.298-54.441,83.822-94.472,89.77-196.449s407.95-195.707,287.26,54.658
					c0,0-17.731,38.313-135.13,94.311c-21.475,10.243-47.754,24.595-56.586,48.195c-15.577,41.625,44.902,71.097,26.617,109.06
					c-10.662,22.135-36.927,43.179-56.675,56.671C3024.568,2875.215,3004.993,2884.976,2985.042,2893.893z"/>
				<g style="opacity:0.8;">
					<path style="fill:#FFFFFF;" d="M2900.335,2894.52c0.696-0.437,1.18-1.19,1.239-2.073c0.077-1.154,8.515-116.186,78.946-186.342
						c27.55-27.442,45.094-61.137,62.06-93.723c28.609-54.947,55.63-106.847,126.813-133.627c1.377-0.517,2.066-2.048,1.55-3.419
						c-0.517-1.373-2.047-2.066-3.419-1.55c-73.086,27.493-101.843,82.731-129.653,136.146
						c-16.78,32.227-34.131,65.552-61.098,92.414c-71.872,71.59-80.419,188.577-80.497,189.75c-0.098,1.462,1.01,2.728,2.473,2.825
						C2899.329,2894.959,2899.878,2894.808,2900.335,2894.52z"/>
				</g>
			</g>
		</g>
		<g>
			<path style="fill:#D8DEE8;" d="M2300.924,2587.668c0-121.102-99.26-218.703-228.539-214.164
				c-137.503,4.828-248.474,121.589-240.012,256.044c8.167,129.769,124.74,216.204,253.49,198.1
				C2207.352,2810.566,2300.924,2704.976,2300.924,2587.668z"/>
			<path style="fill:#FFFFFF;" d="M2288.478,2588.781c-0.19-114.18-94.039-205.731-215.671-201.059
				c-128.886,4.95-232.742,114.479-225.075,240.454c7.416,121.852,116.591,203.518,237.755,186.838
				C2200.201,2799.222,2288.662,2699.581,2288.478,2588.781z"/>
			
				<linearGradient id="SVGID_00000105387586929447332760000011951360551325901485_" gradientUnits="userSpaceOnUse" x1="2119.6479" y1="2673.1018" x2="1949.4691" y2="2330.9072">
				<stop  offset="0" style="stop-color:#AA80F9"/>
				<stop  offset="0.9964" style="stop-color:#6165D7"/>
			</linearGradient>
			<path style="fill:url(#SVGID_00000105387586929447332760000011951360551325901485_);" d="M1967.221,2537.583l5.048,100.5
				c8.848,49.519,70.057,82.534,96.128,94.445c7.415,3.387,16.693,1.99,23.756-3.54c24.272-19.007,77.764-65.801,82.742-113.625
				l-1.063-93.875C2172.635,2450.342,1963.839,2461.194,1967.221,2537.583z"/>
			<g>
				<path style="fill:#FFFFFF;" d="M2202.388,2639.212c-82.947-2.653-169.012,6.811-255.273,28.5
					c-5.168-26.152-10.38-52.521-15.635-79.108c95.107-22.972,189.793-32.318,280.821-28.242
					C2208.977,2586.801,2205.673,2613.084,2202.388,2639.212z"/>
				<g>
					
						<linearGradient id="SVGID_00000155831969307644073630000011185086894476786366_" gradientUnits="userSpaceOnUse" x1="2116.2593" y1="2687.0933" x2="2038.4182" y2="2530.571">
						<stop  offset="0" style="stop-color:#AA80F9"/>
						<stop  offset="0.9964" style="stop-color:#6165D7"/>
					</linearGradient>
					<path style="fill:url(#SVGID_00000155831969307644073630000011185086894476786366_);" d="M1944.188,2672.092l-17.081-86.165
						l3.669-0.885c47.803-11.524,96.091-19.713,143.459-24.387c46.749-4.613,93.364-5.877,138.511-3.831l3.417,0.156l-10.822,85.81
						l-3.39-0.106c-40.83-1.284-82.926,0.409-125.088,5.084c-42.664,4.731-86.105,12.594-129.063,23.414L1944.188,2672.092z
						 M1935.846,2591.284l14.198,72.054c42.169-10.416,84.76-18.005,126.607-22.604c41.363-4.546,82.661-6.243,122.776-5.1
						l9.01-71.881c-43.723-1.767-88.796-0.414-133.985,4.09C2028.684,2572.405,1982.051,2580.274,1935.846,2591.284z"/>
				</g>
			</g>
		</g>
	</g>
</g>
</svg>
